<?xml version="1.0" encoding="UTF-8"?>
<svg id="Layer_2" data-name="Layer 2" xmlns="http://www.w3.org/2000/svg" viewBox="0 0 576 241.09" xmlns:c2pa="http://c2pa.org/manifest"><metadata><c2pa:manifest>AABdzWp1bWIAAAAeanVtZGMycGEAEQAQgAAAqgA4m3EDYzJwYQAAAA6CanVtYgAAAEdqdW1kYzJtYQARABCAAACqADibcQN1cm46YzJwYToxMjY4YWE0Zi0wNmJkLTRkOGItODhhYi1mMmFiOWU2MzIxZGEAAAADs2p1bWIAAAApanVtZGMyYXMAEQAQgAAAqgA4m3EDYzJwYS5hc3NlcnRpb25zAAAAAMlqdW1iAAAARGp1bWRjYm9yABEAEIAAAKoAOJtxE2MycGEuaW5ncmVkaWVudC52MwAAAAAYYzJzaCpuhQx21hXV9OkISkkYw0wAAAB9Y2JvcqRscmVsYXRpb25zaGlwaHBhcmVudE9maGRjOnRpdGxlZnNvdXJjZWlkYzpmb3JtYXRqaW1hZ2Uvd2VicGppbnN0YW5jZUlEeCx4bXA6aWlkOjRkYjUzZjljLTQ3MGItNDViZS1hN2I3LWRjYjU2NWM1ZTQyMAAAAfVqdW1iAAAAQWp1bWRjYm9yABEAEIAAAKoAOJtxE2MycGEuYWN0aW9ucy52MgAAAAAYYzJzaNkxi+edvGfk1kGufjt6ORsAAAGsY2JvcqFnYWN0aW9uc4KiZmFjdGlvbmtjMnBhLm9wZW5lZGpwYXJhbWV0ZXJzoWtpbmdyZWRpZW50c4GiY3VybHgtc2VsZiNqdW1iZj1jMnBhLmFzc2VydGlvbnMvYzJwYS5pbmdyZWRpZW50LnYzZGhhc2hYINwgro5+d35oF8PcGCfXm9m6oegUr/8/9QjjKTtsKW8CpGZhY3Rpb25rYzJwYS5lZGl0ZWRqcGFyYW1ldGVyc6FraW5ncmVkaWVudHOBomN1cmx4LXNlbGYjanVtYmY9YzJwYS5hc3NlcnRpb25zL2MycGEuaW5ncmVkaWVudC52M2RoYXNoWCDcIK6Ofnd+aBfD3Bgn15vZuqHoFK//P/UI4yk7bClvAnFkaWdpdGFsU291cmNlVHlwZXhTaHR0cDovL2N2LmlwdGMub3JnL25ld3Njb2Rlcy9kaWdpdGFsc291cmNldHlwZS9jb21wb3NpdGVXaXRoVHJhaW5lZEFsZ29yaXRobWljTWVkaWFrZGVzY3JpcHRpb252Q3JlYXRlZCBieSBSZWNyYWZ0IEFJLgAAAMRqdW1iAAAAQGp1bWRjYm9yABEAEIAAAKoAOJtxE2MycGEuaGFzaC5kYXRhAAAAABhjMnNoSMb2zasNyJlXO5qmSoSkAgAAAHxjYm9ypWpleGNsdXNpb25zgaJlc3RhcnQY22ZsZW5ndGgZE4xkbmFtZW5qdW1iZiBtYW5pZmVzdGNhbGdmc2hhMjU2ZGhhc2hYIPpwLatdugcSnD/L1St+FaaxwzIzfigYbD/sKDqFxzDQY3BhZEkAAAAAAAAAAAAAAAKkanVtYgAAACdqdW1kYzJjbAARABCAAACqADibcQNjMnBhLmNsYWltLnYyAAAAAnVjYm9yp2ppbnN0YW5jZUlEeCx4bXA6aWlkOjRhYjFhMWZiLTc0YzktNDdlNy1iMjk4LWZhYzg3MWJlNjczYXRjbGFpbV9nZW5lcmF0b3JfaW5mb6NkbmFtZWpyZWNyYWZ0LmFpZ3ZlcnNpb254KDgxY2U4MmUyYzVjM2NiZmJlOGM2ZmJlMTc5ZDVmOGQ5MWM0MDljZTF3b3JnLmNvbnRlbnRhdXRoLmMycGFfcnNmMC45MC43aXNpZ25hdHVyZXhNc2VsZiNqdW1iZj0vYzJwYS91cm46YzJwYToxMjY4YWE0Zi0wNmJkLTRkOGItODhhYi1mMmFiOWU2MzIxZGEvYzJwYS5zaWduYXR1cmVyY3JlYXRlZF9hc3NlcnRpb25zgqJjdXJseCpzZWxmI2p1bWJmPWMycGEuYXNzZXJ0aW9ucy9jMnBhLmFjdGlvbnMudjJkaGFzaFggVUlfKQ2i2ESoBhVLzWAWEOY88eCYUIxwWq2X9aDkQJGiY3VybHgpc2VsZiNqdW1iZj1jMnBhLmFzc2VydGlvbnMvYzJwYS5oYXNoLmRhdGFkaGFzaFggx+MKSccSoJYnUdWMSnMmJNR8LF5c5x3+a2NEnA5gfJpzZ2F0aGVyZWRfYXNzZXJ0aW9uc4GiY3VybHgtc2VsZiNqdW1iZj1jMnBhLmFzc2VydGlvbnMvYzJwYS5pbmdyZWRpZW50LnYzZGhhc2hYINwgro5+d35oF8PcGCfXm9m6oegUr/8/9QjjKTtsKW8CaGRjOnRpdGxleBpSZWNyYWZ0IEFJIEdlbmVyYXRlZCBJbWFnZWNhbGdmc2hhMjU2AAAH3Gp1bWIAAAAoanVtZGMyY3MAEQAQgAAAqgA4m3EDYzJwYS5zaWduYXR1cmUAAAAHrGNib3LShFkDsKIBJhghglkB5zCCAeMwggGJoAMCAQICCQC33lpjQ1FuejAKBggqhkjOPQQDAjBAMR8wHQYDVQQDDBZSZWNyYWZ0IFN0YWdpbmcgRGV2IENBMRAwDgYDVQQKDAdSZWNyYWZ0MQswCQYDVQQGEwJVUzAeFw0yNjA2MTIxOTQzNTBaFw0yNzA2MTIxOTQzNTBaMDcxCzAJBgNVBAYTAlVTMRMwEQYDVQQKEwpSZWNyYWZ0IEFJMRMwEQYDVQQDEwpyZWNyYWZ0LmFpMFkwEwYHKoZIzj0CAQYIKoZIzj0DAQcDQgAESmk1WwArIPw3hty3jsWHSA/1QOhBRu9xOjpJ2/iiIghScoEVM+Lnjds/7dqmG+giFL0vEb4DoogpX6KrGLcPNaN1MHMwDAYDVR0TAQH/BAIwADAOBgNVHQ8BAf8EBAMCBsAwEwYDVR0lBAwwCgYIKwYBBQUHAwQwHQYDVR0OBBYEFC8x6QXp/eki9cuCDx2vDJDLIV39MB8GA1UdIwQYMBaAFAILKjgayqqXSv/5v5MWaO2UeHm3MAoGCCqGSM49BAMCA0gAMEUCIFPISltGl775PEkIFRTZGsevWJvWnvBrE9kWU0MPgedQAiEAtA+AZBKEQ+DdK9mUZDctB2Wlt1iAsv0GRjfeYpReMsxZAb0wggG5MIIBX6ADAgECAgkAnPloO0+gE28wCgYIKoZIzj0EAwIwQDEfMB0GA1UEAwwWUmVjcmFmdCBTdGFnaW5nIERldiBDQTEQMA4GA1UECgwHUmVjcmFmdDELMAkGA1UEBhMCVVMwHhcNMjYwNjEyMTk0MDE2WhcNMjgwNjExMTk0MDE2WjBAMR8wHQYDVQQDDBZSZWNyYWZ0IFN0YWdpbmcgRGV2IENBMRAwDgYDVQQKDAdSZWNyYWZ0MQswCQYDVQQGEwJVUzBZMBMGByqGSM49AgEGCCqGSM49AwEHA0IABEPSEAZXFWymij2K0EnzoS/9NLO8VAwu0YpyLizvyNZPfcvcoeqFhfZD8Wj/rcdb9T3ji98q1arie99B9GRog8qjQjBAMA8GA1UdEwEB/wQFMAMBAf8wDgYDVR0PAQH/BAQDAgGGMB0GA1UdDgQWBBQCCyo4Gsqql0r/+b+TFmjtlHh5tzAKBggqhkjOPQQDAgNIADBFAiBUMDSJi5WA3kIY4BfmYqk24HLs0qpjicN0NpUP4bvNxQIhAPTvHC5v8X6FS6geI7XW7h84t1i/qdkTfg0RpMKWLMFboWNwYWRZA6QAAAAAAAAAAAAAAAAAAAAAAAAAAAAAAAAAAAAAAAAAAAAAAAAAAAAAAAAAAAAAAAAAAAAAAAAAAAAAAAAAAAAAAAAAAAAAAAAAAAAAAAAAAAAAAAAAAAAAAAAAAAAAAAAAAAAAAAAAAAAAAAAAAAAAAAAAAAAAAAAAAAAAAAAAAAAAAAAAAAAAAAAAAAAAAAAAAAAAAAAAAAAAAAAAAAAAAAAAAAAAAAAAAAAAAAAAAAAAAAAAAAAAAAAAAAAAAAAAAAAAAAAAAAAAAAAAAAAAAAAAAAAAAAAAAAAAAAAAAAAAAAAAAAAAAAAAAAAAAAAAAAAAAAAAAAAAAAAAAAAAAAAAAAAAAAAAAAAAAAAAAAAAAAAAAAAAAAAAAAAAAAAAAAAAAAAAAAAAAAAAAAAAAAAAAAAAAAAAAAAAAAAAAAAAAAAAAAAAAAAAAAAAAAAAAAAAAAAAAAAAAAAAAAAAAAAAAAAAAAAAAAAAAAAAAAAAAAAAAAAAAAAAAAAAAAAAAAAAAAAAAAAAAAAAAAAAAAAAAAAAAAAAAAAAAAAAAAAAAAAAAAAAAAAAAAAAAAAAAAAAAAAAAAAAAAAAAAAAAAAAAAAAAAAAAAAAAAAAAAAAAAAAAAAAAAAAAAAAAAAAAAAAAAAAAAAAAAAAAAAAAAAAAAAAAAAAAAAAAAAAAAAAAAAAAAAAAAAAAAAAAAAAAAAAAAAAAAAAAAAAAAAAAAAAAAAAAAAAAAAAAAAAAAAAAAAAAAAAAAAAAAAAAAAAAAAAAAAAAAAAAAAAAAAAAAAAAAAAAAAAAAAAAAAAAAAAAAAAAAAAAAAAAAAAAAAAAAAAAAAAAAAAAAAAAAAAAAAAAAAAAAAAAAAAAAAAAAAAAAAAAAAAAAAAAAAAAAAAAAAAAAAAAAAAAAAAAAAAAAAAAAAAAAAAAAAAAAAAAAAAAAAAAAAAAAAAAAAAAAAAAAAAAAAAAAAAAAAAAAAAAAAAAAAAAAAAAAAAAAAAAAAAAAAAAAAAAAAAAAAAAAAAAAAAAAAAAAAAAAAAAAAAAAAAAAAAAAAAAAAAAAAAAAAAAAAAAAAAAAAAAAAAAAAAAAAAAAAAAAAAAAAAAAAAAAAAAAAAAAAAAAAAAAAAAAAAAAAAAAAAAAAAAAAAAAAAAAAAAAAAAAAAAAAAAAAAAAAAAAAAAAAAAAAAAAAAAAAAAAAAAAAAAAAAAAAAAAAAAAAAAAAAAAAAAAAAAAAAAAAAAPZYQKiUdvwC6PC6mAbwyHWRjPc77j6oDYAUAnQicWm8Cax5VzpCyQkJ7FLtmmjqvQLkNDNkLcaS2kQ6seZcjIDRtOAAABY5anVtYgAAAEdqdW1kYzJtYQARABCAAACqADibcQN1cm46YzJwYToyOTZmZDVhZi1kM2VhLTQ3NzktOWQ1OS1jOGNlYTE2MTM5NDQAAAALeGp1bWIAAAApanVtZGMyYXMAEQAQgAAAqgA4m3EDYzJwYS5hc3NlcnRpb25zAAAACJVqdW1iAAAARGp1bWRjYm9yABEAEIAAAKoAOJtxE2MycGEuaW5ncmVkaWVudC52MwAAAAAYYzJzaF035cjvbVCm/ZUI4W/DLt8AAAhJY2JvcqdscmVsYXRpb25zaGlwaHBhcmVudE9maGRjOnRpdGxlZnNvdXJjZWlkYzpmb3JtYXRtaW1hZ2Uvc3ZnK3htbHF2YWxpZGF0aW9uUmVzdWx0c6JuYWN0aXZlTWFuaWZlc3SjZ3N1Y2Nlc3OGo2Rjb2RleB1jbGFpbVNpZ25hdHVyZS5pbnNpZGVWYWxpZGl0eWN1cmx4TXNlbGYjanVtYmY9L2MycGEvdXJuOmMycGE6MTI2OGFhNGYtMDZiZC00ZDhiLTg4YWItZjJhYjllNjMyMWRhL2MycGEuc2lnbmF0dXJla2V4cGxhbmF0aW9udWNsYWltIHNpZ25hdHVyZSB2YWxpZKNkY29kZXgYY2xhaW1TaWduYXR1cmUudmFsaWRhdGVkY3VybHhNc2VsZiNqdW1iZj0vYzJwYS91cm46YzJwYToxMjY4YWE0Zi0wNmJkLTRkOGItODhhYi1mMmFiOWU2MzIxZGEvYzJwYS5zaWduYXR1cmVrZXhwbGFuYXRpb251Y2xhaW0gc2lnbmF0dXJlIHZhbGlko2Rjb2RleBlhc3NlcnRpb24uaGFzaGVkVVJJLm1hdGNoY3VybHhec2VsZiNqdW1iZj0vYzJwYS91cm46YzJwYToxMjY4YWE0Zi0wNmJkLTRkOGItODhhYi1mMmFiOWU2MzIxZGEvYzJwYS5hc3NlcnRpb25zL2MycGEuYWN0aW9ucy52MmtleHBsYW5hdGlvbng+aGFzaGVkIHVyaSBtYXRjaGVkOiBzZWxmI2p1bWJmPWMycGEuYXNzZXJ0aW9ucy9jMnBhLmFjdGlvbnMudjKjZGNvZGV4GWFzc2VydGlvbi5oYXNoZWRVUkkubWF0Y2hjdXJseF1zZWxmI2p1bWJmPS9jMnBhL3VybjpjMnBhOjEyNjhhYTRmLTA2YmQtNGQ4Yi04OGFiLWYyYWI5ZTYzMjFkYS9jMnBhLmFzc2VydGlvbnMvYzJwYS5oYXNoLmRhdGFrZXhwbGFuYXRpb254PWhhc2hlZCB1cmkgbWF0Y2hlZDogc2VsZiNqdW1iZj1jMnBhLmFzc2VydGlvbnMvYzJwYS5oYXNoLmRhdGGjZGNvZGV4GWFzc2VydGlvbi5oYXNoZWRVUkkubWF0Y2hjdXJseGFzZWxmI2p1bWJmPS9jMnBhL3VybjpjMnBhOjEyNjhhYTRmLTA2YmQtNGQ4Yi04OGFiLWYyYWI5ZTYzMjFkYS9jMnBhLmFzc2VydGlvbnMvYzJwYS5pbmdyZWRpZW50LnYza2V4cGxhbmF0aW9ueEFoYXNoZWQgdXJpIG1hdGNoZWQ6IHNlbGYjanVtYmY9YzJwYS5hc3NlcnRpb25zL2MycGEuaW5ncmVkaWVudC52M6NkY29kZXgYYXNzZXJ0aW9uLmRhdGFIYXNoLm1hdGNoY3VybHhdc2VsZiNqdW1iZj0vYzJwYS91cm46YzJwYToxMjY4YWE0Zi0wNmJkLTRkOGItODhhYi1mMmFiOWU2MzIxZGEvYzJwYS5hc3NlcnRpb25zL2MycGEuaGFzaC5kYXRha2V4cGxhbmF0aW9ub2RhdGEgaGFzaCB2YWxpZG1pbmZvcm1hdGlvbmFsgGdmYWlsdXJlgaNkY29kZXgbc2lnbmluZ0NyZWRlbnRpYWwudW50cnVzdGVkY3VybHhNc2VsZiNqdW1iZj0vYzJwYS91cm46YzJwYToxMjY4YWE0Zi0wNmJkLTRkOGItODhhYi1mMmFiOWU2MzIxZGEvYzJwYS5zaWduYXR1cmVrZXhwbGFuYXRpb254HXNpZ25pbmcgY2VydGlmaWNhdGUgdW50cnVzdGVkcGluZ3JlZGllbnREZWx0YXOBonZpbmdyZWRpZW50QXNzZXJ0aW9uVVJJeGFzZWxmI2p1bWJmPS9jMnBhL3VybjpjMnBhOjEyNjhhYTRmLTA2YmQtNGQ4Yi04OGFiLWYyYWI5ZTYzMjFkYS9jMnBhLmFzc2VydGlvbnMvYzJwYS5pbmdyZWRpZW50LnYzcHZhbGlkYXRpb25EZWx0YXOjZ3N1Y2Nlc3OAbWluZm9ybWF0aW9uYWyBo2Rjb2RleBxpbmdyZWRpZW50LnVua25vd25Qcm92ZW5hbmNlY3VybHhhc2VsZiNqdW1iZj0vYzJwYS91cm46YzJwYToxMjY4YWE0Zi0wNmJkLTRkOGItODhhYi1mMmFiOWU2MzIxZGEvYzJwYS5hc3NlcnRpb25zL2MycGEuaW5ncmVkaWVudC52M2tleHBsYW5hdGlvbngrc291cmNlOiBpbmdyZWRpZW50IGRvZXMgbm90IGhhdmUgcHJvdmVuYW5jZWdmYWlsdXJlgGppbnN0YW5jZUlEeCx4bXA6aWlkOmIxNjc2MjAxLWI5M2UtNDEzZS1iMTY4LTZkMDdjNTMwYjI4OW5hY3RpdmVNYW5pZmVzdKNjdXJseD5zZWxmI2p1bWJmPS9jMnBhL3VybjpjMnBhOjEyNjhhYTRmLTA2YmQtNGQ4Yi04OGFiLWYyYWI5ZTYzMjFkYWNhbGdmc2hhMjU2ZGhhc2hYIB64XH2cKy/ewTyjl55G5ImJ82G5pRh3VTQACczrseyTbmNsYWltU2lnbmF0dXJlo2N1cmx4TXNlbGYjanVtYmY9L2MycGEvdXJuOmMycGE6MTI2OGFhNGYtMDZiZC00ZDhiLTg4YWItZjJhYjllNjMyMWRhL2MycGEuc2lnbmF0dXJlY2FsZ2ZzaGEyNTZkaGFzaFggAhvOAHoMu3N28oYzoxZDDAJpK16Z5tcD105lI/R/wNEAAAHuanVtYgAAAEFqdW1kY2JvcgARABCAAACqADibcRNjMnBhLmFjdGlvbnMudjIAAAAAGGMyc2irbZw55l6jimy3T0qgGCM+AAABpWNib3KhZ2FjdGlvbnOComZhY3Rpb25rYzJwYS5vcGVuZWRqcGFyYW1ldGVyc6FraW5ncmVkaWVudHOBomN1cmx4LXNlbGYjanVtYmY9YzJwYS5hc3NlcnRpb25zL2MycGEuaW5ncmVkaWVudC52M2RoYXNoWCCf9elTjcP6UYkmfJwDLhTtk8TMYqU1PDzvUyPTXJHkLKRmYWN0aW9ubGMycGEuY3JlYXRlZGpwYXJhbWV0ZXJzoWtpbmdyZWRpZW50c4GiY3VybHgtc2VsZiNqdW1iZj1jMnBhLmFzc2VydGlvbnMvYzJwYS5pbmdyZWRpZW50LnYzZGhhc2hYIJ/16VONw/pRiSZ8nAMuFO2TxMxipTU8PO9TI9NckeQscWRpZ2l0YWxTb3VyY2VUeXBleEFodHRwOi8vY3YuaXB0Yy5vcmcvbmV3c2NvZGVzL2RpZ2l0YWxzb3VyY2V0eXBlL2NvbXBvc2l0ZVN5bnRoZXRpY2tkZXNjcmlwdGlvbngfQ29tcG9zZWQgaW4gdGhlIFJlY3JhZnQgZWRpdG9yLgAAAMRqdW1iAAAAQGp1bWRjYm9yABEAEIAAAKoAOJtxE2MycGEuaGFzaC5kYXRhAAAAABhjMnNo/+/TrExhgjk31MvZdwOD7wAAAHxjYm9ypWpleGNsdXNpb25zgaJlc3RhcnQY7GZsZW5ndGgZMSxkbmFtZW5qdW1iZiBtYW5pZmVzdGNhbGdmc2hhMjU2ZGhhc2hYIJnmxcxx6PsUi47kD5YARuIU8fl9/cZvkORzZtFmAbHEY3BhZEkAAAAAAAAAAAAAAAKWanVtYgAAACdqdW1kYzJjbAARABCAAACqADibcQNjMnBhLmNsYWltLnYyAAAAAmdjYm9yp2ppbnN0YW5jZUlEeCx4bXA6aWlkOmZiYmQxMWQxLTZkN2QtNDkxNC1iYzcyLWJlNjQyOWZhZWU5NXRjbGFpbV9nZW5lcmF0b3JfaW5mb6NkbmFtZWpyZWNyYWZ0LmFpZ3ZlcnNpb254KDgxY2U4MmUyYzVjM2NiZmJlOGM2ZmJlMTc5ZDVmOGQ5MWM0MDljZTF3b3JnLmNvbnRlbnRhdXRoLmMycGFfcnNmMC45MC43aXNpZ25hdHVyZXhNc2VsZiNqdW1iZj0vYzJwYS91cm46YzJwYToyOTZmZDVhZi1kM2VhLTQ3NzktOWQ1OS1jOGNlYTE2MTM5NDQvYzJwYS5zaWduYXR1cmVyY3JlYXRlZF9hc3NlcnRpb25zgqJjdXJseCpzZWxmI2p1bWJmPWMycGEuYXNzZXJ0aW9ucy9jMnBhLmFjdGlvbnMudjJkaGFzaFggQASrcXoMZQAmbCcg+sNYhLAMLDcL7eLkReGMb2oTVSaiY3VybHgpc2VsZiNqdW1iZj1jMnBhLmFzc2VydGlvbnMvYzJwYS5oYXNoLmRhdGFkaGFzaFggKKdRJQ/GJGTux4AqNeYmC5Sski+BGW5g6uMsEvYUGbhzZ2F0aGVyZWRfYXNzZXJ0aW9uc4GiY3VybHgtc2VsZiNqdW1iZj1jMnBhLmFzc2VydGlvbnMvYzJwYS5pbmdyZWRpZW50LnYzZGhhc2hYIJ/16VONw/pRiSZ8nAMuFO2TxMxipTU8PO9TI9NckeQsaGRjOnRpdGxlbVJlY3JhZnQgSW1hZ2VjYWxnZnNoYTI1NgAAB9xqdW1iAAAAKGp1bWRjMmNzABEAEIAAAKoAOJtxA2MycGEuc2lnbmF0dXJlAAAAB6xjYm9y0oRZA7CiASYYIYJZAecwggHjMIIBiaADAgECAgkAt95aY0NRbnowCgYIKoZIzj0EAwIwQDEfMB0GA1UEAwwWUmVjcmFmdCBTdGFnaW5nIERldiBDQTEQMA4GA1UECgwHUmVjcmFmdDELMAkGA1UEBhMCVVMwHhcNMjYwNjEyMTk0MzUwWhcNMjcwNjEyMTk0MzUwWjA3MQswCQYDVQQGEwJVUzETMBEGA1UEChMKUmVjcmFmdCBBSTETMBEGA1UEAxMKcmVjcmFmdC5haTBZMBMGByqGSM49AgEGCCqGSM49AwEHA0IABEppNVsAKyD8N4bct47Fh0gP9UDoQUbvcTo6Sdv4oiIIUnKBFTPi543bP+3aphvoIhS9LxG+A6KIKV+iqxi3DzWjdTBzMAwGA1UdEwEB/wQCMAAwDgYDVR0PAQH/BAQDAgbAMBMGA1UdJQQMMAoGCCsGAQUFBwMEMB0GA1UdDgQWBBQvMekF6f3pIvXLgg8drwyQyyFd/TAfBgNVHSMEGDAWgBQCCyo4Gsqql0r/+b+TFmjtlHh5tzAKBggqhkjOPQQDAgNIADBFAiBTyEpbRpe++TxJCBUU2RrHr1ib1p7waxPZFlNDD4HnUAIhALQPgGQShEPg3SvZlGQ3LQdlpbdYgLL9BkY33mKUXjLMWQG9MIIBuTCCAV+gAwIBAgIJAJz5aDtPoBNvMAoGCCqGSM49BAMCMEAxHzAdBgNVBAMMFlJlY3JhZnQgU3RhZ2luZyBEZXYgQ0ExEDAOBgNVBAoMB1JlY3JhZnQxCzAJBgNVBAYTAlVTMB4XDTI2MDYxMjE5NDAxNloXDTI4MDYxMTE5NDAxNlowQDEfMB0GA1UEAwwWUmVjcmFmdCBTdGFnaW5nIERldiBDQTEQMA4GA1UECgwHUmVjcmFmdDELMAkGA1UEBhMCVVMwWTATBgcqhkjOPQIBBggqhkjOPQMBBwNCAARD0hAGVxVspoo9itBJ86Ev/TSzvFQMLtGKci4s78jWT33L3KHqhYX2Q/Fo/63HW/U944vfKtWq4nvfQfRkaIPKo0IwQDAPBgNVHRMBAf8EBTADAQH/MA4GA1UdDwEB/wQEAwIBhjAdBgNVHQ4EFgQUAgsqOBrKqpdK//m/kxZo7ZR4ebcwCgYIKoZIzj0EAwIDSAAwRQIgVDA0iYuVgN5CGOAX5mKpNuBy7NKqY4nDdDaVD+G7zcUCIQD07xwub/F+hUuoHiO11u4fOLdYv6nZE34NEaTClizBW6FjcGFkWQOkAAAAAAAAAAAAAAAAAAAAAAAAAAAAAAAAAAAAAAAAAAAAAAAAAAAAAAAAAAAAAAAAAAAAAAAAAAAAAAAAAAAAAAAAAAAAAAAAAAAAAAAAAAAAAAAAAAAAAAAAAAAAAAAAAAAAAAAAAAAAAAAAAAAAAAAAAAAAAAAAAAAAAAAAAAAAAAAAAAAAAAAAAAAAAAAAAAAAAAAAAAAAAAAAAAAAAAAAAAAAAAAAAAAAAAAAAAAAAAAAAAAAAAAAAAAAAAAAAAAAAAAAAAAAAAAAAAAAAAAAAAAAAAAAAAAAAAAAAAAAAAAAAAAAAAAAAAAAAAAAAAAAAAAAAAAAAAAAAAAAAAAAAAAAAAAAAAAAAAAAAAAAAAAAAAAAAAAAAAAAAAAAAAAAAAAAAAAAAAAAAAAAAAAAAAAAAAAAAAAAAAAAAAAAAAAAAAAAAAAAAAAAAAAAAAAAAAAAAAAAAAAAAAAAAAAAAAAAAAAAAAAAAAAAAAAAAAAAAAAAAAAAAAAAAAAAAAAAAAAAAAAAAAAAAAAAAAAAAAAAAAAAAAAAAAAAAAAAAAAAAAAAAAAAAAAAAAAAAAAAAAAAAAAAAAAAAAAAAAAAAAAAAAAAAAAAAAAAAAAAAAAAAAAAAAAAAAAAAAAAAAAAAAAAAAAAAAAAAAAAAAAAAAAAAAAAAAAAAAAAAAAAAAAAAAAAAAAAAAAAAAAAAAAAAAAAAAAAAAAAAAAAAAAAAAAAAAAAAAAAAAAAAAAAAAAAAAAAAAAAAAAAAAAAAAAAAAAAAAAAAAAAAAAAAAAAAAAAAAAAAAAAAAAAAAAAAAAAAAAAAAAAAAAAAAAAAAAAAAAAAAAAAAAAAAAAAAAAAAAAAAAAAAAAAAAAAAAAAAAAAAAAAAAAAAAAAAAAAAAAAAAAAAAAAAAAAAAAAAAAAAAAAAAAAAAAAAAAAAAAAAAAAAAAAAAAAAAAAAAAAAAAAAAAAAAAAAAAAAAAAAAAAAAAAAAAAAAAAAAAAAAAAAAAAAAAAAAAAAAAAAAAAAAAAAAAAAAAAAAAAAAAAAAAAAAAAAAAAAAAAAAAAAAAAAAAAAAAAAAAAAAAAAAAAAAAAAAAAAAAAAAAAAAAAAAAAAAAAAAAAAAAAAAAAAAAAAAAAAAAAAAAAAAAAAAAAAAAAAAAAAAAAAAAAAAAAAAAAAAAAAAAAAAAAAAAAAAAAAAAAAAAAAAAAAAAAAAAAAAAAAAAAAAAAAAAAAAAAAAAAAD2WEChFUpNJ+CYzAF3VIhIrBaSSGpJeOSewSpTmBnOqxl46Jce6d3MnA6p5vQkQAT1+b1eJ+BN+UzWma2Rz9YWr3HGAAA47Gp1bWIAAABHanVtZGMybWEAEQAQgAAAqgA4m3EDdXJuOmMycGE6OGEyMjAwZDAtYjhkZC00Y2E5LWEyOGItYjBhZGFiZTEzMWQzAAAABixqdW1iAAAAKWp1bWRjMmFzABEAEIAAAKoAOJtxA2MycGEuYXNzZXJ0aW9ucwAAAAJAanVtYgAAAERqdW1kY2JvcgARABCAAACqADibcRNjMnBhLmluZ3JlZGllbnQudjMAAAAAGGMyc2jbLQWm+p6AnstimyTqxnEfAAAB9GNib3KnbHJlbGF0aW9uc2hpcGtjb21wb25lbnRPZmhkYzp0aXRsZXdBSSBHZW5lcmF0ZWQgSW5ncmVkaWVudGlkYzpmb3JtYXRtaW1hZ2Uvc3ZnK3htbHF2YWxpZGF0aW9uUmVzdWx0c6FuYWN0aXZlTWFuaWZlc3SjZ3N1Y2Nlc3OAbWluZm9ybWF0aW9uYWyAZ2ZhaWx1cmWAamluc3RhbmNlSUR4LXVybjp1dWlkOjRjYTQ2OWE3LTVkZDMtNDIzZi1hNjNlLTdiMDIxYzJmYzIyNG5hY3RpdmVNYW5pZmVzdKNjdXJseD5zZWxmI2p1bWJmPS9jMnBhL3VybjpjMnBhOjI5NmZkNWFmLWQzZWEtNDc3OS05ZDU5LWM4Y2VhMTYxMzk0NGNhbGdmc2hhMjU2ZGhhc2hYIEyN4ifh6hq/+8lfo4+G2ppf5PYCCx5xkwz06JLQ/07JbmNsYWltU2lnbmF0dXJlo2N1cmx4TXNlbGYjanVtYmY9L2MycGEvdXJuOmMycGE6Mjk2ZmQ1YWYtZDNlYS00Nzc5LTlkNTktYzhjZWExNjEzOTQ0L2MycGEuc2lnbmF0dXJlY2FsZ2ZzaGEyNTZkaGFzaFggIsKUOYD4j/Nqf+8o2zb7LT11RziqFDRjDUEnHdxC9OgAAAL3anVtYgAAAEFqdW1kY2JvcgARABCAAACqADibcRNjMnBhLmFjdGlvbnMudjIAAAAAGGMyc2i/GtH8PkUoFXIR54mP5vABAAACrmNib3KiZ2FjdGlvbnOCo2ZhY3Rpb25sYzJwYS5jcmVhdGVkanBhcmFtZXRlcnOheBtjb20uYWRvYmUuZGlnaXRhbFNvdXJjZVR5cGV4Rmh0dHA6Ly9jdi5pcHRjLm9yZy9uZXdzY29kZXMvZGlnaXRhbHNvdXJjZXR5cGUvdHJhaW5lZEFsZ29yaXRobWljTWVkaWFxZGlnaXRhbFNvdXJjZVR5cGV4Rmh0dHA6Ly9jdi5pcHRjLm9yZy9uZXdzY29kZXMvZGlnaXRhbHNvdXJjZXR5cGUvdHJhaW5lZEFsZ29yaXRobWljTWVkaWGkZmFjdGlvbmtjMnBhLnBsYWNlZGR3aGVuwHQyMDI2LTA5LTA1VDE4OjU0OjEzWmpwYXJhbWV0ZXJzomtpbmdyZWRpZW50c4GiY3VybHgtc2VsZiNqdW1iZj1jMnBhLmFzc2VydGlvbnMvYzJwYS5pbmdyZWRpZW50LnYzZGhhc2hYIMVPucvAOmoBhAt3ZTiDaPd7wjkRoUg5zM8zPswLBDt/eBtjb20uYWRvYmUuZGlnaXRhbFNvdXJjZVR5cGV4U2h0dHA6Ly9jdi5pcHRjLm9yZy9uZXdzY29kZXMvZGlnaXRhbHNvdXJjZXR5cGUvY29tcG9zaXRlV2l0aFRyYWluZWRBbGdvcml0aG1pY01lZGlhcWRpZ2l0YWxTb3VyY2VUeXBleFNodHRwOi8vY3YuaXB0Yy5vcmcvbmV3c2NvZGVzL2RpZ2l0YWxzb3VyY2V0eXBlL2NvbXBvc2l0ZVdpdGhUcmFpbmVkQWxnb3JpdGhtaWNNZWRpYWl0ZW1wbGF0ZXOBomZhY3Rpb25hKnJ0ZW1wbGF0ZVBhcmFtZXRlcnOhdWNvbS5hZG9iZS5hcHBFbmZvcmNlZPUAAADEanVtYgAAAEBqdW1kY2JvcgARABCAAACqADibcRNjMnBhLmhhc2guZGF0YQAAAAAYYzJzaIuCnObPsbKi9HG3ihI9x9wAAAB8Y2JvcqVqZXhjbHVzaW9uc4GiZXN0YXJ0GMhmbGVuZ3RoGX0UZG5hbWVuanVtYmYgbWFuaWZlc3RjYWxnZnNoYTI1NmRoYXNoWCACuc3DUUuq4ijDXC3P5TEP08vSA9DWGnuiW2IufMuPZWNwYWRJAAAAAAAAAAAAAAACYWp1bWIAAAAnanVtZGMyY2wAEQAQgAAAqgA4m3EDYzJwYS5jbGFpbS52MgAAAAIyY2JvcqZqaW5zdGFuY2VJRHgseG1wOmlpZDpkMzc2MDQ1My04NDNkLTQ1NDMtYWNjMS1lMzMxOTkwNWExNWJ0Y2xhaW1fZ2VuZXJhdG9yX2luZm+jZG5hbWVxQWRvYmUgSWxsdXN0cmF0b3JndmVyc2lvbmQzMC44d29yZy5jb250ZW50YXV0aC5jMnBhX3JzZjAuODYuMWlzaWduYXR1cmV4TXNlbGYjanVtYmY9L2MycGEvdXJuOmMycGE6OGEyMjAwZDAtYjhkZC00Y2E5LWEyOGItYjBhZGFiZTEzMWQzL2MycGEuc2lnbmF0dXJlcmNyZWF0ZWRfYXNzZXJ0aW9uc4GiY3VybHgpc2VsZiNqdW1iZj1jMnBhLmFzc2VydGlvbnMvYzJwYS5oYXNoLmRhdGFkaGFzaFggZGvnVD+/10AGND+Tla/L0tcBBLLA00CKlFP932eduLxzZ2F0aGVyZWRfYXNzZXJ0aW9uc4KiY3VybHgtc2VsZiNqdW1iZj1jMnBhLmFzc2VydGlvbnMvYzJwYS5pbmdyZWRpZW50LnYzZGhhc2hYIMVPucvAOmoBhAt3ZTiDaPd7wjkRoUg5zM8zPswLBDt/omN1cmx4KnNlbGYjanVtYmY9YzJwYS5hc3NlcnRpb25zL2MycGEuYWN0aW9ucy52MmRoYXNoWCBd3480MlgBwlh9+iaeBdGKhjjXva0kxHkitp2ceax1+WNhbGdmc2hhMjU2AAAwEGp1bWIAAAAoanVtZGMyY3MAEQAQgAAAqgA4m3EDYzJwYS5zaWduYXR1cmUAAAAv4GNib3LShFkNG6IBOCQYIYJZBqcwggajMIIEi6ADAgECAhQOavwUoPMpeGb9dCZGwIIvqmrW6zANBgkqhkiG9w0BAQsFADB1MQswCQYDVQQGEwJVUzEjMCEGA1UEChMaQWRvYmUgU3lzdGVtcyBJbmNvcnBvcmF0ZWQxHTAbBgNVBAsTFEFkb2JlIFRydXN0IFNlcnZpY2VzMSIwIAYDVQQDExlBZG9iZSBQcm9kdWN0IFNlcnZpY2VzIEc0MB4XDTI2MDgyMDE2MzQxNloXDTI3MDgyMDE2MzQxNlowgbIxGjAYBgNVBAMMEUFkb2JlIElsbHVzdHJhdG9yMSgwJgYDVQQLDB9Db250ZW50IEF1dGhlbnRpY2l0eSBJbml0aWF0aXZlMRMwEQYDVQQKDApBZG9iZSBJbmMuMREwDwYDVQQHDAhTYW4gSm9zZTETMBEGA1UECAwKQ2FsaWZvcm5pYTELMAkGA1UEBhMCVVMxIDAeBgkqhkiG9w0BCQEWEWNhaS1vcHNAYWRvYmUuY29tMIIBIjANBgkqhkiG9w0BAQEFAAOCAQ8AMIIBCgKCAQEA2iSJJWOOlXxpFY0q76twAsM7NQZ9BnhMCIOB0Aab3B4cd3tathmBTJfDDSNQfgv+hCTuSB7dtMm385Suzgfjm8N1opB3qsh8SHQhZ1LQKSKbFppycgcmBjZioZBKykktdE0lRHVCZNkCFHayKkzUhRGKw35TsvD+3kl5NHsyyJD5QwpDAHzmAklSP8/Ugbe2WOa6LUkmVAC65DNp5l7KchVgaEfXDySAKmpCcmkKpqSxeXVFZreUVTUrhq8gOYYmEYjcneBOQH6oIoZPuHSn9aMKxEoP2qr7hTCKkKFJB0r8KIhEHlTV0bYjSZoQfsJxivSwpSSpy54F1zFrOEprzwIDAQABo4IB6zCCAecwDgYDVR0PAQH/BAQDAgeAMCoGA1UdJQQjMCEGCSqGSIb3LwEBDAYKKwYBBAGD6F4CAQYIKwYBBQUHAwQwHQYDVR0OBBYEFC6d+xC0Smc56O6K+A4EJz8GaKZkMB8GA1UdIwQYMBaAFNCtQorwehQHJcaXwEOoI4XotS0jMIGOBgNVHSAEgYYwgYMwgYAGCSqGSIb3LwECAzBzMHEGCCsGAQUFBwICMGUMY1lvdSBhcmUgbm90IHBlcm1pdHRlZCB0byB1c2UgdGhpcyBMaWNlbnNlIENlcnRpZmljYXRlIGV4Y2VwdCBhcyBwZXJtaXR0ZWQgYnkgdGhlIGxpY2Vuc2UgYWdyZWVtZW50LjAMBgNVHRMBAf8EAjAAMIGABggrBgEFBQcBAQR0MHIwKAYIKwYBBQUHMAGGHGh0dHA6Ly9vY3NwLm9uZS5kaWdpY2VydC5jb20wRgYIKwYBBQUHMAKGOmh0dHA6Ly9jYWNlcnRzLm9uZS5kaWdpY2VydC5jb20vQWRvYmVQcm9kdWN0U2VydmljZXNHNC5jcnQwRwYDVR0fBEAwPjA8oDqgOIY2aHR0cDovL2NybC5vbmUuZGlnaWNlcnQuY29tL0Fkb2JlUHJvZHVjdFNlcnZpY2VzRzQuY3JsMA0GCSqGSIb3DQEBCwUAA4ICAQAUkr7YVvf9QC4Enwj+3v92MIr8wUlOEhfkBaubpfLyn+b23O9Jxf6I5pf4Alaola1nv0LuA7AwFm61ONEW/A2mhHVFKMflWcBjQWBTZnvWb0FI2fzJHe6zEa7gTgujzUcCzm4zuTUypXMmvxY3qePXLqrDx0wZ6sp4j6YgSw8VzCuMKU4VfD6Jv4HpfqJqfDjZQl8HAWxAsdPBBoWIZ79z/k2f7oX7YxCQAujgWAMFdvvzE7SXJHJ12l1JHfDl/aYmLtPouKqI6wlo+kHKXNigtT4LPZymAiLGL1/P8I0mGkKclhjYkfKVAbBAvRbb8QrQjuAJLzBvTTu1h9N1bftm3+kjqwL23PQ8E+gpqOYgRhg/8E/5k8UiFE5RqT9AspkNJRiBlAgcb/wC3hkDoYZboI+Z1rlnmalM08QZZUdv6e29LioGMXta3VIp6meDxzvEXfCCPcYAZhNMyL7o0SWohsBXu2fLcTenU+YkW8CK/94HwtD0d86IpiftYT7MjE5SuIPoN74hKz6AhF5p54TTCdTh0RvM+2R3Iac6vrxwMQNlRTUiWvIk/OeniiMoUGKws1uX+WwfeWJQhCWRH2Ry+Zq8SFDKuE9pmn1EOJpLdyonXHaxWU1NCbApQk5sJF4Totx8BE+x5vhie/knj+cLtrcKPssVYmtm0B1CHQXDNFkGZzCCBmMwggRLoAMCAQICEA7hut+teK5vJr1RJZgHiC8wDQYJKoZIhvcNAQELBQAwbDELMAkGA1UEBhMCVVMxIzAhBgNVBAoTGkFkb2JlIFN5c3RlbXMgSW5jb3Jwb3JhdGVkMR0wGwYDVQQLExRBZG9iZSBUcnVzdCBTZXJ2aWNlczEZMBcGA1UEAxMQQWRvYmUgUm9vdCBDQSBHMjAeFw0yNDExMjAwMDAwMDBaFw00NDExMTkyMzU5NTlaMHUxCzAJBgNVBAYTAlVTMSMwIQYDVQQKExpBZG9iZSBTeXN0ZW1zIEluY29ycG9yYXRlZDEdMBsGA1UECxMUQWRvYmUgVHJ1c3QgU2VydmljZXMxIjAgBgNVBAMTGUFkb2JlIFByb2R1Y3QgU2VydmljZXMgRzQwggIiMA0GCSqGSIb3DQEBAQUAA4ICDwAwggIKAoICAQCsRfiAsVhIvM7pgpniwolO2rOkQxJIAf8upxV3nHjAEAuWn8gs13lskCaJTuwpouDcOb7XsXQ981QsBu3FAJ95B6zWizbZBkvqqe4wht0KbwEpHUfrozqclojgf4gZclkfvHYxaY79zd9t7UeA6J/c3mdt/hnLZZnfg+SryNcykHVmByrTMRSWkSl8K3mzhOIreJVaD32PON73vTe3LiZRco9lbtzS669UYBBfo3VAABMp04RilVaFChtWm5rr5i6t+C5bgHESDBNExPBLhjDb6JkywGCNnODEl8Yayak4ZVkaPjLF4vieUv1WLJvob3eBZcLrPqheHAPtUBAzTIoncT0zI4tzlzQIbJxVjRRQbdEc0zUhbDkDmwyk6PdGAbxH0+iRqo8JK+4RH4/O4HDVV5M6CUhxAAyeJDZybua4Hn9i72KeHRtRKULJBjK2WqueYA3GylZuK52OTPd5R7BuAxLrH/92IoXTznXNLA4JgwyYrkEehpW9XyuEntCfb6Jl0kltadyAr901KXinfxkW9woQxaTHxw79FI3wkYfXnkQVxRglpAeg1L0jM+rgBxaQ7l4kcnpkY47MyU1sMdKehwcjHbb0UIYQPyX4BHCxLVHG+TE6Aq/g8CDuGWqDWpLSbyTkB7RtE0GwK4SIPv9+VK021T22YO6cZkJ404Gz7wIDAQABo4H3MIH0MBIGA1UdEwEB/wQIMAYBAf8CAQAwNQYDVR0fBC4wLDAqoCigJoYkaHR0cDovL2NybC5hZG9iZS5jb20vYWRvYmVyb290ZzIuY3JsMA4GA1UdDwEB/wQEAwIBhjBXBgNVHSAEUDBOMEwGCSqGSIb3LwECAzA/MD0GCCsGAQUFBwIBFjFodHRwczovL3d3dy5hZG9iZS5jb20vbWlzYy9wa2kvcHJvZF9zdmNlX2Nwcy5odG1sMB0GA1UdDgQWBBTQrUKK8HoUByXGl8BDqCOF6LUtIzAfBgNVHSMEGDAWgBSmHOFtVCRMqI9Icr9uqYzV5Owx1DANBgkqhkiG9w0BAQsFAAOCAgEAkZaoQ1NOzli5oWtvmKbWBDBa97RBPb4QS5Z5Te6HikVvUvFFRBiVDcBp8OBzMtiCHhhnOqZ9ofrOmVesSfAnY4DE/GaeTrWjTXuTv6h9+xBE7A8Te/ZVA6JVgJzvRk9S59X09uc+5/opUj0ORDFMyrE0bJaiTFUHkzmFjWF/NPnhXqE/P9LOjWS7MaHcOJfqQUXcryOYNoP74MU2D0I3YwXqiCDwWX1uTyOlicHrCVuubV2qndRjZpJAz5Tt2XEvKo9EzjcaQn6w7I05vjqV/ZNmL8pY7s/xi7LJsPYacMDmvYEiDoVa0dYUgqFpKx0NSlnmnnT0RItAHZUNDVwpT5n+wMQmTfHuH5DaL3bj18k5yON5zfDxTLFJsklMW/Ubcljh/OyriYwVZIF9j2yEbwsZ0Oka8xJTG8yn8P6A0bPD7Kv5ptzqlcRhPCahB+8pd5i2uzkBJOmwDI6hKDkZMbnRk39G3sle9iLuTJZJSGfS9ye1yyDm5lEYFYSX85gX7my8H0RptWmknH3sgi/9/E9IyrSqmJJQ4tQN1W1jwUjJ/LAnEu3Dq20S0LZtWOqhEvsxOS77fx57FQHgdXGkLsT/hW5XO2uMUG+rEZsuhZlVhW6sAtcs3l20qPZItvs3dzns4MnzZloKBI9zMJW0FzDYvVavJAPR3+K2si7NvH6jZ3NpZ1RzdDKhaXRzdFRva2Vuc4GhY3ZhbFkOUDCCDkwGCSqGSIb3DQEHAqCCDj0wgg45AgEDMQ8wDQYJYIZIAWUDBAIBBQAwgYIGCyqGSIb3DQEJEAEEoHMEcTBvAgEBBglghkgBhv1sBwEwMTANBglghkgBZQMEAgEFAAQgc0r9SQLSYtY9SwWFGbF13dabXsSubV3gxSBuPAvwPp0CEQDCkNKh7r0LkYvC8+gITdW3GA8yMDI2MDkyNzAwMjgxNloCCADsvQUXy2IHoIIL2jCCBR4wggMGoAMCAQICEANikv5v2rEkum9Cyx4JGBYwDQYJKoZIhvcNAQELBQAwaTELMAkGA1UEBhMCVVMxFzAVBgNVBAoTDkRpZ2lDZXJ0LCBJbmMuMUEwPwYDVQQDEzhEaWdpQ2VydCBUcnVzdGVkIEc0IFRpbWVTdGFtcGluZyBSU0E0MDk2IFNIQTI1NiAyMDI1IENBMTAeFw0yNjA4MDUwMDAwMDBaFw0zNzExMDQyMzU5NTlaMF8xCzAJBgNVBAYTAlVTMRcwFQYDVQQKEw5EaWdpQ2VydCwgSW5jLjE3MDUGA1UEAxMuQWRvYmUgU0hBMjU2IEVDQzI1NiBUaW1lc3RhbXAgUmVzcG9uZGVyIDIwMjYgMTBZMBMGByqGSM49AgEGCCqGSM49AwEHA0IABLMU7cnzy9xYpB5nd45xfcp1eiIIMrRmAlxqV2zfzjT50QzbxZX+gu3hP76piUKhD+rGUdBdfCPOf7yu5SMvzASjggGVMIIBkTAMBgNVHRMBAf8EAjAAMB0GA1UdDgQWBBShnz/qqOrqiPs4OZExg1XHHrFhBjAfBgNVHSMEGDAWgBTvb1NK6eQGfHrK4pBW9i/USezLTjAOBgNVHQ8BAf8EBAMCB4AwFgYDVR0lAQH/BAwwCgYIKwYBBQUHAwgwgZUGCCsGAQUFBwEBBIGIMIGFMCQGCCsGAQUFBzABhhhodHRwOi8vb2NzcC5kaWdpY2VydC5jb20wXQYIKwYBBQUHMAKGUWh0dHA6Ly9jYWNlcnRzLmRpZ2ljZXJ0LmNvbS9EaWdpQ2VydFRydXN0ZWRHNFRpbWVTdGFtcGluZ1JTQTQwOTZTSEEyNTYyMDI1Q0ExLmNydDBfBgNVHR8EWDBWMFSgUqBQhk5odHRwOi8vY3JsMy5kaWdpY2VydC5jb20vRGlnaUNlcnRUcnVzdGVkRzRUaW1lU3RhbXBpbmdSU0E0MDk2U0hBMjU2MjAyNUNBMS5jcmwwIAYDVR0gBBkwFzAIBgZngQwBBAIwCwYJYIZIAYb9bAcBMA0GCSqGSIb3DQEBCwUAA4ICAQCyFv2EvAa67Dvpw59b8exXcuZhmci1VKNrHGnXA6XlmHYoX1/qaTD/r85UC/d7R1s685xHKg2axeULa3VcnjxIjy3rhcAfDmZCjBybYud1Lcsv1nhgHUDhL7vPQXeIPbitbpznFJyryJ08eUxbQ71mkc2EEVFb0sW1Hf+jlWBpNqk7mRTySFxZKE3E8+3uwLonThiztXNy/aJ3LwyepIDN4TiFLS6sq8o3wzBu3yQWtqR9vhSQdNRKxQ/4iwCjkC6qseZjIn9qexzVFi1yamPMaoLCjFrmykVsNPuNAUbwK2ArtPcPpBcTxagCq4LKvSvN+xaN+I+dMn9N1i3cuH2mFbjrwCpMbyY0GX6fVdfkpahxAwh07Q2lzecDorsdOfAM0l6SpUaxFQNdxC1P3dKSp3dXfq1yzhn7WJfnHvhO1KHP4Pr9XboSbSXUbGuUlMm4TKR7L0LnNOinExDIs32rGg8VzdPvnzz4S+BsQVyG6ZAlBobyfMhVwTC1I5hSaRfXCmigLfGQfAd3z2v930q76gHeQsNSZOe5dhCOyUNasrp3fgGzwNzruhlCv2K6DBWmQ0W1KEwXOn1XmlecKVvy3heO7smnhuDMrrQeCv6W92GfFweoG+dDlYZY7gMzobN0+cE5qXPS+Z/TKBs03Nx5uhESR/yXyiMTpsT1OIIaxjCCBrQwggScoAMCAQICEA3HrFcF/yGZLkBDIgw6SYYwDQYJKoZIhvcNAQELBQAwYjELMAkGA1UEBhMCVVMxFTATBgNVBAoTDERpZ2lDZXJ0IEluYzEZMBcGA1UECxMQd3d3LmRpZ2ljZXJ0LmNvbTEhMB8GA1UEAxMYRGlnaUNlcnQgVHJ1c3RlZCBSb290IEc0MB4XDTI1MDUwNzAwMDAwMFoXDTM4MDExNDIzNTk1OVowaTELMAkGA1UEBhMCVVMxFzAVBgNVBAoTDkRpZ2lDZXJ0LCBJbmMuMUEwPwYDVQQDEzhEaWdpQ2VydCBUcnVzdGVkIEc0IFRpbWVTdGFtcGluZyBSU0E0MDk2IFNIQTI1NiAyMDI1IENBMTCCAiIwDQYJKoZIhvcNAQEBBQADggIPADCCAgoCggIBALR4MdMKmEFyvjxGwBysddujRmh0tFEXnU2tjQ2UtZmWgyxU7UNqEY81FzJsQqr5G7A6c+Gh/qm8Xi4aPCOo2N8S9SLrC6Kbltqn7SWCWgzbNfiR+2fkHUiljNOqnIVD/gG3SYDEAd4dg2dDGpeZGKe+42DFUF0mR/vtLa4+gKPsYfwEu7EEbkC9+0F2w4QJLVSTEG8yAR2CQWIM1iI5PHg62IVwxKSpO0XaF9DPfNBKS7Zazch8NF5vp7eaZ2CVNxpqumzTCNSOxm+SAWSuIr21Qomb+zzQWKhxKTVVgtmUPAW35xUUFREmDrMxSNlr/NsJyUXzdtFUUt4aS4CEeIY8y9IaaGBpPNXKFifinT7zL2gdFpBP9qh8SdLnEut/GcalNeJQ55IuwnKCgs+nrpuQNfVmUB5KlCX3ZA4x5HHKS+rqBvKWxdCyQEEGcbLe1b8Aw4wJkhU1JrPsFfxW1gaou30yZ46t4Y9F20HHfIY4/6vHespYMQmUiote8ladjS/nJ0+k6MvqzfpzPDOy5y6gqztiT96Fv/9bH7mQyogxG9QEPHrPV6/7umw052AkyiLA6tQbZl1KhBtTasySkuJDpsZGKdlsjg4u70EwgWbVRSX1Wd4+zoFpp4Ra+MlKM2baoD6x0VR4RjSpWM8o5a6D8bpfm4CLKczsG7ZrIGNTAgMBAAGjggFdMIIBWTASBgNVHRMBAf8ECDAGAQH/AgEAMB0GA1UdDgQWBBTvb1NK6eQGfHrK4pBW9i/USezLTjAfBgNVHSMEGDAWgBTs1+OC0nFdZEzfLmc/57qYrhwPTzAOBgNVHQ8BAf8EBAMCAYYwEwYDVR0lBAwwCgYIKwYBBQUHAwgwdwYIKwYBBQUHAQEEazBpMCQGCCsGAQUFBzABhhhodHRwOi8vb2NzcC5kaWdpY2VydC5jb20wQQYIKwYBBQUHMAKGNWh0dHA6Ly9jYWNlcnRzLmRpZ2ljZXJ0LmNvbS9EaWdpQ2VydFRydXN0ZWRSb290RzQuY3J0MEMGA1UdHwQ8MDowOKA2oDSGMmh0dHA6Ly9jcmwzLmRpZ2ljZXJ0LmNvbS9EaWdpQ2VydFRydXN0ZWRSb290RzQuY3JsMCAGA1UdIAQZMBcwCAYGZ4EMAQQCMAsGCWCGSAGG/WwHATANBgkqhkiG9w0BAQsFAAOCAgEAF877FoAc/gc9EXZxML2+C8i1NKZ/zdCHxYgaMH9Pw5tcBnPw6O6FTGNpoV2V4wzSUGvI9NAzaoQk97frPBtIj+ZLzdp+yXdhOP4hCFATuNT+ReOPK0mCefSG+tXqGpYZ3essBS3q8nL2UwM+NMvEuBd/2vmdYxDCvwzJv2sRUoKEfJ+nN57mQfQXwcAEGCvRR2qKtntujB71WPYAgwPyWLKu6RnaID/B0ba2H3LUiwDRAXx1Neq9ydOal95CHfmTnM4I+ZI2rVQfjXQA1WSjjf4J2a7jLzWGNqNX+DF0SQzHU0pTi4dBwp9nEC8EAqoxW6q17r0z0noDjs6+BFo+z7bKSBwZXTRNivYuve3L2oiKNqetRHdqfMTCW/NmKLJ9M+MtucVGyOxiDf06VXxyKkOirv6o02OoXN4bFzK0vlNMsvhlqgF2puE6FndlENSmE+9JGYxOGLS/D284NHNboDGcmWXfwXRy4kbu4QFhOm0xJuF2EZAOk5eCkhSxZON3rGlHqhpB/8MluDezooIs8CVnrpHMiD2wL40mm53+/j7tFaxYKIqL0Q4ssd8xHZnIn/7GELH3IdvG2XlM9q7WP/UwgOkw/HQtyRN62JK4S1C8uw3PdBunvAZapsiI5YKdvlarEvf8EA+8hcpSM9LHJmyrxaFtoza2zNaQ9k+5t1wxggG+MIIBugIBATB9MGkxCzAJBgNVBAYTAlVTMRcwFQYDVQQKEw5EaWdpQ2VydCwgSW5jLjFBMD8GA1UEAxM4RGlnaUNlcnQgVHJ1c3RlZCBHNCBUaW1lU3RhbXBpbmcgUlNBNDA5NiBTSEEyNTYgMjAyNSBDQTECEANikv5v2rEkum9Cyx4JGBYwDQYJYIZIAWUDBAIBBQCggdEwGgYJKoZIhvcNAQkDMQ0GCyqGSIb3DQEJEAEEMBwGCSqGSIb3DQEJBTEPFw0yNjA5MjcwMDI4MTZaMCsGCyqGSIb3DQEJEAIMMRwwGjAYMBYEFKIcIao1hTp+lYxnq6imbpDyR9nEMC8GCSqGSIb3DQEJBDEiBCCFygs+mtITlmi/dBZV8MKqqBqI3lkdGJJHgzACXvCqrzA3BgsqhkiG9w0BCRACLzEoMCYwJDAiBCCAiWy3BwGy2cOaf0jgkCMzrmbVpNbW/MgdxrMVt1/nBTAKBggqhkjOPQQDAgRHMEUCIQDvKdonKbl/Bey7E5wRJkW/ai5H0bI8KzT5ir6Ywh6rUQIgcyFfFLj8a3BDRjfJohCYKoKBI768bVkkLYJ03Vxs+qVlclZhbHOhaG9jc3BWYWxzgVkC2zCCAtcKAQCgggLQMIICzAYJKwYBBQUHMAEBBIICvTCCArkwgaKiFgQU0K1CivB6FAclxpfAQ6gjhei1LSMYDzIwMjYwOTIyMTY0NDMwWjB3MHUwTTAJBgUrDgMCGgUABBSK77IBEG9rZRVNwaO3UamLc5LLFgQU0K1CivB6FAclxpfAQ6gjhei1LSMCFA5q/BSg8yl4Zv10JkbAgi+qatbrgAAYDzIwMjYwOTIyMTY0NDMwWqARGA8yMDI2MDkyOTE2NDQzMFowDQYJKoZIhvcNAQELBQADggIBAFdyoGvpdWI8I0H2i+cc3KP/dTOm8wOmjf3Lay7b2YYuoBCMfniJIwkL1VM4cILx35Y2hNn7NkBGh8m0pRwvboOxKV1WSFeBhp34EVqdUr+Lxv9WcYmtv/JwddJIwmA2dQJHxSry7HJq65d5XvkMvMFv6XGrRhuKeDOhq2Z/ZRbrBnXd8nOvtyPB+Tl8mvyoznGX4orC2vbZ8qrksA2v8iJT+ZVbx65LeP52Ppb7lKbA4PtB13Z7qYHfSz6cUwZbZRNn/nCQQz4vWjuw1hN6VNB6YyV2WM3st9NPlLLIs+KNweKA3JYb2LNqXSyoHTzErLt2qdz1oqemm3gPCAAH5/SYH8JvTIX25n2w4fOFGnN0XAlpZlSVFQr3JqQ0fa9ucZSz2+pp2l9iy5sRFrqGEFMeXb4QZu62STYSbz/n5gLoM2K8LWuhgbVwomI2L3GYBeSfjZeXUYDYZxTfryNps3opcXnle72BKJ+B3p0n2tpmcQLJj3YIlWwtK4jTJXAJSMgnfb65HzEN5KOpu7oDo8GNNSLfbvR18owjEjO1KzQ4TcyzS5CMvjFwHKMwb7SE2NXm6vDExNZDgXu/Ii3LXUk3mSVtRlfpLLPjbBjrGe7TULUWc7bOOz1wU8U5ETF5/SVj81JLu0lc1M0te6irbk6J9V0f1LyJ18vdZOrBMoLeY3BhZFkQUQAAAAAAAAAAAAAAAAAAAAAAAAAAAAAAAAAAAAAAAAAAAAAAAAAAAAAAAAAAAAAAAAAAAAAAAAAAAAAAAAAAAAAAAAAAAAAAAAAAAAAAAAAAAAAAAAAAAAAAAAAAAAAAAAAAAAAAAAAAAAAAAAAAAAAAAAAAAAAAAAAAAAAAAAAAAAAAAAAAAAAAAAAAAAAAAAAAAAAAAAAAAAAAAAAAAAAAAAAAAAAAAAAAAAAAAAAAAAAAAAAAAAAAAAAAAAAAAAAAAAAAAAAAAAAAAAAAAAAAAAAAAAAAAAAAAAAAAAAAAAAAAAAAAAAAAAAAAAAAAAAAAAAAAAAAAAAAAAAAAAAAAAAAAAAAAAAAAAAAAAAAAAAAAAAAAAAAAAAAAAAAAAAAAAAAAAAAAAAAAAAAAAAAAAAAAAAAAAAAAAAAAAAAAAAAAAAAAAAAAAAAAAAAAAAAAAAAAAAAAAAAAAAAAAAAAAAAAAAAAAAAAAAAAAAAAAAAAAAAAAAAAAAAAAAAAAAAAAAAAAAAAAAAAAAAAAAAAAAAAAAAAAAAAAAAAAAAAAAAAAAAAAAAAAAAAAAAAAAAAAAAAAAAAAAAAAAAAAAAAAAAAAAAAAAAAAAAAAAAAAAAAAAAAAAAAAAAAAAAAAAAAAAAAAAAAAAAAAAAAAAAAAAAAAAAAAAAAAAAAAAAAAAAAAAAAAAAAAAAAAAAAAAAAAAAAAAAAAAAAAAAAAAAAAAAAAAAAAAAAAAAAAAAAAAAAAAAAAAAAAAAAAAAAAAAAAAAAAAAAAAAAAAAAAAAAAAAAAAAAAAAAAAAAAAAAAAAAAAAAAAAAAAAAAAAAAAAAAAAAAAAAAAAAAAAAAAAAAAAAAAAAAAAAAAAAAAAAAAAAAAAAAAAAAAAAAAAAAAAAAAAAAAAAAAAAAAAAAAAAAAAAAAAAAAAAAAAAAAAAAAAAAAAAAAAAAAAAAAAAAAAAAAAAAAAAAAAAAAAAAAAAAAAAAAAAAAAAAAAAAAAAAAAAAAAAAAAAAAAAAAAAAAAAAAAAAAAAAAAAAAAAAAAAAAAAAAAAAAAAAAAAAAAAAAAAAAAAAAAAAAAAAAAAAAAAAAAAAAAAAAAAAAAAAAAAAAAAAAAAAAAAAAAAAAAAAAAAAAAAAAAAAAAAAAAAAAAAAAAAAAAAAAAAAAAAAAAAAAAAAAAAAAAAAAAAAAAAAAAAAAAAAAAAAAAAAAAAAAAAAAAAAAAAAAAAAAAAAAAAAAAAAAAAAAAAAAAAAAAAAAAAAAAAAAAAAAAAAAAAAAAAAAAAAAAAAAAAAAAAAAAAAAAAAAAAAAAAAAAAAAAAAAAAAAAAAAAAAAAAAAAAAAAAAAAAAAAAAAAAAAAAAAAAAAAAAAAAAAAAAAAAAAAAAAAAAAAAAAAAAAAAAAAAAAAAAAAAAAAAAAAAAAAAAAAAAAAAAAAAAAAAAAAAAAAAAAAAAAAAAAAAAAAAAAAAAAAAAAAAAAAAAAAAAAAAAAAAAAAAAAAAAAAAAAAAAAAAAAAAAAAAAAAAAAAAAAAAAAAAAAAAAAAAAAAAAAAAAAAAAAAAAAAAAAAAAAAAAAAAAAAAAAAAAAAAAAAAAAAAAAAAAAAAAAAAAAAAAAAAAAAAAAAAAAAAAAAAAAAAAAAAAAAAAAAAAAAAAAAAAAAAAAAAAAAAAAAAAAAAAAAAAAAAAAAAAAAAAAAAAAAAAAAAAAAAAAAAAAAAAAAAAAAAAAAAAAAAAAAAAAAAAAAAAAAAAAAAAAAAAAAAAAAAAAAAAAAAAAAAAAAAAAAAAAAAAAAAAAAAAAAAAAAAAAAAAAAAAAAAAAAAAAAAAAAAAAAAAAAAAAAAAAAAAAAAAAAAAAAAAAAAAAAAAAAAAAAAAAAAAAAAAAAAAAAAAAAAAAAAAAAAAAAAAAAAAAAAAAAAAAAAAAAAAAAAAAAAAAAAAAAAAAAAAAAAAAAAAAAAAAAAAAAAAAAAAAAAAAAAAAAAAAAAAAAAAAAAAAAAAAAAAAAAAAAAAAAAAAAAAAAAAAAAAAAAAAAAAAAAAAAAAAAAAAAAAAAAAAAAAAAAAAAAAAAAAAAAAAAAAAAAAAAAAAAAAAAAAAAAAAAAAAAAAAAAAAAAAAAAAAAAAAAAAAAAAAAAAAAAAAAAAAAAAAAAAAAAAAAAAAAAAAAAAAAAAAAAAAAAAAAAAAAAAAAAAAAAAAAAAAAAAAAAAAAAAAAAAAAAAAAAAAAAAAAAAAAAAAAAAAAAAAAAAAAAAAAAAAAAAAAAAAAAAAAAAAAAAAAAAAAAAAAAAAAAAAAAAAAAAAAAAAAAAAAAAAAAAAAAAAAAAAAAAAAAAAAAAAAAAAAAAAAAAAAAAAAAAAAAAAAAAAAAAAAAAAAAAAAAAAAAAAAAAAAAAAAAAAAAAAAAAAAAAAAAAAAAAAAAAAAAAAAAAAAAAAAAAAAAAAAAAAAAAAAAAAAAAAAAAAAAAAAAAAAAAAAAAAAAAAAAAAAAAAAAAAAAAAAAAAAAAAAAAAAAAAAAAAAAAAAAAAAAAAAAAAAAAAAAAAAAAAAAAAAAAAAAAAAAAAAAAAAAAAAAAAAAAAAAAAAAAAAAAAAAAAAAAAAAAAAAAAAAAAAAAAAAAAAAAAAAAAAAAAAAAAAAAAAAAAAAAAAAAAAAAAAAAAAAAAAAAAAAAAAAAAAAAAAAAAAAAAAAAAAAAAAAAAAAAAAAAAAAAAAAAAAAAAAAAAAAAAAAAAAAAAAAAAAAAAAAAAAAAAAAAAAAAAAAAAAAAAAAAAAAAAAAAAAAAAAAAAAAAAAAAAAAAAAAAAAAAAAAAAAAAAAAAAAAAAAAAAAAAAAAAAAAAAAAAAAAAAAAAAAAAAAAAAAAAAAAAAAAAAAAAAAAAAAAAAAAAAAAAAAAAAAAAAAAAAAAAAAAAAAAAAAAAAAAAAAAAAAAAAAAAAAAAAAAAAAAAAAAAAAAAAAAAAAAAAAAAAAAAAAAAAAAAAAAAAAAAAAAAAAAAAAAAAAAAAAAAAAAAAAAAAAAAAAAAAAAAAAAAAAAAAAAAAAAAAAAAAAAAAAAAAAAAAAAAAAAAAAAAAAAAAAAAAAAAAAAAAAAAAAAAAAAAAAAAAAAAAAAAAAAAAAAAAAAAAAAAAAAAAAAAAAAAAAAAAAAAAAAAAAAAAAAAAAAAAAAAAAAAAAAAAAAAAAAAAAAAAAAAAAAAAAAAAAAAAAAAAAAAAAAAAAAAAAAAAAAAAAAAAAAAAAAAAAAAAAAAAAAAAAAAAAAAAAAAAAAAAAAAAAAAAAAAAAAAAAAAAAAAAAAAAAAAAAAAAAAAAAAAAAAAAAAAAAAAAAAAAAAAAAAAAAAAAAAAAAAAAAAAAAAAAAAAAAAAAAAAAAAAAAAAAAAAAAAAAAAAAAAAAAAAAAAAAAAAAAAAAAAAAAAAAAAAAAAAAAAAAAAAAAAAAAAAAAAAAAAAAAAAAAAAAAAAAAAAAAAAAAAAAAAAAAAAAAAAAAAAAAAAAAAAAAAAAAAAAAAAAAAAAAAAAAAAAAAAAAAAAAAAAAAAAAAAAAAAAAAAAAAAAAAAAAAAAAAAAAAAAAAAAAAAAAAAAAAAAAAAAAAAAAAAAAAAAAAAAAAAAAAAAAAAAAAAAAAAAAAAAAAAAAAAAAAAAAAAAAAAAAAAAAAAAAAAAAAAAAAAAAAAAAAAAAAAAAAAAAAAAAAAAAAAAAAAAAAAAAAAAAAAAAAAAAAAAAAAAAAAAAAAAAAAAAAAAAAAAAAAAAAAAAAAAAAAAAAAAAAAAAAAAAAAAAAAAAAAAAAAAAAAAAAAAAAAAAAAAAAAAAAAAAAAAAAAAAAAAAAAAAAAAAAAAAAAAAAAAAAAAAAAAAAAAAAAAAAAAAAAAAAAAAAAAAAAAAAAAAAAAAAAAAAAAAAAAAAAAAAAAAAAAAAAAAAAAAAAAAAAAAAAAAAAAAAAAAAAAAAAAAAAAAAAAAAAAAAAAAAAAAAAAAAAAAAAAAAAAAAAAAAAAAAAAAAAAAAAAAAAAAAAAAAAAAAAAAAAAAAAAAAAAAAAAAAAAAAAAAAAAAAAAAAAAAAAAAAAAAAAAAAAAAAAAAAAAAAAAAAAAAAAAAAAAAAAAAAAAAAAAAAAAAAAAAAAAAAAAAAAAAAAAAAAAAAAAAAAAAAAAAAAAAAAAAAAAAAAAAAAAAAAAAAAAAAAAAAAAAAAAAAAAAAAAAAAAAAAAAAAAAAAAAAAAAAAAAAAAAAAAAAAAAAAAAAAAAAAAAAAAAAAAAAAAAAAAAAAAAAAAAAAAAAAAAAAAAAAAAAAAAAAAAAAAAAAAAAAAAAAAAAAAAAAAAAAAAAAAAAAAAAAAAAAAAAAAAAAAAAAAAAAAAAAAAAAAAAAAAAAAAAAAAAAAAAAAAAAAAAAAAAAAAAAAAAAAAAAAAAAAAAAAAAAAAAAAAAAAAAAAAAAAAAAAAAAAAAAAAAAAAAAAAAAAAAAAAAAAAAAAAAAAAAAAAAAAAAAAAAAAAAAAAAAAAAAAAAAAAAAAAAAAAAAAAAAAAAAAAAAAAAAAAAAAAAAAAAAAAAAAAAAAAAAAAAAAAAAAAAAAAAAAAAAAAAAAAAAAAAAAAAAAAAAAAAAAAAAAAAAAAAAAAAAAAAAAAAAAAAAAAAAAAAAAAAAAAAAAAAAAAAAAAAAAAAAAAAAAAAAAAAAAAAAAAAAAAAAAAAAAAAAAAAAAAAAAAAAAAAAAAAAAAAAAAAAAAAAAAAAAAAAAAAAAAAAAAAAAAAAAAAAAAAAAAAAAAAAAAAAAAAAAAAAAAAAAAAAAAAAAAAAAAAAAAAAAAAAAAAAAAAAAAAAAAAAAAAAAAAAAAAAAAAAAAAAAAAAAAAAAAAAAAAAAAAAAAAAAAAAAAAAAAAAAAAAAAAAAAAAAAAAAAAAAAAAAAAAAAAAAAAAAAAAAAAAAAAAAAAAAAAAAAAAAAAAAAAAAAAAAAAAAAAAAAAAAAAAAAAAAAAAAAAAAAAAAAAAAAAAAAAAAAAAAAAAAAAAAAAAAAAAAAAAAAAAAAAAAAAAAAAAAAAAAAAAAAAAAAAAAAAAAAAAAAAAAAAAAAAAAAAAAAAAAAAAAAAAAAAAAAAAAAAAAAAAAAAAAAAAAAAAAAAAAAAAAAAAAAAAAAAAAAAAAAAAAAAAAAAAAAAAAAAAAAAAAAAAAAAAAAAAAAAAAAAAAAAAAAAAAAAAAAAAAAAAAAAAAAAAAAAAAAAAAAAAAAAAAAAAAAAAAAAAAAAAAAAAAAAAAAAAAAAAAAAAAAAAAAAAAAAAAAAAAAAAAAAAAAAAAAAAAAAAAAAAAAAAAAAAAAAAAAAAAAAAAAAAAAAAAAAAAAAAAAAAAAAAAAAAAAAAAAAAAAAAAAAAAAAAAAAAAAAAAAAAAAAAAAAAAAAAAAAAAAAAAAAAAAAAAAAAAAAAAAAAAAAAAAAAAAAAAAAAAAAAAAAAAAAAAAAAAAAAAAAAAAAAAAAAAAAAAAAAAAAAAAAAAAAAAAAAAAAAAAAAAAAAAAAAAAAAAAAAAAAAAAAAAAAAAAAAAAAAAAAAAAAAAAAAAAAAAAAAAAAAAAAAAAAAAAAAD2WQEAfnMchpBB547tt925QhLNBLBvGXMO5WPitlKwg33My3ciFIf3PumO209D8SXGEm8mTu8CeS4UKctyvwFi559J5l1uIMLt9R5yqAbAmgr4aOW/hihCDSamAO9P/RUDU1NcLOoCsn4bSQeNkh8IbtRVUcTJbFHchrKW9amtA6K8J2STQb0qIjwy8VUlK6T01olKOZ1RZZbpGjfnTRHUXHr4gVcMdgZu7R+s9EAJiXzIj+ToNWmcAgRLjYgtO5ESYydX8uqKBOdE+zG/RvSMDuiG/b09xs0LcVm+FM7knvk1U7lzWmAKeZgG4xULeK3IcjdvVr9OO0SbzwDbIOcT/5trNQ==</c2pa:manifest></metadata>
  <defs>
    <style>
      .cls-1 {
        fill: #7c7d7c;
      }

      .cls-2 {
        fill: #fff;
      }

      .cls-3 {
        fill: #eceded;
      }

      .cls-4 {
        fill: #151616;
      }

      .cls-5 {
        fill: #010101;
      }

      .cls-6 {
        fill: #c1c1c1;
      }
    </style>
  </defs>
  <g id="Layer_2_copy" data-name="Layer 2 copy">
    <g>
      <polygon class="cls-5" points="0 0 0 47.47 0 87.15 0 230.81 0 232.55 0 241.09 240.58 241.09 258.31 241.09 352.77 241.09 354.73 241.09 471.1 241.09 472.76 241.09 485.39 241.09 487.13 241.09 489.59 241.09 492.16 241.09 502.79 241.09 506.09 241.09 508.42 241.09 509.77 241.09 576 241.09 576 221.11 576 219.21 576 79.81 576 60.47 576 54.79 576 35.45 576 0 0 0"/>
      <path class="cls-5" d="M0,87.15c.46.37.83.69,1.17,1.14,1.36,1.82,7.11,4.52,6.76,7.65-.48,4.34.95,7.63,4.74,4.27,1.68.75,1.47,2.87,2.66,4.02,2.72,2.62,9.27,2.98,12.12,4.92,3.86,2.64.58,7.75,11.15,10.49,4.65,1.2,7.53-3.82,9.87.86.47.93.99,1.25,1.83,1.42,1.55.31,2.15.31,3.16,1.93.94,1.51,1.41,2.81,3.08,3.06.51.08,1.01,0,1.52-.07,1.34-1.73,1.72-3.29,2.88-5.06,1.73,2.55,3.3,4.37,6.19,2.95.86-1.14,3.63-4.97,4.43-5.45,6.08-3.58,4.42.97,8.42-7.64,4.14,5.23,6.69,8.32,11.41,12.63,6.14,5.62,11.56,12.2,19.54,13.49.71.11,2.91-1.17,3.66-1.44,5.32,1.2,5.14,4.81,10.75,1.2,4.51,2.12,8.15,7.53,13.56,4.54.9-.5.94-.94,1.42-1.95,3.57.74,13.65,12.68,18.1,4.99-.59-3.93-8.07-5.38-10.92-8.93l.03-.49c1.07-.38,2.26-.25,3.2.47,6.09,4.71,9.54,8.26,16.96,8.05l1.59-1.46c-.06,7.14.28,10.34,4.49,15.95.86,1.15,3.43,3.61,3.88,4.63-.8,2.77-2.18,4.31-3.24,6.62-3.51,7.92-8.15,14.23-14.46,18.74-1.86,1.33-4.93,4.14-6.84,4.95-4.65,1.96-9.19,4.92-13.72,7.02-14.52,6.73-29.37,10.76-44.46,14.58l-17.29,4.24c-1.88.48-3.57,1.26-5.5,1.47-5.19.57-10.56,1.39-15.69,2.55-5.09,1.15-9.93,1.08-15.06,1.7-11.17,2.37-22.27,2.77-33.51,4.22-2.8.36-4.97,1.6-7.89,1.39V87.15Z"/>
      <path class="cls-5" d="M544.09,64.51l.39-.12c2.19-.71,4.32-3.23,5.78-2.82.26.07.51.15.77.24,1.57-.49,3.33-5.48,4.47-4.72.18.95.22,1.33.08,2.18-.33,2.08,2.08,4.91,3.41,7.73-.63,2.12-.89,3.04-.15,5.12,1.55,1.99,2.68.64,3.62,2.54-.38,1.48-1.08,3.38-.83,4.77,1.78,3.1,2.16.47,4.39,1.84.49.96,1,2.45,1.93,2.21,1.47-.38,6.94-2.81,8.06-3.67v139.4c-3.27-1.12-6.53-1.61-9.81-2.48-10.25-2.72-20.79-4.01-31-6.61-9.73-2.48-19.74-5.55-29.29-8.93-4.06-1.43-8.24-3.62-12.27-5.28l-24.9-10.13c-4.02-1.68-7.67-2.28-11.5-3.76-9.98-3.85-18.77-9.57-27.7-16.22-8.87-6.59-17.83-10.23-22.29-23.22,4.63-5.99,6.83-8.13,9.53-16.42,1.06,1.42,2.87,4.1,4.37,5.48,4.23,3.9,10.98,9.67,16.12,11.35,3.34,1.09,3.47,1.9,6.32,3.6,1.75,1.04,5.06.84,7,1.65,3.69,1.88,5.67,3.03,9.84,2.45,2.93-.41,2.7.15,4.75-2.72,1.23.32,3.6,2.43,4.75,3.4l3.51-.26c2.74-2.49,2.4-4.61-.21-6.89.94-.72,1.91-1.54,2.84-2.29,9.18,6.16,14.54-1.06,6.28-5.31.87-1.54,1.59-3.06,2.37-4.66,2.77.83,4.98,1.8,6.71-2.13.54-1.15.65-1.93,1.62-.72,2.13,2.65,13.95,10.66,13.01,1.47-1.15-2.46-1.69-2.57-3.75-3.73l.15-.36c.76.03,2.88-.16,3.56-.58,5.97-3.71-1.92-7.77-2.57-9.26l2.57-4.25c2.17.09,5.31-.85,6.68-.69,6.16.72,4.45-2.59,6.05-4.36,5.05,1.23,3.73,9.14,11.02,3.96.24-.6.24-.65.56-1.18l2.76,1.05c11.52-3.19-6.97-14.4-9.68-19.06.91-2.54,1.14-4.32,2.43-6.69,4.39,4.06,12.79,11.45,17.98,12.69,1.46-1.83,2.56-2.17,2.87-4.72-.45-1.84-2.03-2.61-3.34-3.59-3.86-2.89-7.64-5.92-11.41-8.98-.99-1.01-2.23-2.29-3.38-2.93-.91-1.24-.63-.55-.93-2.11.41-1.21.09-.68,1.17-1.43.99,0,1.26.1,2.2.34,2.56-1.8,5.74-4.67,6.65-8.26.68-.61.31-.54,1.07-.39-.07,1.89-1.88,5.35,1.13,6.33.75.25,1.55.09,2.2-.45,1.35-1.12,1.69-5.23,2.05-7.39Z"/>
      <path class="cls-2" d="M21.25,4.25c-.34,9.23.16,18.36-.14,27.58-.08,2.51.3,5.26.24,7.85-.15,6.77-.26,13.56-.31,20.33-.17,1.03-.7,2.09-.68,3.16.06,3.5,0,6.83-.28,10.35-.36,4.53-.83,8.88-.97,13.39-.08,2.56-3.58,13.15-3.25,15.35.86.47.39.37,1.46.01,7-11.34,5.15-68.26,5.96-83.99.22-4.29-2.85-18.05,4.2-16.13.51,1.73-.49,12.51-.49,15.18,0,4.95.54,9.76.71,14.64.78,21.88-3.63,42.41-5.56,63.89-.19,2.08-1.12,5.09-.36,7.04l.54.23c1.85-2.03,2.84-18.63,3.4-22.54,1.29-9.1,2.84-18.44,3.32-27.66.33-6.29.47-12.59.41-18.89-.04-5.18-.52-9.79-.77-14.81-.1-1.93.39-15.99,1.2-17.24,1.23.07,1.06-.17,1.92.57.19,1.52.02,2.06.08,3.49l.63,12.69c.21,3.75.81,7.87,1.14,11.66.16,1.83.49,10.54,1.04,11.34l1.2.62.15.72c-.59.68-.64.68-1.36,1.16-.39,2.55-.62,5.04-.78,7.63-.14,1.91.19,4.4-.1,6.26-2.18,13.96-2.29,28.36-4.85,42.2-.38,2.03-2.23,5.15-1.42,6.87,4.6.28,5.92-26.8,6.44-31.28,1.32-11.4,2.69-23.18,3.1-34.7.17-4.77-.65-10.28-.41-15.16.09-3.65-1.27-19.95-.32-22.12l.75-.07c.49.63.86,4.1.74,4.93-.99,6.65.33,13.35.34,20.01.02,12.32-.29,24.79-.73,37.1-.34,9.68-3.18,19.54-3.69,29.28-.22,3.06-1.94,6.72-1.38,10.09l.36.03c2.67-3.96,2.69-13.68,3.6-18.79,3.67-20.5,3.3-42.03,3.35-62.95.01-6.17-1.59-12.25-.39-19.02.52-.63.2-.41,1.14-.39l.3.37-.03.41c-.29,4.85.05,11.36.37,16.22.31,2.64,1.07,4.18.98,6.92-.29,9.03-.76,17.75-1,26.82-.23,9.02-.91,17.74-2.24,26.72-.34,2.29-.07,4.55-.19,6.83-1.26,5.74-2.04,11.41-3.8,16.96-.84,2.64-3.14,7.24-1.84,9.78.88.57.44.48,1.35.42,1.31-1.28,1.26-3.75,1.8-5.65,2.14-7.45,4.66-16.11,5.11-24.11.36-6.43,1.48-12.38,2.03-18.61.81-9.25.81-18.96,1.41-28.28.12-4.22.33-10.86.02-14.98-.56-7.59-.54-14.42-.68-22l2.64.49c.04,1.72.05,3.96.03,5.68-.02,1.98.48,5.89.26,7.62-.71,5.52.5,10.02.66,15.23.16,5.26-.61,11.18-.89,16.45-.16,1.87.95,5.38.83,7.98-.55.65-.31.43-1.1.73-.36,2.39.23,10.2.05,13.33-.78,13.26-3.23,35.24-9.78,45.84.87.7,2.05,2.04,2.78,2.1,4.12-5.08,5.52-17.06,8.21-23.43.68-1.6.83-5.02,1.65-6.11l.5.28c.23,1.17-.27,3.33-.5,4.63-.57,3.31-1.04,6.47-1.93,9.66-.67,2.41-3.83,9.27-4.08,11.13,1.25.79,1.52.96,2.2,2.49l.36-.04c.78-3.96,1.55-3.08,2.69-6.02,4.33-11.22,5.34-24.89,5.92-37.18.13-2.68.19-13.72.99-14.88,1.08-.62,3-1.5,4.16-1.05.43.79.75,1.66.52,2.64-1.81,7.56-1.14,15.29-2.3,22.96-.97,6.44-1.71,13.03-2.83,19.44-.62,3.27-3.54,8.03-4.61,11.26-.81,2.46-1.96,4.47-.19,6.8,1.81.28,3.14-4.75,3.87-6.62,1.11-2.83,2.36-5.56,3.38-8.42,1.31-6.09,2.64-15.84,3.03-22.07.39-6.3.73-16.11,2.3-21.92,1.33-.92,2.38-2.5,3.31-3.06,1.63,3.12-1.59,34.4-2.48,39.26-.83,4.51-2.69,14.09-4.89,18.06-1.05,1.89-3.23,4.54-4.37,6.9.64,1.21,1.08,1.72,1.89,2.78.46-.13,5.19-7.96,5.58-8.97,6.52-16.69,7.88-36.38,7.89-54.72,0-.79.19-.99.53-1.52,4.64.01,2.36,10.91,2.28,14.21-.01,3.03.16,6.01.17,9.05.01,3.96-.49,7.94-.63,11.87-.23,6.32-.73,11.77-3.34,17.35-.93,2-6.17,6.5-6.37,8.43,1.94,1.33.82,3.13,2.64,2.61,2.57-2.73,4.2-6.25,7.81-7.7l.38.09c.79.18,1.37.47,2.04.04,3.33-4.74,2.29-11.7,4.16-13.55.89.95.86,3.8,1.41,4.43,1.76,2.01,3.22,4.18,4.88,6.3,2.74,3.5,2.66,5.93,6.08,8.67,2.85,2.28,5.6,6.07,8.3,8.61,1.83,1.79,9.7,6.75,11.85,5.17-.68-1.43-4.09-2.7-5.39-3.51-2.73-1.71-5.35-3.59-7.87-5.76-6.84-5.93-11.99-13.72-16.35-22.52-.64-1.28-1.18-3.62-1.73-5.06,2.09-.78,2.05-1.33,3.82.65,1.6,1.79,1.57,4.02,2.62,5.86,7.14,12.55,15.11,22.09,26.66,28.08,2.15,1.11,6.35,4.44,8.82,4.11l.39-.47c.02-2.45-4.74-3.48-6.53-4.97-11.88-9.86-22.08-21.65-26.8-39.03-1.24-4.54-3.55-10.03-2.16-14.94,1.27.8,1.73,6.04,2.05,7.84,1.47,8.14,3.14,13.23,7.17,19.9,3.97,6.58,7.27,9.66,12.77,14.15,2.58,2.24,5.11,6.15,7.65,8.33,4.11,3.52,8.71,6.67,12.83,10.3,1.9,1.67,5.65,3.61,7.86,2.21l.06-.37c-3.08-2.8-7.53-5.06-10.62-8.19-1.37-1.39-4.82-2.97-6-4.32-6.2-7.04-13.72-12.73-17.41-22.4-1.39-3.65-5.45-13.05-3.28-16.87,1.72.53,4.88,9.96,6.18,12.58,8.41,16.99,22.96,29.54,36.84,38.73,1.86,1.23,4.08,3.83,6.27,4.41,2.07.28,5.17,2.71,6.66.55-.39-1.57-4.21-2.35-5.74-3.4-10.76-7.37-21.36-15.75-30.82-25.52-1.68-1.74-3.04-7.04-4.35-8.95-2.89-4.2-8.83-24.27-4.29-27.26,1.45.62,1.4,5.89,1.68,8.16,1.03,8.37,3.34,16.19,7.29,23.1.75,1.28,5.36,6.88,6.54,8.37.74,0,.97-.06,1.7-.21,1.51.57,4.86,6.33,6.59,7.72,2.56,2.07,7.08,8.41,10.25,7.95l.73-.6c.16-2.09-3.99-5.17-5.47-6.43-9.52-8.1-14.28-20.43-17.24-33.97-.52-2.39-1.57-6.42.18-8.11,1.04-.15,1.71.63,1.86,1.93,2.74,23.52,16.39,40.65,32.41,51.63,2.49,1.71,6.75,4.56,9.5,2.73l.24-.64c-.91-1.88-3.25-1.65-4.67-2.25-6.1-2.62-12.09-9-17.22-13.95-2.13-2.05-6.1-8.51-7.87-11.31-1.21-1.92-4.95-13.5-4.03-15.74l.52-.2c.67.75.35.17.64,1.17,1.71,5.94,4.68,16.27,10.02,17.93,2.95,4.21,16.58,20.83,21.17,17.45.12-2.16-4.27-3.44-5.63-4.84-6.26-6.43-11.48-12.08-16.05-20.61.44.24,1.97,1.06,2.3,1.4,2.16,2.26,4.23,4.69,6.43,6.92,2.24,2.28,4.66,4.22,7.02,6.31,1.98,1.75,3.9,3.68,5.72,5.69.1.11.92-.42,1.07-.51.7.46,1.21.87,1.98,1.07.7-.48.45-.13.74-1.14-1.79-2.46-16.55-14.49-12.86-20.29.41-.64,1.38-.93,2.28-2.59l.45-.05c1.22,1.73,1.08,5.33,2.07,7.17,2.71,5.06,7.09,11.84,11.86,13.72.78.31,1.51-1.32,1.84-2l.53-.1c.71,1.61-.51,3.29-1.04,4.75-5.04,13.83-6.15,23.95,5.41,33.27-2.64,7.87-10.09,20.96-16.08,25.36-3.64,2.68-9.32,8.26-13.5,9.15-3.43,1.44-6.85,3.77-10.31,5.58-4.08,2.15-11.67,4.07-15.22,6.18-3.71.37-8.08,2.56-11.67,3.8-4.95,1.71-9.39,2.43-14.43,3.06-1.92.24-3.9,1.79-5.88,2.09l-.4.48c-4.82.99-9.38,2.26-14.19,3.24-1.37.28-3.35,1.21-4.68,1.4-4.08.57-14.92,1.39-18.39,3.15-.37.12-11.12.95-12.7,1.1-5.73.54-11.68,2.09-17.28,2.65-5.59.56-11.77.56-17.49,1.72-2.71.55-5.08,1.9-7.67,1.19-.09,0-.19-.02-.28-.02v-1.75c2.92.21,5.09-1.03,7.89-1.39,11.23-1.45,22.33-1.85,33.51-4.22,5.13-.62,9.97-.55,15.06-1.7,5.13-1.16,10.51-1.97,15.69-2.55,1.94-.22,3.63-1,5.5-1.47l17.29-4.24c15.1-3.83,29.95-7.85,44.46-14.58,4.53-2.1,9.07-5.06,13.72-7.02,1.91-.8,4.98-3.62,6.84-4.95,6.31-4.51,10.95-10.82,14.46-18.74,1.06-2.31,2.44-3.84,3.24-6.62-.44-1.03-3.01-3.49-3.88-4.63-4.21-5.61-4.55-8.81-4.49-15.95l-1.59,1.46c-7.43.21-10.88-3.34-16.96-8.05-.94-.72-2.13-.85-3.2-.47l-.03.49c2.86,3.55,10.34,5,10.92,8.93-4.44,7.69-14.53-4.25-18.1-4.99-.48,1.02-.52,1.45-1.42,1.95-5.41,2.99-9.05-2.42-13.56-4.54-5.61,3.61-5.43,0-10.75-1.2-.75.27-2.96,1.55-3.66,1.44-7.97-1.28-13.39-7.87-19.54-13.49-4.72-4.31-7.27-7.4-11.41-12.63-4,8.61-2.34,4.06-8.42,7.64-.8.47-3.57,4.31-4.43,5.45-2.89,1.42-4.46-.4-6.19-2.95-1.16,1.77-1.54,3.32-2.88,5.06-.51.07-1.01.14-1.52.07-1.67-.25-2.15-1.55-3.08-3.06-1-1.62-1.61-1.63-3.16-1.93-.83-.16-1.36-.48-1.83-1.42-2.34-4.67-5.22.35-9.87-.86-10.58-2.73-7.3-7.85-11.15-10.49-2.85-1.94-9.4-2.31-12.12-4.92-1.2-1.15-.98-3.27-2.66-4.02-3.79,3.36-5.23.08-4.74-4.27.35-3.13-5.4-5.83-6.76-7.65-.34-.46-.71-.77-1.17-1.14v-39.68c2.21,11.48,2.04,26.82,2.14,38.69.01,1.39,1.38,2.16,2.31,2.47.4-.83-2.36-48.22-2.98-54.23C.73,27.07.71,13.84.13,6.46c1.18-.43,2.01-.89,3.21-.67.38,1.05,0,14.06.34,16.75.7,5.63.72,12.92,1.3,18.74,1.29,12.99,3.03,25.72,3.1,38.82.02,3.66,1.27,8.51,1.47,12.27.16,2.34-.48,5.04-.22,6.62.66.62.29.48,1.14.36,1-1.25,1.56-5.81,1.47-7.6-.66-14.09-.67-28.29-2.43-42.27-.29-2.28-.2-5.18-.37-7.5-.53-7.31-1.38-14.46-.99-21.81.13-2.33-.92-4.94.31-6.94.85-2.19-.97-5.67.41-7.73l.48.09c.6,1.53.17,8.4.19,10.78.98,7.23,1.36,14.41,1.62,21.75.17,4.88,1.52,10.38,1.62,15.13.25,12.35.25,24.8.55,37.16.03,1.36-.25,4.27.27,5.32h.54c1.36-1.75.39-6.09.4-8.72.05-12-.13-24.14-.67-36.12-1.11-14.39-3.2-31.04-3-45.53,2.84-.11,2.9-.2,5.48-.97,1.12,3.23.37,17.96.56,22.52.11,2.51.19,5.32.25,7.86-.32,14.75-1.92,29.89-1.17,44.69.14.14.28.28.43.42l.71-.05c.45-1.02.25-14.39.35-16.84.63-14.95,1.09-29.96.97-44.94-.03-3.74-.88-10.28-.17-13.65,1.25-.2,1.73-.21,2.99-.15Z"/>
      <path class="cls-5" d="M171.97,128.67c.2.05.44.22.64.32,0,.11.02.21.01.32-.09,1.48-1.64,4.78-2.06,6.53-.22.93-.39,3.29-.92,3.83-1.24-.87-2.3-1.58-3.7-1.97-.11-.03-.22-.06-.33-.09-.62-.14-1.16-.39-1.75-.66,1.05-.23,2.35-.43,3.28-1.14.52-.41.95-1.05,1-1.84.07-1.09-.31-1.44-.85-2.18.82-.74,1.58-.55,2.53-.72,1.02-.18,1.6-1.43,2.16-2.39Z"/>
      <path class="cls-5" d="M29.24,71.83c.17,1.72.45,2.92-.09,4.45l-.41.29c-.82-1.31-.32-2.86-.06-4.38l.56-.36Z"/>
      <path class="cls-5" d="M31.5,27.35c.37,1.98.66,2.72.2,4.67l-.33.09c-.51-1.09-.43-1.26-.46-2.51l.59-2.25Z"/>
      <path class="cls-1" d="M28.68,72.19c.14-1.17.15-2.98.71-3.77.27,1.21.03,2.15-.15,3.41l-.56.36Z"/>
      <path class="cls-1" d="M30.91,29.6c.02-1.87-.08-2.89.44-4.66.29,1.07.18,1.24.15,2.41l-.59,2.25Z"/>
      <path class="cls-1" d="M24.12,63.52l.38-.15c.13,1.11-.19,2.04-.43,3.1l-.04.02c-.15-1.16-.14-1.82.08-2.97Z"/>
      <path class="cls-2" d="M558.44,2.73c5.51-.33,3.96,2.49,5.26,7.73,4.19,16.84,2.27,35.11-1.65,51.73-.47,2-2.8,8.01-1.16,9.27.16-.19.35-.4.43-.66,7.86-22.73,8.8-43.89,2.96-67.48,1.94.59,2.77.7,4.76.92,1.33,4.35,1.5,9.29,1.89,13.88.5,5.86,1.18,11.81,1.15,17.71-.05,9.01-2.07,19.52-4.41,28.01-.48,1.74-4.49,14.18-4.5,14.51l.38.44.61-.27c.37-.48,2.95-8.92,3.32-10.16,4.81-15.99,6.97-31.71,4.87-48.77-.09-.76-1.52-15.18-1.53-14.91h.36c1.82,2.38,3.36,20.02,3.37,24.13.03,12.74-1.94,25.65-5.51,37.57-1.09,3.64-3.34,7.96-2.86,11.94l.35.02c.99-1.9,2.4-7.32,3.11-9.69,2.1-6.42,3.74-11.4,4.88-18.26.81-4.88.73-10.46,1.48-14.95v44.36c-1.12.86-6.59,3.29-8.06,3.67-.92.24-1.44-1.25-1.93-2.21-2.23-1.37-2.61,1.26-4.39-1.84-.25-1.39.45-3.29.83-4.77-.94-1.9-2.07-.55-3.62-2.54-.74-2.09-.48-3.01.15-5.12-1.33-2.81-3.75-5.65-3.41-7.73.14-.85.09-1.23-.08-2.18-1.13-.76-2.89,4.23-4.47,4.72-.26-.08-.51-.16-.77-.24-1.46-.41-3.59,2.1-5.78,2.82l-.39.12c-.36,2.17-.7,6.27-2.05,7.39-.65.54-1.45.7-2.2.45-3.01-.98-1.2-4.44-1.13-6.33-.76-.15-.4-.22-1.07.39-.91,3.59-4.09,6.46-6.65,8.26-.94-.25-1.21-.33-2.2-.34-1.08.75-.76.23-1.17,1.43.3,1.56.02.87.93,2.11,1.16.65,2.39,1.92,3.38,2.93,3.77,3.06,7.55,6.09,11.41,8.98,1.31.98,2.89,1.75,3.34,3.59-.32,2.54-1.41,2.89-2.87,4.72-5.19-1.24-13.59-8.63-17.98-12.69-1.29,2.37-1.53,4.16-2.43,6.69,2.71,4.66,21.2,15.88,9.68,19.06l-2.76-1.05c-.32.53-.32.58-.56,1.18-7.29,5.18-5.97-2.73-11.02-3.96-1.59,1.78.12,5.09-6.05,4.36-1.37-.16-4.51.78-6.68.69l-2.57,4.25c.66,1.5,8.55,5.55,2.57,9.26-.67.42-2.79.61-3.56.58l-.15.36c2.05,1.17,2.6,1.27,3.75,3.73.94,9.19-10.88,1.18-13.01-1.47-.97-1.21-1.08-.43-1.62.72-1.72,3.93-3.93,2.96-6.71,2.13-.78,1.6-1.51,3.12-2.37,4.66,8.25,4.25,2.9,11.47-6.28,5.31-.93.76-1.9,1.57-2.84,2.29,2.61,2.28,2.95,4.41.21,6.89l-3.51.26c-1.15-.96-3.52-3.07-4.75-3.4-2.05,2.87-1.82,2.31-4.75,2.72-4.17.58-6.15-.56-9.84-2.45-1.94-.81-5.25-.61-7-1.65-2.85-1.7-2.98-2.51-6.32-3.6-5.14-1.67-11.89-7.45-16.12-11.35-1.5-1.39-3.31-4.07-4.37-5.48-2.7,8.29-4.9,10.43-9.53,16.42,4.46,12.98,13.42,16.63,22.29,23.22,8.94,6.64,17.73,12.36,27.7,16.22,3.82,1.48,7.48,2.08,11.5,3.76l24.9,10.13c4.03,1.66,8.21,3.84,12.27,5.28,9.55,3.38,19.56,6.45,29.29,8.93,10.21,2.6,20.75,3.89,31,6.61,3.28.87,6.54,1.36,9.81,2.48v1.91c-6.74-1.14-13.91-3.7-20.73-4.92-13.88-2.5-27.88-5.61-41.44-10.18-15.35-5.18-30.5-12.34-45.7-18.3-4.18-1.64-8.05-2.85-12.31-4.07-4.24-1.43-9.3-4.7-13.53-6.55-10.82-8.48-33.63-18.45-36.94-35.02,5.86-7.12,8.04-9.86,10.56-19.79l.35-.21c2.02,2.22,3.56,4.9,5.32,6.98,3.47,3.77,8.13,7.56,12.38,9.87,3.54,1.92,8.35,4.29,12.04,5.98,3.21,1.47,6.67,1.01,9.9,3.56.66.52,5.94.36,6.86-.2.45-.24.35-.39.5-.98-.27-.95-.49-1.45-.38-2.45l.5-.22c2.6.71,5.44,2.96,7.78,4.67,1.17-.03,1.66.2,2.34-1.06-.73-2.81-6.44-5.81-8.16-7.47-.24-.23-.01-.84.08-1.41-.58-1.15-2.43-2.08-3.26-3.02-1-1.14-2.07-2.96-2.92-4.27-5.06-7.81-8.11-16.1-11.21-25.24-.94-2.77-2.75-6.1-3.81-8.93-.43-1.33-.93-2.72-1.32-4.07-.56-1.93-3.94-5.29-2.45-7.23,1.23-.19,1.62.59,2.76,1.47,4.68,3.35,5.49,14.18,8.39,19.27,2.75,4.84,6.05,13.11,9.32,17.14,5.6,6.88,13.8,14.11,21.07,17.92.75.39,1.79-.63,2.4-1.17-.89-1.9-3.93-2.87-5.49-4.14-7.31-5.9-14.86-11.23-19.68-20.65-2.78-5.43-5.14-9.63-7.16-15.54,2.66,1.91,4.15,5.44,6.31,8.03.75,1,3.63,1.97,4.21,2.84,7.85,11.64,13.84,15.65,26.05,18.92l1.85-2.76c-5.3-1.2-9.26-1.16-14.65-5.15-7.69-5.7-16.61-20.07-19.43-30.61-.67-2.51-3.65-15.4-2.84-17.35,1.54,1.06,2.39,5.26,3.85,7.41.63.08.92.16,1.55.33l-.39,1.27c1.2,3.28,1.96,6.73,3.13,9.94.99,2.73,2.67,1.92,2.71,5.85,2.2,4.19,5.27,8.5,7.82,12.4,1.27,1.95,11.06,14.41,12.97,9.51-.65-1.29-3.7-2.84-5.34-4.96-5.88-7.63-12.1-15.62-15.62-25.38-.71-1.97-1.1-3.69-1.69-5.32-.21-.59-.42-1.17-.63-1.76.48-.96.19-.53,1.17-1.07,1.88.8,1.35,4.22,2.53,6.27,8.23,14.33,17.83,28.84,29.63,38.73,2.11,1.77,6.6,5.99,8.97,3.87-.31-1.75-10.41-8.84-12.47-11.29-8.67-10.47-18.3-21.93-24.14-35.25-1.78-4.05-8.56-18.58-4.12-21.35,5.06-.16,9.13,21.54,13.13,25.46,2.64,2.59,6.69,13.76,9.16,16.33,5.35,5.56,10.59,10.56,15.57,16.78,1.05,1.37,3.76,2.48,4.66.23-1.01-1.28-2.57-2.5-3.62-3.71-2.91-3.35-5.39-5.61-8.41-8.73-.73-.75-4.84-5.4-5.52-6.58-5.35-9.27-12.2-20.52-15.37-31.21-.14-.48.61-1.2.89-1.62.61-.9.25-1.46.95-2.95.96-.01,1.12.31,1.54,1.44,2.13,5.82,20.02,30.64,24.17,34.89,1.99,2.04,5.89,6.28,8.61,5.75.52-.1.36-.07.7-.66-.33-1.02-3.79-4.21-4.66-4.91l-.28-.23-.04-.68.5-.54c2.95-.29,9.07,11.37,11.05,4.67-.25-.51-12.12-11.38-13.66-13.81-1.74-2.77-7.34-9.91-8.56-12.97-1.29-3.22-7.05-19.77-6.99-22l.38-.34c1.93.92,3.74,4.47,4.33,6.88,1.33,5.5,5.46,10.18,8.3,14.59,1.2,1.86,2.19,4.02,3.35,5.91,3.58,5.78,7.02,11.14,11.89,15.3,1.31,1.13,3.2,3.5,4.77,4.02,2.73.91,3.58,4.81,6.29,5.54.69-.6,1.19-.94,1.57-1.86-.56-3.15-12.05-11.36-15.27-15.65-9-12.02-15.96-23.81-21.9-38.5-.58-1.44-.79-2.59-.4-4.11,2.89-2.66,3.33,6.81,5.01,8.64,1.92,2.1,2.51,1.08,3.75,4.1,1.42,3.48,4.52,7.14,6.68,10.19.13.78.14.53.08,1.21-.11,1.14,6.31,10.24,7.28,12.08.53,1,.82,2.05,1.21,3.14,1.78,5.04,14.09,16.3,18.23,18.44.95-.43,1.41-.6,2.29-1.26-.05-.65-.07-1.08-.63-1.45-3.05-2.04-5.58-4.71-8.34-7.14-9.38-8.17-14.48-21.27-21.13-32.49-1.91-3.21-9.48-12.42-8.45-16.78,3.15-.94,8.11,9.8,10.54,12.36,2.79,2.69,8.99,12.32,11.56,14.27,5.26,3.99,19.73,18.57,24.46,19.64.58-.63,1.16-1.25,1.72-1.91-.79-1.33-6.08-4.38-7.48-5.58-6.22-5.32-12.2-9.21-16.62-17.16-1.11-1.85-3.58-4.3-4.45-6.21-2.53-5.54-5.85-9.9-8.3-15.46-1-1.28-1.46-2.5-2.16-4.05.56-.57.57-.5,1.3-.64.47.31,2,3.36,2.77,4.31,5.59,6.85,10.04,15.21,16.95,20.19,1.35.97,2.03,3.16,3.92,3.09.81-.43.9-.37,1.46-1.18-.3-1.85-4.2-4.44-5.54-5.85-4.85-5.12-14.24-14.67-17.09-21.87.81-.74,1.62-1.59,2.4-2.39,2.06,2.83,4.69,6.1,7,8.45,3.45,3.51,8.37,6.05,10.34,11.23.62,1.65,3.75,7.74,5.21,8.22.78-.91.81-.86,1.28-2.13-.15-.91-.21-1.32-.26-2.24l1.23-.53c.44-.52.61-.83.81-1.52,4.37-15.06,10.04-30.82,7.79-47.19-.34-2.49-.34-5.32-1.13-7.65-.37-1.08-.78-2.23-.56-3.35.72-.7,1.75-1.04,2.64-.65.8,1.45,3,11.23,3.33,13.53,2.84,20.3-3.5,29.88-8.5,47.52-.47,1.64-1.48,3.49-1.39,5.1l.41.44c2.57-.2,1.96-5.9,2.86-8.2,3.57-8.83,6.76-16.63,7.93-26.6.87-7.35.15-12-.01-19.23.21.68.41,1.36.6,2.05,2.78,10.17,2.99,13.88,1.37,24.7-.27,1.84-1.47,4.72-1.85,6.47-.77,3.59-.52,4.3-1.84,7.73l1.38,2.05c.49-.01.62.13,1.05-.58,7.13-11.92,5.35-31.97,3.88-45.98-.21-2.03-2.7-7.7-2.76-9.51,1.05-.1,2.1-.1,3.15,0,.48.04,1.4.17,1.58.78.96,3.17,1.74,8.36,2.25,11.51,2.12,13.05,1.91,23.09-.59,36.05-.75,3.9-2.06,6.87-2.34,10.71l-.04.56c5.77-11.65,6.46-32.14,4.49-45.35-.93-6.23-.67-8.6-2.84-14.6Z"/>
      <path class="cls-5" d="M576,60.47c-2.14,4.47-5.11,18.65-7.83,20.73l-.3-.21c.21-2.43,4.21-12.68,5.19-16,.92-3.12,2.04-7.01,2.95-10.19v5.68Z"/>
      <path class="cls-3" d="M502.32,126.85c-.7-.25-3.38-2.57-3.74-3.29l.57.06-.42.16.25-.26c1.25.61,2.39,1.9,3.48,2.97l-.15.36Z"/>
      <path class="cls-1" d="M465.64,107.29c1.74.4,3.29,3.78,4.35,5.51-1.68-.83-3.21-3.81-4.35-5.51Z"/>
      <path class="cls-2" d="M218.82,201.71c3.04,1.87,7.23,4.8,10.62,4.26,1.58-.25,2.62-.98,4.3-1.15l.31-.54c-.97-2.94-4.55-1.64-6.28-2.25-2.15-.75-10.33-2.15-10-5.6,1.55-.54,5.58,2.95,7.76,3.3,3.3.53,2.1.61,4.71-1.55l.04-.73c-1.55-2.13-13.27-5.48-14.45-8.04l.2-.51c1.53-.2,4.32,2.66,7.25,3.55,8.31,2.58,16.68,4.83,25.11,6.73,2.55.56,4.01-.25,6.31.44.76.79.9.8,1.25,1.97l-.27.52c-1.31.23-3.64.27-4.87-.36l-.67-1.43-.44-.11c-.68.75-1.27,2.16-1.71,3.18.05.67-.06.97.34,1.19,4.39,2.45,10.54,2.67,15.16,3.87,1.24.32,4.17,2.56,5.54,2.73,3.17.4,10.85.26,13.25,3.44-1.82.63-14.83-2.12-18.29-1.47-1.86.35-11.63-4.31-14.07-3.75l-.31.5.07.72c1.03.9,2.5.68,3.86,1.11,8,2.61,16.07,4.9,24.19,6.87,3.79.89,13.31,0,14.79,5.55l-.27.33c-2.89-.28-9.99-2.84-13.08-3.64-4.06-1.07-8.44-.83-12.49-1.66-4.76-.97-9.6-2.67-14.29-4.1-.73-.22-1.24.18-1.73.83l.16.65c1.26.84,11.86,2.73,13.67,4.46-.26-.25,1.04,1.54.58.9,1.85-.24,2.44-.43,4.25-.01,3.77.87,18.68,5.88,21.01,8.47l-.03.66c-1.16,1.18-2.2,1.06-3.67.8-6.42-1.09-12.61-4.18-18.83-6.41-1.7-.62-3.5-1.65-5.21-2.14-2.23-.65-4.67.09-6.75-1.5-1.19-.9-5.18-.79-5.86.79.64.85,1.89.98,2.87,1.23,1.74.43,3.68,1.66,5.37,2.5,2.46,1.21,10.48,3.64,12.2,5.13l-.11.4c-4.62.54-17.69-3.88-21.51-1.66l-.37.65c.2,1.07.24.81,1.11,1.66.7.1,1.07-.3,1.69-.75,1.17,0,5.5,1.84,6.96,2.34,2.52.83,5.05,1.58,7.59,2.25-.09,1.07-.14.84-.79,1.82-3.07,1.26-7.76-3.68-12.54-2.16-1.52-.6-2.55-1.39-3.93.13.03,2.61,8.03,4.55,9.81,4.98h-17.73c-5.2-1.98-7.5-1.9-11.19-7.63,1.77.29,7.17,1.48,8.56,1.44.7-2.24-1.52-1.57,1.35-4.38-3,.07-10.06.42-11.07-4.13l.22-.76c1.19-.4,7.1,3.25,9.37,1.72.3-.2,1.13-1.57,1.38-1.98-4.07-2.09-8.53-2.76-12.86-4.43-.43-1.16-.91-2.37-1.32-3.54,3.51,1.4,10.01,4,13.42,1.66l.17-.55c-.35-.51-.77-1.24-1.36-1.09-2.13.56-3.32-.61-5.35-1.41-3.06-1.2-6.19-1.61-8.86-4.07l-.02-.45c2.09-.51,9.76,2.56,13,.84-.35-4.03-13.46-3.08-17.21-10.61Z"/>
      <path class="cls-2" d="M489.59,241.09c4.47-3.34,22.2-18.53,25.57-19.53l.08.52c-2.12,3.1-19.7,16.81-23.08,19h-2.57Z"/>
      <path class="cls-2" d="M485.39,241.09c5.2-5.42,11.33-9.8,17.22-13.89,2.28-1.58,4.35-3.3,6.75-4.58l.12.2c-3.15,3.67-7.99,6.95-11.66,9.87-3.48,2.76-7.11,5.88-10.69,8.41h-1.74Z"/>
      <path class="cls-2" d="M508.42,241.09c3.18-3.35,15.84-14.88,19.15-15.81l.5.17c-.32,1.18-16,13.64-18.29,15.64h-1.35Z"/>
      <path class="cls-2" d="M502.79,241.09c2.06-1.72,13.57-9.94,15.5-10.92-.82,1.11-10.9,9.82-12.2,10.92h-3.3Z"/>
      <path class="cls-2" d="M477.62,236.1l-.58,1.42c-1.6,1.59-2.37,2.59-4.28,3.57h-1.66c1.11-1.84,4.71-3.83,6.51-4.98Z"/>
      <path class="cls-2" d="M352.77,241.09c-1.85-2.53-3.15-1.27-4.79-2.8l.04-.38c2.36-.95,4.95,1.36,6.73,3.19h-1.97Z"/>
      <path class="cls-4" d="M507.96,49.36c-.37.69-.21.47-.76.93-1.68-.82-3.15-3.02-1.4-4.98.71,1.55,1.17,2.77,2.16,4.05Z"/>
      <path class="cls-3" d="M477.62,236.1c1.56-1.21,3.52-3.06,5.14-3.59l.31.16c-2.45,2.89-3.87,2.98-6.03,4.84l.58-1.42Z"/>
      <path class="cls-2" d="M283.25,26.27c-.47-1.46-6.12-10.52-7.02-10.99-.45-.23-.73.01-1.12.33-.91.74-1.74,2.04-1.83,3.43-.23,3.56,6.11,14.45,3.92,16.79-.99,1.06-3.69.98-4.98,1.17l-3.08-2.48c-3.59,13.38-1.17,25.75,5.41,36.68,1.14,1.9,4.09,3.66,4.16,5.9-2.18,6.74-15.13,3.63-17.52-6.15-2.93-11.97-6.56-23.61-6.65-36.49-.05-2.1.95-5.62,1.67-7.58,3.09-8.41,7.21-9.88,14.13-9.12,2.02-4.36,2.08-4.48,1.04-9.56l.37-.4c1.64-1.81,2.6-4.75,3.13-7.82h-20.79c-2.34,8.82-4.67,18.37-3.64,22.29.72,2.72-1.59,7.98-2.16,10.85-.4,2-.42,4.35-.52,6.42-.61,12.65,2.9,22.63,7.74,33.46,2.39,5.36,5.12,11.51,9.6,14.52,3.17,2.13,7.08,2.09,10.47.78,4.1-1.58,6.4-7.11,8.18-11.61,4.78-12.06,4.16-32.06.74-44.61-.47-1.71-.89-4.64-1.27-5.82Z"/>
      <path class="cls-2" d="M296.23,5.03c1.24,6.3-.62,17.05-.77,23.59-.15,6.43,1.12,12.81,1.14,19.24,0,3.68-1.48,19.9-.83,21.61.39,1.03,2.54,2.06,3.31,2.96,1.9,2.24,3.28,5.05,5.01,7.48,1.99,2.81,6.94,6.38,9.59,8.56.12-.04.24-.08.36-.11,4.88-1.39,12.75,1.82,15.92-4.61,2.33-4.72,3.47-13.04,2.95-18.49-.4-4.28-1.52-8.44-1.88-12.74-.33-3.95-.28-7.95-.63-11.89-.35-3.98-1.09-8.23-1.88-12.11-.83-4.07-2.87-7.62-4.1-11.5-.78-2.48-1.17-5.12-1.9-7.63-.84-2.88-1.92-6.12-2.89-9.39h-25.46c.88,1.61,1.72,3.32,2.06,5.03Z"/>
      <path class="cls-2" d="M375.1,24.95c-.56-8.06,1.26-17-.67-24.77-.02-.06-.03-.12-.05-.18h-32.43c2.63,4.28,4.96,8.67,5.94,11.4,1.3,3.64.74,7.78,1.04,11.64,1.01,13.23,4.27,37.28,15.3,43.15,1.92,1.02,3.72.78,5.61-.27,3.93-2.18,7.04-6.14,9.38-10.56-.17-4.34.05-9.18-.65-13.41-.94-5.7-3.06-11.16-3.47-17Z"/>
      <path class="cls-5" d="M310.72,17.98c.32-.05.39-.07.76-.08,4.26-.04,8.39.52,11.62,4.21.93,3.86,1,8.27,2.87,11.56-.95-.65-2.86-1.68-3.47-2.8-.59-1.1,0-3.59-.93-4.48-.73-.03-1.29-.07-1.93.46-1.77,1.43-2.72,5.11-3.11,7.61-1.16,7.48,1.63,36.2,4.94,42.3.82.63.99.45,1.91.28.57-.53.68-.8,1.42-.86.2.72.27.86-.02,1.59-.65,1.67-2.38,3.3-3.76,3.91-.71.32-1.48.43-2.23.33-.21-.03-7.24-3.37-7.83-3.72-2.67-1.6-4.21-3.34-5.15-6.88-.84-3.14-1.14-6.51-1.74-9.74-2.36-12.73-5.6-27.81-.57-40.17,2.42-1.72,4.48-2.81,7.21-3.55Z"/>
      <path class="cls-5" d="M369.39,18.42c.6-6.08,1.37-12.28,1.31-18.42h-15.08c-.93,3.05-1.25,6.53-1.35,9.63-.15,4.6-.34,9.54-.01,14.12.55,7.63,3.8,24.83,7.99,30.43,1.69,2.27,4.34,2.82,6.48,4.12.36.22.61.34,1,.43.67-1.61,1.58-2.66,2.69-3.8l-.06-.42c-.91-6-5.87-16.99-3.81-22.63,1.58-.96,3.75-1.43,4.42-3.73.26-.9.14-1.88-.27-2.67-1.16-2.26-3.61-4.03-3.31-7.07Z"/>
      <path class="cls-2" d="M155.26,26.53c1.45.29,3.06,1.41,4.4,2.18,6.52,3.71,8.56,7.85,12.88,14.52,1.18,1.83,2.29,3.56,3.88,4.87,2.34,1.95,6.15,4.06,8.99,4.13,1.97.05,5.18-2.34,6.93-1.26l.36,1.5c2.11,1.64,4.96-5.93,7.33-6.24.04.09.09.17.12.26.48,1.49-.61,3.71-1.1,5.06-.57.44-1.33.96-1.79,1.59-.51.71-.53,1.29-.55,2.19.46.87.53.88,1.32,1.26,1.05-.11,1.81-.44,2.55-1.42,1.01-1.34,2.99-5.19,3.28-7,.14-.88.07-1.96.05-2.86-.01-.68.02-1.09.25-1.73.62-.26.46-.34,1.13.05.42.99.32,2.18.2,3.26-.28,2.43-1.67,7.12-3.05,8.9-.97,1.26-2.56,2.19-3.69,3.26l.04.84c2.75,3.47-.35,5.21,2.74,8.86,2.22,2.63,5.51,3.61,7.72,6.21,1.31,1.53,1.58,4.37,3.03,5.78,2.29,2.23,5.96,3.35,7.75,6.24l-.15.43c-2.93,1.23-6.02,1.26-9.03,2.05-1.24.33-2.6.79-3.68,1.62-2.73,2.09-7.81,8.96-9.59,12.42-2.81,5.48-2.19,7.62-1.11,13.64,2.75,1.59,5.35,3.01,8.26,4.13.79-.35,1.52-.65,2.35-.72,1.64-.13,3.28-.61,4.92-.27.52.47.54.34.74,1.17-.54,2.85-2.24,5.49-3.19,8.19-1.07,3.04-1.78,6.31-2.71,9.42-1.48,4.92-4.19,10.45-6.99,14.35-1.8,2.5-5.12,4.24-6.54,6.98-.44.84-.38,1.39-.27,2.34.44.75.88,1.17,1.62,1.33,1.8.39,5.54-1.71,6.83-3.17,3.4-3.87,5.38-9.27,7.73-14.1,1.41-2.89,3.1-5.56,4.56-8.41,3.4-6.62,8.94-19.7,14.09-23.78l.31-.24c1.88.1,3.76.3,5.64.45,5.43-4.54,5.67-13.76,11.8-17.73,3.24-2.1,11.14-4.95,14.57-3.09,1.8.98,3.39,2.78,5.3,3.42,4.14,1.4,13.18-1.6,16.83-4.37.39-.3.13-.22.72-.07,1.48,2.24,1.35,5.25,2.17,7.82.06.18.12.36.18.55-.09,2.64.68,6.4.04,8.88-1.56,6-5.43,9.64-9.84,12.22-6.79,3.97-16.08,1.65-23.17.27-2.12-.41-4.43-.67-6.49-1.36-2.09-.69-4.09-2.3-6.16-3.22-.5.47-.38.41-.46,1.11.89,1.98,3.04,3.32,4.64,4.28,7.13,4.27,21.06,5.72,28.97,4.26,2.99-.55,5.78-1.72,8.63-2.92-1.24,1.85-2.5,3.72-3.87,5.43-3.48,4.33-7.6,5.76-12.4,5.71-7.61-.08-19.72-1.4-25.4-8.57-1.45-1.83-1.67-4.82-3.27-6.74-2.51-3-6.07-3.4-9.34-3.41-1.93,3.08-3.83,6.16-5.26,9.66-1.07,2.61-1.91,5.37-3.05,7.93-2.92,6.58-12.03,25.39-16.53,29.6-3.29,3.07-8.41,2.91-12.29,2.08-7.02-1.49-11.56-8.64-15.45-15.41-.19-1.94-.45-3.97-.35-5.92,1.12-21.82,21.39-47.2,17.38-67.98-4.35-6.69-8.77-8.27-14.62-12.05-2.33-1.51-4.55-3.51-6.65-5.47-2.9-2.71-4.36-6.55-7.11-9.33l-.36-.36c-1.13-6.45-1.42-11.53-4.31-17.34-1.06-2.13-2.68-3.75-3.39-6.14Z"/>
      <path class="cls-2" d="M206.41,0c-.84,4.07-1.53,8.21-2.28,12.23-.35,1.87-.82,3.81-1.65,5.43.17,3.67-.21,12.93,1.84,15.46.51.63,1.25.78,1.8,1.34.82.83,1.38,2.18,2.17,3.1,2.56,2.96,5.96,3.62,9.13,4.94l.36-.12c2.07-.69,4.1-.59,6.2-.84,4.38-.53,7.51-4.55,9.64-9.08,1.85-3.93,1.85-7.72,2.42-12.06.86-6.6,1.78-13.53,1.9-20.4h-31.53Z"/>
      <path class="cls-5" d="M232.1,2.89c.09-.96.15-1.92.19-2.89h-20.88c-2.06,7.26-4,15.2-4.07,20.31-.05,3.1.69,6.16,1.31,9.12,1.88,1.93,4.38,4.22,6.89,4.41l.54-.39c.38-2.49-2.58-7.47-.48-9.34,1.75-1.56,5.11.27,5.82-3.09.28-1.35.3-2.89.4-4.28.3-3.89,1.14-6.27,2.68-9.6l.49-.43c3.38,5.86,2.84,12.88,2.54,19.76-1.62,2.63-3.7,4.86-5.48,7.33l2.39,1.34c2.87-2.12,4.98-5.33,5.94-9.41.82-3.49-.08-7.25.17-10.8.28-4.02,1.16-8.01,1.54-12.03Z"/>
      <path class="cls-2" d="M322.74,97.69c5.09-2.43,10.46,6.84,14.77,8.96,1.54.75,3.76.66,5.43,1.02,1.2,1.36.46,4.26,1.37,5.8.21.36.43.67.63,1.05-.28.38-.54.66-.86.98-.12.12-.25.24-.37.36-.22,2.36,2.27,8.84,2.74,11.67.14.86-.02,1.71-.49,2.37-1.64,2.29-8.95,3.76-11.44,4.17-4.29.7-11.45.84-14.87-2.78-1.47-1.56-2.59-3.81-4.14-5.21-.54-.48-.6-.6-1.27-.47.24.78.51,1.53.79,2.28,1.49,3.95,3.32,5.37,6.56,6.81,8.57,3.8,18.94,1.96,26.98-2.92.46,4.1,2.14,7.77,2.89,11.8.62,3.28-.59,6.97,1.12,9.92.64.4.79.54,1.52.28,1.16-.42,2.41-2.17,2.98-3.43.54-1.2,1.19-2.17,1.88-3.22-.04-2.86-.45-5.33-1.2-8.02-.93-3.3-4.77-11.07-4.18-14.34.17-.93.29-1.11.89-1.58.76.48,1,1.53,1.35,2.45,3.04,7.23,6.55,11.63,5.16,20.6-.61,3.91-1.97,7.23-4.69,9.44-5.6,4.53-12.62,3.94-18.98,3.55-2.4-.15-4.92-.15-7.27-.81-.13-.3-.26-.6-.38-.9-.23-.6-1.83-1.15-2.38-1.49-1.98-1.19-3.58-2.84-4.91-5.02-2.16-3.53-5.13-10.96-6.76-15.12-2.18-5.55-3.34-10.6-7.54-14.47-9.86-9.08-13.18,1.27-21.67,2.82l-.17-.33c2.7-3.61,8.42-7.13,12.33-7.55,2.07-.22,4.17.2,6.24-.05,5.41-.66,6.58-5.18,7.38-11.22.12-.91-.02-2.51.3-3.29.18-.44.69-1,.96-1.4,3.07-1.2,6.16-1.97,9.32-2.67Z"/>
      <path class="cls-2" d="M130.12,0h-45.91c-2.94,1.54-5.27,3.23-6.38,5-1.03,1.63-1.36,3.6-1.67,5.6-.68,1.18-1.59,1.64-2.6,2.28-.39.83-.47,1.16-.24,2.11,1.16,4.73,5.66,10.61,9.18,12.64,3.81,2.2,8.5,3.51,12.55,1.62.67-.31.98-.48,1.27-1.33l-.37-.4c-2.32-2.54-2-4.78-5.09-5.09-1.91-.16-3.38-.05-4.89-1.73l.04-.45c1.32-.5,2.66-.07,4.02-.32,5.47-1,11.42-2.07,16.77-3.74,4.46-1.4,8.14-5.18,12.67-6.22,2.39-.54,4.95-.82,7.38-.95,1.93-.1,4.63.46,6.41-.23.17-3.18-3.83-5.18-3.14-8.77Z"/>
      <path class="cls-2" d="M129.4,11.18c4.32.09,7.81,4.15,11.24,7.03,7.8,6.54,11.67,7.22,15.66,18.82.58,1.7,1.53,3.38,1.89,5.17.75,3.75,1,8.11,2.79,11.37,2.37,4.37,5.4,8.11,8.92,11.01,1.45,1.2,2.94,2.03,4.23,3.53.08.09.15.18.22.27,1.18-.24,2.37-.46,3.55-.68,1.52,1.08,3.14,1.98,4.7,2.98,4.1,2.65,5.84,5.56,7.22,10.97-.3,1.5-.55,4.01-1.67,4.9-1.3,1.04-4.41.28-6.06.67-5.74,1.35-9.7,6.88-15.97,5.45-2.11-.48-4.01-1.56-5.92-2.72-6.35-3.84-8.58-8.06-12.47-15.1-.06-.1-.14-.19-.19-.31-.17-.46-.19-.97-.4-1.45-.58-1.35-1.11-2.64-1.34-4.16-.84-5.36,2.18-9.87,4.45-13.97.73,1.29,1.65,2.42,2.43,3.67,3.34,5.36,6.64,10.84,12.1,12.81,2.86,1.03,5.47,1.47,8.16,3.25,2.52,1.66,4.84,5.11,7.55,6.02.62.21.67.28,1.24-.16l.04-.91c-1.83-4.36-6.79-8.11-10.53-9.28-2.35-.74-5.1-.97-7.28-2.36-1.61-1.03-3.05-2.93-4.35-4.48-1.93-2.31-3.76-4.78-4.95-7.8-1.06-2.68-1.41-5.59-1.93-8.48-1.02-5.9-3.15-11.42-6.21-16.08-2.74-4.16-6.19-7.59-9.75-10.58-1.74-1.45-3.59-2.76-5.21-4.42-1.23-1.27-2.01-2.96-2.19-4.95Z"/>
      <path class="cls-3" d="M177.32,86.81c.63,0,.73,0,1.26.43-.13.98-.28.86-.88,1.43l-.6-.1c-.27-.92-.09-.91.22-1.75Z"/>
      <path class="cls-2" d="M376.09,70.84c.08-.03.16-.07.24-.08,4.3-.82,8.21,6.28,11.11,9.16.08.08.16.15.24.23.73,3.62,2.93,8.52,2.39,12.13-.4,2.65.57,5.29-.23,7.9-.29.94-.76,1.72-1.35,2.39-.84.95-8.66,7.64-9.36,7.99-2.38,1.22-4.89-1.78-7.15-2.89-5.31-2.62-9.39-.06-14.22,2.53-1.16.77-2.23,1.91-3.29,2.88-.29,1.56-.27,3.16-.46,4.74-.14,1.17-.54,2.18-1.32,2.88-.53-.14-.47.02-.73-.47-.64-1.2-.57-2.83-.37-4.19.69-4.69,4.94-11.78,8.08-14.5.89-.77,1.67-1.66,2.44-2.61,1.33-5.57.03-7.31.58-10.65l.87.46c-.24-2.29-2.27-3.72-2.37-6.04,1.08-1.62,1.89-3.47,2.99-5.06,2.97-4.31,7.69-5.56,11.91-6.78Z"/>
      <path class="cls-2" d="M403.39,109.47c1.77,2.92,3.17,13.87,2.52,17.4-.44,2.4-3.45,6.01-3.25,8.2.21.11.36.2.6.22,2.33.16,6.2-10.88,8.01-13.37l.32-.44c-.24,1.65-.35,3.4-.68,5.02-1.44,7.25-7.1,13.26-12,16.9-2.36,1.5-4.8,2.28-7.34,3.13-5.59-2.8-2.93-4.59-6.71-8.43-.78.04-1.56.07-2.33.09-1.47.02-2.87-.32-3.95-1.64-.23-.82-.34-1.15-.12-2.02.32-1.25.81-1.55,1.65-2.21,1.25-.99.89-3.42,1.37-4.98.29-.96,1.19-1.19,1.9-1.53,6.63-3.13,12.07-10.06,18.35-14.13,1.08-.7,1.19-.78,1.66-2.19Z"/>
      <path class="cls-2" d="M230.36,48.24c.19-.01.37-.06.56-.04.99.1,2.25,1.22,2.91,2.09,2.89,3.82,3.21,12.71,3.17,17.68-.09,11.84-4.9,10.2-10.42,16.97-2.03-.06-3.91-.17-5.85-.97-7.04-3.16-4.42-7.98-9.48-11.54,8.42-6.96,9.12-17.17,15.57-23.28,1.15-.14,2.18-.33,3.28-.8.09-.04.18-.08.27-.12Z"/>
      <path class="cls-2" d="M211.92,91.59c.09-.02.17-.05.26-.07,1.33-.23,3.67.2,4.73,1.27,1.03,1.04,1.9,2.8,2.01,4.45-.43,1.98-2.08,2.96-2.84,4.72-.81,1.89-1.25,4.1-1.93,6.08-1.88,5.53-5.36,7.9-9.27,10.82-.13.06-.25.13-.39.19-1.61.66-4.8-1.47-6.34-2.42-.14-2.23-.5-4.51-.41-6.75.14-3.87,5.09-8.95,7.04-11.72,1.23-1.75,2.15-3.68,3.54-5.26,1.21-.38,2.4-.87,3.6-1.31Z"/>
      <path class="cls-2" d="M395.19,99.67c.18-.02.36-.04.54-.05,1.92-.09,4.41,1.32,5.78,2.93.35,1.56-.32,3.35-.84,4.81-2.04,5.71-14.84,15.46-19.8,17.79-.82-.02-1.28-.44-2.04-.74-1.09-.42-2.18-.81-3.1-1.7-.68-.66-1.27-1.52-1.3-2.65-.05-2.02,1.85-3.08,2.94-4.24.04-.48.04-.88.01-1.37,0-.17-.02-.34-.03-.51,1.31-2.18,5.84-2.92,7.88-4.32,3.7-2.56,6.32-7.11,9.97-9.95Z"/>
      <path class="cls-2" d="M239.9,129.49c.51.26.31.11.75.52,2.99,2.78,6.09,4.4,9.68,5.6,6.81,2.28,15.85,3.46,22.75,1.07,2.49-.87,4.62-2.25,6.86-3.86-1.38,3.64-3.1,5.82-5.39,8.61-1.13.3-2.23.76-3.37,1.03-5,1.18-19.29.59-23.32-2.89l-1.84-1.6c.24.58.5,1.15.75,1.72,1.08,2.33,1.98,2.84,4.05,3.52,6.6,1.97,15.98,2.44,22.63,1,3.04-.66,5.8-2.01,8.9-2.25v.48c-.52.94-1.04,1.76-1.77,2.45-3.86,3.61-15.18,3.93-19.85,3.12-4.99-.86-15.45-4.22-18.61-9.47.5-3.07-1.54-6.07-2.22-9.04Z"/>
      <path class="cls-2" d="M425.29,102.97c.98.17,1.41.46,2,1.45,3.27,5.48,6.81,10.8,10.22,16.16,2.01,3.16,3.82,6.76,6.3,9.38,2.46,2.61,5.25,5.48,8.03,7.55,1.18.88,5.68,2.98,6.08,4.29-.89.3-1.32.03-2.2-.27-3.79-1.92-7.71-3.86-11.38-6.1-7.58-4.63-13.9-12.55-18.62-21.17-.94-1.71-2.04-3.34-2.58-5.32.26-1.3.89-.33,1.5-1.04.9-1.05.67-3.51.67-4.92Z"/>
      <path class="cls-2" d="M146.58.19c-.07-.05-.13-.12-.19-.19h-7.27c.1,1.53.21,3.03.17,4.59.08.08.17.15.25.23,2.13,2.04,3.31,5.7,5.84,6.98.56-.21.67-.2.95-.91,1.07-2.77.52-4.77,2.94-6.7,1.7-1.12,3.58-2.07,5.2-3.33-2.46.49-5.66,1.13-7.88-.68Z"/>
      <path class="cls-2" d="M184.61,9.71c-1.5-3.87-3.5-6.99-6-9.71h-10.34c1.93.62,3.92,1.78,6.31,3.71,2.77,2.25,5.04,4.68,6.67,8.34,1.84,4.12,1.91,8.08.86,12.51-1.02,4.34-3.15,8.51-6.15,11.09-.29.25-.57.51-.86.76-.85.38-1.2.37-1.71,1.34-.07.88-.1,1.57.39,2.3.48.71.8.82,1.48.99,1.26-.93,2.12-2.32,3.12-3.64,2.52-3.37,4.19-5.91,5.13-10.44.61-2.95,1.29-5.5.74-8.55,1.21-4.44,2.18-4.04.37-8.7Z"/>
      <path class="cls-2" d="M74.43,0c-.53.56-.93,1.17-1.1,1.83-.16.64-.09,1.03.04,1.65h.35c.15-.45.25-.77.31-1.27.33-.61,1.31-1.38,2.63-2.22h-2.24Z"/>
      <path class="cls-2" d="M539.28,4.87c.56,0,1.22-.06,1.77.08.55.14.88.61,1.2,1.15,1.32,2.24,1.4,6.18,1.7,8.93,1.37,12.61-.46,23.99-4.41,35.61-1.33,3.93-3.06,7.15-3.43,11.5l-.05.56c-.18.76-.07.97-.65,1.38-2.68-3.5,2.68-20.49,3.53-25.22,1.29-7.15,3.32-22.41,2.02-29.22-.29-1.52-1.14-2.97-1.59-4.46l-.09-.3Z"/>
      <path class="cls-2" d="M213.85,178.52c2.81,1.23,5.28,3.73,8.18,4.88,2.97,1.18,6.33,1.07,9.4,1.93,2.76.77,5.3,2.33,7.98,3.38,3.03,1.18,6.23,1.59,9.37,2.09.75,1.28,1.46,2.59,2.19,3.89-.3.09-.64.21-.95.26-1.85.3-9.77.16-11.64-.35-1.1-.3-5.11-1.83-5.64-2.92-.36-.75.12-.97-.69-1.39-5.16-2.67-11.92-3.82-16.4-8.04-1.29-1.22-1.56-1.76-1.8-3.72Z"/>
      <path class="cls-2" d="M524.45,0h-4.32c2.2,3.8,4.26,7.77,4.72,12.54.97,10.08-5.63,20.3-.71,29.68.81-3.1.26-6.51.63-9.7,1.09-9.4,5.13-19.95,1.36-29.06-.46-1.11-1.03-2.28-1.67-3.47Z"/>
      <path class="cls-2" d="M420.76,111.11l.42.42c1.49,7.63,13.6,20.97,18.79,24.79,1.7,1.25,10.38,5.49,11.04,6.67l-.44.35-.56-.39c-.47-.08-.95-.19-1.42-.29-.57-.12-1.11-.26-1.65-.52-1.62-.78-3.17-1.86-4.78-2.69-7.4-3.79-19.37-9.47-22.76-19.48-1.1-3.25.36-5.86,1.36-8.87Z"/>
      <path class="cls-2" d="M506.19,6.68c.25-.15.63-.14.91-.18.95.47,1.44,1.44,2.06,2.4-.09.08-.17.16-.26.24-.14.13-.29.25-.44.38-3.64,3.25-8.54,4.94-12.69,7.02-5.49,2.74-11.34,5.77-16.52,9.33-.75.27-1.37.56-2.16.33-.47-.48-.8-.82-1.07-1.5.97-.78,2.03-1.35,3.01-2.11,1.48-1.16,2.85-2.61,4.41-3.6,1.68-1.07,3.63-1.65,5.38-2.56,5.83-3.02,11.75-6.19,17.38-9.75Z"/>
      <path class="cls-2" d="M339.8,91.41l.44-.1c.59.38.74.67,1.04,1.41-.24.71-.29.83-.9,1.14-2.61,1.3-7.06.2-9.91.36-5.96.34-12.87,1.7-18.53,4.01-2.41.98-4.71,2.41-7.09,3.53-2.43,1.14-5.02,2.07-7.14,3.99-.55.19-.6.31-1.16.08l-.05-.75c.57-1.16,1.57-2,2.42-2.83,6.06-5.91,12.52-5.91,19.32-9.3.81.25,1.66.55,2.5.53,2.92-.05,5.95-1.28,8.88-1.6,3.41-.37,6.74.11,10.17-.47Z"/>
      <path class="cls-2" d="M436.48,91.7c2.94,2.63,8.25,14.52,9.86,18.89,1.56,4.23,2.74,9.02,4.87,12.86.44.8.77,1.45,1.06,2.35l-.32.69c-5.93-5.49-14.17-22.45-16.29-31.41l.82-3.37Z"/>
      <path class="cls-2" d="M503.61,2.76c.09-.01.18-.05.27-.04.78.01.97.17,1.55.75l.02.72c-2.37,3.46-21.41,12.16-25.94,14.74-3.75,2.14-7.4,4.77-11.05,7.19-.46.45-.72.65-1.3.77-.27-.98.22-2.47.42-3.5,3.08-1.77,5.94-4.01,8.99-5.82,5.71-3.39,11.64-6.31,17.42-9.53,3.19-1.77,6.28-3.93,9.61-5.27Z"/>
      <path class="cls-2" d="M214.1,170.82c5.1,2.8,13.16,7.23,18.5,8.52,2.85.69,5.88.2,8.69,1.17,1.87.64,2.34,1.77,3.22,3.74l-.21.46c-1.84,0-3.61-.41-5.44-.56-2.29-.2-4.59.12-6.88-.19-1.64-.22-3.33-.9-4.98-1.26-.8-1.02-1.64-2.17-2.57-3.01-2.96-2.66-7.29-3.84-9.94-6.97-.54-.63-.39-1.03-.39-1.9Z"/>
      <path class="cls-2" d="M489.9,0c-3.55,2.21-7.15,4.15-10.87,6.07-2.36,1.11-4.91,3.79-7.19,4.89-5.12,2.46-9.49,4.8-14.32,8.12.99.61,1.47.74,1.95,1.96,2.8-2.76,12.2-7.46,16.05-9.64,6.38-3.61,12.74-7.7,19.09-11.4h-4.71Z"/>
      <path class="cls-2" d="M499.07,0c-6.58,2.38-12.71,7.29-18.91,10.93-3.1,1.82-6.46,3.14-9.48,5.03-2.17,1.36-5.42,3.29-7.05,5.53l.18.28.26-.34.47.46,1.03-.4c5.25-3.21,35.3-18.23,36.82-21.24-.07-.1-.16-.18-.24-.26h-3.08Z"/>
      <path class="cls-2" d="M431.36,97.88c1.89,1.33,10.9,21.03,13.42,24.67,2.38,3.43,4.87,5.57,7.08,8.49.37.49.55,1.19.71,1.82l-.3.43-.75-.15c-2.36-2.68-5.04-4.99-7.27-7.84-3.73-4.78-13.46-20.38-14.67-26.44.5-.74,1.06-.74,1.78-.99Z"/>
      <path class="cls-2" d="M480.18,27.67c4.44-2.4,27.48-17.05,30.53-15.32.45.26.57.73.83,1.23,0,1.81-1.36,2.16-2.6,2.97-1.44-.05-2.83-.08-4.27-.23-1.1.87-1.23,1.07-2.51,1.15-2.22.15-4.25,1.46-6.42,2.03-2.3,3.75-3.19,5.75-6.98,7.43-2.36,1.05-4.93,2.35-7.26,3.52l-.25-.22c-.42-1.3-.46-1.42-1.07-2.57Z"/>
      <path class="cls-2" d="M214.2,164.13c2.84.05,7.34,3.68,10.19,4.92,2.95,1.28,6.13,2.59,9.17,3.47,1.64.47,3.64.12,5.19.92.57.29.6.48.83,1.15l-.45.88c-3.2-.14-6.51.87-9.66.52-2.79-.31-5.59-2.07-8.17-3.37-1.91-3.63-5.32-4.97-7.11-8.49Z"/>
      <path class="cls-2" d="M531.8,8.34c.12.19.26.36.37.56,3.36,6.07-1.84,25.02-2.64,31.93l-.03.31-.55.72c-.97-1.67-.92-4.54-1.03-6.57-.1-1.84,2.62-22.31,3.19-25.08.14-.69.41-1.26.69-1.87Z"/>
      <path class="cls-2" d="M216.79,50.83c1.02.31,2.04,1.28,2.94,1.95-1.51,4.03-3.62,7.51-5.18,11.47-1.84,1.44-3.87,2.03-5.7,3.44-.17.06-.34.14-.51.17-.74.12-1.1-.14-1.6-.79-.51-.66-.59-1.3-.63-2.17.58-1.52,1.39-2.21,2.57-2.98,1.35-.88,2.58-1.92,3.97-2.74,1.25-2.87,2.74-5.6,4.14-8.35Z"/>
      <path class="cls-2" d="M535.53,22.25l.64.42c2.2,4.65,1.16,16.03-.17,21.09-1.13,4.29-2.27,2.77-2.79,9.27h-.44l-.42-.55c-1.09-9.1,1.09-14.67,2.63-23.28.41-2.29.08-4.63.55-6.96Z"/>
      <path class="cls-2" d="M447.99,2.04c.34,0,.12-.02.65.22l.18.82c-1.58,4.01-29.45,16.76-34.98,22.48l-.42.03-.19-.42c.54-1.46,1.01-2.36,2.1-3.26,3.69-3.01,8.07-4.59,12.04-6.92,6.95-4.09,13.67-8.84,20.63-12.95Z"/>
      <path class="cls-2" d="M441.82,0c-3.71,1.66-8.45,5.23-10.59,6.09-2.08,1.03-4.63,3.18-6.28,3.9-2.16,1.19-4.37,4.33-6.29,6.47,7.39-3.06,14.29-7.95,21.1-12.56,1.84-1.24,5.08-2.51,6.41-3.78v-.12s-4.35,0-4.35,0Z"/>
      <path class="cls-2" d="M171.92,9.68l1.74-.08c4.56,2.67,1.46,8.03,2.46,10.37.19.45.8,1.06,1.09,1.48-.8,2.76-3.91,7.05-5.86,8.64-.81.65-1.29.4-2.16.2-1.72-1.3-3.64-2.24-5.48-3.26,2.21-.66,4.39-.56,6.52-1.69,1.59-.84,2.87-2.15,3.47-4.23,1.13-3.93-.55-7.91-1.78-11.44Z"/>
      <path class="cls-2" d="M184.45,0h-2.55c.91,2.57,2.99,4.32,4.13,6.83,1.39,3.08,2.29,10.11,4.28,12.19.83.86,1.51.92,2.51.74l1.06-1.19c.34-.82.44-.95.2-1.88-.61-2.45-6.63-12.86-9.62-16.69Z"/>
      <path class="cls-2" d="M257.1,82.9c.39-.02.57.05.9.35.59.53.79,1.02.84,1.88-.31.37-.53.56-.95.67-5.92,1.65-11.61,6.31-17.05,9.66-.34.32-.6.41-1,.57l-.31-.41c.01-.69,0-1.36.17-2.02.33-1.27.89-2.22,1.87-2.78,4.99-2.88,10.11-6.56,15.52-7.93Z"/>
      <path class="cls-2" d="M167.11,7.27c.42.18.86.34,1.22.68,2.43,2.32,3.19,6.5,3.72,10.04l-1.06,3.85c-2.2,2.03-4.41,3.04-7.17,3.07-3.85.04-7.13-1.87-9.79-5.27-.6-.39-.86-.39-1.19-1.16,2.03-.57,6.43,4.2,8.96,4.81.94.23,2.05-.05,2.99-.22,1.55-1.31,3.6-3.34,4.21-5.63.61-2.28-.54-6.28-1.38-8.33-.21-.52-.34-.81-.45-1.4-.03-.15-.04-.3-.07-.44Z"/>
      <path class="cls-2" d="M315.83,92.29c-2.61,1.29-8.48,2.36-11.41,3.73-2.3,1.08-6.76,6-8.82,5.7-1.22-2.38.66-3.5,1.8-4.56,5.21-4.84,11.81-7,18.2-5.54l.23.67Z"/>
      <path class="cls-2" d="M159.61,4.62l3.74.33c1.7,3.58,2.72,7.19,3.63,11.18-.96,1.91-1.88,4.41-3.73,5.1-2.18.81-5.83-2.81-7.74-4.11-1.43-1.74-2.83-3.44-4.05-5.42,2.15,1.36,3.7,2.69,5.3,4.97,1.28.25,2.64.63,3.94.65.83.02,1.78-.28,2.33-1.11.6-.89.65-1.92.67-3.02.01-1,.23-1.9.27-2.86.15-3.32-2.82-3.47-4.14-5.34-.08-.11-.14-.24-.2-.36Z"/>
      <path class="cls-2" d="M190.26,0h-3.73c1.91,4.14,4.9,7.8,7.04,11.63,1,1.8,1.38,4.04,2.18,5.97.79-.32,1.42-.39,1.96-1.2-.05-1.23-.53-2.41-.98-3.49-.38-.89-4.08-8.23-6.46-12.91Z"/>
      <path class="cls-2" d="M216.51,158.66c2.96.46,9.35,5.28,12.82,6.68,1.93.78,4.24.31,6.11,1.27,1.27.65,1.89,2.87,2.47,4.37-1.66-.01-3.28-.09-4.9-.63-1.95-.64-4.91-1.49-6.63-2.75-1.15-.84-1.82-2.63-2.97-3.54-2.04-1.6-5.68-2.72-6.91-5.4Z"/>
      <path class="cls-2" d="M431.6,52.85l.2.38c-1.32,1.41-2.57,3-4.02,4.2-5.21,4.3-13.76,7.62-19.79,10.04l-.18-.18v-.38c.49-.78.99-1.52,1.68-2.03,1.62-1.19,3.63-1.91,5.36-2.88,5.58-3.15,11.01-6.45,16.75-9.15Z"/>
      <path class="cls-2" d="M439.27,42.95c.28.04.11-.02.45.32-.75,1.87-3.07,4.47-4.65,5.2-5.86,2.72-12.05,5.44-17.48,9.33-.41-.19-.21-.02-.52-.58.03-.12.06-.25.1-.37,1.11-3.07,18.71-12.25,22.09-13.91Z"/>
      <path class="cls-2" d="M479.56,0c-1.31.83-2.31,1.59-2.72,2.17-.24.94-.28,1.1-.09,2.05l.54.57c.55-.07.7-.09,1.19-.46,2.68-1.33,5.31-2.78,7.92-4.33h-6.83Z"/>
      <path class="cls-2" d="M195.1,0h-3.51c2.27,4.23,5.45,9.09,6.83,12.08.25.13.63.37.88.42.19-1.34.44-2.62.76-3.92-.63-.97-1.52-1.52-2.09-2.47-.93-1.53-1.85-3.82-2.87-6.11Z"/>
      <path class="cls-2" d="M124.23,11.99c.23-.05.51.08.73.14.22.42.45.83.67,1.24,1.29,2.4,3.16,3.78,4.62,5.93.41.6.53.66.46,1.48-.9.57-1.97.31-2.94.22-1.07-.56-2.86-.67-3.71-1.49-.83-.8-1.07-2.31-1.79-3.23-.78-.98-1.99-1.06-2.62-2.27l.19-.57c1.29-.91,2.96-1.1,4.4-1.46Z"/>
      <path class="cls-2" d="M252.2,71.67c.81,1.13,1.24,2.65,1.74,4.02-2.66,2.02-5.47,3.58-8.27,5.25l-.23.29-.5-.04c-.48-1.28-.43-2.83-.49-4.23,2.42-2.52,4.54-4.62,7.75-5.3Z"/>
      <path class="cls-2" d="M309.16,101.51l.6.06c.28.77.23,1.17.14,2-1.71,3.58-6.32,4.85-8.99,6.99-.62.5-1.24.91-1.91,1.3-.75-.91-1.14-1.61-1.19-2.92,1.69-2.09,8.89-6.8,11.36-7.42Z"/>
      <path class="cls-2" d="M222.01,147.49c.53.04.75.16,1.23.48,3.02,2.04,6.34,2.63,8.78,5.99.78,1.08,2.17,4.04,2.15,5.49-1.6-.57-4.23-1.34-5.56-2.59-.41-.39-.4-1.17-.46-1.77-.2-2.17-5.03-4.02-6.22-6.13-.29-.52-.05-.89.07-1.46Z"/>
      <path class="cls-2" d="M254.53,77.81c.87.56,1.33,2.05,1.79,3.11-3.94,1.71-7.75,3.97-11.52,6.18-.35.2-.58.2-.96.22l-.22-.47c.04-.63.06-1.23.25-1.83,1.04-3.26,8.13-5.88,10.67-7.22Z"/>
      <path class="cls-2" d="M425.7,24.57l.36.43c-2.01,4.64-8.47,7.44-12.01,9.83-2.62,1.77-5.08,3.77-7.77,5.4l-.22-.7c4.36-5.87,13.87-10.91,19.65-14.97Z"/>
      <path class="cls-2" d="M114.53,16.45c1.69.18,4.76,4.41,6.44,5.62-2.06.37-4.05.87-6.08,1.46-2.7-2.25-4.53-2.03-6.95-5.29,2.74.08,4.18-.14,6.58-1.8Z"/>
      <path class="cls-2" d="M199.71,0h-3.2c1.31,2.4,2.54,4.54,3.32,5.4.42-1.33.86-2.57.49-4.02-.05-.21-.28-.7-.61-1.38Z"/>
      <path class="cls-2" d="M187.35,24.38c.53.35.73.69,1,1.38.8,2.08-1.01,6.82-1.68,8.77-1.75,5.11-4.46,9.75-8.7,11.86l-.26.31-.36-.32v-.9c.82-1.4,2.09-2.3,3.16-3.36,3.5-3.44,6.38-12.29,6.84-17.73Z"/>
      <path class="cls-2" d="M337.7,85.98l.65-.06c.94.76,1.6,2.14,2.26,3.25-3.77,1.36-7.33.93-11.16,1.43-2.49.32-4.87,1.15-7.35,1.47-.27.16-.74.22-1.03.22-.62,0-1.03-.27-1.43-.82.91-.86,3.81-.68,5.08-.96,4.07-.87,9.06-2.83,12.99-4.53Z"/>
      <path class="cls-2" d="M299.77,82.76c1.64.25,3.73,2.59,5.11,3.8-1.87,1.06-4.53,1.19-6.06,2.8-.67.75-1.76,1.67-2.66,1.82-.41.07-.45-.17-.73-.49-.03-.51-.06-.59,0-1.16.33-3.01,2.42-5.27,4.33-6.75Z"/>
      <path class="cls-2" d="M190.47,35.06l.42.68c-.1,6.46-2.73,9.23-5.62,13.86l-3.27-.16-.45-.26-.08-.49c6.83-4.03,5.05-9.09,9.02-13.63Z"/>
      <path class="cls-2" d="M494.09,35.91c.59,0,.34-.07.88.22.27.14.55.29.83.41.61.25.99.37,1.44.98l-.13.61c-1.62,1.63-4.95,2.94-7.01,3.09-.55.04-1,.05-1.52.29-.14.06-.27.13-.41.2-.88.39-1.97,1.01-2.92.8-.51-.11-.36-.1-.64-.69,1.26-2.39,7.27-4.7,9.46-5.9Z"/>
      <path class="cls-2" d="M482.86,216.09c1.11.16,2.23.26,3.34.39-3.35,3.09-6.73,6.2-9.97,9.47l-.64.41c-.73-.1-1.07-.22-1.67-.76l-.02-.52c2.57-3.32,6.07-6.03,8.96-8.98Z"/>
      <path class="cls-2" d="M279.24,89.61c.2.13.34.37.49.57l-.24.48c-6.44,3.57-4.54,4.77-12.51,5.42l-.46-.04-.2-.41c1.61-3.07,9.89-4.71,12.7-5.92l.22-.1Z"/>
      <path class="cls-2" d="M246.68,59.35c.48.07.79.27,1.15.7.52.64.59,1.22.56,2.12-.05,1.38-1.33,3.04-2.13,3.88-.89.92-1.68,1.94-2.49,2.97l-.49.2-.39-.31c-.13-.95-.44-2.09-.4-3.05.11-2.35,2.91-4.96,4.19-6.51Z"/>
      <path class="cls-2" d="M434.19,0c-3.79,2.59-7.74,6.37-9.12,8.53,1.59-.44,3.98-2.44,5.44-3.55,1.91-1.68,5.11-3.23,7.68-4.98h-3.99Z"/>
      <path class="cls-2" d="M304.64,88.1c.81.18,1.55.21,2.13,1.02-.43,1.37-8.62,4.75-10.31,6.16-.09.08-.18.15-.27.23-.36.34-.76.62-1.14.92l-.4-.28.1-.77c2.3-3.96,6.25-6.05,9.9-7.27Z"/>
      <path class="cls-2" d="M223.81,156.35c1.52.49,9.54,4.36,10.81,5.24.76.53.88,1.85,1.13,2.82-1.99.33-4.51-.59-6.49-1.03-1.13-3.43-3.58-4.32-5.44-7.02Z"/>
      <path class="cls-2" d="M260.07,87.09c.91.11,1.81,1.2,2.54,1.88-1.27.74-2.48,1.62-3.7,2.49-2.07-.39-4.31.31-6.42.42-1.25.03-2.54.24-3.79.36,3.53-1.97,7.54-4.43,11.36-5.14Z"/>
      <path class="cls-2" d="M412.4,29.37c4.25-2.84,16.77-11.79,20.85-12.95-.18,2.11-17.06,11.34-19.91,13.26l-.94-.3Z"/>
      <path class="cls-2" d="M428.24,75.11l.41.11.1.62c-.58,1.49-1.48,2.6-2.36,3.81-2.27.63-4.49,1.58-6.71,2.46-.06-.04-.14-.06-.19-.12-.53-.53-.51-.75-.54-1.54,1.15-2.11,7.18-4.46,9.28-5.34Z"/>
      <path class="cls-2" d="M249.35,65.76c.11.04.23.05.33.13.79.56,1.21,1.51,1.33,2.56-.63,2.17-4.56,4.43-6.17,5.8-.21.27-.41.31-.69.42-.35-.62-.32-1-.37-1.74.87-3.06,3.52-5.37,5.58-7.17Z"/>
      <path class="cls-3" d="M540.32,228.58l.57-.07.05.56c-1.03,1.26-2.77,2.22-4.08,2.95-2.26,1.26-4.5,3.93-6.54,5.87-2.72.05-3.42.44-6.04,1.13,3.31-2.96,8.71-8.24,12.53-9.41-1.64,1.97-7.18,4.93-9.94,8.01,2.86-1.32,10.83-6.95,13.46-9.05Z"/>
      <path class="cls-2" d="M470.78,210.47c.54.12.28-.04.71.61-.57,1.97-7.62,7.49-9.41,8.76l-.82-1.04.07-.78c2.99-4.51,5.73-4.41,9.05-7.19.14-.11.27-.24.4-.35Z"/>
      <path class="cls-2" d="M332.25,95.67c2.99.18,6.04-.31,8.93.87l.16.44c-1.26.9-2.92.67-4.33.7-2.6.17-6,1.52-8.31-.54l.13-.58c1.09-.79,2.2-.78,3.42-.89Z"/>
      <path class="cls-2" d="M339.98,99.08c.47-.03.76.04,1.21.18.45.45.95.85,1.16,1.55.15.48-.09.81-.24,1.24-1.9,1.41-3.67,1.04-5.81.92-.82-.26-1.93-1.26-2.36-2.17.99-1.53,4.21-1.02,5.77-1.61.09-.03.18-.07.27-.11Z"/>
      <path class="cls-2" d="M443.7,35.57l.22.4-.21.68c-2.85,3.09-10.17,6.69-13.98,7.98l-.18-.39c4.01-4.1,9.4-6.21,14.15-8.67Z"/>
      <path class="cls-2" d="M482.91,32.58c1.77-1.12,8.23-5.71,9.62-5.18l.66.74c-.08,2.88-7.45,5.32-9.48,5.42l-.8-.98Z"/>
      <path class="cls-2" d="M373.1,66.15c.66.06,1.05-.1,1.52.54-1.93,3.05-5.88,3.02-7.86,5.8-.69.97-1.33,1.33-2.28,1.81-.39.38-.6.52-1.08.61l-.07-.54c.32-.9.64-2.01,1.2-2.72,1.88-2.4,6.07-4.02,8.58-5.5Z"/>
      <path class="cls-2" d="M389.72,29.48c.46.66.36,3.04.41,4-1.66,2.14-3.42,4.13-5.18,6.14l-.37-.22c-.43-.59-.55-1.18-.52-1.99.08-1.94,4.5-6.43,5.65-7.94Z"/>
      <path class="cls-2" d="M381.86,63.24c.82.6,1.6,1.45,2.37,2.16-1.76,1.87-3.55,3.56-5.88,4.03-.86.02-1.65.18-2.4-.44l.08-.62c1.38-2.07,4.01-3.64,5.83-5.12Z"/>
      <path class="cls-2" d="M154.2,9.5c1.57.56,3.2.66,4.78,1.16,1.08.34,1.68.82,2.23,2.03,0,1.15-.09,2.04-.34,3.14l-.48-.07c-.18-.02-.37-.03-.55-.07-1.75-.31-4.91-3.59-5.87-5.42l.24-.78Z"/>
      <path class="cls-2" d="M412.83,43.71l.23.35c0,.66-.04,1.03-.27,1.64-1.03,2.73-6.81,5.41-9.09,6.51l-.23-.65c1.07-3.49,6.83-6.05,9.35-7.86Z"/>
      <path class="cls-2" d="M416.84,35.83c.31.17.14.03.44.54-1.72,3.71-8.5,7.38-11.66,9.41l-.48-.57.18-.79c2.43-3.04,8.33-6.35,11.53-8.59Z"/>
      <path class="cls-2" d="M309.37,106.81c.39.75.32.87.27,1.78-1.1,2.6-6.22,4.94-8.31,6l-.57-.89.09-.68c1.63-2.74,6.02-4.62,8.52-6.22Z"/>
      <path class="cls-2" d="M103.26,20.23s.02.01.03.02c1.59,1.97,2.98,3.37,5,4.57-1.15.33-3.14,1.31-4.2.81-.62-.87-.99-1.27-1.9-1.54-1.1-.33-2.13-.57-2.94-1.64l.26-.57c1.25-.88,2.38-1.27,3.76-1.65Z"/>
      <path class="cls-2" d="M428.89,35.56l.24.47c-1.28,1.11-2.29,2.65-3.59,3.75-2.39,2.02-5,2.54-7.14,5.11-.44-.68-.33-.29-.3-1.21,1.65-3.91,7.68-6.34,10.79-8.12Z"/>
      <path class="cls-2" d="M248.93,0c.46.85.99,1.72,1.67,2.25l.61-.33c.22-.77.42-1.34.48-1.92h-2.76Z"/>
      <path class="cls-2" d="M243.48,42.85c.75.94.63,3.05.69,4.32-1.34,1.94-2.85,3.66-4.34,5.42l-.46-.22c-.21-.5-.36-.66-.32-1.25.14-2.24,3.1-6.78,4.44-8.26Z"/>
      <path class="cls-2" d="M245.25,54.41c.14.01.27,0,.41.04.78.27.88.54,1.17,1.39-.17,2.22-3,4.94-4.24,6.62-.65-.02-.69-.09-1.22-.58-.06-.36-.13-.65-.11-1.04.1-1.98,2.91-5.08,3.98-6.44Z"/>
      <path class="cls-2" d="M191.33,47.19l.12-.28c1.08-2.54,3.27-10.67,4.5-11.34l.25.45c-.61,2.92-.85,5.14-1.11,8.16-1.08,1.58-1.92,2.94-3.44,3.92l-.32-.9Z"/>
      <path class="cls-2" d="M244.5,48.82c.36.54.58.88.75,1.57.37,1.55-3.34,5.07-4.23,7.07l-.21.47c-.08-.04-.17-.06-.25-.11-.63-.48-.65-.83-.84-1.66.43-3.1,2.91-5.49,4.78-7.33Z"/>
      <path class="cls-2" d="M287.61,127.17c.22.3.12.09.16.71-1.93,4.36-3.66,8.17-7.07,10.98l-.23-.52c1.34-2.74,2.72-5.33,3.83-8.24,1.19-.89,2.23-1.84,3.31-2.93Z"/>
      <path class="cls-2" d="M508.38,35.91l.22.16-.15.46c-4.26,3.55-7.58,5.6-12.78,6.02l-.15-.3c.83-1.98,7.22-3.45,9.02-4.23,1.32-.57,2.59-1.36,3.85-2.12Z"/>
      <path class="cls-2" d="M387.72,24.13l.71.66c.26.77.34,1.34.38,2.18-.28.69-.52,1.04-1.01,1.49-.29.26-.56.5-.82.8-.58.69-1.11,1.14-1.81,1.61l-.59.4-.37-.28c-.14-.84-.35-1.82-.23-2.68.14-1,.65-1.52,1.31-1.99.89-.62,1.64-1.38,2.44-2.18Z"/>
      <path class="cls-2" d="M428.23,65.51c.17.06.33.11.5.18.67.27,1.2.45,1.55,1.23-1.13,1.58-10.79,5.35-13.12,6.46-.69.26-.88.35-1.57.17.31-1.74,6.81-3.49,8.33-4.35,1.67-.95,2.99-2.09,4.31-3.67Z"/>
      <path class="cls-2" d="M209.42,46.23c.66.41.76.66,1.2,1.37.26,1.68-.4,3.53-.58,5.24l-4.3,5.41c-.57.29-.3.28-.8.14.49-3.91,4.4-5.75,4.49-12.14Z"/>
      <path class="cls-2" d="M390.21,37.8c.26.09.52.26.77.4l.18.85c-.62,2.62-3.95,5.57-5.59,7.41l-.3.08c-.18-.52-.32-.94-.32-1.53.01-2.2,3.93-5.47,5.26-7.22Z"/>
      <path class="cls-2" d="M264.8,90.59c.99.2,2.56.14,3.33.94-.5,1.07-1.61,1.64-2.47,2.29-.55.69-.81,1.3-1.69,1.17-.82-.13-1.3-.68-1.84-1.4-.21-.95-.2-1.05.05-1.99.74-.89,1.64-.86,2.61-1Z"/>
      <path class="cls-2" d="M226.13,100.65c.25.3.28.82.37,1.23l-.45.85c-1.81,1.39-4.85.94-6.91.92l-.17-.25c.1-.93.96-1.74,1.48-2.43,1.89-.14,3.78-.21,5.67-.33Z"/>
      <path class="cls-2" d="M480.75,214.89l.28.34-.15.59c-2.48,2.96-5.88,7.4-9.24,8.65l-.72-.54v-.63c3.13-2.73,6.49-5.12,9.5-8.07l.34-.33Z"/>
      <path class="cls-2" d="M492.86,31.95c.21.08.48.34.67.49l.02.8c-1,1.97-5.62,3.68-7.42,4.74-.44-.11-.22.02-.59-.56.04-.14.07-.28.12-.41.88-2.35,5.39-4.16,7.19-5.07Z"/>
      <path class="cls-2" d="M246.92,1.19c.99.61,2.07,2.21,2.53,3.48.63,1.71.65,3.24.14,4.99l-.69.15c-.91-.72-1.43-2.2-1.97-3.34-.06-1.76-.17-3.52,0-5.27Z"/>
      <path class="cls-3" d="M430.31,70.52c.08.66.11.3-.17,1.06-2.21.99-4.46,1.82-6.64,2.89-2.09,1.02-4.55,2.78-6.69,3.34-.49.13-.95.06-1.44,0-.21-.54-.18-.25-.05-.86,4.85-2.49,10.04-4.19,14.99-6.44Z"/>
      <path class="cls-2" d="M222.58,106.25l.4.04c-.07.91-.35,1.33-.88,1.93-1.41,1.59-2.96,1.48-4.71,1.38l-.56-.36c.07-1.08.05-1.25.57-2.1,1.55-.89,3.49-.73,5.19-.89Z"/>
      <path class="cls-2" d="M459.43,208.05h.41c-1.16,2.23-4.35,4.75-6.01,6.65-.53-.4-.78-.58-1.16-1.21.05-.47.13-.72.37-1.08,1.38-2.02,4.26-4.15,6.39-4.36Z"/>
      <path class="cls-2" d="M410.11,51.75l.52.06.1.46c-1.49,2.18-4.92,4.43-7.1,5.24-.41-.43-.44-.47-.63-1.15,1.08-2.07,5.26-3.63,7.11-4.61Z"/>
      <path class="cls-2" d="M390.32,44.94c.36.38.51.69.55,1.31.13,2.11-2.03,3.98-3.07,5.34-.74-.28-.74-.24-1.15-1.06.16-2.18,2.46-4.19,3.67-5.59Z"/>
      <path class="cls-2" d="M447.72,7.31l.5.12.22.58c-.04.1-.06.21-.1.3-.76,1.54-5.93,3.94-7.51,4.67-.28-.07-.08,0-.55-.36,1.03-2.03,5.6-4.17,7.43-5.32Z"/>
      <path class="cls-2" d="M407.24,81.22l.18.21c.27,1.15.4,1.42.13,2.61-.76,1.15-1.47,1.51-2.56,2.06-.27-.4-.61-.91-.76-1.4-.26-.83-.07-1.22.21-1.94.88-.93,1.71-1.18,2.81-1.54Z"/>
      <path class="cls-2" d="M247.08,11.35c.47.34,1.04.7,1.44,1.16.97,1.15.59,3.43.51,4.93-.17.03-.33.08-.49.09-.65.03-1.08-.07-1.49-.74-.86-1.39-.29-3.94.03-5.44Z"/>
      <path class="cls-2" d="M462.85,11.77c.51.11.56.13.99.56-.81,1.7-5.35,3.82-6.97,5.1l-.66-.09.06-.52c1.76-2.36,4.3-3.69,6.58-5.05Z"/>
      <path class="cls-2" d="M407.64,70.41c.55.33.48.42.75,1.06l-.28.94c-1.25,1.22-2.67,1.88-4.12,2.64-.16.1-.35.03-.53.03l-.14-.8c.49-1.99,2.95-2.89,4.33-3.87Z"/>
      <path class="cls-2" d="M408.7,97.75c.6.12.75.25,1.24.67.29.8.44,1.09.23,1.99-.27,1.14-.86,1.57-1.61,2.13-.34.21-.49.17-.86.14-.3-.69-.35-1.24-.33-2,.04-1.54.47-1.95,1.32-2.92Z"/>
      <path class="cls-2" d="M406.95,87.19l.35.22c.24.45.47.82.49,1.39.03.89-.36,1.52-.88,2.05-.91.92-1.84,1.11-2.97.93l-.22-1.2.4-.41.15.28c.94-1.4,1.29-2.44,2.68-3.25Z"/>
      <path class="cls-2" d="M244.03,95.13c.24.26.14.08.17.62-1.76,1.7-3.51,3.43-5.24,5.16-.37-.74-.27-.93-.25-1.78.92-2.14,3.64-3.09,5.32-4.01Z"/>
      <path class="cls-2" d="M384.62,67.92c.29.01.64.25.91.38.32.65.31.69.25,1.45-.62,1.32-1.12,1.68-2.22,2.31-.62-.28-1.02-.44-1.46-1.08.26-1.3,1.67-2.25,2.52-3.06Z"/>
      <path class="cls-3" d="M480.18,27.67c.62,1.15.65,1.28,1.07,2.57l.25.22c-.58.74-3.74,2.07-4.66,2.43l-.26-.2c1.53-2.5,2.65-1.87,3.6-5.02Z"/>
      <path class="cls-2" d="M407.19,75.69c.56.08.46.13.81.61-.43,1.75-2.4,2.93-3.61,3.82-.59-.67-.79-.68-.85-1.65.8-1.23,2.55-1.91,3.65-2.78Z"/>
      <path class="cls-2" d="M512.08,26.58c.19.18.36.48.51.71-.06,2.21-.45,4.09-1.41,5.96l-.54-.54c-.15-.73-.21-1.33-.14-2.08.16-1.75.49-2.91,1.58-4.04Z"/>
      <path class="cls-3" d="M459.47,21.04c-.59.18-5.45.87-6.08.84.54-.82,3.17-2.21,4.13-2.8.99.61,1.47.74,1.95,1.96Z"/>
      <path class="cls-2" d="M378.73,61.3c.73-.03,1.27-.09,1.94.33l.04.54c-1.1,1.17-2.51,1.68-3.73,2.67l-.25.2s-.02.04-.03.05c-.54.51-.47.59-1.18.45.25-1.28,2.37-3.21,3.21-4.24Z"/>
      <path class="cls-2" d="M211.85,116.26c.14,0,.29,0,.43,0,.87.03,1.98.09,2.61.91-.04.96-.17,1-.68,1.74-1.04-.16-2.62-.13-3.43-.98.1-.94.5-1.09,1.06-1.67Z"/>
      <path class="cls-2" d="M409.68,104.66l.32.06c.59.66.6.6.65,1.58-.53,1.26-1,1.64-1.99,2.31l-.35-.14c-.43-.71-.47-.76-.49-1.65.59-1.3.87-1.43,1.86-2.16Z"/>
      <path class="cls-2" d="M512,16.72c.13.1.28.17.4.29.56.57.67.84.72,1.68-.69,1.01-1.71,1.25-2.68,1.62-.48-.34-.79-.57-1.1-1.14l.28-.63c.88-.52,1.61-1.11,2.39-1.83Z"/>
      <path class="cls-2" d="M410.51,116.44l.41.4c.28.75.65,1.6.5,2.46-.22,1.24-.7,1.47-1.46,2.14-.29-.08-.52-.24-.78-.4-.02-.2-.04-.4-.05-.61-.1-1.6.56-2.86,1.38-3.98Z"/>
      <path class="cls-2" d="M410.31,110.37l.3.45c.14,1,.33,2.02,0,2.99-.37,1.09-.73,1.12-1.53,1.55-.58-.67-.54-1.21-.6-2.13.38-1.29,1.04-1.96,1.83-2.87Z"/>
      <path class="cls-2" d="M438.61,26.67l.18.04.18.33-1.48,2.22c-1.75.42-3.37.97-5.06,1.71l-.16-.05-.06-.29c1.92-1.63,4.28-2.73,6.39-3.95Z"/>
      <path class="cls-2" d="M406.63,58.77c.41.08.17,0,.67.39l-.11.67c-.93,1.27-2.09,2.03-3.25,2.9l-.55-.43-.06-.68c.8-1.27,2.2-2.05,3.3-2.86Z"/>
      <path class="cls-2" d="M442.75,204.63s.09.01.14.04c1.42.68,2.27.28,3.74.14l.27.45-.47.48c-.72.9-1.21,1.54-2.25,1.57-.8-.66-1.05-1.63-1.42-2.68Z"/>
      <path class="cls-2" d="M385.96,18.84c.47.76.53.93.64,1.88-.42,1.24-1.36,1.96-2.19,2.76-.33-.21-.31-.39-.45-.8.28-1.43,1.28-2.69,2-3.84Z"/>
      <path class="cls-2" d="M498.85,219.13c.63.03.82-.13,1.29.42-.59,1.15-2.08,1.89-3.03,2.55l-1.02.24-.09-.46c.86-1.19,1.78-1.92,2.86-2.75Z"/>
      <path class="cls-2" d="M200.9,37.09c.27.3.45.39.52.87.25,1.69-1.02,3.68-1.7,5.06-.24-.28-.25-.56-.35-.94.39-1.75.69-3.47,1.53-4.98Z"/>
      <path class="cls-3" d="M422.11,84.27l.2.16c-.61,1.46-3.32,2.66-4.53,3.16l-.26-.15c1.21-2.19,2.64-2.48,4.59-3.17Z"/>
      <path class="cls-2" d="M214.37,112.5c1.08-.16,2.84-.61,3.82.11l-.11.71c-.09.04-.18.08-.27.12-1.19.48-2.09.76-3.24.01l-.2-.95Z"/>
      <path class="cls-2" d="M246.86,20.45c.66.27.81.34,1.29.97.13,1.09-.47,2.07-.87,2.99-.17.07-.51.05-.69.06-.15-1.32.12-2.7.27-4.02Z"/>
      <path class="cls-2" d="M385.9,71.9l.81.39c.54,1.02.42,2.38.29,3.54-.53-.38-.91-.87-1.35-1.4-.21-1.19-.07-1.42.25-2.53Z"/>
      <path class="cls-2" d="M341.61,103.99c.3-.03.6.08.89.16l-.04.55c-.93.83-1.5.87-2.62.89-.64-.1-.36.06-.84-.45.72-.73,1.72-.87,2.61-1.14Z"/>
      <path class="cls-2" d="M383.87,13.51c.3.32.3.26.47.67.47,1.14.62,1.95.36,3.16h-.68s-.4-.8-.4-.8c-.07-1.16.01-1.9.25-3.03Z"/>
      <path class="cls-3" d="M456.5,206.71c.38.16.17.04.6.45-.7,1.1-2.01,1.61-3.02,2.19l-.47.02.07-.46c.91-.94,1.72-1.61,2.82-2.19Z"/>
      <path class="cls-3" d="M426.92,34.29c-.86.75-2.64,2.21-3.64,1.47.63-1.1,2.14-1.37,3.2-1.64l.44.17Z"/>
      <path class="cls-3" d="M443.31,31.18c.18.07.41.31.56.44l-.15.65c-.82.83-1.52,1.18-2.52,1.59l-.1-.04-.12-.38c.78-.75,1.56-1.5,2.33-2.27Z"/>
      <path class="cls-4" d="M430.6,173.83c.57-.08,1.12-.17,1.7-.06,1.09.22,1.55,1.06,2.11,2.13-1.25-.26-2.65-1.38-3.8-2.08Z"/>
      <path class="cls-2" d="M224.5,146.59c.36-.03.74-.04,1.1.02,1.15.19,1.73,1.08,2.42,2.13-1.39-.29-2.46-1-3.52-2.15Z"/>
      <path class="cls-6" d="M315.6,91.63c1.05-.08,2.03-.3,2.98.22-.68.66-1.84.48-2.75.45l-.23-.67Z"/>
      <path class="cls-2" d="M454.33,134.65c.31.04.77.05,1.07.18.8.37.94.65,1.37,1.51-.4-.05-.92-.07-1.29-.25-.76-.35-.82-.6-1.15-1.45Z"/>
      <path class="cls-4" d="M413.34,29.67c-1.03.62-1.11,1.3-2.48,1.56.27-.87.91-1.29,1.54-1.87l.94.3Z"/>
      <path class="cls-3" d="M191.33,47.19l.32.9c-1.04.47-1.22.74-2.08.4.58-.94.73-.77,1.76-1.3Z"/>
      <path class="cls-4" d="M426.49,34.12c.74-.57,1.21-1.1,2.04-.99-.28.73-.83.8-1.61,1.16l-.44-.17Z"/>
      <path class="cls-3" d="M483.71,33.57c-.99.02-1.13.11-2.03-.4.38-.65.25-.36,1.24-.58l.8.98Z"/>
    </g>
  </g>
</svg>