<?xml version="1.0" encoding="UTF-8"?>
<svg id="Layer_2" data-name="Layer 2" xmlns="http://www.w3.org/2000/svg" viewBox="0 0 576 240.91"><metadata><?xpacket begin="" id="W5M0MpCehiHzreSzNTczkc9d"?><x:xmpmeta xmlns:x="adobe:ns:meta/" x:xmptk="XMP Core 6.0.0"><rdf:RDF xmlns:rdf="http://www.w3.org/1999/02/22-rdf-syntax-ns#"><rdf:Description rdf:about="" xmlns:xmp="http://ns.adobe.com/xap/1.0/" xmlns:xmpMM="http://ns.adobe.com/xap/1.0/mm/" xmlns:dc="http://purl.org/dc/elements/1.1/" xmlns:dcterms="http://purl.org/dc/terms/" xmpMM:DocumentID="xmp.did:cb9f5498-bb58-4572-8043-8c369e6bfb9b" xmpMM:InstanceID="xmp.iid:cb9f5498-bb58-4572-8043-8c369e6bfb9b" dcterms:provenance="https://cai-manifests.adobe.com/manifests/urn-c2pa-21d57d72-c9d6-46c5-bc5a-ac354526144b-adobe"> </rdf:Description></rdf:RDF></x:xmpmeta>
<?xpacket end="w"?></metadata>
  <defs>
    <style>
      .cls-1 {
        fill: #e8e7e7;
      }

      .cls-2 {
        fill: #fff;
      }

      .cls-3 {
        fill: #3a3a39;
      }

      .cls-4 {
        fill: #090909;
      }

      .cls-5 {
        fill: #9b9b9b;
      }

      .cls-6 {
        fill: #555554;
      }

      .cls-7 {
        fill: #6f7070;
      }

      .cls-8 {
        fill: #191918;
      }
    </style>
  </defs>
  <g id="Layer_2_copy" data-name="Layer 2 copy">
    <g>
      <rect class="cls-4" width="576" height="240"/>
      <path class="cls-2" d="M502.95,236.42c-.79-3.1-.68-6.48-1.78-9.5-1.71-4.71-5.95-7.89-8.06-13.29-1.87-4.8-2.28-11.32-5.16-15.35-4.52-6.32-12.65-4.76-18.36-14.39-2.93-4.96-5.92-9.96-8.65-15.1-4.64-8.75-9-17.86-13.99-26.31-4.7-7.96-13.82-20.43-19.7-27.13-5.33-6.07-33.01-30.33-34.95-35.26-.93-2.37-.2-5.94.39-8.36,1.02-4.22,3.65-12.53,7.05-14.55.59-.35.74-.24,1.33,0,1.83,3.17-.73,11.49.98,15.26.31,1.36,2.51.94,2.91,1.67,2.52,4.59,2.15,8.4,5.23,12.94l.24.35,2.34.63c3.75.98,7.89,3.43,4.63,8.64,9.24,5.57,9.65,1.73,18.64,1.44,1.3-.04,4.42,1.99,5.9,1.92,5.96-.29,4.52-1.5,10.11,1.2,6.68-3.69,9.41,1.84,16.69-2.41.26-1.72.49-3.45.7-5.18-4.73-5.66-11.24-9.54-17.06-13.17-2.49-1.55-5.15-3-7.33-5.16-.63-.63-1.73-1.74-1.74-2.84-.04-3.84,7.92-8.32,10.3-10.26,1.79-1.45,3.52-3.08,5-5,1.52-1.98,2.35-3.9,2.22-6.69-.15-3.25-1.72-5.84-3.63-7.9-10.45-11.24-46.44-15.54-60.69-13.82-5.74.69-11.26,2.37-16.91,3.64-2.49.56-5.04.65-7.54,1.1-4,.71-7.86,1.73-11.91,2.09,3.62-1.85,6.57-3.4,10.29-5.11v-.68c-1.05-1.45-2.81-2.46-4.3-2.73-4.25-.79-8.47-.04-12.83-.87-3.73-.71-7.3-2.4-10.92-3.13-9.97-2-8.44,5.88-14.52,11.57-1.87,1.75-4.61,2.45-6.93,1.82-4.26-1.07-4.3-6.68-6.26-10.52-2.51-4.95-7.77-3.37-11.57-2.24-4.02,1.37-8.92,3.32-12.43,6.23-7.84,6.5-13.87,12.61-22.67,17.47-6.33,3.58-12.93,6.36-19.71,8.32-6.04,1.7-12.44,2.86-18.4,4.72-5.59,1.78-11.07,4.05-16.4,6.81-24.02,12.18-49.67,30.24-70.85,48.98-9.27,8.2-17.78,18.52-27.07,26.23-10.78,8.91-23.75,12.92-34.25,22.36-16.23,14.87-8.69,23.82,4.72,35.34,11.27,9.68,21.16,6.59,33.15.04,8.46-4.62,12.17-8.94,21.94-7.63-1.41.48-2.8,1.02-4.18,1.62-7.29,3.28-2.83,5.79-4,10.79-.77,3.28-7.85,1.85-9.14,5.37.49,6.41,13.27,9.64,12.59,14.26-2.42,2.7-10.74-.12-13.41-1.63l.1,1.15-.63-.44c-.93-1.55-1.96-2.51-3.13-3.76.57,1.25,1.11,2.51,1.64,3.79-1.38-1.81-2.29-2.72-3.87-4.29l1.94,4.4c-1.98-2.87-2.92-3.78-5.45-5.85.79,1.68,1.41,3.4,2.08,5.16-1.68-2.59-2.36-3.45-4.51-5.15l-.23-.46-.41.02-.56,1.02c-.75-.68-1.6-1.69-2.39-1.79l.33,1-.16.91-1.67-2.04-.38,1.24.77,2.35-.63.7c-.46-2.23-2.47-4.4-3.79-6.08l-.93.81c.78,1.72,1.52,3.17,1.99,5.05l-.44.83c-.93-2.55-5.14-7.52-6.96-9.48,1.35,6.09,3.25,7.88,4.05,13.83-2.16-6.08-5.18-8.34-8.73-13.34,1.38,7.25,3.22,8.37,4.07,16.73-3.3-9.79-4.5-7.6-8.86-14.94.74,5.94,2.52,7.95,3.59,13l-.54.46c-1.75-4.47-4.92-7.67-7.43-11.59,1.18,4.06,2.4,8.11,3.64,12.14l-.94.42c-2.09-4.15-4.17-7.05-6.76-10.74,1.09,4.85,3.43,11.67,4.12,15.66l-.57.27c-.94-2.96-6.26-11.83-8.04-13.93-1.39,3.77,3.28,10.06,1.07,14.86-.85,1.83-1.92,3.47-3.01,5.06h125.83c11.41-15.56,21.83-32.22,33.51-47.45,4.58-5.98,11.12-10.66,16.33-15.99,8.24-8.43,17.17-16.27,27.02-21.46,14.11-7.35,7.28,7.61,8.34,12.7,2.52,3.26,8.74-3.43,11.21-2.62.5.95.64,1.45.41,2.52-1.97,9.37-15.15,50.59,5.23,33.76,8.15-6.73,14.29-13.74,18.77-24.64,4.81-11.71,9.89-20.9,17.03-30.43,1.74-2.29,4.71-6.5,7.4-6.61,3.13,1.86.82,8,2.72,11.11,1.69,1.02,4.56.1,6.63-.19,1.42,1.11,2.64,2.16,4.31,2.58,5.11,1.29,10.72-6.49,15.01-10.53.34,3.53.13,7.46.9,10.81.8,3.41,4.33,1.57,6.19,2.29,3.52,1.36,4.69,7.58,7.79,9.85,1.69,1.24,3.73,1.72,5.38,2.84,5.02,3.41,2.64,12.22,4.54,17.8,1.55,4.7,3.09,6.8,6.67,9.01,9.99,5.78,13.47-7.83,20.38-11.59,6-3.26,7.9,15.67,11.29,19.34,1.94,2.11,3.09,1.72,5.21,3.15,2.79,1.88.37,8.86,1.23,12.17.42,2.25,3.11,2.4,3.63,4.76,1.26,5.74,2.73,11.35,4.58,16.81h55.14c-.42-1.16-.83-2.33-1.15-3.58Z"/>
      <path class="cls-1" d="M120.99,223.78c-.52-1.28-1.07-2.54-1.64-3.79,1.18,1.25,2.21,2.21,3.13,3.76-.47.27-.52.5-1.18.82l-.31-.79Z"/>
      <path class="cls-4" d="M110,218.63l.56-1.02.41-.02.23.46c.07.84.37,1.42.48,2.86l-1.68-2.28Z"/>
      <path class="cls-8" d="M84.61,228.83l.94-.42c.21,1.04.5,2.29.65,3.32l-.54.44c-.2-1.03-.7-2.33-1.05-3.34Z"/>
      <path d="M81.97,233.74c.2,1.29.24,1.32.16,2.69l-.26.38c-.49-.89-.42-1.7-.48-2.8l.57-.27Z"/>
      <path d="M107.93,217.84c.77,1.29.85,1.47,1.19,3.03l-.21.26c-.46-.85-.75-1.49-1.14-2.38l.16-.91Z"/>
      <path d="M103.14,220.77c.27,1.4.46,1.39.2,2.59-.48-.72-.43-.82-.63-1.76l.44-.83Z"/>
      <path class="cls-7" d="M106.5,220.28c.07.94.22,1.49-.05,2.25-.2-.52-.41-1.02-.58-1.55l.63-.7Z"/>
      <path class="cls-6" d="M89.88,227.39l.24,1.69-.45.36-.34-1.6.54-.46Z"/>
      <path class="cls-6" d="M86.2,231.73l.26,1.6-.52.24-.28-1.4.54-.44Z"/>
      <path class="cls-5" d="M86.47,233.33l.17,1.26-.18.26c-.13-.33-.4-.95-.5-1.28l.52-.24Z"/>
      <path class="cls-5" d="M90.12,229.09l.17,1.06-.21.3c-.1-.23-.35-.79-.41-1l.45-.36Z"/>
      <path class="cls-4" d="M222.88,183.42c2.66-2.44,5.69-4.67,8.25-7.17,6.06-5.91,12.14-11.72,18.38-17.34,7.7-7.24,15.19-15.03,23.15-21.85,3.58-3.07,12.74-6.96,16.79-4.31,4.2,2.73,2.39,10.57,3.03,15.19.47,3.4,7.77-1.87,9.38.61,3.22,2.81,1.78,13.36,1.77,17.98,0,2.33-1.81,8.78-1.09,11.43.19.72,1.02,1.43,1.61,1.63,1.91.65,3.09-.74,4.23-2.48,3.32-5.04,5.74-11.14,8.48-16.69,4.07-8.26,8.03-16.94,12.53-24.82,1.99-3.48,4.89-7.08,7.04-10.36,4.18-6.38,8.03-11.34,14.04-15.06,1.57-.97,3.03-2.02,4.79-1.33,1.28,1.4,1.3,3.85,1.52,5.97,6.55-17.64-9.46-17.3-16.86-10.05,1.99-4.91,5.22-10.37,7.78-14.96l-.32-.68c-3.08,5.18-9.55,12.5-13.38,16.98,2.41-5.97,6.61-14.7,9.51-20.47l-.3-.68c-3.15,6.33-10.59,15.92-14.72,21.16,3.37-9.47,7.56-18.63,11.55-27.73l-.45-.49c-4.91,8.99-7.93,13.4-14.06,20.94,3.81-9.04,6.84-22.78,9.83-33.13l-.5-1.29c-4.47,12.62-14.94,26.23-22.19,36.55,2.45-7.02,6.84-16.55,8.78-22.72l-.15-.67c-3.98,8.17-12,18.56-17.26,25.58,1.75-3.96,3.62-8.35,5.51-12.16l-.51-.32c-4.16,6.7-7.26,9.87-12.35,15.4l-.32-.73c1.67-2.82,3.29-5.69,4.87-8.59l-.5-.87c-3.84,5.07-8.86,10.04-13.31,14.33,2.85-5.08,7.12-10.7,9.07-15.86-3.82,5.33-9.6,11.32-14.34,15.45,1.92-3.12,4.9-7.71,6.47-10.9-2.92,3.78-4.86,5.95-8.23,9.23l-.27-.57c1.05-1.28,1.57-1.88,2.46-3.37-4.74,4.71-5.98,5.65-12.06,7.55-2.4.75-5.1,3.94-8.35,2.77-13.07-3.56-17.87-21.04-32.41-6.56-2.98,2.97-9.1,9.07-10.69,13.23-1.78,4.66-4.1,13.04-5.13,17.95-3.03-7.79-8.88-13.59-14.96-17.44,6.02,6.2,10.34,13.03,13.29,22.19-5.54-7.47-15.16-15.44-23.12-17.68l-.54.24c6.07,3.4,11.54,8.29,16.07,14.38l-1.37.04c-7.12-4.9-15.11-8.86-23.08-10.82l-.21.62c5.44,2.75,12.44,7.29,17.02,11.97l-1.05.54c-8.52-4.45-14.29-7.22-23.66-8.74l-.81.83c8.81,3.67,13.29,7.03,20.8,13.58-8.91-3.66-18.16-5.84-27.51-6.5-2.26-.5-4.08-.45-6.33,0l-.02.1.5.1-.07.09c.67.07,1.04.15,1.71.03,9.34,1.96,14.48,3.84,23.23,8.84-9.56-2.35-14.43-2.79-24.09-2.87l-1.7.24-.16.41c12.54,2.19,22.3,5.94,33.08,14.61-10.23-2.48-16.13-3.36-26.74-2.58-3.14-.43-7.13-.3-10.33-.28-.86.03-1.27-.05-2.04.45l.56.22c1.83.02,3.27.07,5.1.25,10.44,1.55,17.53,3.62,27.27,8.26l-2,.43c-2.33-.33-6.9-.11-9.35-.06-2.88-.27-8.09-.09-11.27-.17l-.44.41.16.34,2.39.27c9.18,2.01,19.13,4.22,27.56,9.25-7.01,9.13-12.01,24.33-18.25,34.57-2.49,4.09-5.94,6.52-7.8,9.46-2.85,4.79-5.27,9.57-8.46,14.08-.28.4-.59.8-.88,1.2h22.11c15.82-17.6,27.11-40.8,44.31-56.58Z"/>
      <path class="cls-3" d="M152.44,161.71l-.56-.22c.77-.5,1.18-.42,2.04-.45,3.2-.01,7.2-.14,10.33.28-1.98.17-5.5-.29-6.72.64-1.83-.19-3.26-.23-5.1-.25Z"/>
      <path class="cls-1" d="M152.44,161.71l-.56-.22c.77-.5,1.18-.42,2.04-.45l-1.49.67Z"/>
      <path class="cls-8" d="M162.18,170.42c3.18.08,8.39-.1,11.27.17-1.45,1.23-7.61-.47-9.16.85l-2.39-.27-.16-.34.44-.41Z"/>
      <path class="cls-5" d="M160.64,142.67c-.67.12-1.04.04-1.71-.03l.07-.09-.5-.1.02-.1c2.25-.45,4.07-.5,6.33,0-1.18.05-3.1.06-4.2.32Z"/>
      <path class="cls-5" d="M280.13,107.57l.27.57c-1.41,1.52-1.84,1.9-3.41,3.1,1.03-1.24,2.07-2.47,3.13-3.67Z"/>
      <path class="cls-1" d="M204.7,140.83l.97,1.33-.15.23c-.88-.55-1.37-.86-2.19-1.53l1.37-.04Z"/>
      <path class="cls-1" d="M197.06,142.63l1.17,1.02-.06.3c-1.09-.2-1.13-.25-2.16-.79l1.05-.54Z"/>
      <path class="cls-5" d="M184.8,170.22l.59.51c-.98.25-1.6.07-2.59-.07l2-.43Z"/>
      <path d="M296.69,106.09c-.29.36-.74.81-1.06,1.15-.07-.74.3-1.06.74-1.88l.32.73Z"/>
      <path class="cls-4" d="M409.08,119.21c6.6,7.1,13.41,14.14,19.66,21.71,12.92,15.65,23.35,33.84,31.98,53.52-3.94,1.25-9.58,2.59-13.63,3.05-2.88-11.17-11.81-24.78-16.47-35.37-1.74-3.95-4.77-8-6.51-12.08-3.76-7.17-10.44-24.88-15.26-30.05l.23-.78Z"/>
      <path class="cls-4" d="M390.26,125.06c11.35,11.59,23.42,22.66,31.54,38.15-4.45,1.29-8.31,2.31-12.88,2.86-1.76-8.23-14.22-33.26-18.88-40.11l.21-.91Z"/>
      <path class="cls-1" d="M408.84,120c-1.01-1.12-2.42-2.56-2.97-4.05l.29-.11-.29.36.06.19.57-.32c.54.49,2.13,2.53,2.58,3.15l-.23.78Z"/>
      <path class="cls-7" d="M153.43,148.49c2.11-.21,4.24-.16,6.35.15l-1.7.24-.16.41c-1.51-.16-2.99-.5-4.49-.81Z"/>
      <path class="cls-5" d="M161.9,171.18c-1.02-.08-2.8-.02-3.54-.7.9-.71,2.73-.23,3.82-.05l-.44.41.16.34Z"/>
      <path class="cls-3" d="M336.05,59.83l.4.11c-.38,1.92-.74,3.84-1.09,5.77l-.5-1.29,1.18-4.6Z"/>
      <path class="cls-8" d="M169.3,134.54c-.33-.05-.4-.17-.72-.38,1.14-.35,1.41-.22,2.61-.02l1.17.29-.81.83-2.26-.73Z"/>
      <path class="cls-5" d="M169.3,134.54c-.33-.05-.4-.17-.72-.38,1.14-.35,1.41-.22,2.61-.02l-1.89.4Z"/>
      <path class="cls-7" d="M347.39,89.12c.71-1.26,1.63-2.61,2.42-3.82l.14.54c-.55.97-1.69,3.14-2.24,3.96l-.32-.68Z"/>
      <path class="cls-8" d="M303.49,91.75c-.8,1.99-1.26,3.17-2.26,5.01l-.5-.87,2.75-4.14Z"/>
      <path class="cls-7" d="M310.8,87.39l.35.27c-.45.99-1.08,2.47-1.6,3.34l-.51-.32c.38-.84,1.3-2.43,1.76-3.29Z"/>
      <path class="cls-5" d="M343.22,84.96c.5-1.01.91-2.19,1.65-2.71-.12,1.04-.85,2.57-1.35,3.39l-.3-.68Z"/>
      <path d="M188.63,126.45c-1.01-.43-1.46-.36-2.01-1.22.87-.18,1.88.27,2.55.98l-.54.24Z"/>
      <path d="M310.8,87.39c.52-1.25.6-2.02,1.41-2.59,0,1-.56,2.1-1.06,2.86l-.35-.27Z"/>
      <path class="cls-8" d="M388.19,122.77l2.08,2.29-.21.91c-.55-.74-1.04-1.31-1.62-1.99l-.24-1.21Z"/>
      <path class="cls-5" d="M321.3,77.58c.46-1,.72-2.03,1.39-2.43-.1,1.14-.61,2.27-1.24,3.09l-.15-.67Z"/>
      <path class="cls-1" d="M196.48,120.01c.12.03.24.06.36.08,1.08.23,1.57.86,2.37,1.78-.06-.02-.11-.03-.17-.05-1.15-.29-1.68-.86-2.55-1.81Z"/>
      <path class="cls-3" d="M339.6,77.9c.52-.9.72-1.65,1.38-1.89-.27,1.24-.38,1.33-.93,2.38l-.45-.49Z"/>
      <path d="M388.43,123.99c-.82-.84-.97-.92-1.5-2.12l.28-.09.98.99.24,1.21Z"/>
      <path d="M349.81,85.3c.54-.89.6-1.35,1.28-1.58-.22,1.03-.56,1.34-1.14,2.12l-.14-.54Z"/>
      <path class="cls-5" d="M336.05,59.83c.29-1.13.16-1.32.78-1.88-.01,1.06-.03,1-.37,1.99l-.4-.11Z"/>
      <path class="cls-7" d="M180.04,130.67c-.73-.22-.76-.29-1.43-.75.75-.31.74-.12,1.63.13l-.21.62Z"/>
      <path class="cls-2" d="M296.04,233.52l-.99-.83c-.44,2.48-.6,4.91-.66,7.31h2.46c-.36-1.92-.65-4.01-.81-6.48Z"/>
      <path class="cls-2" d="M279.34,217.29c-1.15,3.45-3.57,16.98-3.62,22.71h7.36c-1.82-5.98-3.44-18.52-3.74-22.71Z"/>
      <path class="cls-2" d="M263.92,232.52c-1.75-6.59-5.99-12.86-7.52-19.59-.73-3.21-.87-6.89-1.07-10.19-2.37,10.27-.66,14.96.83,24.9.52,3.45.66,7.84.5,12.35h9.2c-.66-2.6-1.32-5.17-1.93-7.48Z"/>
      <path class="cls-2" d="M239.4,225c-.82-1.19-1.15-3.9-2.13-4.85-2.27,3.21.46,11.46.61,15.06.07,1.61-.02,3.2-.2,4.79h10.27c-1.94-5.47-4.88-9.71-8.56-15Z"/>
      <path class="cls-2" d="M324.47,221.93c-2.84,7.2-.65,11.33-1.19,18.07h7.49c-2.08-6.95-5.15-8.54-6.3-18.07Z"/>
      <path class="cls-2" d="M316.12,238.52c-3.46-5.09-7.53-11.36-9.46-17.62-2.56,6.1-1.8,10.45-.79,16.7.13.83.19,1.62.19,2.4h10.99c-.27-.48-.56-.96-.92-1.48Z"/>
      <path class="cls-2" d="M389.77,236.22c-.1.85-.24,2.18-.4,3.78h1.55c-.36-1.24-.74-2.47-1.16-3.78Z"/>
      <path class="cls-2" d="M341.67,239.36c-1.26-5.15-1.56-8.62-2.08-13.91-1.68,4.11-3.41,9.56-3.53,14.18,0,.13,0,.25,0,.38h5.79c-.06-.21-.12-.43-.18-.64Z"/>
      <path class="cls-2" d="M373.72,238.61l-.13-.78c-.37.72-.41,1.41-.33,2.17h.81l-.34-1.39Z"/>
      <path class="cls-2" d="M352.75,235.62c-.78,1.52-1.33,2.97-1.75,4.38h2.45c-.31-1.35-.56-2.79-.7-4.38Z"/>
      <path class="cls-1" d="M373.72,238.61l-.13-.78c-.37.72-.41,1.41-.33,2.17h.81l-.34-1.39Z"/>
      <path class="cls-7" d="M373.72,238.61l-.13-.78c-.37.72-.41,1.41-.33,2.17h.26l.2-1.39Z"/>
      <path class="cls-7" d="M373.52,240h-.26c.03.29.08.59.13.91l.13-.91Z"/>
      <path class="cls-1" d="M295.05,232.69l.71-4.46c.07,1.28.15,4.12.28,5.29l-.99-.83Z"/>
      <path class="cls-1" d="M104.12,213.57c.71,1.05,1.32,2.03,1.98,3.13l-.38,1.24c-.54-1.36-1.09-2.96-1.61-4.36Z"/>
      <path class="cls-2" d="M101.15,215.72c-.24-.79-.26-1.04-.39-1.88l.28-.16,1.04,1.23-.93.81Z"/>
    </g>
  </g>
</svg>