<svg xmlns="http://www.w3.org/2000/svg" id="Layer_2" data-name="Layer 2" viewBox="0 0 576 240.13"><defs><style>.cls-1{fill:#575858}.cls-2{fill:#fff}.cls-3{fill:#424242}.cls-4{fill:#989798}.cls-5{fill:#f4f4f4}.cls-6{fill:#010101}.cls-7{fill:#797979}.cls-8{fill:#b2b2b2}.cls-9{fill:#111}.cls-10{fill:#d7d7d7}</style></defs><g id="Layer_2_copy" data-name="Layer 2 copy"><path d="M0 0h576v240.13H0z" class="cls-6"/><path d="M502.39 235.77c-1.04-23.82.1-47.43.86-71.28l2.47-77.17-12.23-2.23c-.24 3.33-.82 9.68-.58 12.82.51 6.66 1.44 7.46-.68 14.2-1.8 5.74-3.35 12.47-4.59 18.47-.86-9.68-.02-14.5 1.47-23.76.21-1.34.2-5.95.31-7.71.32-5.36 1.23-9.23 2.67-14.24-8.44-1.54-18.49-3.09-26.76-5.3l-9.63 43.33c-3.07 13.76-6.2 27.49-10.45 40.78-1.09 1.7.02 3.89-.45 5.37-.65 2.08-2.83 1.66-3.89.78-.98-3.49-1.91-23.66-2.22-28.79l-3.65-62c-1.77 2.16-4.53 7.35-6.98 6.91-1.48-1.47-3.49-9.58-4.29-12.35-1.33 6.39-3.11 11.01-4.65 17.03-2.35 9.18-3.97 20.65-4.54 30.23l-.68.63c-2.06-18.73-2.13-29.24 3.12-46.61.78-2.58 1.42-13.42 2.11-17.52-5.45 8.84-12.69 20.08-18.03 29.2-1.99 3.4-3.33 16-2.81 20.33.41 3.85 2.12 7.02 2.5 10.27 1.34 11.61 2.67 23.4.5 34.97-1.29 6.89-3.06 13.07-4.53 19.74l-.15-.03c-.42-.87-.44-6.06-.56-7.79-.11-5.48.18-11.47 0-16.89-.28-8.48-.84-17.33-1.32-25.81-.27-4.78-2.62-10.34-2.39-15.88.25-6.01 1.42-10.34 2.8-15.98-2.86-6.67-5.26-14.48-8.23-21.31.15 6.35 1.44 10.96 1.9 17.09.26 3.49-3.1 8.71-3.67 11.42-1.63 7.77.31 7.8-2.78 15.77-.37-1.01-.36-1.74-.49-2.88.35-5.2-1.08-7.69-.78-12.56.23-3.71 2.72-8.61 2.75-12.16.02-2.62-.46-6.4-.72-9.08-.5-5.47-.29-11.01.62-16.4l-1.31-3.68-5.4 8.99c2.04 9.73-1.09 14.96-2.16 23.82 1.92 3.66 2.77 5.74 1.71 10.2-2.08 8.76-4.46 17.2-6.25 26.1-.47-.85-.44-2.45-.5-3.57.04-3.05.3-6.79.48-9.46.24-3.55 2.34-14.49 1.42-17.05-3.49-9.79 1.1-13.71 1.59-23.82-1.71 2.77-10.19 17.68-12.12 18.06-.69.14-1.1-.08-1.62-.65-2.09-2.3-6.3-39.37-6.88-44.67l-10.03.35c-.81 7.42-1.57 19.37.32 26.75.55 2.13 2.46 5.07 3.03 7.43.81 3.33.42 7.31 1.13 10.48.86 3.88 3.21 7.24 3.6 11.37.59 6.17-1.62 11.85-2.54 17.75-.59 3.78 1.4 6.79.7 11.02-1.45 8.87-4.13 17.26-6.31 25.88-1.2 4.72-1.8 9.89-2.86 14.5-.8-1.34-.45-3.51-.84-5.74-.34-6.73-.34-16.11.63-22.7.54-3.67 2.12-7.82 2.46-11.94.29-3.54-1.48-6.8-1.1-9.69.73-5.57 3.49-11.7 3.06-17.47-.09-3.35-3.5-8.9-3.67-11.78-.46-7.61-.19-8.71-2.97-15.28-3.55-8.39.27-22.05 2.58-30.54-3.64.15-7.27.27-10.91.36-.72 7.96 1.26 9.05-1.31 18.26-.8-7.08-1.92-11.42-.14-18.23-2.3.12-4.6.21-6.9.26-.1 3.75 1.04 8.72.77 11.54-.61 6.43-1.69 8.98-1.68 15.81-2.21-5.16-1.72-7.18-2.06-12.73-.33-5.32-.73-9.14-.3-14.56-1.96.11-10.76.07-11.79.82-.12 2.84 2.6 4.42 3.18 6.01 1.74 4.77-1.85 21.02-2.72 26.07-1.79-12.12-.71-12.74-.76-23.83-3.77-7.31-.51-8.79-7.86-8.45-2.3 12.77.82 12.09 1.38 23.89.12 2.53-1.28 8.35-.97 11.21.34 3.04 1.66 5.83 1.55 8.94-.11 2.75-.3 5.52-.8 8.22-2.33 12.76-4.07 25.69-6.45 38.44-.5-.87-.57-2.53-.7-3.68-.33-8.75-.75-17.78 0-26.51.44-4.99 1.87-10.21 1.97-15.24.05-2.87-1.14-6.02-1.43-9-.35-3.59 1.27-9.29 1.19-12.41-.24-9.77-2.45-13.6-.4-23.8-3.18.07-7.02.28-10.15.19-1.16 7.19-.51 13.98-1.13 21.02-.74 8.53-1.86 17.01-1.74 25.73.04 2.84-.82 6.37-.84 9.28-.42 3.28.57 9.73.08 12.58-1.01 5.79-1.18 5.73-.6 11.52-.53 4-.27 9.19-.61 12.99-.39 4.39-.83 8.64-1.23 12.93-.6 6.37-.28 16.93-2.66 22.45 1.21 2.93 1.52 3.83 2.37 6.84l.35 2 .72-.54-.13 1.46c1.09 1.9.15 8.36.73 12.08.47 5.43 1.41 10.78 1.86 16.14.25 2.96-.08 8.06-.25 11.11l-.48.05c-1.44-4.19-2.92-13.21-3.92-17.9-.25-1.2-.12-5.21-.42-6.54-.7-3.12-2.26-6.31-2.56-9.56-.35-3.84.66-8.79-.27-12.5-1.59-6.36-4.62-12.45-6.52-18.52L246.27 97.2c-1.27-3.99-3.49-13.55-5.26-16.39-1.16 1.65-.12 37.23.24 41.58.56 6.79-.16 14.66-.58 21.46 6.22 1.7 8.92 4.22 6.57 12.98-1.45 5.38-4.26 10.52-6.53 15.45l-6.06 13.34c.87-5.84 2.01-11.62 3.42-17.29.85-3.37 3.75-12.5 3.11-16.31-.16-.94-6.22-2.57-6.69-5.02-1.19-5.76.52-12.87.28-18.82-.68-16.85-1.1-30.27 2.14-46.91-4.37 1.39-9.32 3.66-13.79 4.95-5.64 1.63-11.47 3.14-16.95 5.5-.62 6.59-.2 11.27-.25 17.7-.02 3.44-2.15 10.41-3.07 13.86l-1.09-.44c-.29-6.73-.73-14.41-.76-21.12 0-1.88 1.08-7.12 1.46-8.98-4.68 1.78-9.25 3.32-14.07 4.38-2.08.46-3.76 1.35-5.77 2.03-1.06 9.78 2.15 9.04-1.52 19.98-.56-6.53-2.18-13.18-1.52-19-3.71.85-6.22 2.45-9.66 3.38-.59 7.01-1.32 15.49 1.22 22.1.9 2.33 2.37 3.68 2.71 6.47.64 5.21-1.24 9.76-1.61 14.76-.29 3.83 2.06 9.27 1.82 13.08-.88 13.77-5.23 31.8-8.77 44.77-1.17-2.29-.14-8.88-.51-12.78.01-10.43 1.84-21.38 2.24-31.79.17-4.33-1.9-9.12-1.52-12.69 1.05-9.69 3.71-11.41-.56-20.52-1.69-3.61-.58-17.15.1-21.89-7.52 1.86-14.96 4.13-22.32 6.8-9.3 3.36-18.07 7.12-27.67 9.13-2.66.56-5.23 1.94-7.92 2.44 2.16 10.6 6.34 26.6 5.83 37.26-.23 4.77-5.43 20.83-6.94 25.29-4.51 13.34-6.28 15.44.31 28.35 1.86 3.65.06 20.25-1.14 25.3-.83-6.99-1.37-15.78-2.78-22.33-.9-4.18-5.62-9.1-5.26-14.84.82-13.28 9.02-28.02 11.2-41.39.66-4.04-.87-15.83-1.32-20.66-.52-5.58-.96-11.16-1.32-16.76-2 .95-3.6 2.18-4.88 4.43-3.69 6.46-6.36 14.61-10 21.02-7.84 13.82-15.56 27.67-23.11 41.74-.86 1.61-1.8 3.04-2.47 4.81-.33.89-.64 1.79-.94 2.7 6.24 10.17 11.26 18.7 16.34 29.92 1.82 4.02 4.45 7.89 6.84 11.96h413.97c.55-2.47.91-4.18.91-4.36Z" class="cls-2"/><path d="M164.79 191.86c.36 3.9-.66 10.5.51 12.78-.18.95-.52 1.87-.81 2.79-.05-4.32-.19-11.42.31-15.58Z" class="cls-9"/><path d="m277.28 182.38.39-.6c.41 1.56.29 12.01.21 14.14-.58-3.72.36-10.18-.73-12.08z" class="cls-3"/><path d="M338.88 163.38c.39 2.23.04 4.41.84 5.74-.1.76-.2 1.62-.32 2.36l-.11-.03c-.51-.69-.38-2.61-.42-3.8-.05-1.3 0-2.95.02-4.27Z" class="cls-9"/><path d="M396.03 164c.12 1.73.14 6.91.56 7.79l.15.03c-.18 1.16.05.79-.48 1.5-.48-1.76-.29-7.26-.24-9.32Z" class="cls-1"/><path d="M369.6 128.51c-.04-2.82-.07-4.56.2-7.33.07 1.12.04 2.72.5 3.57-.1.97-.5 2.74-.71 3.76Z"/><path d="M338.86 167.66c.05 1.19-.08 3.11.42 3.8l.11.03c-.16 1.67-.36 2.22-.81 3.84.04-2.56.13-5.11.28-7.67" class="cls-1"/><path d="M291.4 132.35c.13 1.15.2 2.81.7 3.68-.15 1.01-.04 1.25-.52 1.87-.31-1.92-.21-3.6-.18-5.55" class="cls-3"/><path d="m201.75 122.8 1.09.44c-.18.64-.34 1.08-.56 1.7l-.28-.23-.26-1.91Zm179.73-10.22.35-3.05c.13 1.13.12 1.86.49 2.88l-.34 1.18-.5-1Z" class="cls-9"/><path d="m413.89 121.46.68-.63-.02 1.76-.39.33zm-32.41-8.88.5 1-.45.79-.21-.19.15-1.6Z" class="cls-1"/><path d="m279.01 223.22.48-.05-.08 1.03c-.19-.41-.28-.53-.4-.98" class="cls-3"/><path d="m414.15 122.92.39-.33-.2.98c-.24-.44-.2-.21-.19-.65" class="cls-4"/><path d="M150.05 236.37c-2.62-4.46 8.45-12.87 6.39-15.83-.97-.07-1.26-.09-2.2-.33-.9-1.6-.27-7.29-.25-9.73.06-7.64-3.92-7.39-6.77-11.23-4.85-6.54-.62-21.02-.65-29.62-.59-.53-.7-.74-1.07-1.52-1.35 4.03-1.98 10.03-2.81 14.36-.87 3.51-1.44 8.02-2.14 11.46-1.56 7.56 3.14 9.91 3.27 16.01.07 3.26-4.32 7.38-4.61 11.37-.49 6.59 3.27 10.55 3.41 16.89 0 .65-.02 1.3-.07 1.94h11.15c-.96-1.4-2.75-2.25-3.63-3.76Zm248.92 1.64c-1.16-.47-2.62.49-4.15 2.12h4.61c.02-.78-.11-1.51-.46-2.12m14.45-21.64c.08-1.9.09-5.1-.19-6.92l-.28.13-.26 1.45c-1.35 7.47-1.46 17.35-1.49 25.1 0 1.61.09 2.89.32 3.99h3.72c-.96-3.82-1.57-19.13-1.83-23.76Zm-41.95-2.94c.46-2.69-1.16-12.92-1.54-16.13-.52-4.33-.9-8.7-1.15-13.07-.17-1.57-.12-1.83-.88-3.01-1.29 10.5-1.83 20.25-2.16 30.84-.09 3.03-3.49 10.47-4.08 13.71-.98 3.39-2.3 8.93-3.42 11.98-.19.51-.64 1.37-1.22 2.37h8.21c.51-10.04 4.61-17.17 6.24-26.7Z" class="cls-6"/><path d="M432.27 234.61c.39-2.88.25-5.45.8-8.49.86-4.76 2.4-10.18 2.29-15.1-.01-.51-.22-.5-.65-.86l-.68.31c-.96 1.3-1.38 2.87-1.95 4.52-.06-3.11-.01-7.25-.52-10.3-.21-1.29-.75-1.19-1.78-1.84-.69-3.37 2.58-9.72.77-11.59l-1.35.25c-5.11-7.52 5.11-27 1.41-30.91-4.63-.31-12.39 28.02-16.3 24.54-2.2-6.68 2-35.68 2.46-44.75.21-1.19.62-2.82.41-3.94l-.44-.06-.92 1.12c-1.9 3.86-2.58 11.58-3.48 16.25-2.43 12.66-4.56 25.36-5.08 38.42-.16 4.07-.86 13.04 4.66 11.28 2.4-.77 4.87-4.85 6.82-5.45 1.55 1.9-1.14 13.39 1.35 16.14 1.66 1.84 4.5-.07 4.54 3.63-.29 7.49-.5 14.91-.55 22.36h7.23c.34-1.74.68-3.55.95-5.52Zm18.97-4.82c1.73-6.05-2.26-11.62-2.28-17.58.38-11.97 1.8-24.17 4.2-35.79-4.03 7.51-10.72 29.3-10.69 39.01.11 3.55 3.13 9.78 1.96 13.15-1.51 4.36-3.29 7.94-4.98 11.55h6.17c2.31-3.18 4.49-6.44 5.61-10.34Z" class="cls-6"/><path d="m415.82 137.51.92-1.12.44.06c.22 1.12-.19 2.75-.41 3.94l-.66-.18c-.55-1.02-.33-1.16-.31-2.7Z" class="cls-9"/><path d="m412.69 211.04.26-1.45.28-.13c.28 1.82.27 5.02.19 6.92-.19-1.26-.27-3.69-.37-5.08z" class="cls-7"/><path d="M133.74 219.98c-.13-5.03 1.12-6.84-2.69-10.25.45-7.53 1.17-8.9-4.56-12.48 1.38-10.83 5.15-19.72 8.64-29.54 3.06-8.61 6.06-16.93 9.65-25.23-.5 1.17.03-3.13-.03-2.67-3.08 2.22-12.37 25.9-14.67 30.5-2.55 5.09-6.31 12.75-8.51 18.12-2.85 6.93-5.98 15.68-2.31 22.8 3.55 6.9 8.41 11.6 6.26 20.43-.41 2.37-1.49 5.3-2.74 8.47h7.45c1.94-6.47 3.7-13.06 3.52-20.15Zm171.87 15.67c6.22-2.75 10.8-6.23 15.72-11.73-5.02 2.31-10.68 6.26-16.17 5.61-1.63-.2-3.16-1.06-4.8-1.27-2.51-.32-4.99-.05-7.35-1.39-2.85-1.61-4.48-5.06-5.46-8.62-.95-3.44-1.71-15.4-2.81-16.92-1.75 8.57-.99 17.71 2.64 25.34 1.46 3.06 3.19 6.66 5.19 9.22 1.69.56 4.26 1.08 5.21 3.17.15.33.25.69.32 1.07h6.78c.03-1.49.47-3.13.74-4.48Zm-101.39-2.92c.69-2.19 2.17-6.42 2.25-8.59.08-2.04-1.16-4.82-.74-7.31 1.2-7.05 5.75-11.78 6.92-18.73.66-3.92-2.52-6.89-2.36-10.2.38-7.94 2.91-16.16 3.04-24.18.08-5.31-2.11-11.13-2.55-16.39-.76-9.04-.2-18.25-.1-27.35.3-1.83.29-4.11.16-5.95l-.19.05-.26 1.31c-1.37 6.06-5.38 29.19-4.5 34.71 2.43 15.26-.25 22.01-2.26 36.89-.83 6.15 3.97 7.31.36 15.62-.47-.92-1.92-3.72-2.07-4.59-1.51-8.52.91-20.27 1.18-29.11.21-1.88.28-5.84.38-7.85-.62 1.75-.69 2.05-.91 3.95-1.26 11.33-6.6 22.08-5.04 33.2.19 1.34 3.38 7 4.23 9.48-.94 2.71-3.05 9.24-2.5 12.28.34 1.89 1.18 3.17 1.07 5.51-.24 4.81-.89 9.74-1.42 14.65h6.31c-.18-2.2-.51-4.63-1-7.4" class="cls-6"/><path d="M202.58 165c.22-1.89.29-2.2.91-3.95-.1 2.01-.18 5.97-.38 7.85-.03-1.23-.09-2.45-.17-3.68l-.36-.23Z" class="cls-7"/><path d="m210.4 115.39.26-1.31.19-.05c.13 1.84.14 4.12-.16 5.95-.06-1.63-.14-2.97-.28-4.59Z"/><path d="m202.29 239.05-.23-.03-.39 1.11h.63v-1.08Z" class="cls-5"/><path d="M311.95 154.74c5.06-.7 3.23 2.96 6.49 4.73 1.9 1.03 4.68-.36 6.56.96 2.1 1.46-.03 3.55.77 5.04.44.82 1.21.69 1.59 1.84-.33 2.11-2.61 3.9-3.87 5.2-.73 3.39-2.32 6.95-2.31 10.51 0 2.21.43 4.4.43 6.61 0 3.21-1.24 5.8-3.08 7.96-1.92 2.27-4.69 4.15-7.41 4.01-1.47-.08-2.79-.83-3.75-2.25-1.36-2.02-4.35-11.3-4.16-14.04.32-4.58 3.69-14.14 6.54-16.99.79-.79 1.97-1.32 2.98-1.23-.1 1.71-2.01 3.37-2.41 5.2-.46 2.07 1.14 4.51 1.98 6.19l-1.43 2.25c-1.23 1.95-1.8 4.05-1.5 6.53.26 2.16.89 4.31 2.33 5.64l.43-.15c.73-3.04 1.85-4.26 3.31-6.69 1.05-1.76.52-4.13.31-6.14 1.64-3.63 5.01-6.38 5.55-10.53-.45-2.72-1.01-5.1-2.98-6.72-2.12-1.74-5.14-2.23-7.57-1.42-3.4 1.13-6.1 4.86-7.75 8.61-1.76 4-2.26 8.2-3.13 12.56-1.39 7.02-2.51 10.22-2.15 17.59.09 1.86.15 3.81.63 5.6.94 3.54 8.81 4.67 11.5 6.31.44.27.48.18.63.77l-.78.14c.06.83.14.47-.18 1.1-1.24.03-2.31-1.11-3.45-1.64-2.19-1.02-5.03-.08-7.24-1.17-.6-.3-1-.71-1.41-1.32-1.24-1.87-1.85-4.36-3.04-6.25-1.11-1.76-3.01-3.07-3.77-5.11-.96-2.55.13-5.49.45-8.08.34-2.77-.29-5.64.24-8.4.98-5.15 4.68-9.26 6.53-13.93.73-1.84.89-4.01 1.51-5.92 2.06-6.41 8.15-4.83 12.21-7.13.12-.07.25-.14.37-.22Zm17.24-81.04c1.02 3.85.24 8.78.12 12.79-.26 8.85-.69 20.01 1.39 28.49.58.57 1.44 1.26 1.81 2.08 1.37 3.08-.45 7.88-1.11 11.05.78.68 1.87 1.4 2.21 2.58.67 2.38-2.27 6.01-3.02 8.14-1.8 5.06.57 7.24 1.86 11.58.18.6.24.7 0 1.28-2.23-.56-1.68-.81-2.76-2.65-1.37-2.17-3.59-4.7-5.59-5.89-2.3-1.38-6.39-.21-8.92-.09-3.55.17-8.56-.54-11.85 1.09-2.41 1.2-5.13 5.03-7.87 6.26l-.13-.34c1.17-2.15 6.19-8.56 7.86-10.8 1.26-8.2.29-15.55 1.59-23.6.18-1.11.28-2.36 1.39-2.33 1.84 3.95-.38 17.41 2.22 24.74-.15.61-.15.31.01.92 1.33.16 3.57 2.74 4.72 1.06-.72-5.76.27-9.38.48-15.11.12-3.31.15-6.53.34-9.84.13-2.18.77-5.62.78-7.6.01-2.68-1.22-6.05-1.12-9.13.24-7.58 1.16-13.78.93-21.5 3.39 7.47 2.02 14.13 2.53 22.31.32 5.12.15 4.32 2.78 7.94 1.25 1.72-.56 8.46-.95 11.15 4.94 4.18-.11 10.43-.66 15.94-.41 4.1 1.73 3.98 4.11 4.01l2.68 2.77c-.61-3.43-1.42-13.64-.32-16.67 5.78-16-1.03-34.85 4.49-50.62Zm-142.9 154.53c-.63-.17-.79-.21-1.42-.21h-.5c-.69-2.21 1.04-4.89.02-7.24-.51-1.18-1.66-.98-2.48-1.55-2.65-1.84 4.14-20.6 5.59-23.72 1.6-3.44 3.93-6.32 5.39-9.85.45-1.08.54-1.68.39-2.9-.51-4.35 3.28-5.67 4.47-9.19.65-1.94-.4-2.84-.29-4.63.13-2.25 1.36-4.34 1.33-6.67-.04-2.81-2.34-3.9-2.85-6.35-.67-3.25.62-6.9.28-10.28-.33-3.24-1.33-6.52-2.01-9.68a72 72 0 0 1-1.48-18.08c0-1.04.05-1.6-.19-2.61l-.45.68c-1.61 7.72-.95 12.98-1.49 20.78-.21 3.03-.98 6.41-1.16 9.52-.05.79 1.39 5.16 1.39 5.95-.05 5.86.74 12.2.72 17.85 0 1.01-1.99 4.72-2.28 5.81-.79 3.06-.33 5.11-1.55 8-1.29 3.04-3.13 5.47-4.29 8.51-.94 2.47-1.43 7.02-2.37 9.21-1.61 3.75-3.36 4.75-3.91 9.46-1.36 11.75 7.22 12.19 2.9 24.2.45 1.61.48 3.25.3 4.89h4.6c1.32-5.11 2.3-10.18 1.35-11.9Z" class="cls-6"/><path d="m192.1 115.95.45-.68c.24 1.01.19 1.57.19 2.61z" class="cls-3"/><path d="M380.96 221.25c1.1-4.87 2.94-9.33 4.1-14.18 1.77-7.36-.48-8.78-4.55-13.09 1.13-8.4 4.17-13.54 4.98-21.69.84-4.58-3.58-9.14-3.43-12.94.49-12.26 1.59-26 2.6-38.09-2.1 5.81-9.55 34.27-9.06 39.78.43 4.84 3.66 7.75 3.09 13.04-.75 6.96-4.56 13.29-4.65 20.37-.04 3.41 1.97 4.39 3.6 6.55.66.88.98 1.76.92 2.98-.23 5.13-2.16 10.14-2.7 15.29-.73 6.89-.27 13.94-.43 20.89h1.47c1.64-6.17 2.6-12.63 4.07-18.88ZM250.08 232c-.87-4.03-2.61-5.41-3.02-10.41-.23-2.93-.42-5.91-.37-8.85.06-3.31.44-6.77.13-10.07-.39-4.07-2.11-7.9-1.99-12.03.2-6.53 3.91-9.68 5.78-15.09 1.9-5.49 3.9-17.03 4.09-23.04-2.85 6.72-5.01 13.92-7.88 20.61-1.81 4.21-4.53 7.23-5.82 11.9-1 3.59-1.3 6.19-.39 9.89.38 1.56.95 3.27 1.1 4.9.6 6.67-.22 13.93-.18 20.67.03 4.6.73 8.94 1.04 13.48.14 2.05 0 4.1-.04 6.15h7.07c.15-2.73 1.07-5.43.48-8.13ZM479.35 99.73l.22.28c.35 3.68-2.87 13.37-3.28 18.06-.49 5.56-.84 11.47-.62 17.06.17 4.23 1.59 8.69.94 12.92-.87 5.61-4.66 10.06-5.9 15.59-.92 4.1 2.18 6.57 1.54 10.29-.58 3.34-2.76 6.01-3.5 9.29-.88 3.93.09 8.12-.72 12.07-.86 4.19-2.6 8.27-3.98 12.24-3.03 8.75-3.42 15.02-3.86 24.43 0 .64.07 1.46-.03 2.08-.15.85-.26 1-.83 1.43-.46-.66-.36-.34-.47-1.14-.56-3.97.32-9.27.44-13.36.1-3.27-.16-6.54.17-9.8 1.01-9.98 2.91-20.06 4.44-29.94 3.27-21.12 6.52-42.08 10.72-62.96 1.15-5.72 2.03-13.67 4.72-18.52Zm-7.11 128.75c1.09-7.54 4.04-14.54 6.72-21.35 1.54-3.91 4.03-7.87 4.71-12.17.81-5.17-2.33-9.68-2.44-14.77-.21-9.5 2.98-21.36 4.27-30.87.33-2.47.22-6.56.74-8.69.17-.69.45-1.29.78-1.89l-.24-.47-.68-.17-.11-.53c-.14-.66-.24-1.45-.64-1.94-1.67 7.74-2.16 15.75-3.63 23.55-3.8 20.18-10.66 43.81-11.89 64.26-.26 4.27.43 8.51.34 12.77-.02 1.12-.19 2.49-.35 3.92h1.46c.22-3.91.42-7.88.96-11.65m-306.04-4.07c0-2.55.09-5.93-.14-8.39l-.28.06-.32 1.25c-2 7.43-2.7 15.07-3.02 22.79h3.91c.04-5.35 0-10.64-.16-15.72Z" class="cls-6"/><path d="m165.47 217.34.32-1.25.28-.06c.23 2.45.14 5.84.14 8.39-.26-1.26-.33-5.24-.39-6.79l-.35-.28Z" class="cls-7"/><path d="M490.99 231.31c-1.06 2.01-2.22 5.17-3.37 8.82h2.22c.71-3.87 1.21-7.22 1.15-8.82m-315.75 1.16c-.39-3.08.07-7.22-.29-10.19-1.23-10.27-.06-19.51 1.3-29.63.62-4.65.97-9.71 1.36-14.53l-.6-.12c-1.87 9.05-4.92 20.19-5.92 29.02-1.14 10.05.67 22.35.98 33.11h3.75c-.14-2.56-.43-5.12-.57-7.66Zm95.05-5.54c.05-.98-2.04-3.54-2.71-4.39.34-5.21 1.99-10.74 2.29-15.28.58-8.76-6-19.89-8.86-28.7l-.41 1.89c2.04 7.08 5.17 21.49 4.45 29.05-.32 3.36-1.56 7.8-1.74 11.47-.18 3.63.85 4.52 2.79 7.26-.15 2.18-.48 5.75-.22 7.86.16 1.33.35 2.68.55 4.03h3.83c-.1-4.55-.19-9.05.03-13.2Zm-42.14 4.64c.21-3.74 1.57-7.63 1.4-11.33-.11-2.48-1.19-5.33-1.77-7.74-1.65-6.85-.4-12.87.95-19.49-2.61 6.42-4.78 13.24-4.23 20.69.12 1.99 1.27 6.36.99 8.17-1.05 6.65-2.09 11.35-1.24 18.26h4.38c-.1-2.65-.64-5.94-.49-8.56Zm265.79-89.4.17-1.69.19-.18c.27 1.25.31 1.44.4 2.72.6 12.95.43 24.76-.33 37.72-.25 4.17 1.35 9.24.62 13.45-.82 3.5-2.5 6.58-3.71 9.93-.98 2.74.3 6.77-.26 8.35-1.91 5.35-4.11 9.62-5.73 15.27-.22 1.01 0 .71-.5 1.3-.3-1.59-.16-2.26-.04-3.93.48-4.96 1.17-8.03 2.62-12.63-1.73-11.86 1.71-10.46 3.39-20.61.22-1.34-.39-6.53-.17-9.03 1.16-13.51 2.06-27.2 3.35-40.68Z" class="cls-6"/><path d="M485.28 227.74c-.22 1.01 0 .71-.5 1.3-.3-1.59-.16-2.26-.04-3.93.14.98.18 1.78.53 2.63Z"/><path d="m493.94 142.17.17-1.69.19-.18c.27 1.25.31 1.44.4 2.72-.36-.79-.1-.51-.75-.85Z" class="cls-1"/><path d="M390.17 144.47c-.12 3.93.1 11-.32 14.44 0 8.12.23 16.26 2.24 24.07 1.77 6.87 6.17 10.08 5.92 17.22-.25 7.18-8.58 30.98-11.14 39.15l-.62-1.27c.96-6.73 1.84-13.33 3.27-19.96 1.35-6.26 4.3-12.35 4.5-18.86.13-4.45-3.02-7.7-4.01-11.65-3.36-13.5-2.12-24.88-.68-38.34l.18-4.03.68-.76Z" class="cls-6"/><path d="M390.17 144.47c-.12 3.93.1 11-.32 14.44-.23-2.82.21-7.35-.22-9.81l-.31.17.18-4.03.68-.76Z" class="cls-1"/><path d="m359.6 108.53.21.26c.67 3.17-2.12 25.71-2.48 30.96-.58 8.38-.37 16.76-.79 25.14-.41 8.34-1.52 16.79-2.28 25.1.92.51 1.84 1.01 2.5 2 1.9 2.88.9 8.06.65 11.51.65.91 1.29 1.84 1.77 2.92.54 1.2 1.44 3.2 1.13 4.61l-.52-.46c-1.23-2.13-3.82-4.09-4.58-6.29-1.09-3.14 1.21-7.95-.49-10.7-.73-1.17-2-1.03-2.77-2.39-.62-6.05 1.59-18.63 2.12-25.33 1.07-13.42.55-47.05 5.55-57.32Zm111.73-12.22c.07 2.1.17 5.04-.22 7.1-.11 5.07-2.57 22-4.12 27.1-1.2 3.94-4.78 10.26-5.94 15.45-1.02 4.56.18 6.12-.2 8.98-.48 3.63-2.86 10.37-3.94 14.14-.18 1.1 0 .78-.52 1.55-.3-1.5-.13-2.56-.02-4.09.22-3.45.8-7.14.95-10.52.14-3.24-.99-5.52-.47-9.21.93-6.58 4.91-12.87 6.6-18.28 2.81-9.01 5.61-20.25 7.19-29.7l.24-2.46.45-.05Z" class="cls-6"/><path d="M471.33 96.31c.07 2.1.17 5.04-.22 7.1-.13-1.74.25-3.21-.47-4.59l.24-2.46z"/><path d="M456.36 166.53c.16 1.19.1 1.5.54 2.53-.18 1.1 0 .78-.52 1.55-.3-1.5-.13-2.56-.02-4.09Z" class="cls-1"/><path d="M327.1 232.73c1.8-3.14 2.49-4.72 3.3-8.5l-.69-.28c-2.2 7.79-8.7 10.53-12.48 16.18h4.74c1.75-2.57 3.77-4.99 5.13-7.4M152.7 121.1c.39-.74.15-.44.81-.8 1.81 8.67 1.62 16.52 2.31 25.32.3 3.84 2.01 9.68 1.75 13.46-.37 5.47-2.14 12.26-2.53 17.57l-.82.42c-.32-6.78-.64-13.84-1-20.63-.08-1.63-1.77-5.91-1.83-7.67-.33-9.1.78-18.56 1.31-27.68Zm66.97 75.94c-.07-.98-.38-3.06-.39-3.68 0-5.51.85-10.94.31-16.41-.39-4.04.82-11.48 1.7-15.66 2.08-9.82-.82-20.68.82-29.84 1.39 6.37 2.28 11.72 2.01 18.3-.08 2.03.47 4.56.15 6.66-1.18 8.68-2.64 14.15-.5 22.14.48 1.78-2.99 19.37-3.58 22.24.06.62 0 .93-.03 1.56l-.23-.47.11.69-.11-.04c-.43-2.17-.33-3.3-.27-5.5Z" class="cls-6"/><path d="M219.67 197.04c.16 1.12.33 2.68.54 3.75.06.62 0 .93-.03 1.56l-.23-.47.11.69-.11-.04c-.43-2.17-.33-3.3-.27-5.5Z" class="cls-8"/><path d="M233.16 234.75c-.14-3.76-.86-7.5-.83-11.28.03-3 .12-6.03.3-9.02.14-2.41.54-4.75.4-7.18-.26-.59-.31-.65-.8-1.05-2.26 3.84-.75 22.18-.96 33.91h1.72c.12-1.79.23-3.59.16-5.38Zm-70.69-74.1h1.01c.27 7.26.07 12.98-.82 20.2-1.18 9.52-5.74 18.4-2.82 27.92.2 1.78.26 2.21.11 3.99h-.24l-.1-.37c-.91-3.07-2.92-6.49-3.39-9.54-1.52-10 2.32-20.83 4.26-30.47.86-4.28 1.41-7.43 1.98-11.73Z" class="cls-6"/><path d="M159.84 208.77c.2 1.78.26 2.21.11 3.99h-.24l-.1-.37.22-3.62Z" class="cls-1"/><path d="M238.58 233.52c-.58-5.78-.51-11.77-.93-17.62.06-1.94.07-4.4-.21-6.28-.46.57-.39 1.09-.54 2.07-1 7.33-2.01 16.08-1.99 23.54 0 1.38.48 3.18.88 4.91h4.46c-.49-2.21-1.5-4.89-1.66-6.61Z" class="cls-6"/><path d="M236.89 211.68c.15-.97.08-1.49.54-2.07.28 1.89.27 4.34.21 6.28-.18-1.17-.26-2.69-.36-3.9z" class="cls-7"/><path d="M480.4 235.7c.17-5.38.38-10.75.64-16.12l-.28-.63c-2.56 5.57-3.78 13.74-4.14 20.11-.02.35-.03.71-.05 1.06h3.82c-.01-1.59-.04-3.12 0-4.43Z" class="cls-9"/><path d="M407.54 228.92c-.17-3.79-1.84-7.5-2.67-11.16-.98-4.35-1.26-9.06-1.48-13.57l-.77-.45c-.52 10.26-.87 15.11 1.89 24.83.57 2.02 1.05 7.97 1.24 11.55h.91c.48-3.69 1.03-7.67.87-11.21Zm-74.52-48.29c.79 3.91-.53 12.88-.55 17.25-.01 3.17.53 6.25.72 9.4.11 1.87.48 6.57-.51 8.02l-.27-.47c-.99-3.52-1.67-7.16-2.02-10.86-.62-6.47-.71-18.04 2.62-23.34Zm-212.3-47.5c.32 1.65.18 3.4.45 5.09 1.9 11.58 2.17 12.64-.64 24.11l-.16.28-.23-.14c-.52-3.81-.34-7.75-.49-11.61-.18-4.34-.84-8.8-.34-13.13.2-1.76.68-3.09 1.42-4.6Zm209.77 105.73-.2-.24c-.22.52-.42 1.02-.62 1.51h.68c.06-.42.11-.84.14-1.27m135.39-9.12c-.04-1.47.16-3.03.01-4.48-2.16 4.42-1.68 9.88-2.07 14.87h2.61c.16-3.45-.47-6.93-.56-10.39Zm-248.99 1.01c-.35-1.79 0-4.41-.79-5.83-.55 1.59-.9 3.26-.98 4.99-.12 2.46.89 5.12 1.08 7.6.07.9 0 1.77-.07 2.62h3.12c-.91-3.08-1.74-6.18-2.36-9.38m280.56-119.97.42-1.09c.51.99.16 4.28-.03 5.45-.08 5.92-2.38 13.26-4.32 18.56.44-8.46 1.14-15.11 3.94-22.92Z" class="cls-6"/><path d="m497.45 110.78.42-1.09c.51.99.16 4.28-.03 5.45-.11-1.62.23-3.01-.39-4.36" class="cls-9"/><path d="M278.52 232.35c-.21 2.54-.61 5.21-.66 7.78h2.23c-.65-3.69-1.34-7.29-1.57-7.78m64.32 1.66c-.5-.26-.95-.36-1.48-.47-.13-1.07.39-3.17.59-4.46-.34-1.4-.94-1.79-1.88-2.79l-.61.15c.04 4.83.11 9.07.32 13.7h1.12c.89-2.65 2-5.7 1.94-6.12Z" class="cls-6"/><path d="M367.91 174.79c.9 3.85.94 5.41.87 9.44-.17-1.57-.12-1.83-.88-3.01-.01-2.14 0-4.29 0-6.43Z" class="cls-3"/><path d="m386.86 239.35-.62-1.27-.3 2.05h.72c.07-.25.14-.5.2-.78m-223.5-82.53.12 3.84h-1.01l.48-3.75z"/><path d="M329.71 223.95c.15-1.29.05-2.08.6-2.97.35 1.08.18 2.06.1 3.25l-.69-.28Z" class="cls-7"/><path d="M152.7 121.1c-.03-1.3-.11-2.01.2-3.27.47.61.45 1.46.61 2.47-.66.35-.42.05-.81.8"/><path d="M339.46 226.43c.01-1.05-.08-1.92.33-2.79.39.85.29 1.64.28 2.65l-.61.15ZM470.68 95.77c.15-1.01.06-1.51.53-2.08l.38.88-.27 1.73-.45.05-.2-.58Z" class="cls-4"/><path d="m470.68 95.77.91-1.2-.27 1.73-.45.05-.2-.58Z" class="cls-1"/><path d="M260.6 180.46c-.21-1.54-.26-2.11-.27-3.66.5.59.45.85.68 1.77z"/><path d="M177 177.99c.21-1.15.07-1.39.64-1.88.19 1 .14.98-.04 2z" class="cls-7"/><path d="M389.49 145.23c.01-1.36.03-1.33.35-2.54.44.84.28.6.33 1.78z" class="cls-8"/><path d="m402.63 203.74.25-1.08.28.16.24 1.37zm-248.41-26.65.82-.42-.31 1.3h-.26z" class="cls-1"/><path d="M147.1 48.37c2.11-1.01 3.43-1.32 4.91-3.39.16-.74.4-1.34-.12-2-2.72-3.45-8.68-3.3-8.47-9.71.07-2.28 1.14-4.63 2.62-6.09 6.63-6.55 23.04-10.37 31.15-9.09 15.88 2.63 30.27 14.78 46.48 14.92 6.76.06 12.5-3.31 18.48-6.76 1.04-.6 5.17-3.21 5.97-2.18-2.03 8.57-17.74 23.99-23.92 28.14-15.39 10.12-33.37 12.18-49.97 5.71-6.51-2.47-10.11-6.66-17.17-6.8-3.51-.07-6.05 2.06-7.05 1.9 0-.86 0-.81.24-1.61l.41-.3-.51-.92c1.28-.69 2.03-.82 2.82-2.2l-.13-.17-.02.51.09-.52c-1.85-.46-4.59 3.08-5.83 4.61.16-1.73.12-2.3.01-4.05Z" class="cls-2"/><path d="M172.79 31.16c-.83 3.45-1.93 4.35-2.41 6.34 2.71.48 8.28-5.19 10.43-7.3-1.63 2.96-2.47 4.13-4.56 6.54 1.48-.05 2.97.16 4.45.32 2.79-1.78 5.35-3.16 8.12-5.11-1.94 2.56-3.33 3.63-5.61 5.66l-.04.56.53.58c3.42.77 9.72-2.14 12.83-3.92-3.61 4.29-5.57 4.12-9.72 6.43l-.25.14c6.13.59 13.1-1.92 19.07-3.83-4.79 3.78-8.24 4.67-13.75 5.46 4.34 3.04 17.2-2.66 21.83-4.97-3.05 3.06-7.24 5.84-11.11 6.72l.17.44c1.19.16 1.93.17 3.13.17 4.43-.93 12.59-6.08 17.51-8.21-1.99 1.71-4 3.4-6.03 5.05 4.17-1.19 8.79-2.61 13.03-3.11-5.61 3.74-8.63 3.54-15.26 8.6v1.34c2.09-.23 4.55-.98 6.56-1.73l.18.83c-7.33 4.24-11.56 3.39-17.33 6.33 1.68 0 3.38.04 5.05-.1.17.24.36.45.44.72-6.79 2.23-9.84.4-16.69-.7 2.38 1.89 3.6 2.88 5.7 5.21-5.43-3.41-8.5-4.28-13.94-8.74l-.51.62c2.67 2.54 3.23 3.21 4.98 6.77-2.96-3.47-12.28-9.93-16.16-11.83 1.02 1.42 2.42 2.98 3.55 4.31l.63 1.65c-4.59-2.51-7.5-7.32-12.84-7.39-4.04-.05-5.68 1.04-9.02 3.38 5.94-9.1 11.15-7.38 17.05-17.24Z" class="cls-6"/><path d="M180.36 47.88c2.15 1.08 2.79 1.45 4.76 2.99l-.51.62c-1.28-.96-2.98-2.52-4.25-3.61" class="cls-5"/><path d="M205.91 45.39c-1.6.46-3.07.35-4.67 0l.04-.33 1.34-.29.17.44c1.19.16 1.93.17 3.13.17Z" class="cls-1"/><path d="M215.16 47.71v1.34c-.37.06-.96.08-1.35.1v-.36z" class="cls-5"/><path d="M150.18 32.59c7.63-11.16 22.06-11.98 32.8-9.27 4.29 1.08 9.19 3.95 13.45 5.6l.2.81c-11.48-2.84-22.45-6.42-34.18-2.85-3.91 1.19-8.79 2.91-11.52 6.9-.66-.55-.37-.22-.74-1.19Z" class="cls-6"/><path d="M150.18 32.59c.37.98.08.64.74 1.19l.04.22c.02 1 .14 1.92-.2 2.78-.48-.76-.35-.45-.51-1.39-.09-1-.07-1.81-.08-2.8Z" class="cls-9"/><path d="m150.26 35.39.32-.15.39-1.24c.02 1 .14 1.92-.2 2.78-.48-.76-.35-.45-.51-1.39" class="cls-7"/><path d="M176.98 50.75c.64.56 1.84 1.47 2.19 2.2-.71-.2-.91-.21-1.57-.55l-.63-1.65Z"/><path d="M209.61 54.38c.85-.22 1.11-.42 1.91-.04-.69.79-.37.45-1.46.76-.08-.27-.27-.48-.44-.72Zm-13.19-25.47c.79.25 1.51.28 2.02.87-.67.04-1.16.11-1.82-.06z" class="cls-7"/><path d="M221.71 47.32c.92-.17.85-.39 1.39 0-.59.47-.58.52-1.21.82l-.18-.83Z" class="cls-1"/><path d="M86.3 96.18c2.51-1.37 8.6-3.74 11.09-2.71l.33.64-.16.63-.54.07c-2.8.39-7.69 1.24-7.88 5.83l.33.36c1.4-.4 2.71-1.43 3.7-1.32.25.42.44.51.31.9-1.57 4.64-2.29 3.84-2.7 8.89-.51 6.34.51 11.31.67 17.5.02.88-.23 1.67-.74 2.3-1.93-.57-1.77-4.08-1.69-6.06l-1.78-3c-.3-2.78-.43-4.9-.28-7.73l-1.02-.3c-1.13 5.69 1.01 12.2-2.68 15.19-6 4.84-29.72 15.19-31.42 23.35l.38.42c.92-.18 3.17-2.26 4-2.99 4.9-4.4 10.68-7.74 16.63-9.14-7.67 9.43-18.72 15.06-28.35 20.39-5.54 3.06-10.69 10.19-12.78 17.42 7.18-12.35 17.58-14.71 28.47-19.76 4.08-1.89 8.02-4.48 12.16-6.17l-4 7.37c-3.68 1.94-7.3 4.47-10.99 6.18-2.88 1.34-6.53 1.96-9.45 3.32-11.51 5.36-15.49 12.11-21.42 24.37-1.32-14.05 2.09-27.7 8.92-39.05 1.8-3 5.42-5.96 8.05-7.72 10.74-7.18 16.61-10.81 21.6-25.52-7.55 6.89-14.17 3.91-21.13 10.79-.46.45-1.04 1.03-1.13 1.71 2.45-.35 10.9-5.82 14.11-3.81.86 2.28-1.44 4.26-2.86 5.11-3.23 1.94-10.01 1.28-12.22 4.76-.24 1.28-.18 1.41-.11 2.69l-.47.68h-.39c-.06-.7-.2-3.62-.36-3.91-8.21-15.05 13.02-12.35 13.3-14.94-2.3-1.33-8.29-.26-10.85.49 5.13-6.19 14.95-4.93 21.62-4.73l.14-.67c-1.34-1.47-8.37-1.92-10.28-1.96-1.16.26-1.96.36-3.13.47l-.19-.25.98-.69c4.07-3.01 12.01-2.46 16.65-1.72 1.88.3 4.06 1.83 5.8.91v-.46c-3-2.4-8.72-2.87-12.26-3.44 4.02-1.34 8.31-2.69 12.52-2.38 1.45.11 6.11 2.3 6.95 1.13-1.29-1.55-5.69-2.57-7.59-3.12 4.98-.8 7.18-2.05 11.11-5.86-7.08 3.04-7.75 1.89-14.58 3.23.58-1.34 1.7-3.57 1.43-5-1.06.01-3.3 4.27-4.49 5.58-1.81.29-3.53.68-5.32 1.07.99-2.23 1.59-3.19 1.28-5.7l-.3-.12c-1.19 1.84-1.71 3.71-3.14 5.36-1.35 1.55-5.61 4.23-7.36 4.1-.46-.99-.2-1.33-.04-2.79l-.3-.15c-1.58 1.26-2.9 3.81-4.34 5.66-4.22 5.66-12.39 8.99-15.87 14.74-2.98 4.92 2.45 7.8-5.46 11.11-1.84-.91-4.6-2.75-4.14-5.54.92-6.92 9.63-15.2 14.71-17.39 7.26-3.13 9.55-7.45 15.4-12.6 5.89-5.18 16.68-8.14 23.78-8.66 2.94-.21 7.04.43 10.19.71l-.4 1.89Z" class="cls-2"/><path d="M85.94 112.18c1.25-3.99 1.85-6.57 4.69-9.2-2.29 3.91-2.69 4.84-3.67 9.5zm.76-17.89-.4 1.89c-.69.56-.41.57-1.01.5.31-1.12.76-1.54 1.42-2.39Z" class="cls-9"/><path d="M52.08 115.6c.89.5 1.37.43 2.34.47-1.16.26-1.96.36-3.13.47l-.19-.25z" class="cls-5"/><path d="M547.54 98.2c-.15 3.31-.09 6.75-.41 10.02-.59 6.21-1.96 12.74-2.9 18.8-3.16 20.6-9.88 40.07-19.66 57.1-1.65 2.88-8.03 15.97-10.29 16.21-4.04-4.11.35-7.45 2.5-10.93 3.97-6.44 7.75-10.6 10.58-18-4.74 5.44-9.46 10.53-14.16 15.93.58-2.07 3.95-8.71 3.39-10.05-2.72-.98-5.7 5.36-8.53 3.15-2.43-5.76 6.34-8.31 9.35-9.94-3.91-.14-4.83.07-8.72 1.15 5.21-5.52 11.71-9.51 18.63-8.71.71.08.61.27 1.41.01-1.82-2.81-8.04-1.6-10.8-1.49 3.13-3.45 7.55-9.93 10.98-12.73.41-.33 4.94-.72 6.25-1.39-.33-2.48-7.53-.28-9.01.09 2.18-2.12 4.25-3.2 4.76-6.35.61-3.77 4.69-6.96 6.66-10.33 1.39-2.38 1.55-2.64 2.63-5.48l-.57-1.44c-1 1.45-3.13 4.48-4.81 4.02-.38-.88-.26-.96-.26-2.04l-.85.27c-.62 4.02-2.25 6.85-4.07 10.14-.57-1.5-1.29-3.57-2.35-4.48l-.52.16c-.71 2.36 2.4 5.46-1.25 6.58-1.33.41-4.84 1.57-5.15 3.33l1.03 1.06.02.63c-1.97 2.41-5.86 4.76-7.96 7.54-.87 1.15-1.73 2.65-2.71 2.87l-.56-.59c-.17-.93-.07-.87.09-1.69 1.76-9.33 6.61-17.29 13.54-21.57 2.45-1.51 4.91-2.41 7.14-4.51-4.3 1.31-10.47 4.59-14.42 7.19-1.61 1.06-2.75 5.77-5.77 5.61l-.3-.42c.34-7.89 22.37-19.39 27.43-25.12 4.28-4.84 6.27-8.89 9.63-14.59Z" class="cls-2"/><path d="m540.58 121.18.37.67c-.32 1.25-.55 2.12-.74 3.41l-.57-1.44c.29-.9.61-1.77.93-2.64Z" class="cls-9"/><path d="M540.58 121.18c.26-1.15.26-1.94.84-2.61.12 1.26-.18 2.07-.47 3.28z" class="cls-8"/><path d="M533.74 126.07c.29-.9.28-1.36.81-1.81.12.93.14.63.04 1.54z"/><path d="M79.54 238.33c-.63-1.2-1.62-2.12-2.5-3.01l-.57-3.68c-.57-3.64-2.83-6.5-3.79-9.98-1.17-.36-2.8-.57-3.45-1.94-.75-1.58-1.39-3.25-2.2-4.78-1.21-2.3-2.74-4.13-3.61-6.7-1.66-.98-2.4-1.62-3.3-3.6a86 86 0 0 1-5.26-3.36q9.945 19.275 19.5 38.85h5.94c-.22-.63-.46-1.25-.75-1.8Zm48.63-175.45c.98-.85 1.77-1.64 2.89-2.16-1.36 2.22-2.14 2.48-3.4 5l.34.66c-1.67 3.76-3.1 7.67-4.8 11.34-.54 1.65-.85 2.54-1.2 4.3 1.64 1.66 2.93 1.51 5.05 1.77 2.63 3.17 7.75 7.32 7.83 12 .04 2.8-1.16 5.05-.04 7.96.28.74.63 1.84.59 2.69l-.39.12c-3.97-3.22-3.49-7.26-2.42-12.63-1.24-2.16-1.88-3.41-3.75-4.8.34 1.45 2.02 3.21 2.73 5.53-.65 3.18-1.32 5.92-.93 9.28.15 1.3 1.15 3.77.55 4.24l-.24-.46-.93.21c-.16.98-.24 2.09-1.15 2.23-1.06-1.57-.79-7.51-.58-9.48.2-1.4.21-1.38.71-2.66.26-1.32.28-2.13.36-3.49l.44-.61-.02-.58c-.64-1.33-1.27-1.85-2.23-2.85-.61-.09-1-.36-1.59-.65-.33-.4-2.7-1.57-3.26-1.86l-.55.7.19.84-.07.08c-2.74-.07-3.32-.1-5.89.63l-1.88-2.14-2.05-.35.26-.76c-2.99-2.62-3.98-5.07-5.59-8.99-1.14-.7-5.47-3.18-6.07-4.34.97-.05 2.01.55 2.95.98l.48-.73-.28-.51.47.03.23-1.03c1.36 1.27 2.15 2.16 3.83 2.64 1.37.27 2.99.82 2.57 3.09l-.4.03-.84-1.23-.47.79.43 1.45c3.31 4.39 3.86 5.44 8.25 1.71-.2.73-.37 1.4-.55 2.14 2.75-2.06 2.62-5.7 3.64-8.29 1.32-3.35 3.76-7.39 5.49-10.47l.64-1.32.41-.22.22.16Z" class="cls-2"/><path d="M104.93 72.39c1.36 1.27 2.15 2.16 3.83 2.64 1.37.27 2.99.82 2.57 3.09l-.4.03-.84-1.23-.47.79-.21.19-.65-.82-.21.62c1.74 4.2 2.3 5.53 5.37 8.44 2.85-1.86 3.17-1.96 6.6-.77 2.14.74 5.5 3.11 7.04 5.11-.61-.09-1-.36-1.59-.65-.33-.4-2.7-1.57-3.26-1.86l-.55.7.19.84-.07.08c-2.74-.07-3.32-.1-5.89.63l-1.88-2.14-2.05-.35.26-.76c-2.99-2.62-3.98-5.07-5.59-8.99-1.14-.7-5.47-3.18-6.07-4.34.97-.05 2.01.55 2.95.98l.48-.73-.28-.51.47.03.23-1.03Z" class="cls-6"/><path d="M117.91 85.41c2.31 1.95 3.24 1.41 4.82 2.58l-.55.7.19.84-.07.08c-2.74-.07-3.32-.1-5.89.63l-1.88-2.14.05-.7 3.32-2Z" class="cls-2"/><path d="M104.93 72.39c1.36 1.27 2.15 2.16 3.83 2.64 1.37.27 2.99.82 2.57 3.09l-.4.03-.84-1.23-.47.79-.21.19-.65-.82c-.68-.81-.94-.92-1.75-1.45-.7-.4-1.81-1.24-2.51-1.73l-.28-.51.47.03.23-1.03Z"/><path d="M108.77 75.03c1.37.27 2.99.82 2.57 3.09l-.4.03-.84-1.23c-.41-.17-1.35-1.03-1.76-1.38z" class="cls-2"/><path d="M104.93 72.39c1.36 1.27 2.15 2.16 3.83 2.64l-.43.51c-1.28-.66-2.39-1.35-3.63-2.11l.23-1.03Zm-.41 1.52c.7.5 1.81 1.33 2.51 1.73l-.52.41-2.48-1.41.48-.73Z" class="cls-10"/><path d="M107.03 75.64c.81.52 1.07.64 1.75 1.45l-.21.62c-.58-.63-1.38-1.16-2.05-1.66l.52-.41Z" class="cls-7"/><path d="m112.75 86.99 1.84.42-.05.7-2.05-.35.26-.76Z" class="cls-10"/><path d="M128.17 62.88c.98-.85 1.77-1.64 2.89-2.16-1.36 2.22-2.14 2.48-3.4 5l.34.66c-1.67 3.76-3.1 7.67-4.8 11.34-.54 1.65-.85 2.54-1.2 4.3l-.39 1.04-.32-.02-.1-1.01c.78-6.69 3.29-11.04 5.99-16.89l-.27-.88.64-1.32.41-.22.22.16Z"/><path d="m127.66 65.72.34.66c-1.67 3.76-3.1 7.67-4.8 11.34l-.44-.39c.66-3.13 3.45-8.3 4.9-11.6Z" class="cls-10"/><path d="m122.76 77.32.44.39c-.54 1.65-.85 2.54-1.2 4.3l-.39 1.04-.32-.02-.1-1.01c.51-.81 1.19-3.51 1.57-4.7" class="cls-8"/><path d="m127.55 62.93.41-.22.22.16c-.33.71-.74 1.51-.99 2.25l-.27-.88.64-1.32Z" class="cls-4"/><path d="m128.32 100.68.39.27.38 2.6.08 1.49c.28.89.67 1.99.88 2.89-.16.98-.24 2.09-1.15 2.23-1.06-1.57-.79-7.51-.58-9.48" class="cls-5"/><path d="m129.03 98.02.29.05.39-.46c.22 2-.03 3.34-.19 5.34l.27 1.29-.62.79-.08-1.49-.38-2.6-.39-.27c.2-1.4.21-1.38.71-2.66Z" class="cls-7"/><path d="M129.09 103.54c0-1.54.09-2.84.14-4.35.02.79.03 3.16.29 3.76l.27 1.29-.62.79z" class="cls-3"/><path d="M129.79 104.24c.4 1.6.45 2.11 1.18 3.47l-.93.21c-.21-.9-.59-2-.88-2.89l.62-.79Z" class="cls-9"/><path d="M133.13 94.48c.07.1.14.2.2.31.66 1.29.12 3.07-.16 4.43-.05-.06-.11-.11-.16-.18-.5-.84.01-3.52.12-4.56"/><path d="M60.75 53.75c.84-.42 1.01-.75 1.71-.34 2.13 1.23 6.99 5.91 8.95 6.39l.19-.36-.6-1.39c.68-.59.4-.43 1.23-.61.1-1.55-.15-.95.64-1.95 1.9-.59 8.45 2.96 10.04 4.24 1.84.76 2.14.83 3.01 2.91.13.33.27.66.39.99.51 1.6 1.05 1.71 1.8 3.13 1.75 3.36 4.29 8.53 7.07 10.69 1.13.88 2.96.74 4.79 2.27-1.74.09-3.36.59-5.06 1.03-3.6-2.06-8.31-7.97-10.79-12.09-2.78-4.61-3.02-8.25-8.27-10.1-3.56-1.25-2.69 2.62-5.11 3.97-1.66.93-7.98-5.08-8.84-5.82l-.22-.27c-1.21-.74-1.44-.99-2.52-2.05l.19-.24c.39-.1.71-.18 1.09-.3z" class="cls-2"/><path d="M82.91 59.72c1.84.76 2.14.83 3.01 2.91.13.33.27.66.39.99-.48.56-.21.45-.8.44l-1.33-1.8c-.76-1.01-1.08-1.15-1.27-2.54" class="cls-5"/><path d="m59.16 54.39.19-.24c.39-.1.71-.18 1.09-.3l.31-.1c.66.8 1.38 1.43 1.54 2.49l-.39.48-.22-.27c-1.21-.74-1.44-.99-2.52-2.05Z" class="cls-9"/><path d="M59.16 54.39c1.53.16 1.73.41 2.52 2.05-1.21-.74-1.44-.99-2.52-2.05" class="cls-5"/><path d="M79.97 59.18c4.56 3.01 4.64 9.02 9.48 12.62l1.4 3.5-.39.39c-.47-.7-.88-1.89-1.22-2.32-1.58-2.03-3.57-4.32-4.98-6.51-1.14-1.77-1.24-3.2-2.6-5.22-.68-.31-.37-.13-.91-.98l-.58-.46-.19-1.03Z" class="cls-9"/><path d="M80.74 60.66c.31.31.69.61.91.98-.68-.31-.37-.13-.91-.98" class="cls-8"/><path d="M62.26 55.11c1.61.69 8.14 4.68 8.78 6.55-2.45.26-7.19-4.26-8.78-6.55" class="cls-6"/><path d="M90.85 75.3c.87.76 1.24.78 1.58 1.81-1.08-.22-.98-.44-1.97-1.42zM80.16 60.21c-.77-.56-1.22-.74-1.65-1.71.64-.17.7.12 1.46.69l.19 1.03Z" class="cls-7"/><path d="M96.76 70.91c-1.26-1.91-2.36-3.61-4.2-4.7-5.4-3.19-8.99-9.12-13.36-13.96-1.1-1.22-4.67-1.83-5.78-3.37l.39-.23c1.67.23 3.53 1.28 5.13 2.07l.7-.45.72.11.26-.46-.3-1.32c3.99 4.14 7.22 14.32 10.67 15.3l.93-.65c1.37 1.07 6.61 5.71 7.36 6.06-.87-1.84-1.49-2.19-2.63-3.76l.16-.45.49-.84c-.52-.99-.51-.54-.4-1.41.42.38 1.69 1.68 2.07 1.69-.25-.84-.42-1.35-.74-2.15l.23-.14c1.58 2.93 1.9 5.51 3.36 8.1.94.58 2.29 1.35 3.12 2.06l-.23 1.03-.47-.03.28.51-.48.73c-.94-.43-1.99-1.03-2.95-.98.6 1.16 4.93 3.64 6.07 4.34 1.62 3.92 2.6 6.37 5.59 8.99l-.26.76c-4.06 3.67-7.48-6.39-9.81-7.86-4-2.53-4.7-2-8.18-6l.34-.53c2.7 1.91 3.12.96 5.58 4.39l2.96.78c1.3 1.94 2.67 4.53 4.58 5.65-4.64-7.92-5.49-7.5-12.1-11.92 1.58.17 2.64.5 4.08-.23l.07-.42c-1.03-.78-2-.64-3.24-.7Z" class="cls-5"/><path d="M80.52 51.1c1.58 1.68 2.01 2.12 3.26 4.18v.32c-1.59-1.38-2.34-2.41-3.7-4.14z" class="cls-3"/><path d="M97.29 64.25c1.05.98 1.16 1.36 1.89 2.78l-.07.4c-.98-.92-1.52-2.02-2.32-2.34l.49-.84Z"/><path d="m79.63 50.27.72.11.16.72-.44.36-1.15-.74.7-.45Z" class="cls-9"/><path d="M56.51 29.58c1.46-.48 1.84-.41 3.37-.31.75 1.33 1.29 1.62.99 3.25l-.18.44c-1.2 5-.43 7.26.06 12.18l.53-.8.2.5c-.77 3.89-9.23 1.21-11.25.12-.81-.97-.91-2.51-1.17-3.93 1.08-3.24 2.45-4.84 5.18-6.3.9-.48.22.35 1.01-.84.02-1.89.24-3.06 1.27-4.31Z" class="cls-10"/><path d="M56.51 29.58c1.46-.48 1.84-.41 3.37-.31-1.33.5-1.79 1.87-3.1 1.37l-.27-1.07Zm4.17 3.38c-.77-.78-1.07-.6-1.74-1.73.83.04 1.25.63 1.93 1.29l-.18.44Z" class="cls-5"/><path d="M58.09 34.57c.35.27.48.45.79.8.91 2.67.46 4.2.05 7.06-.69-1 .62-3.64-.83-7.86Zm1.77 7.64.33.71c-.12.97-.68 1.4-1.29 2.1l-.19-.21c.73-1.16.8-1.22 1.15-2.59Z" class="cls-7"/><path d="M54.54 44.57c.41-.12.18-.12.68.17-.42.11-.19.12-.68-.17" class="cls-4"/><path d="M98.61 34.33c1.61.32 3.13 1.12 3.71 3.21l-.41.23c-5.67-1.95-22.46-15.71-25.42-4.32l-.14.54-.26.11c-4.56-3.03-4.82-9.35.87-10.36 1.16-.21 2.82-.4 3.63.92l-.24.83.1.93c1.88.02 2.99-1.26 4.52-.98l-.07.41.73.8c2.3.04 4.14-.15 6.2 1.18.05.18.15.36.12.55l.29.85c1.35.52 1.83.67 3.05 1.53l.51.07.03.31-.8.69c1.26.27 2.51.39 3.6 1.17l.14.32-.17 1.02Z" class="cls-2"/><path d="M95.03 31.83c1.26.27 2.51.39 3.6 1.17l.14.32-.17 1.02-2.51-.77c-.8-.25-.81-.31-1.57-.75l.31-.87z" class="cls-10"/><path d="M96.24 33c.87.16 1.65.35 2.53.31l-.17 1.02-2.51-.77z"/><path d="M94.52 32.81c.82-.04 1.01-.18 1.72.19l-.15.56c-.8-.25-.81-.31-1.57-.75" class="cls-1"/><path d="M74.57 28.58c2.27-2.29 2.92-2.85 5.78-3.08l.1.93-.81.06c-1.87.33-3.33 1.2-5.07 2.1Z" class="cls-9"/><path d="M80.45 26.42c1.88.02 2.99-1.26 4.52-.98l-.07.41c-.91.39-3.82 1.41-4.42 1.9l-.85-1.28.81-.06Z" class="cls-5"/><path d="M86.65 27.64c1.34.22 4.1.76 5.31.74l.29.85-.8-.13c-.75.13-1.3-.07-2.05-.24-1.13-.36-1.27-.35-2.45-.34z" class="cls-3"/><path d="M89.4 28.86c.95-.03 1.21-.18 2.05.24-.75.13-1.3-.07-2.05-.24" class="cls-7"/><path d="M80.49 27.76c.59-.49 3.5-1.51 4.42-1.9l.73.8c-1.37.14-4.5 1.52-5.15 1.11Z" class="cls-3"/><path d="M94.83 31.94c-.97-.59-2.36-.8-3.06-1.43l3.53.26.51.07.03.31-.8.69-.2.12Z"/><path d="m86.94 28.52-1.09-.35-.14-.41.93-.11.3.88Z" class="cls-8"/><path d="M134.66 55.95c.98 1.78 1.46 3.08 3.42 3.34 3.12.42 6.35-3.5 8.66-5.76l-.39.61c1.7-1.24 2.08-2.83 3.8-3.94l.51.92-.41.3c-4.02 3.72-3.83 8.75-10.02 13.22-1.36-.96-1.79-1.19-3.28-1.81l-.18-.44-1.94-.43c-3.42.09-4.72 1.04-6.84 4.42l-.34-.66c1.26-2.52 2.04-2.78 3.4-5-1.12.52-1.9 1.31-2.89 2.16l-.22-.16-.41.22-.73-.72c-1.03-1.09-2.72-5.62-4.76-7.7l-.22.63-.35.06c-1.18-1.05-1.26-1.43-2.05-3.02-.26-.21-.08-.05-.43-.63l.54-.64v-.11l.37-.2c1.45 1.88 3.01 3.1 4.45 5.21 3.38 4.92 6.3 2.77 10.3.15Z" class="cls-5"/><path d="M119.54 50.9c.76 1.08 1.82 2.51 2.52 3.61l-.22.63-.35.06c-1.18-1.05-1.26-1.43-2.05-3.02-.26-.21-.08-.05-.43-.63l.54-.64Z" class="cls-1"/><path d="M119.43 52.17c1.21.59 1.61 1.59 2.05 3.02-1.18-1.05-1.26-1.43-2.05-3.02" class="cls-10"/><path d="M134.84 61.96c1.41-.06 4.36-.33 5.52.21l-1.33.48c-.99-.08-1.1-.16-2.07.18l-.18-.44z" class="cls-1"/><path d="M126.82 62.21c.64-1.13.58-1.49 1.41-1.77.19 1.01.01 1.27-.27 2.27l-.41.22zm12.21.43 1.33-.48.39.67c-.61.34-.95.11-1.72-.19m-6.29-4.66.83-.16c1.82 1.9 3.89 2.25 6.29 2.38 1.64.09 4.95-3.63 5.85-3.48-2.85 4.31-9.55 6.84-12.48 1.68l-.48-.41Z" class="cls-9"/><path d="M133.23 58.4c-1.12.68-1.93 1.31-3.16 1.53.53-.83 1.85-1.46 2.67-1.95l.48.41Z" class="cls-4"/><path d="M444.06 153.8c-.59-7.13.63-9.98 2.55-16.61.68-2.34 1.14-5.14 1.73-7.54 1.89-5.87 2.26-12.48 3.64-18.29 1.97-8.3 3.88-18.59 6.7-26.41l.77-.71c-.13 2.08-2.97 14.04-3.58 16.79l-6.83 31.24c-1.32 6.18-3.23 14.95-4.02 21.26l-.97.28Z" class="cls-2"/><path d="M268.6 56.26c.41.95-.3 5.18-.28 6.85.07 6.59.51 13.23.6 19.8.19 1.85-1.6 7.45-1.46 8.9.6 6.12-.37 10.77-1.02 16.78-.32 2.87.2 6.72-.1 9.48-.69 6.33 0 12.74-.69 18.95l-.21.31c-1.81-2.08-.4-15.7-.2-19.17.59-10.02 1.12-20.04 1.58-30.07.31-5.87.52-11.75.62-17.63.06-3.99.09-8.24.27-12.24.03-.62.56-1.49.89-1.95Z" class="cls-5"/><path d="m456.15 87.19.11.15c.23 1.8-1.9 7.91-2.44 9.95-2.8 10.62-4.53 21.48-6.92 32.24-1 4.48-1.74 8.83-3.5 12.96-.8-7.27 2.68-15.03 4.29-21.97.61-2.63.78-5.44 1.16-8.14.59-4.23 4.28-20.64 5.87-23.62.35-.65.92-1.13 1.42-1.57Zm-346.86 7.29c-2.8-3.41-5.55-10.25-8.17-13.8-6.07-8.21 1.61 2.58-.71-.7l.17-.18c3.48.56 4.56 7.47 7.25 9.43 3.98 2.89 10.06 1.77 14.24 1.14.76.11 1.51.18 2.26.38l1.41 1.4c.08.15.4.81.49.91.19 1.22.36 1.86.22 3.1-3.47-6.25-11.79-2.24-17.16-1.69Zm161.12-13.52c-.29-3.96-1.2-18.23-.04-21.12.37-.29.55-.62.9-.39 4.12 2.66.65 7.78.11 11.47-.35 2.45.25 1.98 1.1 3.5.53 2.14-.91 8.15-1.51 10.22l-.25 1.32-.6-.33c.17-1.26.22-3.33.29-4.67" class="cls-2"/><path d="M270.41 80.96c.71 1.41-.06 2.34.57 3.68l-.25 1.32-.6-.33c.17-1.26.22-3.33.29-4.67ZM68.22 43.57c2.74 9.53 7.2 5.65 11.52 11.58l.38.52c.08.11.15.22.23.33-1.44-.92-5.21-3.02-6.27-3.83-.39.89-.14.7-.7 1.09-5.69 3.15-4.61 2.13-5.78-3.77-.35-1.75-2.56-3.07-2.19-5.47l-.28.2.15-.17c.31.12 1.84 2.78 2.43 3.54l.53-.59-1.1-1.86.28-1 .81-.57Z" class="cls-5"/><path d="M73.37 53.25c-1.2-.63-1.98-.55-3.24-.84l.29-.39c1.18-.43 2.4-.06 3.65.14-.39.89-.14.7-.7 1.09M68.23 47c.55 1 1.14 1.97 1.56 3.05l-.31-.58.39 1.17c-1.13-.69-1.39-1.96-2.17-3.05z"/><path d="M452.09 91c.4 1.83-3.35 14.48-3.97 17.32-.72 3.29-.99 6.68-1.55 10.01-.79 4.72-2.12 10.25-3.67 14.68-.16-.9-.3-1.76-.2-2.68.26-2.58 1.01-5.3 1.54-7.83 1.37-6.51 2.92-12.94 4.33-19.43.71-3.25.94-7.1 1.95-10.18.27-.82 1.03-1.34 1.57-1.89m-181.97-5.38.6.33c-1.86 7.85-.29 8.18-.21 14.96.03 2.58-1.42 14.86-1.91 17.85h-.6c-.72-8.31.33-11.74.88-19.42.49-6.79-.42-5.99 1.24-13.73ZM100.86 27.58c-1.6.09-4.56-3.87-5.68-3.85.67.67.81.77 1.37 1.61l-.23.22c-.97-.3-3.02-1.07-2.51-2.73l.63-.34c2.78.19 14.23 5.11 13.74 9.42-.61.79-.55.83-1.39 1.02-1.15-.55-3.28-4.15-5.01-5.72l-.91.37Z" class="cls-5"/><path d="M100.42 26.65c-.75-.54-1.4-.87-1.87-1.76.82-.08 1.47.56 2.23 1.09l-.35.67Z" class="cls-7"/><path d="m100.77 25.98 1.01 1.23-.91.37-.44-.93.35-.67Z"/><path d="M87.82 38.02c2.61 1.04 1.95 4.21 3.89 5.9.86.75 2.73-1.42 3.95-.16 1.37 1.41 2.5 5.04 2.99 7.04l-.05.38-.4.07c-3.27-3.44-8.58-5.57-10.82-11.47-.18-.48.2-1.13.44-1.77Zm-3.47 100.36c1.4-.53 4.99-3.2 5.92-1.82l-.14 1.04-.44.98c-1.34 2.35-4.36 3.61-6.35 2.26.33-1.05.97-1.06 1.86-1.36-.74-.48-.42-.17-.85-1.09Z" class="cls-2"/><path d="M85.2 139.47c1.49-.42 2.98-.97 4.49-.89-1.34 2.35-4.36 3.61-6.35 2.26.33-1.05.97-1.06 1.86-1.36Z" class="cls-2"/><path d="m90.13 137.59-.44.98c-1.51-.07-3 .48-4.49.89-.74-.48-.42-.17-.85-1.09 1.63.07 4.1-.48 5.78-.79Z" class="cls-9"/><path d="M71.71 161.6c2.31.33 4.63.48 6.95.64l-1.72 2.77c-1.44.66-4.79-.4-6.28-.98.03-.87.66-1.7 1.05-2.43" class="cls-2"/><path d="M268 118.76h.6c-1.02 5.76.31 8.57.03 14.18-.06 1.26-1.14 4.18-1.58 5.48.02-2.26.4-4.59.31-6.78-.21-4.69-.02-8.23.65-12.88ZM54.97 191.9l2.4.38.39.42.25-.23v.16c-.48.11-.98.2-1.46.35-.67.2-1.11.23-1.49.98l.41.62c2 .9 4.67.59 6.8.66-.23.61-.35 1.04-.82 1.42-1.28 1.06-6.79-.77-8.52-1.18l2.05-3.59Z" class="cls-5"/><path d="m67.8 168.7 6.17.73-1.52 2.25c-.13.05-.25.12-.38.15-1.45.34-3.73-.13-4.96-1.07-.12-.94.29-1.3.7-2.06Zm1.94-3.46c1.47.39 2.99.36 4.46.73.66.16 1.07.3 1.47 1.01l-.7 1.2c-1.57 0-4.13.39-5.53-.52-.53-.35-.35-.14-.53-.93l.81-1.48Z" class="cls-2"/><path d="M122.73 87.98c.56.29 2.94 1.46 3.26 1.86.58.29.98.55 1.59.65.95 1 1.59 1.52 2.23 2.85l.02.58-.44.61c-.97-1.8-1.81-2.34-3.26-3.56l-.4 1.19-1.41-1.4c-.75-.2-1.5-.27-2.26-.38l.24-.77.07-.08-.19-.84.55-.7Z" class="cls-5"/><path d="M125.99 89.84c.58.29.98.55 1.59.65.95 1 1.59 1.52 2.23 2.85l.02.58c-1.46-1.81-2.18-2.53-3.84-4.07Z" class="cls-4"/><path d="M124.32 90.76c.71.05 1.1.05 1.81.21l-.4 1.19z" class="cls-9"/><path d="M72.83 158.83c1.75-.13 5.82-.11 7.25 1.19l-.13 1.02c-1.83.12-5.76.4-7.22-1.11zm14.92-16.97c.15.13.43.57.56.75l-.19.61c-1.52 1.42-4.43 1.1-6.26 1.16l-.44-.22.13-.59c1.29-1.5 4.49-1.48 6.19-1.71Zm-13.44 14.3c1.78-.03 5.46-.24 6.85 1.16l.02 1.29c-1.83.19-5.37-.21-6.91-1.49zm-17.73 32.52c.82.08 1.64.16 2.46.26 1.07.14 1.71.3 2.41 1.37l-.15 1.38c-1.26-.13-2.64-.15-3.87-.47-.67-.17-1.01-.4-1.36-1.14l.51-1.42Zm9.23-16.49c1.42.33 3.35.06 4.58.96l.04.52-1.03 1.18s-.07.08-.11.1c-.8.51-1.92.3-2.78 0-.66-.23-1-.7-1.3-1.43l.6-1.34Zm10.14-19.01c1.53.42 5.02.12 6.1 1.37l-.1 1.31c-1.7-.32-4.89.01-6.18-1.38l.18-1.29Zm-11.76 22.13c1.05.23 2.39.33 3.27 1.1-.09 1.01-.59 1.29-1.17 1.97-.16.04-.33.09-.49.11-.87.06-1.71-.11-2.38-.77-.14-1.15.26-1.46.77-2.4Zm14.48-26.97c1.18.04 2.39-.24 3.55-.17.69.04.97.12 1.45.78l-.49 1.51c-1.46-.25-3.63.25-4.78-.93l.28-1.19ZM273.53 51.6c.54.66.31.28.43 1.51-.45 1.21-2.46 3.01-3.43 4.01-.31-.18-.2-.22-.39-.86.38-2.19 1.87-3.16 3.38-4.66ZM85.64 145.41l.18-.03.06.34-.95 1.21c-1.32.53-2.77.27-4.14.18l-.7-.2-.1-.45c1.02-1.32 4.23-1 5.64-1.05Zm-8.58 5.89c1.61-.13 4.24-.72 5.63.43l.17 1.21c-1.85-.03-3.83-.12-5.58-.93l-.22-.72Zm-19.34 35.1c.25-.05.32-.07.61-.07 1.19-.03 3.34-.09 4.26.94l-.02 1.06c-1.45.2-3.36-.43-4.69-1.13l-.16-.79Z" class="cls-2"/><path d="m126.23 93.07.99.44c.91 1.55 1.03 3.65 0 5.2l-.31-.17c-.13-.69-.25-1.3-.33-2.01l-.14-.35c.14-1.24-.03-1.89-.22-3.1Z" class="cls-10"/><path d="m126.23 93.07.99.44c.11 1.48.37 2.06-.05 3.19l-.58-.18-.14-.35c.14-1.24-.03-1.89-.22-3.1M78.11 48.3l.24-1.06.53-.12c.47.5.95.99 1.43 1.47l.3 1.32-.26.46-.72-.11c-1.3-.84-1.53-1.02-2.61-2.26l.25-.2.84.49Z" class="cls-9"/><path d="M79.63 50.27c-1.3-.84-1.53-1.02-2.61-2.26l.25-.2.84.49c.72.63 1.6 1.35 2.24 2.07l-.72-.11Z" class="cls-10"/><path d="M61.71 179.25c.77.02 1.56 0 2.31.18.54.13.3-.02.67.67l-.58 1.08c-.41.17-.96.35-1.4.31-.78-.07-.84-.22-1.29-.95l.29-1.3Zm-1.37 3.01c.49.08.95.23 1.43.37l.1.46-1.43 1.83-.18.2-.81-.17.1.33h.21l-.47-.5c.07-1 .6-1.72 1.05-2.51Zm216.4-133.75c.96 1.44-.3 3.09-1.19 3.97-.54-.7-.31-.33-.46-1.55.38-1.27.82-1.56 1.65-2.42" class="cls-2"/><path d="M90.99 63.89c-.51-1.24-1.66-2.64-2.37-4.28.81.61 2.52 2.73 3.3 3.63z" class="cls-5"/><path d="M116.1 47.08c-.36-.73-2.03-4.34-2.08-5.02l.27-.09c1.29 1.62 1.73 2.73 2.15 4.95l-.34.17Z" class="cls-10"/><path d="m133.62 90.15.25-.42c1.36.67 1.76 1.37 2.44 2.93v1c-.71-.48-.68-.68-1.18-1.57-.62-.47-1.04-1.22-1.52-1.93Z" class="cls-5"/><path d="M133.62 90.15c.56.67 1.03 1.17 1.52 1.93-.62-.47-1.04-1.22-1.52-1.93" class="cls-1"/><path d="M94.49 73.89c-1.41-1.45-2.5-2.3-2.95-4.55.7.4 2.48 3.02 3.28 4.02l-.34.53Z" class="cls-10"/><path d="m65.45 37.28.96.2.6 2.43-.22 1.11c-1.15-1.42-1.42-1.71-1.33-3.74Z" class="cls-5"/><path d="m276.22 180.93.35 2 .72-.54-.13 1.46-.45 1.88-.14 1.17-.23.15c-.12-2.18-.13-3.94-.12-6.12" class="cls-7"/><path d="m276.57 182.92.72-.54-.13 1.46-.45 1.88c-.17-1.05-.14-1.74-.14-2.8" class="cls-5"/><path d="m271.67 95.41-.09.49-.26-.38c-.18-1.45-.41-4.04.16-5.34l.14.45c.19 2.02.3 2.72.06 4.79Z" class="cls-1"/><path d="M271.61 90.63c.19 2.02.3 2.72.06 4.79-.45-1.99-.4-2.81-.06-4.79" class="cls-8"/><path d="M266.97 138.8c.09.1.18.19.25.3.83 1.12.46 3.31.38 4.74-1.03-1.91-.92-2.8-.63-5.03Z" class="cls-5"/><path d="M109.26 38.5c.85 1.57 2.55 3.57 2.85 4.32l-.29.5c-1.16-1.38-1.99-2.18-2.71-3.97l.15-.86Z" class="cls-10"/><path d="M116.44 46.92c.8.82 2.86 2.84 3.47 3.67l-.37.2c-1.21-1.19-2.42-2.28-3.44-3.71l.34-.17Z" class="cls-3"/><path d="M112.11 42.82c.68.86 1.55 1.73 1.73 2.85-.82-.26-1.44-1.44-2.01-2.35l.29-.5Z" class="cls-1"/><path d="M109.85 34.18c.34.21 1.84 3.56 2.17 4.25-1.12-.51-2.3-2.78-2.17-4.25" class="cls-4"/><path d="M67.14 45.14c-.65-1.32-.92-1.88-1.42-3.29l.21-.18c.63.89.95 1.48 1.49 2.47z" class="cls-8"/><path d="m67.01 39.91 1.22 3.66-.81.57c0-1.19-.31-2-.63-3.12z" class="cls-4"/><path d="m444.06 153.8.97-.28c-.18 1.26-.22 1.99-.66 3.17-.42-1.09-.29-1.59-.3-2.89Z" class="cls-10"/><path d="M270.14 118.38c.2 1.79-.13 3.45-.55 5.15-.45-1.71.09-3.51.55-5.15" class="cls-1"/><path d="m278.38 46.86.51.38c.5 1.11.3.89.02 2.55l-.48-.21c-.41-1.1-.2-1.26-.05-2.72m-8.66 77.89c.16.16.43.39.55.6.47.78.25 1.6.19 2.49l-.26-.13c-.57-.87-.46-1.89-.48-2.96" class="cls-5"/><path d="M109.12 39.35c-.61-.69-1.29-1.22-1.44-2.17.82.18.85.49 1.59 1.31z" class="cls-1"/><path d="m65.45 37.28.15-1.46.28-.09c.22.67.36 1.06.52 1.75l-.96-.2Z" class="cls-4"/><path d="M121.83 55.14c.73 1.18.58.56.7 1.83-.73-.49-.59-.65-1.05-1.77z" class="cls-8"/></g></svg>