<svg xmlns="http://www.w3.org/2000/svg" id="Layer_2" data-name="Layer 2" viewBox="0 0 575.85 239.7"><defs><style>.cls-1{fill:#6d6e6e}.cls-2{fill:#575858}.cls-3{fill:#fff}.cls-4{fill:#e9e8e9}.cls-5{fill:#1c1c1c}.cls-6{fill:#bababa}.cls-7{fill:#828282}.cls-8{fill:#9e9e9e}.cls-9{fill:#090909}.cls-10{fill:#404040}.cls-11{fill:#040404}</style></defs><g id="Layer_2_copy" data-name="Layer 2 copy"><path d="M0 0h575.85v239.7H0z" class="cls-11"/><path d="M458.75 228.08c-2.81 3.8-5.8 7.97-8.87 11.62h1.99c3.13-2.73 6.2-5.96 8.99-8.82l.33.7c-1.98 3.02-3.69 5.54-5.85 8.12h2.03c2.47-1.9 4.58-3.73 7.17-6.36l.05 1.08c-1.25 1.8-2.55 3.6-3.94 5.28h2.59c2.53-2.2 4.92-4.58 7.43-7.18l-.17.28c-1.5 2.51-3.08 4.68-4.73 6.9h.71c4.04-3.86 8.26-8.19 12.03-12.07-1.9 3.5-3.9 6.38-6.1 9.54 6.52-4.68 9.64-6.86 14.68-13.86-.91 3.05-1.71 4.6-3.12 7.28l.61.38c2.39-2.75 3.92-4.81 6.01-7.93-1.27 3.99-2.1 6.24-3.92 9.89 2.86-3.06 3.96-4.42 6.16-8.21-.68 2.14-1.3 4.26-2.19 6.27l.34 1.16c1.64-1.53 2.74-3.33 3.99-5.31-1.14 3.98-1.91 5.87-3.76 9.39 2.52-2.39 3.55-3.73 5.59-6.75-1.01 3.21-1.55 4.8-2.96 7.76 1.68-1.16 2.96-2.64 4.42-4.19-1.33 2.57-2.61 4.73-3.96 6.66h6.11c1.23-2.99 1.92-6.51 1.79-10.84-.09-2.97-.8-6.16.54-8.86 3.05-6.18 9.66-9.17 11.86-16.2.86-2.75.69-5.53-.25-8.22-1.87-5.32-5.61-9.09-9.93-11.02s-10.47-3.83-15.04-3.2c-7.06.98-12.91 6.51-18.82 10.92-5.78 4.32-11.56 8.89-17.64 12.53-5.12 3.06-14.65 7.36-20.21 5.24-2.23-.85-4.18-2.69-6.4-3.62-5.26-2.2-5.84.46-10.12 2.93-4.43 2.56-25.07-1.07-30.29-3-3.35-1.23-6.29-4.26-9.83-4.65-5.18-.57-10.58.07-15.78.14-10.74.15-30.02-.73-39.92-5.19-2.65-1.2-5.58-3.22-6.75-6.6-.67-1.91-.53-3.98.19-5.84 1.16-3.04 3.48-5.34 5.3-7.75 3.25-4.27 7.75-10.36 9.37-15.82 1.26-4.28 1.05-7.7-.45-11.72-16.93 4.5-29.05 1.26-36.12-20.29-4.4-13.41-2.93-25.64 1.46-38.79l.53.73c-2.69 10.86-2.37 21.5.46 32.2l.35-2.23c-1.01-9.58-.51-15.76 1.14-25.1l.4.33.2 1.19c-.13 7.01.42 14.01 1.65 20.86l.47 3.47.45-.73c-.15-2.23-.27-4.45-.38-6.68.19-5.9.39-8.94 1.46-14.79l.34.21c.05.98.09 3.94.28 4.58.27 2.35.88 6.74.95 8.95l.76.71c0-2.82.66-5.65 1.33-8.32 1.09 2.06.18 2.19.75 4.42.23 1.88.52 3.53.83 5.38.46-2.79.82-4.5 1.5-7.22l.36.29c.07 1.16.1 2.56.3 3.67l.26 1.45.25.17c.1-.41.26-1.06.32-1.47.37-1.8.9-4.17 1.77-5.65l.28.11c-.24 1.28-.5 3.59.03 4.75.36-.7.26-.35.38-1 .41-1.13.56-1.7 1.24-2.62.37 1.04.09 2.71 0 3.98 1.02-2.11 1.3-2.69 2.65-4.54-.15.98-.63 3.02-.34 3.68.48-.41.91-.84 1.37-1.28-.04.91-.07.62.08 1.5 3.78-.51 10.48-16.1 11.69-20.69.23-.88.29-3.94.34-5.08-5.56-11.55 7.48-14.43 13.68-15.35 9.78-1.45 14.24-13.3 20.29-21.29 7.94-10.41 19.47-13.53 30.35-9.39 13.47 5.13 25.7 15 40.27 14.54 6.91-.22 15.72-4.32 20.74-10.66 2.38-3 6.56-9.8 6.59-14.54-1.12-8.32-18.28-16.67-23.58-20.37a28.6 28.6 0 0 1-4.79-4.2 48 48 0 0 1-3.15-3.82h-35.21c-.59 1.82-1.38 3.76-2.39 6-5.17 11.42-7.04 10.45-15.13 17.5-7.37 6.43-13.29 11.33-22.03 15.04-3.06 1.4-5.69 6.71-8.13 9.31-4.45 4.16-15.99 10.32-21.33 12.15-9.33 3.08-18.81 8.52-28.02 1.88-3.58-2.58-6.04-5.46-7.14-10.58-3.09-14.36 9.59-34.22 16.73-43.8l.39.8c-4.09 7.17-7.08 14.68-10.16 22.54l.6.25c3.52-6.62 8.65-14.57 13.13-20.14l.11.62c-4 6.13-6.62 11.95-9.76 18.75l.47.48c3.31-5.37 5.68-8.36 9.49-13.09l.83.44c-1.26 2.13-3.65 6.57-4.88 8.37l.45.65c1.84-2.93 6.39-7.39 8.84-9.83-2.21 3.36-4.39 6.76-6.54 10.19 7.61-6.89 14.53-12.41 23.14-17.17 1.49-.82 5.3-3.55 6.59-5.13.97-1.18 2.35-3.04 3.91-5.23H211.74l1.16 1.14-.36.87c-.97-.7-1.88-1.36-2.78-2.02h-2.79c.18.26.34.5.45.71L205.93 0h-.23c1.73 2.81 8.58 8.43 11.18 10.42l-.14.73c-2.19-1.26-3.96-2.4-6.08-3.84-.28 1.17-.01.88-.61 1.42-.12-.2-.34-.5-.41-.7l-1.14-.27c1.07 2.25 9.36 8.57 11.44 9.88l-.19.65c-9.03-3.83-16.41-10.1-22.55-18.3H75.63c.66.33 1.26.6 1.73.81 5.8 2.84 11.8.76 17.47 3.01l-.14.75c-2.91-.81-5.77-.61-8.73-.47l-.25.6.23.4c1.92.07 3.41.19 5.32.42l.12.41c-1.26.25-2.95.27-3.93.54l-2.5-.07.32.75c.86.15 1.97.38 2.82.47l.33.47c-.55.22-.99.36-1.56.54-1.23-.07-2.46-.14-3.7-.19-1.07-.33-2.15-.64-3.23-.95.57.5 1.71 1.45 2.21 1.98-2.25-.86-2.66-.49-4.77-.91l.38 1.31c-1.23-.33-1.53-1.27-2.6-2.08-.54.69-.41.28-.49 1.22.85 1.59 3.12 2.66 4.58 3.01 3.5.87 7.14-.35 10.56-.41 4.44-.07 10.16-.04 14.45 1.51 6.76 2.52 13.07 6.96 19.6 10.43 5.05 2.68 9.7 6.84 15.5 7.39 11 1.05 22.4.47 33.46.59 4.38.04 8.71-.45 13.09-.05 13.5 1.5 25.05 9.3 34.98 20.46 3.92 4.41 8.54 8.4 12.12 13.44 5.23 7.08 12.89 12 17.25 20.09 2.06 3.81 3.15 13.43 2.21 18.06-2.95 14.02-15.12 28.45-27.4 26.12-6.91-1.31-9.91-10.87-14.76-15.16-7.81-6.92-10.15-1.63-13.41-14.74-6.22-3.92-4.38-10.88-7.22-12.4l-.25.24.16.32c.6 1.21.68 1.28.81 2.63l-.27.18-1.28-1.21-.56.11c.62 1.06 1.37 2.69 1.25 4.02-.62-.42-.64-.41-1.15-1.02l-.34.82c.35 1.1.49 1.02.36 2.02-1.9.1-7.19-3.76-8.48-5.68-1.39-2.07-.61-4.02-.38-6.35-1.74-4.48-5.9.23-9.13-1.62-3.93-2.24-3.25-7.02-4.8-11.72-2.36-2.17-11.24.88-14.52.42-4.01-.55-4.93-4.78-7.87-6.13-8.35-3.84-17.45 1.39-25.95-.55-5.05-1.14-6.81-7.29-11.29-9.33-8.18-3.72-17.72-1.3-25.31-7.24-5.42-4.54-8.04-12.37-12.67-17.93-3.61-4.37-9.2-8.25-14.31-8.42-6.99-.12-16.35 1.93-18.02 12.17-1.87 11.49 7.11 23.38 11.56 32.61-.29-1.44-.6-2.74-.67-4.22l.27.03.91 1.47c.38-.04.51-.28.93-.63l.34.61c.31-.83-.22-2.71-.24-3.93l-.15-.71c.61.76 2.06 4.23 2.58 5.38-.38-2.52-.64-3.94-1.24-6.39l.49-.82 1.8 4.08c-.88-4.78-2.25-9.88-3.48-14.57 1.52 2.74 2.4 4.96 3.58 7.94l.46-.52c-.8-2.35-1.3-4.81-2.23-7.43l.32-.64c4.75 9.76 7.63 21.22 5.59 32.74-1.03 5.83-2.94 8.64-4.68 13.56-3.09 8.71-1.79 22.56 1.07 31.17 1.57-3.51 3.11-7.05 4.61-10.62-.26 3.06-.51 5.05-1.02 8.07.94-2.26 1.69-3.9 2.3-6.34l.68-.14c-.37 2.53-.65 4.52-1.24 6.98l.65.08c.97-3 1.56-4.94 2.27-8.04l.6.1-.55 4.96.61.69c.95-3.43 1.48-5.64 1.72-9.26l.59-.41c.63 3.03.49 6.74 0 9.79l.59.32c1.47-5.8 1.01-10.36.79-16.32.93 2.67 1.26 3.77 1.85 6.57.48-.74.34-.51.64-1.42l-.59-3.84.63-.71c1.8 5.12 3.05 11.65 1.03 16.75-4.5 11.39-9.2 17.93-10.89 30.96 6.72 11.78 15.71 2.9 24.85 7.47 8.5 4.25 7.52 13.93 10.42 22.42 15.86-4.93 16.66-7.63 27.16-21.99l.36 1.23c-.8 1.91-1.51 3.7-2.48 5.48l.59.36c1.59-1.77 3.13-3.6 4.63-5.49-2.83 6.18-4.18 8.23-8.43 12.96 2.28-1.55 3.68-2.59 5.76-4.53l.23.83c-2.55 3.07-4.37 4.75-7.14 7.43 3.28-1.64 4.84-2.7 7.81-5.09-1.65 2.11-2.99 3.9-4.85 5.72 1.38-.66 2.8-1.32 4.16-2.02l.21 1.01c-.56.64-1.31 1.46-1.83 2.12 1.62-.52 3.23-1.07 4.84-1.63-1.55 1.78-2.86 2.78-4.61 4.22 4.1-.24 9.47-.78 13.47-.01 3.8.73 7.83 4.14 11.65 5.82 17.74 7.76 27.46 1.5 42.84-9.35-2.38 2.7-4.61 5.24-7.12 7.76l3.41-1.87.26.71-3.04 3.06c2.37-1.15 4.9-2.3 7.22-3.56-1.6 1.48-3.45 3.1-4.92 4.73 2.1-.8 3.62-1.43 5.66-2.45l-3.81 3.45 4.76-2-4.29 3.84c4.43-1.37 10.89-3.97 15.28-3.98 4.38 0 10.65 2.75 15.11 3.97 8.66 2.36 20.23 3.98 28.7.2 7.02-3.13 15.62-13.59 20.73-20.62-3.04 6.57-6.37 13.48-11.31 18.11l.36.63c2.89-2.42 6.62-6.16 9.42-8.83l.53.27c-3.45 4.19-6.82 8.51-10.69 12.08 4.78-2.57 7.06-4.81 11.16-8.85-5.17 7.22-7.01 9.35-13.56 14.3 2.2-.67 4.46-1.32 6.63-2.13-2.97 2.47-4.65 3.55-8 5.07l.5.72-.17.25.44.43-.02.36-2.04.56-.24 1.28c-.32.22-.54.41-.88.55-3.1.1-4.02.43-6.7-1.46-13.77 15.56-22.75 11.04-38.84 10.17-4.93-.27-14.77 8.64-20.75 7.83-10.11.5-14.31-7.79-23.55-10.05-5.17-1.52-9.95 1.08-14.79 1.83-7.27 1.12-17.63-.01-24.48-2.65-7.94-3.06-13.65-8.93-19.37-16.03-2.62-3.26-6.42-6.01-9.26-9.04-2.77-2.67-5.33-5.92-8.11-8.6-8.92-8.6-15.94-12-27.01-11.23-17.44 1.23-26.76 25.16-14.67 41.52 2.98 3.91 6.67 7.27 10.55 9.6 6.4 3.85 24.11 9.64 23.2 21.55 0 .11-.01.21-.02.32h4.81c0-.23-.02-.45-.03-.69-.12-9.48-5.56-17.23-12.09-21.93l.22-.45c4.81 2.38 8.01 5.09 11.48 9.91l.54-.5c-2.52-6.16-5.11-8.36-9.53-12.18 7.14 3.23 9.34 4.81 13.59 12.91-1.16-5.86-2.22-8.7-6.15-12.41l.39-.7c3.78 2.08 5.67 4.32 7.69 8.87l.33-1.12c-1.54-4.12-3.5-7.98-5.82-11.49 5.88 4.64 8.1 9.67 10.97 17.41l.49-.22c-1.25-4.37-2.25-8.64-3.59-13.07l.35-.84c3.56 6.46 5.39 12.74 8.69 18.91-.78-6.46-1.6-8.95-3.76-14.96l.53-.53c2.01 3.8 3.29 6.41 4.64 10.68 1.3 4.11 2.2 8.46 4 12.24.09.06.17.1.26.16h12.95c.55-.1 1.11-.19 1.72-.25-5.1-4.87-6.02-6.43-10.12-12.78l.57-.53c2.9 3.47 5.34 5.92 8.83 8.5-4.95-5.55-8.25-9.05-12.25-15.8 6.77 6.54 13.72 13.77 21.36 18.75l-4.98-6.08-.03-.24-.42-.32.08-.89c3.42 3.14 7.74 6.61 11.59 9.65h.87c-1.48-2.08-3.1-4.39-4.52-6.18l.36-.77c2.28 2.39 4.61 4.7 6.98 6.95h2.69c-.58-.86-1.15-1.72-1.69-2.52l.37-.66c.55.59 1.67 1.8 2.99 3.18h306.6c4.33-3.7 8.53-7.63 12.74-11.62Z" class="cls-3"/><path d="M91.25 5.51c1.79.39 3.56.84 5.33 1.36-3.22-.25-5.91-.42-9.14-.41.98-.27 2.67-.28 3.93-.54z" class="cls-7"/><path d="M309.84 17.7c.78-1 1.99-2.67 2.8-3.53l.24.23.22-.5-.68.53.73-.61-.51.44.23.28c-.72 1.21-1.46 2.41-2.2 3.6zm-5.05 83.22q-.09 4.365-.27 8.73c-.56-2.23.34-2.36-.75-4.42.32-1.62.59-2.72 1.02-4.3Z" class="cls-5"/><path d="M48.75 58.99c.03 1.22.55 3.1.24 3.93l-.34-.61c-.39-1.43-.71-1.93-1.37-3.23z" class="cls-4"/><path d="M300.11 99.09c.24-1.59.27-1.77.81-3.22-.04 2.6-.04 5.44-.19 8.01-.2-.64-.23-3.6-.28-4.58z" class="cls-2"/><path d="M298.65 113.89c.11 2.23.24 4.46.38 6.68l-.45.73-.47-3.47.11-.02c.5-.67.38-2.74.43-3.92" class="cls-6"/><path d="M106.62 226.66c-1.4-1.66-1.87-2.4-3.04-4.29 1.32 1.24 2.36 2.39 3.6 3.76l-.57.53Z" class="cls-7"/><path d="M79.94 7.49c1.08.3 2.15.62 3.23.95-.28.49-.44.77-.69 1.29l-.33-.26c-.5-.53-1.64-1.47-2.21-1.98" class="cls-4"/><path d="m212.89 1.14 3.7 3.46c-1.42-.85-2.69-1.58-4.06-2.59z" class="cls-5"/><path d="M114.5 224.55c1.37 1.34 1.98 1.9 3 3.74-1.64-.93-2.18-1.77-3-3.74" class="cls-4"/><path d="M47.73 62.95c-.07-1.08-.31-2.75-.45-3.86.66 1.3.99 1.8 1.37 3.23-.42.35-.54.6-.93.63Z" class="cls-5"/><path d="M309.53 10.94c.52-1.06 1.41-2.58 2.36-2.94-.4 1.3-1.46 2.5-2.25 3.56z" class="cls-6"/><path d="m307.35 105.6.38.53c-.19 2.2-.2 2.85-.12 5.07l-.1.56c-.2-1.11-.23-2.51-.3-3.67l-.36-.29z" class="cls-2"/><path d="m141.96 237.97-.15.22c.24.66.46 1.1.69 1.51h.72c-.38-.64-.78-1.27-1.27-1.73Z" class="cls-8"/><path d="M125.49 230.12c.91.88 1.74 1.65 2.59 2.63l-.36.77-1.28-1.53z" class="cls-10"/><path d="m88.08 7.62 2.56.25v.28c-1.42.29-2.34.56-3.78.48.56-.17 1.01-.32 1.56-.54l-.33-.47Z" class="cls-7"/><path d="M310.79 110.14c-.12.65-.01.3-.38 1-.53-1.17-.28-3.47-.03-4.75.03 1.14-.06 2.88.41 3.75" class="cls-4"/><path d="M293.38 89.85c.66-1.61 1.07-2.69 1.92-4.17l-1.39 4.91-.53-.73Zm3.03 2.89.35.68-.29 3.55-.2-1.19-.4-.33c.05-.44.43-2.19.54-2.71" class="cls-2"/><path d="m121.19 175.74 1.34-.99.34.12c-.57 1.06-.69 1.1-1.46 1.89l-.21-1.01Z" class="cls-9"/><path d="m120.56 158.86.87-1.51.24.07c-.2 1.4-.22 1.38-.75 2.67z" class="cls-5"/><path d="m307.13 5.55.25.66-1.42 2.09-.39-.8z" class="cls-10"/><path d="m187.08 181.67-2.76 2.85-.26-.71c1.09-.86 1.88-1.41 3.02-2.14" class="cls-5"/><path d="M467.28 230.11c-.98 1.74-1.58 2.71-2.69 4.31l-.05-1.08z" class="cls-2"/><path d="M307.13 5.55c.61-.73.95-1.47 1.58-1.48-.52 1.16-.61 1.21-1.33 2.14zM58.75 113.9c.23-1.23.08-1.14.67-2.02.33.96.18.56 0 1.88l-.68.14Zm2.37-1.12c.2-1.12.1-1.68.65-2.15.11 1.16.12 1.11-.06 2.25l-.6-.1Z" class="cls-7"/><path d="m307.61 111.2.73.72c-.06.4-.22 1.05-.32 1.47l-.25-.17-.26-1.45.1-.56Z" class="cls-4"/><path d="M219.93 17.65c.77.49 1.27.58 1.62 1.35-.94-.11-.98-.2-1.8-.7l.19-.65Z" class="cls-2"/><path d="M87.35 214.04c-.53-1.02-.57-1.01-.83-2.23.57.11.69.63 1.18 1.4l-.35.84ZM67.36 103.96c-.14-.81-.24-1.49-.35-2.3l.22-.14.76 1.73z" class="cls-10"/><path d="m120.99 168.87 1.09-1.11.34.05c-.42 1.07-.52 1.1-1.2 1.9l-.23-.83Z" class="cls-2"/><path d="M134.68 235.41c-.74-.92-.85-.94-1.24-2.19h.31l.88 1.15z" class="cls-8"/><path d="M218.4 11.41c.82.42.94.32 1.44 1.12-.89.06-1.18-.21-1.98-.67l.54-.44Z" class="cls-6"/><path d="M90.99 213.08c.75 1.15 1.46 2.35 2.17 3.54l-.53.53z" class="cls-5"/><path d="M75.83 213.64c-.85-.6-.88-.67-1.57-1.46.53-.18 1.12.38 1.78.77z" class="cls-7"/><path d="m118.21 228.6 1.57 1.46-.08.89-.84-.7z" class="cls-10"/><path d="M50.55 45.96c-.5-1-.48-.94-.69-2.09l.27-.03.75 1.48-.32.64Z" class="cls-1"/><path d="M49.37 55.35c-.32-.88-.68-1.37-.51-2.06.54.82.61.98 1.03 1.91l-.52.14Z" class="cls-7"/><path d="m460.86 230.88 1.25-1.38.24.04c-.45.9-.59 1.22-1.15 2.04l-.33-.7Z" class="cls-5"/><path d="m96.36 4.37 1.35.69-.05.25c-.63-.13-1.27-.25-1.89-.43l.59-.52Z" class="cls-7"/><path d="m250.77 202.52 1.36.3.13.34c-.37.12-.88.31-1.24.39l.02-.36-.44-.43.17-.25Z" class="cls-2"/><path d="m49.9 55.21.52 1.25-.49.82-.56-1.93.52-.14Zm166.97-44.79 1.53.99-.54.44-1.13-.7z" class="cls-10"/><path d="m134.64 234.37 1 1.08-.12 1.15-.83-1.2-.05-1.04Z" class="cls-2"/><path d="m76.04 212.95 1.24.71-.39.7-1.06-.73.21-.69Z" class="cls-5"/><path d="m94.82 3.81 1.54.56-.59.52-1.09-.32.14-.75ZM264.2 181.06c.62-.63.72-.98 1.35-1.01-.41.78-.29.63-.82 1.28z" class="cls-10"/><path d="M66.32 217.13c-.68-.48-.93-.43-1.13-1.13l1.1.1.02 1.03Z" class="cls-6"/><path d="m117.5 228.29.56.07.15.24.65 1.65c-.76-.83-.83-.83-1.35-1.95Z" class="cls-8"/><path d="m135.63 235.46.78 1.06-.37.66-.53-.56.12-1.15Z" class="cls-9"/><path d="M126.44 232c-.76-.78-1.07-1.07-1.23-2.2l.28.33zM296.41 92.74l.15-.69.31.05c.05.86.12.58-.11 1.32zm10.94 12.86.4-1.14c.27.99.18.48-.03 1.67l-.38-.53Z" class="cls-6"/><path d="m63.49 109.26.14-1.76.2-.08.25 1.43z" class="cls-10"/><path d="m66.29 216.1.67.53-.22.45-.43.05z" class="cls-2"/><path d="M77.23 74.84c4.21-.56 8.85-.2 13.08.07 23 1.52 45.49 9.08 65.99 22.22 20.85 13.49 40.11 33.23 52.05 58.83 1.82 3.89 4.11 8.61 5.2 12.87-.08.53-.07.87-.37 1.3-.91 1.28-2.49 1.24-3.76 1.39-19.52 2.33-37.59-3.49-55.48-12.82-6.46-3.37-13.02-6.79-19.21-10.89-18.97-12.57-40.7-33.05-53.99-54.24-2.84-4.52-6.21-9.35-7.88-14.76-.33-1.07-.53-2.13-.15-3.2 1.41-.69 3.03-.64 4.53-.76Z" class="cls-11"/><path d="M113.05 93.65c-.48-1.14-.55-.9-.5-2.01.74.4.96 1.15 1.39 2.05.24.44.86 1.53 1.03 1.94l.95.23c-.07-1.29-.06-1.98 0-3.28l.23-.25.32.73.17.37c1.88 4.26.62 5.49 1.46 9.97.48 2.54 2.73 4.58 3.63 6.69 1.06 2.48 1.37 4.94 2.56 7.53 2.68 5.91 8.21 9.17 10.99 14.65 3.39 6.68 8.76 9.1 14.26 12.1 3.67 2 4.92 2.41 8.77 3.26 6.29 7.29 12.79 8.63 20.67 4.79 4.43 1.7 4.97 2.48 9.56 1.58-.38 1.24-1.84 1.63-2.83 1.94l-1.78.44-.21.46c1.18.2 4.7.39 5.26.72-.52.63-.25.37-.81.81l-1.07 1.47.06.4-2.98 2.05c-5.64-1.47-5.3-3.52-12.48-1.04-5.26-3.98-8.82-3.67-14.45-6.25-2.23-1.03-5.05-4.29-7.28-5.74-3.64-2.36-8.72-3.73-12.74-4.99-1.23-2.07-3.38-3.67-4.39-5.51-3.16-5.72-6.85-10.53-10.45-15.71-1.66-2.39-1.7-7.23-3.49-10.08-4.77-7.58-7.51-7.32-8.7-17.45 1.16 1.88 1.54 2.71 2.44 4.77.46-1.08.33-5 .42-6.63Z" class="cls-3"/><path d="M113.05 93.65c-.48-1.14-.55-.9-.5-2.01.74.4.96 1.15 1.39 2.05-.82 1.49.12 5.21-.56 8.12-.29-.49-.5-1-.75-1.53.46-1.08.33-5 .42-6.63" class="cls-4"/><path d="M113.05 93.65c.38 2.18.31 5.81.33 8.16-.29-.49-.5-1-.75-1.53.46-1.08.33-5 .42-6.63" class="cls-5"/><path d="M183.72 156.85c-.85-.12-1.4-.21-2.25-.41l-.07-.22c1.52-.41 2.76-.3 4.3-.26l-1.78.44-.21.46Z" class="cls-8"/><path d="M185.5 158.73c.83-.03 1.83-.23 2.67-.36l-1.07 1.47-1.76-.5z" class="cls-9"/><path d="M115.92 95.87c-.07-1.29-.06-1.98 0-3.28l.23-.25.32.73c-.45 1.59-.09 2.55-.4 4.01l-.14-1.22Z" class="cls-4"/><path d="m114.97 95.64.95.23.14 1.22-.24.77-.63-.34-.22-1.87Z" class="cls-9"/><path d="m115.19 97.51.63.34c-.01.8.07.52-.22 1.17l-.41-1.52Zm70.14 61.83-1.7-.47 1.87-.14-.16.61Z" class="cls-2"/><path d="M136.86 99.32c.65 1.31 3.15 4.15 3.25 4.52 2.48 9.22 3.14 8.05 8.71 12.33 4.71 3.63 3.03 7.95 10.77 9.16 5.89 8.47 6.37 3.28 14.12 5.94l.88.81-.09.25-.17-.2-.18.72.36-.02 1.79.57c.97.36 2.19.77 3.12 1.18l1.73.7.51.2c-.58.73-3.21-.11-4.75.9 2.37.73 6.01 1.95 7.56 4.38l-.05.3c-2.35.8-4.7-1.7-6.93-2.1-2.5-.45-5.38.8-7.89-.09-2.38-.85-4.37-3.39-6.75-4.38-7.69-1.44-10.34-1.75-15.02-9.97-.31-.54-3.12-2.25-3.88-2.9-2.16-1.87-3.08-5.36-4.82-7.77-1.6-2.11-3.87-2.39-5.23-5.51-1.35-3.1-1.6-5.34-2.21-8.77 1.42 1.7 1.99 2.36 2.92 4.54l.99.17-1.13-5.37c1.59 3.39 2.24 4.67 4.48 7.42-1.28-2.72-1.8-3.96-2.39-6.96l.3-.04Z" class="cls-3"/><path d="m179.42 134.58 1.73.7.51.2c-.58.73-3.21-.11-4.75.9l-1.17-.22-.07-.63 2.99.02z" class="cls-10"/><path d="m179.42 134.58 1.73.7c-.84.11-1.65.24-2.49.27z" class="cls-4"/><path d="m134.62 104.11.99.17.66 2.25-.54.26z" class="cls-5"/><path d="m136.26 106.52.87 1.66-.08.41c-.81-.78-.77-.73-1.33-1.8l.54-.26Z" class="cls-7"/><path d="M175.74 136.16c-1.09-.23-1.14-.24-2.15-.77.59-.34 1.29 0 2.08.14z" class="cls-8"/><path d="m96.84 87.6.21-1.52.36-.32c1.02 1.99-.27 6.44.12 8.56.19 1.03 2.08 3.49 2.74 4.35-.15 1.9-.27 3.62-.55 5.51l-.31.31c-.59-.85-.55-.89-.87-1.97l-.62-.16c.17 1.89.33 2.87-.01 4.76-.47-.51-.41-1.62-.47-2.56l-.05-.77c-.29-1.57-.5-3.93-.69-5.57-.53 4.17-.76 5.29-2.29 9.04.34-4.47-.43-7.32.41-11.69-1.13-2.98-2.99-5.14-1.57-8.5l.46-.17.53.99.73-.02.12.28.47-1.19.39 1.45.89-.8Z" class="cls-3"/><path d="M97.4 103.78c.64-1.63.15-3.4.82-4.63l.08.64-.37 2.57c.17 1.89.33 2.87-.01 4.76-.47-.51-.41-1.62-.47-2.56l-.05-.77Z" class="cls-4"/><path d="M96.84 87.6c-.14 1.1-.04 1.6-.54 2.21-.11-.43-.27-.99-.34-1.42l.89-.8Zm-1.86.26.12.28-.19 1.46-.34-.2-.32-1.53.73-.02Z" class="cls-5"/><path d="m97.93 102.36.37-2.57.24 2.73-.62-.16Z" class="cls-1"/><path d="m94.58 89.4.34.2c0 .52.05.27-.21.73z" class="cls-2"/><path d="M151.82 98.29c4.18 2.03 3.81 4.24 6.98 7.13 2.87 2.62 6.9 2.84 9.74 6.1l-.18.22c-1.25-.45-1.46-.6-2.62-1.39-.94-.82-.58-.58-1.83-.72-1.7-.82-2.77-.87-4.4-1.33-2.99-.85-6.57-6.54-7.69-10Z" class="cls-3"/><path d="M173.7 131.27c3.58.65 6.04 1.21 9.69 1.17l.16.42c-1.6.28-4.68.37-6.23-.08l-.92-.13-.1.75-1.79-.57-.36.02.18-.72.17.2.09-.25-.88-.81Z" class="cls-6"/><path d="m183.39 132.44.16.42c-1.6.28-4.68.37-6.23-.08 1.98 0 4.08-.2 6.07-.34" class="cls-10"/><path d="M174.51 132.83c.54-.09 1.33-.13 1.89-.18l-.1.75z" class="cls-5"/><path d="M82.87 82.4c.25.42.29.34.29.81-.02 1.06-.49 2.5-1.07 3.28l-.87-1.63c.15-1.15.96-1.71 1.65-2.46" class="cls-3"/><path d="M163.91 109.62c1.25.15.89-.1 1.83.72.7.98 1.04 1.43 1.61 2.53l-.2.27c-1.45-1.03-2.11-2.04-3.24-3.52" class="cls-4"/><path d="M136.56 99.36c-.59-1.18-.55-1.13-.69-2.53l.2-.58c.58.7.63 1.99.8 3.07l-.3.04Z" class="cls-5"/><path d="M94.98 87.86c-.01-1.39.02-1.6.26-2.97.4.58.27 1.1.33 2.06l-.47 1.19z" class="cls-7"/><path d="m290.23 201.24.15-.6c.61 1.05.36 6.37.09 7.78-.07 1.41-.11 3.2-.27 4.56l.05.18.33.08c1.04-2.34 2.27-6.67 2.32-9.34l.72-1.95c.12 3.32.5 8.44.92 11.75.76-3.58 1.18-5.77 1.53-9.44l.96.38 1.33 8.01c1.06-4.41.82-6.25.34-10.79 1.47 3.65 2.9 9.27 4.07 13.27.22-2.18.47-4.38.56-6.57.04.1-1.11-6.11-1.21-6.62.63 1.34 1.1 2.46 1.66 3.86 1.1 2.59 2.12 5.23 3.08 7.9.29-5.34.18-6.82-1.35-11.96 2.62 4.58 3.93 7.73 5.86 12.73.35-5.02.22-6.52-1.14-11.4 2.04 3.81 3.62 6.47 5.13 10.68 1.17-2.13-.54-8.16-1.14-10.53 1.74 3.27 3.59 7.07 4.95 10.63l1.04-.61c-.17-3.51-.33-4.76-1.3-8.21 1.52 2.92 2.66 5.15 3.97 8.26l1.15.43c.01-2.69-.1-3.63-1.03-6.04l.34-.55c2.22 3.5 3.1 5.48 4.61 9.54.01-4.81-.14-5.88-1.37-10.42 1.94 3.61 3.51 6.64 5.14 10.54.21-4.78.2-5.41-.96-9.93 2.52 4.06 3.14 6.13 4.8 10.77.07-2.63.15-3.66-.23-6.25l.73-.28c.88 2.66 1.8 5.59 2.74 8.19.02-2.15.09-4.43-.09-6.55l.5-.82c.68 1.65 1.5 4.03 2.53 5.22l.31-.22c.02-2.82-.44-5.13-1.05-7.81 1.44 3.07 2.92 5.97 3.92 9.31.44-.84.37-2.46.4-3.56l-.76-3.91c1.23 2.67 2.98 6.12 3.6 9.02l.29-2.51.11-.03c.09-.96.14-.94.51-1.81 1.04 2.53 1.73 4.47 2.6 7.11-.04-1.87-.01-3.75-.26-5.59l.33-1.95c.64 1.89 1.39 4.3 2.13 6.08.53-.85.41-1.69.41-2.82l.26-.08.41-.86.1.7 1.46 4.25.7-.44c.09-1.54.13-2.88.36-4.41.31 1.44 1.08 5.41 1.56 6.51l.25-.06c-.01-1.85-.09-3.27.2-5.09l.28.14.2 1.17c.31 1.36 1.01 5.18 1.65 5.97.36-.94.34-.96.47-2.01-.03-1.63-.07-2.32.14-3.91l.26-.08.26 1.11.82 3.83.75-.93.09-1.48.26-.04.35 1.42c.52 1.77 1.06 3.66 1.61 5.4l.66-5c.37 1.48.82 4.27 1.34 5.31l-.58.49c-7.5-.44-12.81-2.94-20.48-1.9-12.6 1.71-24.68-1.81-37.35 1.15-6.39 1.49-14.14 1.87-20.67 2.91-9.06.94-18.81-2.17-27.9-2.11-10.17.15-20.92 2.52-31.09 4 1.9-4.81 3.08-7.03 5.57-11.32l.62.65c-.75 2.23-1.02 3.27-1.52 5.6 2.11-3.49 3.57-6.92 5.85-10.31-1.3 3.47-2.33 5.8-2.47 9.69l.89-.29c1.16-3.32 2.03-6.44 4-9.12-.61 2-.9 2.91-1.24 5.07l.32 1.89c1.33-3.93 2.35-5.58 4.47-8.99-1.04 2.77-2.24 5.22-2.19 8.25l.31.13c1.02-1.36 3.29-6.46 4.59-8.75-.7 2.35-1.84 5.36-1.4 7.77 1.95-4.5 3.42-7.24 5.82-11.33-1.25 3.8-1.98 5.74-2.7 9.78 1.51-2.39 3.2-5.84 4.56-8.46l.79.28c-.61 2.34-.99 4.74-1.42 7.15 2.24-4.7 4.12-8.42 6.78-12.73l.83.31c-.93 3.18-1.62 5.8-2.38 9.06 2.71-4.65 4.53-8.96 7.64-13.5-1.22 3.36-1.95 5.56-2.81 9.07 2.41-2.88 5.35-8.07 8.07-11.59-1.8 4.74-2.52 6.12-3.19 11.32 2.37-3.88 4.34-7.24 6.52-11.29-1.08 3.72-1.76 6.76-2.5 10.59 2.49-4.18 4.54-8.34 7.23-12.43-1.38 4.14-1.82 6.63-2.53 11.05 1.86-3.29 4.33-8.68 6.08-12.24-1.55 5.6-2.04 7.76-2.17 13.68 1.41-3.41 2.44-6.1 3.66-9.63l.34-1.45.4 1.76-.2 1.08c-.29 2.82-.53 5.2-.64 8.03 1.32-2.79 2.18-5.36 3.08-8.41.02-.43.44-2.98.53-3.56Z" class="cls-9"/><path d="m290.23 201.24.15-.6c.61 1.05.36 6.37.09 7.78-.07 1.41-.11 3.2-.27 4.56-.37-3.03.49-6.03-.5-8.19.02-.43.44-2.98.53-3.56Z" class="cls-9"/><path d="m290.23 201.24.15-.6c.61 1.05.36 6.37.09 7.78.01-2.73.03-4.49-.25-7.18Z" class="cls-8"/><path d="m364.39 224.27.09-1.48.26-.04.35 1.42c-.64 1.82-.24 3.61-.85 4.04l-.05-.44c-.21-.82-.38-1.73-.55-2.58l.75-.93Z" class="cls-5"/><path d="m363.64 225.2.75-.93c.01 1.43.08 2.14-.2 3.51-.21-.82-.38-1.73-.55-2.58" class="cls-4"/><path d="M302.13 201.94c.63 1.34 1.1 2.46 1.66 3.86-.7 1.44-.24 1.57-.45 2.77.04.1-1.11-6.11-1.21-6.62Z" class="cls-5"/><path d="M359.36 224.06c-.01-1.85-.09-3.27.2-5.09l.28.14.2 1.17c-.61 1.41-.36 2.33-.68 3.78" class="cls-8"/><path d="m354.27 218.46.26-.08.1 4.29-.06.06-.3-.12-.42-1.32c.53-.85.41-1.69.41-2.82Zm-8.95-3.61c.2 1.29.49 3.71-.07 4.84-.17-.56-.25-.7-.33-1.28.44-.84.37-2.46.4-3.56" class="cls-4"/><path d="m354.94 217.51.1.7c-.06 1.24-.07 3.37-.41 4.45l-.1-4.29z" class="cls-5"/><path d="M362.16 224.25c-.03-1.63-.07-2.32.14-3.91l.26-.08.26 1.11c-.4 1.28-.44 1.52-.66 2.88m-13.71-6.8.11-.03c.08 1.5.19 1.96-.16 3.35l-.23-.21v-.6l.29-2.51Z" class="cls-1"/><path d="m324.04 213.72-.23 1.27c-.61-.58-.56-.76-.92-1.69l1.15.43Z" class="cls-4"/><path d="m242.33 224.4.32 1.89-.44 1.03c-.22-1.05-.02-1.84.12-2.92" class="cls-6"/><path d="m287.05 202.34.4 1.76-.2 1.08-.54-1.39z" class="cls-5"/><path d="m238.68 228.75.89-.29-.65 1.9-.19-.14-.05-1.46Zm81.54-15.51-.28 1.43-.32.11-.44-.94 1.04-.61Z" class="cls-4"/><path d="m356.49 222.46.7-.44-.22 1.4-.21.03-.27-1Z" class="cls-6"/><path d="M235.44 31.86c2.84 3.31 5.58 6.76 8.19 10.35l.45-.56-.47-.74c-.95-1.46-1.07-1.56-1.56-3.29l.47.38-.2-.42.67.97c2.94 3.52 5.73 7.23 8.36 11.12-1.2-3.52-2.58-7.4-4.47-10.44v-.99c1.68 2.39 2.73 4.07 4.22 6.65.35-.4.66-.81.95-1.27.37.59.29.28.33.91 1.43 2.03 2.49 3.95 3.75 6.16l-.3-1.61.4-.78.63 1.49 2.39 5.54c0-1.23.01-2.29.06-3.52l.2.04.44 1.44c.44 1.34 1.23 3.55 1.51 4.87l.38-1.89-.16-1.08.35-.73c.51 1.96 1.1 4.06 1.47 6.04l.3 1.89.42-.37.31-.81.1-.02c.14.66.18.67.17 1.35l.99 4.04.33-.15.27-1.15-.25-3.68.56-.83c.55 2.78.93 4.87 1.28 7.69.3-1.47.59-2.82.83-4.31.19 1.5.58 6.3.92 7.19.52-.8.41-.78.66-1.85l.23-1.22.25.08c.19 1.78.25 3.93-.1 5.68l.08 1.42c.65-.72.79-1.34 1.21-2.35-.13 1.34-.48 3.6-.24 4.78.16-.38.47-1.07.58-1.44l.41.42-.18.62.25.66-.37.45.04.15c.45-.03.53-.25 1.02-.66l.28.21-.15 2.44.23.11.91-1.3.21.18c.17 4.06-7.16 20.25-9.72 14.01-2.49-6.37-3.47-14.07-6.51-20.12-7.87-15.63-19.58-26.41-31.65-36.49l.38-.83c4.51 3.48 9.11 6.92 13.29 10.99l.22-.76c-2.34-2.71-4.92-6.09-7.19-8.96l.15-1.02c1.82 1.82 5.28 5.09 6.87 6.96l.74-.22c-2.29-3.45-4.22-6.68-6.35-10.28l.15-1.09Z" class="cls-9"/><path d="M251.1 44.89c.35-.4.66-.81.95-1.27.37.59.29.28.33.91.31 1.48 1.04 3.88 1.46 5.41l-2.74-5.04Z" class="cls-3"/><path d="m263.81 62.39.42-.37.31-.81.1-.02c.14.66.18.67.17 1.35-.21 1.24-.31 3.69-.39 5.04-.26-1.67-.43-3.5-.62-5.2Z" class="cls-7"/><path d="M241.08 46.48c.91 1.01 2.23 2.27 2.74 3.57l-.12-.49c-1.03-.12-2.17-1.37-2.84-2.32z" class="cls-6"/><path d="m270.41 69.47.23-1.22.25.08c.19 1.78.25 3.93-.1 5.68 0-1.47.18-3.33-.38-4.54m-11.16-14.14c0-1.23.01-2.29.06-3.52l.2.04.44 1.44c-.3.93-.34 1.26-.41 2.26l-.21.13-.09-.34Z" class="cls-10"/><path d="m256.23 48.3.63 1.49-.46 1.36c-.27-.41-.22-.28-.27-.46l-.3-1.61z" class="cls-5"/><path d="M266.4 65.27c.12 1.23.3 1.96-.05 3.12-.55-.95-.36-.56-.54-1.81l.33-.15.27-1.15Z" class="cls-7"/><path d="M244.08 41.65c.67 1.23 1.38 2.5 2 3.77-.6-.77-1.98-2.44-2.45-3.21z" class="cls-6"/><path d="M243.61 40.91c-.95-1.46-1.07-1.56-1.56-3.29l.47.38-.2-.42.67.97c.11 1.3.09 1.21.62 2.35Z" class="cls-7"/><path d="M241.64 43.24c.57.77.63.9 1.07 1.81-.71-.1-1.15-.87-1.82-1.59l.74-.22Z" class="cls-8"/><path d="m261.85 56.27.29 2.94-.41.07-.25-1.11.38-1.89Z" class="cls-6"/><path d="M262.14 59.21c.05.61.12 1.21.12 1.81l-.53-1.75.41-.07Z" class="cls-2"/><path d="M260.15 114.14c.63.42.41.11.68.92-.71 5.96-1.63 9.18-4.25 14.36l.53.3c1.84-2.69 4.57-7.66 5.68-10.86l.58.66c-1.68 6.34-2.93 9.15-5.97 14.69l.54.37c1.69-2.09 3.01-3.64 4.44-6l.59.65c-3.43 8.4-6.94 11.18-11.78 18.03 5.97-5.13 7.51-7.02 11.99-13.8-3.21 9.44-4.87 9.59-10.63 16.25 2.69-1.85 6.14-3.96 8.28-6.6l.48.62c-1.44 2.55-2.29 3.66-4.21 5.77l.89.4c.98-.66 2.01-1.61 2.93-2.41l.63.73c-.56.89-1.16 1.89-1.76 2.72l.37 1.08c.84-.52 2.18-1.8 2.99-2.52-1.35 2.77-1.91 3.49-3.65 5.85 1.4-.89 2.02-1.41 3.58-1.75l.3.37c-.86 2.2-4.3 4.43-6.03 5.84 1.04.39 2.32.73 2.94 1.8l-.17.63c-2.65 1.84-7.26 1.01-10.16.34-4.57-1.05-9.09-4.4-8.95-10.97.23-10.73 9.31-15.36 13.93-22.95 2.86-4.7 4.09-8.85 5.21-14.51Z" class="cls-11"/><path d="m256.28 135.63.53.35c-1.21 1.32-2.9 3.39-4.33 4.02.34-1.24 2.86-3.44 3.81-4.37Z" class="cls-10"/><path d="m256.58 129.41.53.3-1.55 2.29-.5-.26z" class="cls-6"/><path d="m255.06 131.74.5.26c-.79 1.1-.87 1.28-1.87 2 .18-.92.77-1.44 1.37-2.26" class="cls-1"/><path d="m257.11 149.49.89.4c-.82.61-.88.74-1.84.93l-.02-.39zm2.68 1.43.37 1.08c-.67.46-.68.45-1.43.67l-.04-.37 1.1-1.39Zm-3.51-15.29 1.12-1.43.54.37-1.14 1.41-.53-.35Z" class="cls-4"/><path d="m223.65 33.06 3.91 3.2-.38.83c-1.19-1.13-2.2-2.1-3.47-3.1l-.07-.93Zm146.08 193.8c.27 1.47.58 1.92.24 3.08-.8.46-.98.38-1.85.43l.58-.49c.5-.98.39-1.07.53-2.29l.51-.73Z" class="cls-5"/><path d="M261 111.08c-.03.74-.08 3.4-.17 3.98-.27-.81-.05-.5-.68-.92l.27-2.84.57-.23Z" class="cls-10"/><path d="M233.88 37.52c-1.3-1.57-2.04-2.6-3.2-4.32l3.35 3.3z" class="cls-2"/><path d="M258.39 210.68c-.37 1.15-1.01 3.32-1.49 4.3l-.79-.28c.75-1.32 1.51-2.73 2.28-4.02m89.32 1.4q.69 1.755 1.35 3.54c-.37.87-.42.85-.51 1.81l-.11.03-.74-5.37Z" class="cls-5"/><path d="M235.29 32.95c-1.14-1.48-1.92-2.61-2.96-4.19l3.11 3.1zm.91 190.17c.86-1.37 1.73-2.82 2.65-4.12l-2.02 4.78-.62-.65Z" class="cls-10"/><path d="M296.08 204.26c-.07-1.13-.06-1.13.1-2.25.53.67.62 1.63.86 2.64l-.96-.38Z" class="cls-5"/><path d="M246.88 39.24c-.85-1.22-1-1.39-1.58-2.8.66.28 1.02 1.04 1.57 1.81v.99Z" class="cls-8"/><path d="m266.34 58.79.37 1.97-.56.83c-.1-.39-.18-2.19-.22-2.7z" class="cls-10"/><path d="m254.93 46.67.32-.69.98 2.32-.4.78-.9-2.4Z" class="cls-2"/><path d="m260.93 147.48 1.27-1.6.26.09c-.28.79-.51 1.52-.9 2.24zm1.34 61.91c.63-.9.64-1.25 1.4-1.47-.02.9-.17.98-.57 1.78z" class="cls-5"/><path d="M254.93 46.67c-.4-1.04-.61-1.38-.62-2.55l.28.09.66 1.76-.32.69Z" class="cls-8"/><path d="m263.51 126.24.36.62c-.28.75-.63 1.61-.89 2.36l-.59-.65c.4-.76.76-1.56 1.13-2.34Z" class="cls-10"/><path d="M272.42 76.41c.29-.84.42-1.65.92-2.07 0 1.18-.15 1.43-.51 2.49z" class="cls-1"/><path d="M335.33 211.38c-.2-.78-.24-1.36-.34-2.17l.24.04.83 1.84-.73.28Z" class="cls-10"/><path d="M338.71 212.73c-.06-.15-.35-1.66-.4-1.92l.18-.34.72 1.44z" class="cls-5"/><path d="M223.72 33.99c-.7-.7-.71-.64-1.13-1.62l.23-.15.83.83.07.93Z" class="cls-6"/><path d="m287.05 202.34.52-1.11c.23 1.14.04 1.64-.12 2.87z" class="cls-2"/><path d="M351.4 217.14c-.12-.86-.49-2.58-.24-3.18l.57 1.24-.33 1.95Z" class="cls-10"/><path d="M323.01 207.68c-.37-.74-.41-.97-.64-1.8l.22-.12.76 1.37z" class="cls-2"/><path d="M354.27 218.46c-.04-1.07-.13-1.22.13-2.19l.54 1.25-.41.86z" class="cls-1"/><path d="M292.91 203.91c.12-1.31.04-2 .53-3.06l.19 1.11z" class="cls-8"/><path d="m261.56 142.03.36.75-.6.95-.48-.62z" class="cls-5"/><path d="m265.93 58.89-.3-1.33.17-.22c.4.8.36.58.55 1.45l-.41.1Z" class="cls-8"/><path d="m262.8 118.86.43-1.37.24.2-.09 1.84-.58-.66Z" class="cls-10"/><path d="m263.51 126.24.36-.92.25-.02c-.08.59-.13.98-.26 1.56l-.36-.62Z" class="cls-6"/><path d="M261.69 55.18c-.19-.72-.12-.61-.1-1.42l.25-.1.2.79z" class="cls-8"/><path d="m261.56 142.03.78-1.01.17.32-.59 1.44zm107.67 83.85.46.04.04.95-.51.73v-1.72Z" class="cls-1"/><path d="m369.23 225.88.18-.88c.29.63.22.32.28.92z" class="cls-6"/><path d="m260.42 111.31.15-1.23.24.07.18.94-.57.23Z" class="cls-8"/><path d="m452.24 94.39.33-.03.28.37c-.14 3.76-.94 7.6-1.38 11.34l-2.99 25.66c-2.8 24.29-5.37 48.62-7.7 72.99-9.05 2.73-9.22-2.32-17.22-3.77 2.8-19.34 5.46-38.71 7.99-58.1.76-5.96 2.65-17.19 2.68-22.73l-.56-.6c-3.19-.08-35.18 14.2-40.65 16.53-16.99 7.12-33.79 15.19-50.86 21.97q1.14-1.5 2.22-3.06c2.28-3.28 5.99-8.35 5.59-13.05-.09-1.13-.56-2.15-1.28-2.82-3.2-2.96-8.19-.57-11.77-.08 2.26-1.98 25.08-10.07 29.6-11.81l85.73-32.8Zm19.22-91.24c-4.48 2.58-7.04 2.91-11.44 6.56l.62.4 3.72-2 .65.45c-1.35 1.11-2.43 2.33-3.65 3.65 3.73-2.53 8.49-4.68 11.78-7.03 2.32-1.66 4.3-3.45 6.23-5.17h-3.34c-1.62 1.21-3.2 2.36-4.57 3.15Zm4.92 3.32.6.49c3.21-2.31 6.09-4.65 8.96-6.96h-2.22c-2.96 2.65-5.86 5.3-7.34 6.47m26.74 5.28-.07-.07-.21.07v.02c.09 0 .17 0 .28-.02" class="cls-3"/><path d="M506.1 15.82c-.63.31-.97.47-1.63.69.36-1.15.53-1.1.36-2.1-.9-.21-1.67.46-2.55.98l-.49-.52c.85-.84 1.09-.98 1.6-2.21l-.54-.88c-.12 0-.25-.03-.55-.1.59-.87 1.65-2.23 1.88-3.25l-1.43-.52.17-.02c-.2-.2-1.8-.23-2.12-.22.68-.65 1.65-1.34 1.88-2.19-.8.04-2.66 1.55-3.5 2.14l-.39-.4c.61-.69 3.44-3.92 3.52-4.62-.71.13-.99.2-1.71.19 0 0 2.17-2 2.91-2.79h-2.44c-1.41.19-2.81.42-4.13.98l-.21-.47c.31-.18.6-.35.89-.51h-7.6c-3.16 3.07-6.56 5.9-8.7 7.33-5.7 3.81-9.94 7.9-15.11 12.63l3.81-1.77c-.55.88-2.3 2.2-3.23 3.15 1.95-.68 3.47-1.87 5.09-3.34 7.65-6.81 13.31-12.69 21.91-17.53-1.34 1.64-2.95 3.06-4.45 4.48l.48.53c1.57-.76 2.7-1.29 4.32-1.89-2.8 1.97-4.16 3.3-6.63 5.86l.47.28c4.15-3.42 5.52-3.96 10.42-5.47-5.67 4.21-9.02 8.44-14.15 13.31-2.38 2.26-9.67 4.75-11.66 8.11l.38.14.24.68c-1.43 1.1-1.71 1.42-2.9 2.92 3.41-1.89 6.81-4.24 10.26-6.07 2.63-1.69 7.66-2.93 9.99-5.09 3.95-3.67 4.59-5.92 9.41-8.67-1.45 1.46-5.49 6.88-7.25 9.02l3.82-3.19.31.56-.91.99.1.23c1.32-.8 2.34-1.46 3.62-2.35-3.05 3.86-5.18 4.92-8.85 7.54-1.59 1.13-3.23 3.48-4.92 4.54-1.07.69-3.72 1.1-4.9 2.07-2.21 1.82-4.22 4.48-6.49 6.07-2 1.41-5.14 1.99-7.1 3.42-2.05 1.5-3.83 4.35-5.82 6.08-10.12 8.82-22.46 19.58-34.08 24.93l.15 1.63c13.56-6.22 24.22-14.92 36.08-24.93 1.65-1.39 3.47-4.03 4.98-5.2 2.23-1.74 5.55-2.38 7.98-4.01s3.42-3.74 5.84-5.19c1.91-1.14 4.57-1.79 6.34-3.05 1-.72 2.74-3.13 3.79-3.9 1.99-1.45 3.95-2.35 5.93-3.9.93-.73 3.47-3.54 4.01-3.64-1.32 2.47-2.78 3.9-4.63 5.62l1.56-.2c-.58.93-4.65 2.98-5.73 3.51 2.3-.34 4.99-.9 7.23-1.07-4.29 2.56-8.78 4.49-12.81 7.51-2.88 2.28-5.12 5.79-8.15 7.77-4.04 2.64-11.1 3.46-14.68 7.12-3.99 4.08-8.96 9.66-13.44 13.38-1.44 1.2-3.09 5.3-4.84 6.34-2.51 3.06-10.33 3.42-12.13 5.08-3.38 3.12-6.76 6.39-10.62 9.22 3.11-1.21 5.56-2.73 8.07-5.41l.33-.06.35-.71.68.19c-1.67 2.73-3.26 4.13-5.41 6.21 5.57-2.5 4.52-4 8.06-6.34 4.05-1.87 8.41-2.33 12.14-5.32 2.48-1.53 4.38-5.51 6.5-7.36 4.37-3.8 8.7-8.7 12.83-12.66 3.4-3.26 11.13-4.23 14.47-7.43 4.39-4.2 6.44-7.89 11.39-11.38l.55.43c-1.22 1.19-1.99 1.98-3.13 3.32 2.11-1.17 3.3-1.75 5.5-2.59-2.94 2.57-4.84 3.6-7.32 7 1.63-.99 3.48-2.18 5.12-3.07-1.89 3.15-2.9 3.33-5.8 4.95l.09.24c.98-.48 7.43-2.78 8.25-2.95l.09.28-.7 1.11.12.23c1.13-.15 2.92-1.97 3.01-3.4-.77 0-1.55.02-2.32.05.92-.49 1.12-.56 1.92-1.37-.79-.23-.75-.14-1.6-.05.74-.47 1.05-.54 1.6-1.26l-.87-.48c1.23-1.3 2.96-1.74 3.87-3.14-.74-.35-1.2-.15-2.06-.05l-.7-.72c.91-.15 2.35-.81 3.05-1.6-.72-.45-.95-.23-1.88-.16l-.02-.7c2.5-1.5 2.79-2.9 5.25-4.47-1.48.42-2.97.82-4.45 1.21 1.41-1.29 2.49-1.27 3.24-2.94-.79-.17-.92-.14-1.72-.18.73-.38 1.45-.76 2.17-1.15l-.1-.32-1.05-.49c.55-1.73 1.99-1.61 2.22-3.23" class="cls-3"/><path d="M503.45 11.73c-.14.01-.24.02-.33.03l.41.41z" class="cls-3"/><path d="M470.01 18.19c.89-.85.77-1.06 1.6-.95l.26.76c-1.62 1.47-3.14 2.67-5.09 3.34.94-.95 2.68-2.27 3.23-3.15" class="cls-4"/><path d="M496.53 15.4c.81-.8 2.57-2.78 3.39-3.11-1.07 1.62-1.81 2.34-3.08 3.67z" class="cls-2"/><path d="m474.94 24.66.25.43-1.99 1.41-.24-.68z" class="cls-5"/><path d="M493.77 31.32c.86-.61 1.07-.97 1.96-.98-.6.84-.63.81-1.41 1.41z" class="cls-2"/><path d="M433.11 75.41c.74-.72.94-1.05 1.88-1.22-.35.86-.5.82-1.19 1.42l-.68-.19Z" class="cls-5"/><path d="m495.66.99-.13.48c.9.21.43.25 1.41-.49l-.21-.47z" class="cls-4"/><path d="M474.94 24.66c.78-.48 1.03-.88 1.68-.7-.63.74-.62.69-1.43 1.13z" class="cls-8"/><path d="M500.56 28.08c-.85.2-.86.14-1.74.13.32-.55 1.04-.6 1.72-.83zm-.47 2.48c-.94.17-.99.31-1.88.05l1.18-.77z" class="cls-2"/><path d="m465.84 7.32.68-.28.13.36c-.51.57-.37.5-.96.86l.14-.94Z" class="cls-6"/><path d="m465.84 7.32-.14.94-.68.29-.65-.45zm36.44 8.06-1.47.99-.23-.11 1.21-1.4z" class="cls-10"/><path d="m497.32 8.38 1.47-1.16.39.4-1.65 1-.2-.24Z" class="cls-1"/><path d="M378.94 87.11c14.42 1.52 28.84 2.92 43.27 4.18 7.07.63 14.23.86 21.26 1.93-4.09.82-8.09 2.08-12.14 3.11-3.83.98-7.77 1.76-11.55 3-3.03.99-5.91 2.63-8.93 3.7-5.49 1.94-11.21 3.16-16.81 4.47-4.13 1.07-7.5 4.38-11.53 5.63-3.57 1.11-7.37.31-11 .98-2.24.41-4.45 1.89-6.61 2.75-2.15.86-4.53.38-6.75.77-4.31.74-13.17 4.52-17.16 1.6a3.18 3.18 0 0 1-1.26-2.21c-.63-5.49 16.21-8.92 19.44-10.29 1.5-.64 3.01-1.49 4.19-2.84 2.46-2.79 2.01-7.19 3.79-10.5 2.58-4.79 7.62-5.4 11.79-6.28m85.72-27.61c.33-1.43.38-2.17 1.14-3.26 1.85-1.03 6.01-2.39 8.21-3.21a439 439 0 0 0 13.26-5.23c15.81-6.67 31.57-13.51 47.28-20.51-16.88 23.1-34.72 46.69-51.91 69.51-3.23-1.39-4.23-2.07-7.01-4.57 2.51 1.24 3.81 1.78 6.45 2.54-1.63-1.82-2.13-2.34-3.41-4.54 1.4.54 2.89 1.15 4.3 1.6-2.87-3.18-4.36-5.54-6.12-9.9 3.39 3.33 4.47 4.05 8.72 5.29-2.81-3.34-3.66-4.78-5.77-8.86 3.66 2.92 5.13 3.6 9.4 4.4-1.75-1.75-2.6-2.77-4.17-4.78 1.25.48 3.96 1.55 5.19 1.23l.21-.43c-.62-1.11-1.42-.9-2.5-2.27l.79-.46c1.18.63 2.01 1 3.27 1.07l.16-.37-.74-.89.37-1.11.1-1.03.56-.07c.99.71 1.39.91 2.46 1.42-.89-1.85-1.82-4.1-2.65-6.02 1.73 1 3.51 2.13 5.23 3.19-1.31-2.36-1.89-3.17-3.5-5.25l5.48 3.56c-.66-1.24-1.5-2.3-1.01-3.78 1.02.04 1.45.73 2.41 1.59-.41-1.48-.93-3.03-1.4-4.5l3.01 3.08-1.42-4.84 3.12 3.32c-.55-2.34-1.06-3.82-1.82-6.06l3.19 3.71c-.31-1.29-.72-2.59-.67-3.91l.37-.22.98.59c.41-1.77-.49-1.7.25-3.79h.3l1.15 1.56.2-.33-.32-2.33c1.02-1.19.02.6 1.41.21l-.19-1.58.23-.24c.43.61.28.44.85.92.73-1.3 1.39-1.15 2.23-2.69l.55.55.2-.3c-.18-.83-.3-1.42-.43-2.26.4.44.66.72 1.07 1.13.92-3.1 2.72-3.25 2.61-6.77l-.28-.4c-.72-.88-.75-.97-1.65-1.63l-.2.42c-.57.57-.56.47-.98 1.18-.78-.3-1.28-.46-2.05-.69l.13.43-.46.56-1.84-.96c.25.89 1.2 1.79 1.81 2.49-.83-.13-.86-.29-1.62-.82l-.18.18.57 1.01c-.56-.2-.98-.38-1.53-.63l-.08.31 1.13 1.32c-1.47.68-3-.95-3.49-.19l.93 1.36c-.94-.26-1.85-.31-2.64-.67.84 1.43 1.39 1.34 2.02 2.69-1.26-.02-3.12-1.38-4.27-2.17l.25 1.99-.27.44c-1.08-.35-1.55-.93-2.48-1.76l-.22.2.21.59 1.03 1.42.15.62c-1.97-.68-3.24-1.97-4.81-3.59 1.06 2.2 2.59 5.04 3.52 7.17l-4.04-4.16-.49.91 1.05 1.89-.52.6-1.28-1.55-.69.43 1.91 4.31c-.85-1.03-3.29-4.23-4.18-4.62l.15.95c-.41 1.43-.72 1.39-1.06 2.65l-1.72-3.58c.85 4.26 1.27 6.1 2.76 10.02-1.58-2.29-2.53-3.67-3.84-6.17l-.51 1.41.31 1.64-.25.17c-1.23-1.36-2.65-4.13-3.54-5.92.21 1.02 1.26 5.59 1.08 6.19l-.26-.47c-.14.5-.19 1.37-.24 1.94l-.3-.02-1.07-2.88-.44-1.43c-.39.73-.22 3.53-.16 4.49.18 1.36.53 3.06.34 4.32-.51-.7-.49-.67-.82-1.53-1.25-2.28-2.01-5.4-2.73-8.02-.33 4.55-.15 7.12.21 11.7-1.37-2.64-2.23-4.36-2.92-7.4l-.69-2.23c-.14 1.07-.3 2.55-.48 3.57.09 1.95.17 3.72.16 5.69l-.24.22-.59-1.07c-.97-1.95-1.27-3.11-1.92-5.25l-.87 1.04c.14 1.61.25 3.34.44 4.94.14 1.06.37 2.01.14 3.01l-.41-.72c-1.18-2.83-1.91-4.87-2.69-7.88-1.12 1.75.07 4.81-.7 5.86l-.15-.18c-.97-1.94-1.42-3.39-1.87-5.57l-.51-.42.52-1.69.04-.53c-.79.42-.55.47-1.27.36Z" class="cls-3"/><path d="M514.93 41.08c-.44-.31-.26-.09-.52-.68.89 0 1.77-.04 2.64.17l.11-.33c1.04.88 1.17 1.03 1.92 2.28-1.08.59-1.09.93-1.86 2.14l-.07-.58-.79-.5-.28-.4c-.28-.6-.82-1.5-1.16-2.1Z" class="cls-8"/><path d="M514.93 41.08c1.2.48 1.9 1.45 2.22 3l-.79-.5-.28-.4c-.28-.6-.82-1.5-1.16-2.1Zm2.23-.84-.2-.54c1.34-.28 1.81-.47 2.98.33l.33.63c-.23.15-.46.31-.68.47l-.19-.47-.03.14.39.54-.2.07-.35 1.51-.12-.4c-.76-1.25-.88-1.4-1.92-2.28Zm-49.3 19.42.54-.04.22 2.05c-1.12 1.75.07 4.81-.7 5.86l-.15-.18c.15-1.5.09-5.96.1-7.69Z" class="cls-5"/><path d="m482.32 58.22 1.05-.44c.59.6.33.24.56 1.4-.14.5-.19 1.37-.24 1.94l-.3-.02zm-8.38 8.31c.79-1.68-.14-3.11.67-4.84.09 1.95.17 3.72.16 5.69l-.24.22z" class="cls-4"/><path d="m513.24 43.16-1.12-1.65.06-.34 2.05.81c-.57.57-.56.47-.98 1.18Z" class="cls-9"/><path d="M481.71 61.29c.18 1.36.53 3.06.34 4.32-.51-.7-.49-.67-.82-1.53.41-1.03.36-1.61.48-2.79" class="cls-4"/><path d="M471.14 62.32c0-1.27.07-2 .18-3.26l.21.12.47 2.11-.87 1.04Z" class="cls-9"/><path d="M486.59 57.57c-.28-1.34-.27-1.42-.3-2.81l.24-.13.57 1.53z" class="cls-5"/><path d="m475.1 58.13.46-1.05c.36 1.2.23 1.94.23 3.28z" class="cls-1"/><path d="m492.16 50.55 1.24.92.37.7-.69.43-.92-2.04Z" class="cls-10"/><path d="M471.58 67.26c.14 1.06.37 2.01.14 3.01l-.41-.72.27-2.3Z" class="cls-4"/><path d="m494.52 51.22-.68-1.33.17-.34 1 .75-.49.91Z" class="cls-5"/><path d="m492.16 50.55.11-.34c.56.52.68.6 1.12 1.26l-1.24-.92Z" class="cls-8"/><path d="m465.38 61.37.52-1.69v2.11z" class="cls-10"/><path d="m467.86 59.66.2-1.05.27.05.07.95-.54.04Z" class="cls-7"/><path d="M523.35 35.87c.35 0 .55.15.86.31l-.12.71c-.56.71-.98 1.21-1.69 1.68-.35-.48-.72-.88-.87-1.52-.02-.11-.02-.21-.04-.32v.39l.07-.5 1.47-.2.31-.55Z" class="cls-8"/><path d="M377.78 43.11c13.42 5.71 19.28 24.56 18.24 41.16-15.31-.89-30.92-3.6-46.25-4.82-2.43-.19-5.15-.46-7.57-.83l.1-.81-.38-.39-1.11-.56.32-1.2c1.11.45 2.83 1.28 3.93 1.28-.48-.67-.48-.62-1.12-1.04l-.37-.26c-.82-.72-.69-.32-1.01-1.23 1.3.12 5.97 2.36 7.53 3.02-1.08-1.13-2.17-2.23-3.28-3.3l.42-.67 3.34 2.12.36-.92-2.44-3.22c3.74 2.75 5.64 3.83 9.69 5.76-2.68-2.59-3.92-3.7-6.03-7 3.89 2.93 6.07 2.85 9.33 4.99l.54-.5c-.98-1.01-2.17-2.07-3.2-3.04l.31-1.14c2.98 1.33 5.51 2.35 8.28 4.32l.65-.51a84 84 0 0 1-3.64-4.47l.1-.94c3.19 2.32 7.12 3.4 10.57 5.07 2.56 1.24 4.88 3.03 7.22 4.83-2.9-3.65-12.18-13.76-13.72-16.56 6.79 2.3 5.99 4.49 10.81 8.63 1.77 1.52 5.69 2.79 8.85 5.34l.71-.49c-1.92-2.53-5.13-5.74-6.53-8.1-1.22-2.05-2.51-5.58-3.93-8.2 4.18 2.3 7.13 4.82 10.94 7.92-3.75-5.65-6.99-10.02-10.86-15.37 3.03 1.31 5 2.8 7.72 4.92l.47-.58c-3.38-4.92-6.26-7.68-8.99-13.16Z" class="cls-3"/><path d="M350.93 74.64c.44.56 1.47 1.63 1.5 2.23-.79-.49-1.11-.68-1.86-1.31zm38.02 1.05 1.44 1.8-.41.4c-.36-.41-1.32-1.3-1.74-1.71z" class="cls-5"/><path d="M368.06 74.29c.43.39 1.3 1.23 1.72 1.54l-.15.37-2.21-1.4.65-.51Zm-6.04.37 1 1.13c-.62.15-.83-.19-1.54-.63zm24.74-18.39.76 1.23c-.6.15-.42-.01-1.24-.65l.47-.58Z" class="cls-10"/><path d="m390.39 77.49.82 1.1-.03.34c-.68-.49-.61-.4-1.2-1.04z" class="cls-8"/><path d="m369.77 75.83.73.59-.04.38c-.67-.28-.4-.06-.84-.6z" class="cls-4"/><path d="M393.36 153.96c2.67-3.73 4.58-7.74 7.99-10.25-.24 1.19-.93 4.71-1.34 5.63-1 2.23-4.14 4.94-4.95 7.33-.86 2.54-.29 5.22-1.87 7.75-1.43 2.29-3.91 3.75-4.99 6.14-1.26 2.8-1.32 6.22-2.84 8.85-1.73 3-4.76 4.32-5.22 8.29-.14 1.21-.97 3.03-1.89 3.57.19-5.85.28-6.83 2.35-12.07-3.41 3.96-4.06 7.69-8.69 12.24 2.09-4.07 4.13-9.61 5.76-14.06-2.26 3.22-6.77 10.02-10.04 11.43 0-.98 3.22-5.75 4.12-7.61l-.56-.6c-1.74 1.96-6.95 6.84-8.98 7.32.82-2.52 3.39-3.67 4.5-5.26 1.44-1.89 2.57-5.21 3.88-7.03 2.49-3.45 4.25-6.48 5.88-10.68.57-1.48 2.98-4.52 3.43-5.88 1.54-4.73.26-5.68 3.53-9.51l.84.46c-1.63 4.06-.18 4.65-1.59 8.55l.87.46c1.84-3.15 5.89-10.19 7.05-13.4-.28 5.54-.65 6.16-2.57 11.09 3.15-4.1 5.04-8.93 8.07-11.83-.75 3.93-1.31 5.42-2.76 9.04Z" class="cls-3"/><path d="M371.2 180.61c.53-.77.84-1.52 1.47-1.73-.33 1.26-.37 1.28-.92 2.34l-.56-.6Zm11.5-22.02.87.46c-.41.66-.67.93-1.16 1.5l-.17-.31z" class="cls-5"/><path d="M543.37 111.23c-2.26 2.66-10.94 9.9-13.83 12.51-9.95 8.96-20.22 17.69-30.11 26.75-.78-.77-1.8-1.71-2.51-2.53l-.02-.25c.57.2.63.33 1.21.2-.03-1.12-1.03-2.14-1.73-3.06 1.63 1.24 3.31 2.54 4.95 3.73-1.48-3.02-2.64-5.25-3.73-8.55 2.33 2.32 3.1 2.87 5.97 4.18-1.58-2.09-2.51-3.29-3.69-5.83 2.06 1.77 2.84 2.34 5.3 3.4-1.02-1.5-1.23-1.3-1.39-2.91l.06.02c.03-1.1-.13-.81.25-1.56.85.53.99.75 1.91.9l-.42-1.1c1.67-.5 1.38.96 2.49-.35l-.25.54h-.35l.59-.52.11-1.9c.45.61.69.98 1.09 1.65l.23-.36-.14-.67c.47-.37.57-.45 1.08-.75v-1.97l.82 1.48c.38-.87.27-1.01.28-2.09.75.37.56.35 1.18 1.17.7-.79.94-.93 1.16-2.09.87.37.81.44 1.4 1.36.3-1.13.24-2.31.25-3.52 2.85-.02 2.25-.09 3.9-3.02.2.51.4 1.03.58 1.56.61-.3 1.23-2.51 1.33-3.26-.28-.76-.3-.96-.48-1.78-.52-.4-1.21-1.11-1.71-1.59-.95-.51-1.82-1.56-2.74-1.69.69 1.51 1.05 1.59.8 2.8-.87.15-1.86-2.58-2.8-2.62.38 1.17.77 1.63.49 2.49l-.45.05c-.72-.88-.88-1.05-1.73-1.75l-.21-.17c.64 1.31.76 1.07.68 2.3l-1.11.53c-.33.92-.12 1.72 0 2.75l-.14-.61-.35-.07-.5-1.17c-.53-.89-.86-1.37-1.46-2.2.15.89.24 1.52.34 2.43l-.86-1.01c.22 1.12.33 1.34.24 2.5-.64-.5-.9-1.54-1.33-2.54l-.64-.72c-.07 1.11-.07.7.23 1.84l-.53.14-.27-.69c-.06.66-.13 1.32-.21 1.97l-1.93-4.94c.16 1.6.4 3.16.24 4.75-.31-.87-.41-1.1-.83-1.9l-.31 1.69-.13-.04-.45-1.79-.34.2c-.1 1.29-.1 1.76-.05 3.05h-.24l-.18-.26-.25-.57c-.33.19-.18.12-.45.22-.49-1.25-.46-1.79-.59-3.21-.36 1.81-.69 3.42-.95 5.26-.26-1.14-.42-2.57-1.02-3.22l-.48.85c-.24-.62-.33-.84-.52-1.49l-.89.38-.34 2.47-.79.16-.57-5.8c-.5 3.52-.67 5.66-.8 9.22-.95-2.44-1.33-4.09-1.74-6.7l-.81-.72-.43 1.91-.21.02c-.37-1.73-.29-4.61-.21-6.43 16.99-1.35 35.07-4.65 52.06-7.48Z" class="cls-3"/><path d="M522.56 120.91c-.48-.78-.65-.95-.92-1.87 2.26.7 1.42.82 3.34-.07l.44 1.37c-.33.91-.57 1.36-1.03 2.18l-.38.46-.4-.73c-.26-.44-.56-.8-.87-1.2z" class="cls-9"/><path d="m511.07 123.85.42-1c-.23-1.34-.54-2.21.26-3.2l.74.47c.64 1.31.76 1.07.68 2.3l-1.11.53c-.33.92-.12 1.72 0 2.75l-.14-.61-.35-.07z" class="cls-4"/><path d="m524.98 118.97.89.15.27-.49c.95-.52.5-.5 1.4-.26.37 1.13.4.61.16 1.61-.59.33-.29.28-.91.17l-.18.28c-.79 1.17-1.03 1.59-2.22 2.09.46-.82.69-1.27 1.03-2.18z" class="cls-8"/><path d="m519.25 120.14-.38-.68c.93.25 1.35.8 2.18 1.51 1.03 1.77 1.24 1.96 1 4.17-.17-.3-.49-.53-.75-.77-.28-.76-.3-.96-.48-1.78-.52-.4-1.21-1.11-1.71-1.59l.13-.87Z" class="cls-9"/><path d="M519.25 120.14c.99 1 1.11 1.03 1.58 2.45-.52-.4-1.21-1.11-1.71-1.59l.13-.87Z" class="cls-2"/><path d="M521.06 120.96c0-.82-.12-.49.22-1.04l1.28.98.18.14c.31.4.61.76.87 1.2l-.3.38-.11 1.07-.4.2c-.4.57-.38.53-.58 1.24h-.17c.23-2.21.03-2.4-1-4.17Z" class="cls-1"/><path d="M522.74 121.05c.31.4.61.76.87 1.2l-.3.38z" class="cls-6"/><path d="m501.07 122.78.18-.55c.58 1.35.17 1 1.07 1.42.1 1.19.22 1.53.04 2.69l-.25-.57c-.33.19-.18.12-.45.22-.49-1.25-.46-1.79-.59-3.21" class="cls-8"/><path d="m508 123.03.81-.53.28.57c.22 1.12.33 1.34.24 2.5-.64-.5-.9-1.54-1.33-2.54" class="cls-4"/><path d="m502.32 123.66.41-1.98.23-.16.2 1.83-.34.2c-.1 1.29-.1 1.76-.05 3.05h-.24l-.18-.26c.18-1.16.06-1.5-.04-2.69Z" class="cls-10"/><path d="m492.15 123.2.38-1.53.25-.1c.09.89.16 1.45.17 2.35l-.81-.72Zm5.06 1.36c.36-.99.39-1.4.99-2.07.08.88.13.87-.1 1.69z" class="cls-5"/><path d="M418.99 141.14c.81 5.73.27 6.32-1.65 11.94 1.48-2.06 2.88-4.27 4.27-6.43-.79 3.13-1.59 5.7-2.56 8.73l.56.33c.59-.94 1.15-2.12 2.01-2.45 1.16 2.1-2.59 10.02-3.61 12.01.68-.79 5.86-6.82 6.48-6.9l.32.7c-.54 1.55-1.71 2.64-2.09 3.76-1.48 4.36-3.26 8.14-5.31 12.1-.67 1.29-.78 3.99-1.38 5.43-2.84 5.69-5.23 10.24-9.41 14.31l-.34-.19c-.51-2.77.31-4.27 1.18-7.01l-.38-1.2c-1.66 2.28-5.29 8.12-6.64 9.48l-.12-.31c.31-2.37 2.08-4.15 2.8-6.52.9-2.97 2-5.92 3.08-8.79-3.82 4.35-4.65 7.89-9.49 11.06 2.2-3.29 2.62-5 3.3-8.98.65-.87 3.37-3.78 3.63-4.37.79-1.48 1.75-6.17 2.67-7.35 4.1-5.27 5.48-8.19 6.94-15.2.23-1.11 3.48-5.12 3.95-6.66.74-2.41 1.16-5 1.79-7.5Z" class="cls-3"/><path d="m407.08 186.27.86-1.26.21.19c-.23 1.18-.24 1.2-.69 2.27zm11.42-29.9.55-.99.56.33-.54 1.1-.56-.44Z" class="cls-5"/><path d="m418.5 156.37.56.44-.6.67-.31-.1z" class="cls-2"/><path d="M452.87 159.56c-.83-.22-1.31-.22-1.98-.77.74-.38 1.02-.41 1.81-.59l-1.84-.77 1.38-.49v-.23c-1.61-.81-2.06-2.22-1.81-4.31l.23-.27c7.68 7.19 17.16 22.3 19.06 34.26-3.47 2.66-21.05 16.37-23.83 16.31l-.27-.45c.33-1.26 1.03-1.83 1.1-2.09.54-.27.8-.4 1.29-.8l.27.04c-.07-.16-.63-.37-.82-.46l.5-.48.08-1.16-.05-.2 2.93-.37.98.04-.13-.74c-1.13-.14-1.36-.12-2.39-.64l.26-.41c1.73-.6 3.59-.68 5.39-.85l-3.83-1.23c2.24-.77 3.29-1.07 5.58-1.17.57-.4.36-.11.61-.88l-.89-.28c-.48-.12-.8-.26-1.27-.44.41-.52.95-.45 1.66-.61 1.41-.25 2.83-.44 4.25-.56l.52-.72c-2.4-.23-4.35-.87-6.68-1.6a20.6 20.6 0 0 1 6.43-1.58l.12-.8c-2.1-.18-3.22-.57-5.26-1.21 2.09-.88 3.53-1.46 5.79-1.4l-.31-.85c-1.74-.04-5.35-.4-6.87-1.35l.24-.35c2.22-.75 3.62-.81 5.85-.57l.97-.64c-1.28-.23-6.98-1.97-7.69-3.13l.56-.5c1.84-.46 3.55.43 4.65-.57-1.25-.61-3.14-1.31-4.45-1.84l-1.03-.4.21-.46c1.35.02 2.66-.06 3.97.34l1.02.14v-.62c-1.4-.51-5.46-1.73-6.4-2.69l.38.38.35-.56c.96-.04 2.49.26 3.49.42l.15-.76c-1.4-.62-2.8-1.34-4.18-2.03l.03-.29c1.05-.42 1.64-.16 2.74-.82l-3.94-1.31-.26-.03-.15-.28c.99-.37 1.68-.28 2.71-.28l.4-.53a46 46 0 0 1-2.95-1.31l.07-.22c.82-.4.97-.25 1.25-.97Z" class="cls-3"/><path d="M459.45 173.7c1.21.47 1.59.65 2.71 1.38-2.62-.46-4.73-.63-7.36-.81 1.84-.46 3.55.43 4.65-.57" class="cls-5"/><path d="m448.04 197.3-.05-.2 2.93-.37-.28 1.25-.95-.22c-.47-.06-1.17-.31-1.65-.45Z" class="cls-4"/><path d="m455.74 164.5 1.15.44.04.29c-1.31.06-2.61.09-3.92.08 1.05-.42 1.64-.16 2.74-.82Z" class="cls-10"/><path d="M454.18 171c1.35.02 2.66-.06 3.97.34-1.02.02-2.34-.14-3.15.52l-1.03-.4z" class="cls-4"/><path d="m452.87 159.56 1.44.44.07.28c-1.06.17-1.68.22-2.76.26.82-.4.97-.25 1.25-.97Z" class="cls-7"/><path d="M448.04 197.3c.48.14 1.18.39 1.65.45l.31.73h-2.03l.08-1.18Z" class="cls-5"/><path d="m457.37 190.86 1.47.27-.25.78-1.83-.17c.57-.4.36-.11.61-.88" class="cls-2"/><path d="M457.15 167.64c.72.25 1.27.25 1.67.82-.94.15-.89.16-1.82-.06z" class="cls-7"/><path d="m451.8 163.19-.26-.03-.15-.28c.99-.37 1.68-.28 2.71-.28v.34c-.69.07-1.64.14-2.3.25" class="cls-6"/><path d="M456.49 190.57c-.48-.12-.8-.26-1.27-.44.41-.52.95-.45 1.66-.61z" class="cls-4"/><path d="m461.93 177.9.88.28.11.37c-1.01.23-.95.21-1.97-.01l.97-.64Z" class="cls-8"/><path d="M461.65 188.24c.65.09 1.09-.02 1.42.43-.93.27-.99.28-1.94.29z" class="cls-7"/><path d="M461.52 184.27c.69.15 1.44.15 1.86.63-.95.21-1.02.22-1.98.17z" class="cls-1"/><path d="M459.16 170.86c.89.24 1.01.06 1.44.74-.76.17-.7.17-1.44-.12z" class="cls-6"/><path d="m454.5 162.07 1.26.53-.19.28-1.48.05v-.34l.41-.53Z" class="cls-10"/><path d="m451.76 196.03 1.26.42c-.53.19-.59.23-1.14.32l-.13-.74Zm9.98-15.22 1.31.37-.02.29-.98.19z" class="cls-2"/><path d="m458.84 191.12.94.37c-.65.33-.46.26-1.18.41l.25-.78Z" class="cls-8"/><path d="m450.63 197.98.06.37-.7.14-.31-.73z" class="cls-7"/><path d="M325.15 185.34c1.44-1.67 2.81-2.56 4.23-4.15 4.47-5.04 8.69-10.61 13.14-15.59 2.08-2.33 2.97-4.8 5.17-5.91l.32.25c-.6 1.51-1.87 2.62-2.71 4.34l.9.41c1.49-1.62 3.04-2.18 4.89-3.08l-1.66 2.88.44.29c2.22-2.49 3.34-3.27 6.07-4.8-1.55 2.53-2.83 3.56-4.07 6.34l1-.11c2.18-2.24 3.62-2.8 6.22-4.07-.49.87-2.93 5.9-3.09 6.05-3.9 3.63-4.05 5.16-5.86 10.62-.45 1.36-4.03 3.42-4.92 4.59-2.43 3.56-1.49 4.53-4.96 7.14l.09-.31c.65-2.35.52-3.45 1.5-5.84l-.88-.41c-.89 1.08-2.58 3.67-3.48 3.76v-.03l-.12.66.11-.56.22.25-.16-.41c1.12-2.67 1.36-3.86 2.02-6.81l-.52-1.69c-1.68 2.19-5.23 6.07-7.29 7.62.14-.3 5.46-9.3 5.48-9.32l-.3-.7c-1.68 1.34-3.14 2.94-4.85 4.32-2.21 1.78-4.52 2.96-6.92 4.27Z" class="cls-3"/><path d="M340.19 178.01c.87-1.03.75-1.22 1.73-1.46v.48c-.68.74-.56.72-1.36 1.2l-.37-.21Z" class="cls-4"/><path d="M340.95 184c.83-.97.75-1.19 1.66-1.38-.19 1.1-.18.85-.78 1.79zm4.34-19.72.9.41c-.42.64-.7.93-1.19 1.5l-.17-.29zm-5.1 13.73.37.21c-.7 1-.88 1.19-1.02 2.63l-.52-1.69z" class="cls-5"/><path d="m351.86 166.33 1-.11-1.33 1.7-.49-.29.83-1.31Z" class="cls-10"/><path d="m351.03 167.63.49.29c-.49.73-.59.8-1.2 1.4l-.1-.28.81-1.4Z" class="cls-8"/><path d="m336.92 176.75.91-.69.21.25c-.27.39-.53.79-.83 1.14l-.3-.7Z" class="cls-10"/><path d="m349.42 164.5.44.29c-.52.71-.6.75-1.24 1.3.03-.7.35-.91.8-1.59" class="cls-2"/><path d="M478.1 132.17c.25-1.11 1.14-1.44 1.91-1.92.39.47.68.65.78 1.13-2.3 1.42-2.71 2.11-4.63 4.36l.45.54c1.49-1.09 2.77-2.2 4.43-2.72-.34 1.63-1.15.49-.64 1.61l1.01-.3c-.3.93-1.25 1.72-1.93 2.44l.49.74c.61-.46 1.42-1.22 2.05-1.33-.55 1.04-.61 1.23-1.34 2.14l.36.1.29.74-2.41 2.29.49.63c1.36-.83 2.74-1.73 4.13-2.47-.71.94-1.86 2.19-1.86 3.28 0 .52-.4.94-.71 1.34l.08.17v.76c-.9.16-1.04.11-1.88.51l1.38.63.98.05.04.28-1.33.7c.31.21.14.15.51.18.96-.15 1.63-.35 2.58-.08l-.25.27-1.05.53.57.69-.11.34c-1.48 1.02-2.54 1.75-4.1 2.6l.61.51c.95-.41 2.34-.72 3.35-1l.15.53c-1.46 1.29-3.11 2.96-4.75 3.63 1.32.23 3.49-.95 3.84-.62-.7.83-2.14 1.24-3.08 1.39l-1.14.68c.78.09 1.35.03 2.13-.02l.29 1.52c-.2.66-.2.41-.96.91v-.09l.95.62.17-.18c-.06.29-.38.6-.59.88l-.13-.59-.02.69-.39.18-2.2 1.19-.3-.06-.16-.89-1.1.74-.37-.71c-2.39.65-4.06 1.55-6.33 2.65l3.71-3.57-2.99 1.61-.27-1.09c.86-.88 2.94-2.83 3.43-3.84l-1.7.5c.77-.95 1.63-1.87 2.45-2.77-3.07 1.86-5.83 3.54-9 5.13l3.19-3.45.19-.31-.87-.51c2.66-1.13 5.26-2.44 7.94-3.47l-.4-.68c-.72.24-2.14.9-2.65.59l1.05-1.08-.09-.28-1.03-.56c1.4-1.43 4.97-3.93 6.74-5.34-1.79.63-4.47 1.53-6.07 2.53-2.55 1.59-4.39 3.06-7.07 4.4 1.12-1.12 2.74-3.24 3.8-4.56-2.08 1.54-3.75 2.83-6 4.02 5.19-6.19 8.1-6.79 14-10.05l-.93-.72-2.16.84-.53-.68 2.5-1.82-.21-.67c-3.4 1.48-4.82 1.79-7.7 4.57-.92-1.44-.96-.82-2.05-1.77 2.82-2.61 7.05-4.24 9.13-6.66-.72.18-1.22.32-1.97.4l1.28-1.27.87-.3c1.05.08 2.23-.72 3.16-1.29Z" class="cls-3"/><path d="m479.2 146.21 1.38.63.98.05.04.28-1.33.7c.31.21.14.15.51.18.96-.15 1.63-.35 2.58-.08l-.25.27-1.05.53c-.96.08-2.16.08-3.04.43-.63-.74-.63-.82-1.41-1.24l.37-.5-.09-.49 1.33-.75Z" class="cls-4"/><path d="m479.2 146.21 1.38.63-2.62.61-.09-.49z" class="cls-9"/><path d="M480.76 148.05c.96-.15 1.63-.35 2.58-.08l-.25.27c-.69.01-1.62-.12-2.33-.19m-3 8.01c1.32.23 3.49-.95 3.84-.62-.7.83-2.14 1.24-3.08 1.39-.61-.1-2.05-.08-2.72-.09.71-.43 1.18-.47 1.96-.68" class="cls-8"/><path d="M478.99 149.19c.88-.36 2.08-.35 3.04-.43l.57.69-.11.34c-1.58-.34-2.59-.23-4.17-.16l.05-.38.61-.05Z" class="cls-2"/><path d="M476.87 159.03c.95-.47 1.73-.97 2.64-1.55l.29 1.52c-1.19.12-1.69.13-2.82.52l-.11-.5Zm-.88-19.02 3.5-2.69.49.74c-1.31.88-2.59 1.35-4 1.95Zm2.11-7.84c.25-1.11 1.14-1.44 1.91-1.92.39.47.68.65.78 1.13-1.31.09-1.44.19-2.7.79Z" class="cls-5"/><path d="m476.17 135.75.45.54c-1.2.76-1.52.99-2.79 1.41.3-.66 1.7-1.49 2.34-1.95" class="cls-2"/><path d="m476.52 153.1 1.88-.71.61.51-2.06.72z" class="cls-1"/><path d="m478.95 142 .49.63c-.59.38-.97.53-1.6.82l-.13-.23 1.24-1.21Z" class="cls-10"/><path d="M478.33 149.62c-.88.3-1.07.47-1.95.2.6-.56 1.13-.45 2-.58z" class="cls-6"/><path d="M477.59 147.95c-.54.03-.8.03-1.33 0 .47-.71.79-.64 1.62-.99l.09.49-.37.5Z" class="cls-8"/><path d="m475.38 138.5 1.01-.71.28.14c-.48.71-.47.72-1.08 1.24z" class="cls-10"/><path d="M474.69 161.69c.89-.17.66-.26 1.47-.03l-1.1.74z" class="cls-5"/><path d="M476.95 153.61c-1 .17-.79.37-1.5-.03l1.07-.49z" class="cls-6"/><path d="m475.77 140.82 1.33-.06.08.3-.48.47-.93-.72Z" class="cls-5"/><path d="m474.04 151.87 1.08-.2.1.3-.78.58z" class="cls-10"/><path d="M479.72 100.41c1.34-.17 2.39-.24 3.74-.28l.57 1.11.61.05 2.1.13.15.25-.47.23-1.3.68.3.69 1.31.04-.19 1.38-.38.31-4.14 2.51.52.67 1.41-.61.2.51-.24-.49.87-.04c-.46.49-.92.96-1.4 1.42.85.13.95 0 1.8-.22-.04.73-2.2 2.91-2.79 3.53l.48.49c1.29-.8 2.45-1.66 3.85-1.99-.36.87-.37.71-1.01 1.42l1.63-.24.05.41c-1.17 1.31-2.18 1.93-3.54 2.89l-.17-.06-.45-.57-1.76 1.56h-.39l-.32-.56c-3.72 1.43-6.28 4.53-9.72 6.86-2.89 1.95-5.68 3.11-8.6 4.94-2.12 1.33-3.4 3.03-5.26 4.51.95-1.5 1.71-2.82 2.87-4.07l-.26-.68c-1.33.75-2.88 1.79-4.2 2.64 5.63-6.8 7.49-5.45 14.19-9.65 1.41-.88 3.98-3.8 5.4-4.93 1.05-.83 2.77-1.62 3.96-2.21l-.5-.76c-2.33.88-4.28 1.68-6.57 2.74 1.34-1.06 3.27-2.41 4.26-3.81v-.18c-2.06-.16-10.18 4.56-12.26 6.36l-.75-.48c1.89-1.63 3.76-3.27 5.63-4.94-2.23 1.1-4.49 2.31-6.7 3.45 5.01-6.16 10.19-4.27 16.37-10.82-1.06.26-3.39 1.05-4.26.74l1.06-1-1.05-.15c1.51-1.3 3.12-1.63 5.03-3.47l.31-.31Z" class="cls-3"/><path d="M482.24 105.62c1.42-.88 3.01-1.59 4.49-2.31l-.19 1.38-.38.31c-1.4.03-2.53.33-3.82 1.04l-.1-.43Z" class="cls-5"/><path d="m484.04 101.24.61.05 2.1.13.15.25-.47.23c-1.37-.09-2.74 0-4.09.24l-.29.06c.32-.47 1.4-.73 2-.96Z" class="cls-8"/><path d="m482.03 107.52.52.67a84 84 0 0 0-4.34 2.58c1.5-1.45 2.16-2.07 3.82-3.25m-1.25 8.11c.94-.58 1.43-1.02 2.47-1.01l-1.76 1.56h-.39l-.32-.56Zm-20.97 11.55 1.23-.69.27.16c-.49.54-.69.78-1.24 1.2l-.26-.68Zm23.08-14.41c-.68.43-.92.51-1.63.81l-.07-.25 1.21-1.04.48.49Zm2.24-10.18.3.69-1.48.36-.13-.5 1.31-.54Z" class="cls-10"/><path d="m478.66 112.28 1.39-.5.15.23-1.03 1.03-.5-.76Z" class="cls-5"/><path d="M483.95 103.63c-.71.23-.82.17-1.57.21l.04-.25 1.41-.47.13.5Zm-1.61 2.42c-.63.44-.62.43-1.33.63.38-.82.31-.51 1.23-1.06z" class="cls-8"/><path d="M358.64 0c-.44.38-.87.77-1.31 1.13-5.92 4.88-12.09 8.24-17.83 13.8-3.73 3.61-5.01 8.96-7.87 11.64-5.51 5.17-10.27 6.7-15.03 13.56 2.43-1.96 4.7-3.81 7.23-5.57l.4.82-2.91 3.66.23.6c4.18-4.45 9.46-7.11 13.3-11.31 3.13-3.52 4.57-9.18 8.18-12.17 6.72-5.55 13.34-10.2 19.48-16.16h-3.86Z" class="cls-3"/><path d="m326.18 32.61.26.57c-.72.7-1.55 1.46-2.22 2.2l-.4-.82 2.36-1.94Z" class="cls-5"/><path d="M326.18 32.61c.81-.66 1.83-1.67 2.74-1.84-.64 1.04-1.58 1.68-2.47 2.41l-.26-.57Z" class="cls-8"/><path d="M101.24 23.74c1.26-1.17 2.08-1.88 3.43-2.92l.32.14-.74 1.12.57.73c-1.08 1.13-.15 1.3-.8 1.43l.07-.45-.04.49 1.83-.95c-.67 2.25-7.18 8.14-9.28 12.41 1.53-1.29 2.67-2.24 4.09-3.72-2.31 3.02-2.79 4.86-4.66 7.98 4.57-3.46 2.49-5.08 8.32-8.07l.3.45-.78 1.38.27 1.08c-1.66.79-2.58 1.68-3.48 3.6l.34.14.24.66c-.42.52-1.34 1.45-1.44 2.02l1.31-.5c-.2.37-.48.91-.7 1.26l.21.82c2.36-2.72 2.83-2.98 5.87-4.29 1.92-3.67 5.69-6.22 9.19-6.23l-.59.76c.63.27 4.49-2 5.46-2.5-5.89 5.62-8.8 2.76-12.88 9.34-2.91 1.13-5.51 2.83-7.97 5.08-3.4 3.11-3.23.37-6.39 1.47.64-.66.96-.75 1.2-1.57-.83-.02-1.09.17-1.63-.33l4.05-3.66a80 80 0 0 1-4.01 2.06l-.06-.39c.39-.95.61-1.46 1.18-2.28-.8-.33-4.28 1.15-5.33 1.52 1.37-.89 2.97-1.79 4.39-2.62l-.51-.74-3.72 1.04c2.31-1.54 4.59-3.16 6.84-4.84-1.74.78-3.59 1.43-5.37 2.1 1.36-1.4 4.23-3.45 5.83-4.67-.5-.69-.73.44-2.04-.39l.39-.83c1.09-.25 1.14-.3 2.09-1.07l1.1-.87c.56-.56.53-.51.83-1.34.96-1.91 1.32-2.43 2.72-3.83Z" class="cls-3"/><path d="M101.24 23.74c1.26-1.17 2.08-1.88 3.43-2.92l.32.14-.74 1.12c-1.03.98-1.43 1.33-2.29 2.5z" class="cls-4"/><path d="m104.25 22.08.57.73c-.96.58-1.91 1.17-2.86 1.77.86-1.17 1.26-1.52 2.29-2.5" class="cls-10"/><path d="m100.4 42.01.21.82c-.73.55-.73.54-1.56.83.08-.67.77-1.08 1.35-1.65" class="cls-2"/><path d="M92.57 38.45c.74-.28 1.22-.65 1.81-.4-.52.5-.73.71-1.29 1.14l-.51-.74Z" class="cls-5"/><path d="m481.49 116.19 1.76-1.56.45.57.17.06c.72.51 1.17.56 1.69 1.09l-.62 1.02.56 1.08c.02.15.09.31.04.45-.71.57-1.59 1.05-1.84 1.96l.11.1c-.38.95-.09.66-.86.98l.02 1.48c-.71.98-2.53 3.7-3.17 4.29-.79.68-1.28 1.13-2.03 1.88-.88.22-.83.32-1.47 1.16-.53-.07-.52 0-.99-.25l-.3.16-.25-.62c-4.43 3.17-10.92 7.07-15.64 10.17.97-1.78 1.17-2.19 2.53-3.6-1.57.01-3.2 1.5-4.65 2.52 1.29-1.65 2.22-2.2 3.82-3.35 5.39-4.6 8.66-4.27 14.04-10.81l-.14-.4-.82.52-.48-.3c.59-.5 1.56-1.53 2.15-2.12l-.32-.83-2.83 2.12-.39-.18-.32-.07.4-.31c1.45-.97 3.65-3.42 5.17-4.54 1.29-.95 2.49-1.71 3.79-2.69h.39Z" class="cls-3"/><path d="m481.49 116.19 1.76-1.56.45.57.17.06c.72.51 1.17.56 1.69 1.09l-.62 1.02c-.83.18-1.85.36-2.65.63l-.5.32-.67-.63-.06-.56.59-.63-.18-.3Z" class="cls-4"/><path d="m483.71 115.2.17.06c.72.51 1.17.56 1.69 1.09-1.11-.2-2.17.24-2.99-.12z" class="cls-5"/><path d="M460.84 135.79c.85-.2 1.19-.28 2.08-.36l-.34.05.38.24-1.29.9c-1.57.01-3.2 1.5-4.65 2.52 1.29-1.65 2.22-2.2 3.82-3.35" class="cls-7"/><path d="M474.75 124.58c2.16-1.66 3.08-2.35 5.58-3.24-1.73 1.57-3.59 2.25-5.45 3.63l-.14-.4Z" class="cls-1"/><path d="M482.3 117.99c.8-.27 1.82-.45 2.65-.63l.56 1.08c.02.15.09.31.04.45-1.15-.37-2.41-.28-3.62-.28l-.13-.3z" class="cls-7"/><path d="M482.3 117.99c.8-.27 1.82-.45 2.65-.63l.56 1.08c-1.07-.14-2.14-.3-3.21-.45m-7.02 3.86c.92-.84 2.12-2.11 3.17-2.43-.49 1.15-1.97 2.41-2.85 3.26zm4.55 1.72 3.14-1.63.02 1.48c-.89.17-1.78.28-2.63.62l-.52-.46Z" class="cls-5"/><path d="M475.75 128.71c.69-.92 1.32-1.98 2.26-2.27l.04.49c-.6.87-1.12 1.48-1.94 2.05z" class="cls-4"/><path d="M480.35 124.04c-.88.42-.98.48-1.96.7.19-.63.78-.76 1.43-1.17l.52.46Z" class="cls-1"/><path d="m475.75 128.71.36.27-.78 1.51-.3.16-.25-.62.97-1.33Z" class="cls-5"/><path d="m478.83 161.42.94.91.32.15c-.73 1.16-1.06 1.35-2.06 2.21l.73.52c1.97-1.07 3.15-1.67 5.19-2.46-1.09 1.21-1.63 1.82-2.89 2.8l.98.55.1.41-.77.08c-1.53 1.77-.96 1.88-3.07 3.24l1.45.1c1.33-.5 2.12-.72 3.49-1.03l-3.73 3 .72.18-.75 1.02c.73.04 1.02-.08 1.74-.26l.11.3c-.77.82-1.16 1.2-1.99 1.92l1.6.5c-.15.63-.03.31-.41.92 1.2 0 2.54-.52 3.74-.9l-3.89 2.11c1.13-.08 2.29-.14 3.41-.24-1.45.68-5.9 3.02-7.2 3.23.34-.77.24-.53.79-1.15-.97.03-2.85 1.03-3.85 1.49 1.65-1.37 2.45-1.97 3.87-3.7l-4.39 1.22c1.72-1.9 1.44-1.64 2.44-4.01l-.11-.28c-.85.25-.96.26-1.74.73l-.08-.44 3.59-2.34c-2.33.88-4.32 1.85-6.78 2.69 1.18-1.32 2.4-2.61 3.63-3.86l-.18-.91-3.89 1.98c1-.93 2.07-1.83 3.1-2.71l.28-1.09a63 63 0 0 1-5.63 3.07c2.25-2.4 4.58-4.69 6.98-6.84.45-.39.5-.65.84-1.26l.85-.7.3.06 2.2-1.19Z" class="cls-3"/><path d="m481.06 165.56.98.55.1.41-.77.08c-1.2.25-2.81.85-4.02 1.26l3.72-2.3Zm-2.23-4.14.94.91c-.94.22-1.88.46-2.81.72l-.33-.44zm-5.05 8.7c.67-.41.99-.7 1.73-.81l.15.33c-.77.83-.83.84-1.7 1.39z" class="cls-5"/><path d="m473.27 168.3 1.67-.59.15.18c-.87.73-1.16.96-2.11 1.5l.28-1.09Z" class="cls-10"/><path d="M478.76 165.22c-.8.32-.96.32-1.8.43l-.07-.3 1.14-.65zm-.46 4.63 1.45.1c-.97.47-1.06.45-2.05.62l-.11-.29z" class="cls-2"/><path d="m476.32 162.55.3.06.33.44c-.54.11-.95.24-1.49.2l.85-.7Z" class="cls-7"/><path d="m353.88 21.57.49.31-4.07 4.36c-6.44 6.21-10.46 7.16-17.07 12.12-1.85 1.39-5.29 6.71-7.25 8.85l-.76-.46c2.14-4.27 2.62-5.06 5.73-8.27l-.47-.7c-1.05.92-2.33 1.74-3.46 2.52 3.68-4.46 5.08-5.57 9.8-8.11 5.86-2.9 8.78-4.72 13.95-9.49l.49.74v.13c1.06-.43 1.72-1.17 2.62-2.01Z" class="cls-3"/><path d="M327.02 40.31c3.68-4.46 5.08-5.57 9.8-8.11l.48.67c-.54.85-2.64 2.24-3.24 2.33l-3.11 3.29-.47-.7c-1.05.92-2.33 1.74-3.46 2.52" class="cls-4"/><path d="M330.48 37.79c1.33-1.13 2.06-1.84 3.58-2.59l-3.11 3.29z" class="cls-5"/><path d="m353.88 21.57.49.31-4.07 4.36-.89-.97.16-.64 1.67-1.06c1.07-.43 1.73-1.17 2.63-2.01Zm-262.25 2.7c.92-1.3 1.19-1.18 1.19-2.46l-.11-.04c-.63-1.91-2.9-2.25-3.93-4.26 1.67-2.03 4.04.35 5.34 1.76.9 0 .47.05 1.38-.59l-.74 2.04.12.32c.97-.79 1.93-1.6 2.88-2.42l.04.19-.59.53.06.54-1.2 1.46c.59-.4 2.41-1.82 2.88-1.72l-.97 1.82c.46-.1.93-.2 1.4-.28-.41 1.27-3.81 2.63-3.72 4.23.88-.3 1.22-.47 2.05-.9-.39.93-.47 1.01-.97 1.87l.09.34c.44-.39.74-.65 1.15-1.09.42.96.18 1.18.54 1.96-.3.82-.27.77-.83 1.34l-1.1.87c-.96.77-1 .82-2.09 1.07-.64.01-1.18.05-1.82.11l1.48-1.5-.83-.2c.19-.68.18-.32-.1-1.08-1.11 0-2.89.72-4.03 1.1 1.61-1.07 3.22-2.12 4.85-3.15-1.3.43-2.12.65-3.45.9l-.17-.28 1.08-.87.18-.55-.25-.68.19-.37Z" class="cls-4"/><path d="M96.38 22.02c-1.53 1.45-3.06 2.97-4.87 3.85l.18-.55-.25-.68.19-.37c1.91-.63 2.95-1.25 4.75-2.25m1.59 3.59c.42.96.18 1.18.54 1.96-.3.82-.27.77-.83 1.34-.35-1.23 0-1.84.29-3.3" class="cls-5"/><path d="M375.4 0c-2.87 2.58-5.6 5.12-6.77 6.45l.43 1.32c-.36.58-.16.42-.51.62-.54 1.43-1.53 4.28-2.26 5.42l.23.56c2.07-2.19 2.87-5.16 5.06-7.28 2.73-2.65 5.33-4.83 7.85-7.1h-4.03ZM197.08 51.23l.31.61c-1.12 1.31-1.91 2.37-2.93 3.77l.45.53.83-.76.25.68c-1.94 2.24-5.87 6.38-8.39 6.72-3.85.51-5.82 5.84-7.76 6.55l-.16-.27c.72-1.77 1.2-2.38 2.2-3.9l-.63-.43-1.22 1.19-.78-.21c3.97-6.24 6.24-3.91 10.86-7.42 1.45-1.1 5.26-5.37 6.97-7.07Z" class="cls-3"/><path d="M181.24 64.74c.75-.51 1.15-1.04 1.81-.91-.49.65-.6.83-1.18 1.34z" class="cls-5"/><path d="m193.89 56.22.23.67c-.59.53-.53.46-1.2.84v-.46z" class="cls-7"/><path d="m193.89 56.22.57-.6.45.53-.79.74z" class="cls-5"/><path d="M226.53 79.87c-2.02 1.94-2.76 3.24-4.47 5.17l.46.31 2.87-2.49c-7.48 10.39-10.17 7.11-17.62 12.47l-1.96 1.39c1.26-1.56 2.64-3.49 4.23-4.4l-.34-.6c-1.56.36-2.91 1.1-4.38 1.82l.76-.71c3.86-3.69 8.32-3.23 12.59-6.31 2.98-2.15 4.49-5.58 7.85-6.65Z" class="cls-3"/><path d="M213.19 90.65c-1.06.61-2.03 1.2-3.14 1.67l-.34-.6 3.49-1.07Z" class="cls-10"/><path d="m222.06 85.04.46.31c-.66.72-.62.69-1.45 1.07l.02-.39.96-.99Z" class="cls-7"/><path d="M173.09 60.41c3.08-3.38 7.13-4.32 10.96-6.4 2.23-1.21 5.77-6.67 6.85-6.53-.28 1.1-1.16 2.29-1.76 3.23l.24.69 1.46-1.43.4.49c-3.29 5.92-7.78 8.43-13.33 10.14l-.21-.81 1.67-.99-.43-.63c-1.87.61-3.97 1.51-5.84 2.25Z" class="cls-3"/><path d="m181.61 56.97.39.5-2.64 1.33-.43-.63c.92-.37 1.77-.78 2.68-1.2m4.65-2.54 2.88-3.72.24.69c-.74.97-2.2 2.19-3.12 3.03" class="cls-2"/><path d="m181.61 56.97.97-.48.21.24-.79.73-.39-.5Z" class="cls-6"/><path d="M347.18 0c-2.13 1.9-4.22 4.1-6.39 6.92.36.52.8 1.24 1.23 1.62 3.56-4.1 6.14-6.48 8.78-8.54zM177.15 40.05c-1.56 2.24-2.01 3.07-3.04 5.64.84-.74 1.67-1.84 2.42-2.75l.36.5c-1.13 1.06-1.72 2.19-2.3 3.83-1.27 2.98-7.4 7.58-10.1 8.98l-.2-.99 3.33-2.65-.17-.58c-4.64 2.6-6.91 3.45-10.93 7.29 3-5.75 10.5-7.77 14.42-11.94 3.01-3.2 1.77-3.87 6.21-7.34Z" class="cls-3"/><path d="m176.54 42.94.36.5c-1.13 1.06-1.72 2.19-2.3 3.83-.72-.56-.86-.08-1.3-.82l.82-.76c.84-.74 1.67-1.84 2.42-2.75" class="cls-4"/><path d="M167.45 52.03c.83-.76 1.55-1.64 2.48-1.78-.52 1.03-1.46 1.77-2.32 2.37l-.17-.58Z" class="cls-7"/><path d="M231.75 96.02c2.95-1.89 4.28-4.54 7.12-6.4-1.37 1.92-2.85 3.66-4.22 5.59l.77-.04c-.82 2.99-8.52 4.86-10.88 6.12-3.3 1.76-6.17 3.82-9.65 4.93 1.61-1.54 2.64-2.42 4.48-3.55l-.98-.71h-.54c2.11-2.48 10.66-4.7 13.91-5.95Z" class="cls-3"/><path d="M231.75 96.02c2.95-1.89 4.28-4.54 7.12-6.4-1.37 1.92-2.85 3.66-4.22 5.59-1.05 1.25-.97 1.59-2.12 1.81-.25-.35-.51-.67-.77-1Z" class="cls-4"/><path d="m218.38 101.96 5.98-1.89c-1.65.9-3.32 1.77-4.99 2.6l-.98-.71Z" class="cls-5"/><path d="M235.44 81.49c-1.68 1.82-1.85 1.67-3.19 4.06l.63.44.26-.11.49.36c-2.77 4.63-7.95 7.05-12.36 9.11-.59-.91 0-.76-.85-1.53-.93.3-1.04.3-2.02.31h-.25c2.26-1.25 8.65-5.05 10.47-6.66 3.79-3.35 1.47-3.62 6.81-6Z" class="cls-3"/><path d="m231.59 86.54.74.19c-.54.64-.73.7-1.4 1.13l-.2-.2.87-1.12Z" class="cls-1"/><path d="m232.25 85.56.63.44-.56.73-.74-.19.66-.98Z" class="cls-5"/><path d="M226.37 72.23c-1.44 1.17-3.07 3.06-4.4 4.51l.86.24c3.09-2.57 3.95-3.08 7.48-4.43-2.98 3.42-7.08 4.27-10.29 8.34-1.55 1.96-7.2 2.96-9.39 3.9l-.41-.66.34-.52c1.35-.52 1.98-.84 2.71-2.26 6.38-2.02 6.23-6.43 13.1-9.12" class="cls-3"/><path d="m221.96 76.73.86.24-3.81 2.76c1.12-1.31 1.69-1.89 2.94-3Z" class="cls-10"/><path d="M421.1 62.56c1.26-1.03 6.67-3.52 8.13-3.29l-1.02.77c.42.37.8.66 1.28.91-.44.68-.33.39-1.31.68-4.42 3.08-7.53 5.05-12.64 5.94-1.26-.2-.15-.88-2.58-1.92 2.56-1.09 5.28-1.86 8.13-3.08Z" class="cls-3"/><path d="M421.1 62.56c1.26-1.03 6.67-3.52 8.13-3.29l-1.02.77c.42.37.8.66 1.28.91-.44.68-.33.39-1.31.68-1.3.28-1.75.36-2.98.91l-.44-.58c-1.08.5-1.9.63-2.58 1.61-.79.59-1.33.75-2.19 1.1-.12-.27-.08-.1-.03-.56.59-.57.78-.72 1.13-1.55Z" class="cls-4"/><path d="M424.77 61.95c1.16-.61 2.31-1.24 3.45-1.91.42.37.8.66 1.28.91-.44.68-.33.39-1.31.68-1.3.28-1.75.36-2.98.91l-.44-.58Z" class="cls-5"/><path d="m424.77 61.95.44.58-3.02 1.03c.68-.98 1.5-1.11 2.58-1.61" class="cls-2"/><path d="M317.66 29.5c2.5-1.52 4.58-2.78 7.18-4.04-2.58 2.82-6.12 5.07-9.11 7.33-3.08 2.33-6.1 4.75-9.07 7.28 1.32-1.74 2.67-3.43 4.06-5.08l-.29-.56q-2.46 2.34-4.95 4.65l-.43-.07c5.94-6.42 8.14-8.87 15.54-12.67-.88 1.05-1.99 2.17-2.93 3.17Z" class="cls-4"/><path d="m310.42 34.42.91-.7.26.19c-.39.54-.43.62-.87 1.07l-.29-.56Z" class="cls-1"/><path d="M162.05 36.48c-2.09 3.77-2.83 4.35-5.86 7.06 1.17-.65 2.57-1.48 3.75-2.04l.35.22-.19-.29.48-.04c-1.51 1.95-11.86 10.33-13.69 10.99.12-1.05 1.56-2.61 2.23-3.25l-.21-.5-1.41.4-.1-.28c1.44-1.95 4.02-3.24 5.91-4.66 3.34-2.52 5.89-4.21 8.73-7.6Z" class="cls-3"/><path d="M148.92 48.62c.85-.85 1.58-1.62 2.65-1.64-.46 1-1.58 1.57-2.45 2.15l-.21-.5Z" class="cls-5"/><path d="M172.9 53.43c2.1-1.31 2.5-2.85 4.32-4.4 1.14-.97 3.87-1.01 4.93-2.08 3.98-4 2.13-4.8 7.1-7.09-2.96 2.85-3.78 5.27-6.33 8.5 1.7-1.38 2.99-2.47 4.59-4.01-2.64 4.92-4.33 5.88-8.98 6.63-1.51 1.89-2.05 2.7-3.94 4.03-.4-.3-1.29-1.18-1.7-1.56Z" class="cls-3"/><path d="M238.38 105.83c.69-.42.93-.71 1.66-.55-.55.6-.91.97-1.5 1.51l-.05.38 1.97-.67.3.62c-4.93 2.44-4.77 5.31-9.05 7.48-1.37.7-4.83 1.17-6.45 1.42 2.05-1.01 4.4-2.08 6.33-3.32-2.03.57-4.1 1.28-6.18 1.29l-.14-.17c3.47-1.95 5.37-1.19 8.41-4.32 1.6-1.72 2.77-2.66 4.69-3.67Z" class="cls-4"/><path d="M238.38 105.83c.69-.42.93-.71 1.66-.55-.55.6-.91.97-1.5 1.51l-.05.38c-.79.76-.88.81-1.72 1.33l-.47-.3c.97-.86 1.68-1.18 2.07-2.37Z" class="cls-2"/><path d="M234.66 110.03c.41-.78 1.04-1.26 1.64-1.83l.47.3c-.55.46-1.55 1.44-2.11 1.53" class="cls-8"/><path d="M203.77 64.13c.5 1.37.13.85 1.12 1.66-3.75 3.13-5.01 3.06-8.9 5.34-1.76 1.03-3.42 4.13-5.86 5.77l-1.01.69c.88-1.43 1.75-2.57 2.72-3.89l-.64-.74c-.26.17-.07.07-.59.15 2.95-5.52 7.81-4.73 13.17-8.98Z" class="cls-3"/><path d="m192.57 71.7.3.51-1.04 1.48-.64-.74 1.37-1.26Z" class="cls-5"/><path d="m192.57 71.7 1.43-1.22.26.11c-.54.72-.74 1.05-1.39 1.62z" class="cls-1"/><path d="M126.49 33.67c-2.6 3.57-3.24 3.59-7.09 4.13-5.04 6.67-5.59 2.87-9.44 6.34l-.73-.38 1.27-1.47v-.26c-.43.08-.8.14-1.23.2 1.41-1.66 3.98-2.11 5.9-2.67 1.16-1.68 1.9-2.93 3.4-4.13 1.06-.2 1.57-.31 2.63-.29l-.38.43.19.58c2.13-.76 3.42-1.4 5.48-2.48" class="cls-3"/><path d="M121.02 36.15c-.83.5-1.37.94-2.29 1 .45-.84 1.31-1.15 2.1-1.58z" class="cls-8"/><path d="m169.28 199.47.24.33.28-.05c-.12 1.44-.25 1.94.36 3.23.4-1.01.47-1.68 1.11-2.13.05 1.48-.27 2.61-.56 4.04.74 2.03 3.51.86 4.21 4.55l-.32.26c-.94-.55-1.29-.86-2.16-1.6.24 1.48.78 3.3-.1 4.43l-.48-.04c-1.85-5.26-2.55-2.58-4.39-4.66.05-1.65.95-4.76 1.38-6.48l.43-1.87Z" class="cls-3"/><path d="m169.28 199.47.24.33.28-.05c-.12 1.44-.25 1.94.36 3.23.4-1.01.47-1.68 1.11-2.13.05 1.48-.27 2.61-.56 4.04l-.44-.22c-.44.25-.43.26-.9.41-.09-1.42-.07-2.43-.52-3.73l.43-1.87Z" class="cls-4"/><path d="m169.51 199.8.28-.05c-.12 1.44-.25 1.94.36 3.23-.11.77.01.42-.38 1.03-.36-1.37-.27-2.75-.27-4.21Z" class="cls-5"/><path d="m371.01 14.7 2.66-2.38.12.6c-5.32 7.41-5.97 8.58-12.61 13.81l-.26-.67.78-.79-.28-.67c-.66.44-.64.47-1.37.62.45-.94 7.42-7.87 8.83-9.45 1.29.12 1.21-.03 2.12-1.07Z" class="cls-4"/><path d="M361.43 24.6c.82-.72 2.01-1.98 2.88-2.17-.82 1.39-1.49 1.84-2.6 2.84z" class="cls-5"/><path d="M123.65 51.59c4.64-8.5 6.68-5.84 12.7-10.2.67-.48.6-.78 1.82-1.42-.36.73-.53.98-.94 1.66.69-.09 1.25-.7 1.9-1.21l.33.48c-4.57 4.91-5.86 3.57-9.94 6.9-2.45 1.99-1.7 4.31-6.72 7.56 2.63-2.9 4.76-6.32 7.17-9.58-1.94 1.55-4.15 3.98-6.32 5.81" class="cls-3"/><path d="M371.64 0h-.92c-.29.49-.56.98-.82 1.49.58-.49 1.16-.98 1.74-1.49" class="cls-4"/><path d="M241.87 95.93c-3.17 2.11-3.65 2.9-6.2 6.07 2.51-1.92 4.41-3.48 7.33-4.25-.99 2.87-10.44 6.33-12.85 8.23-.01-1.97.23-1.5-.58-2.68 2.17-1.86 2.85-1.94 5.38-2.4 2.74-3.37 3.13-3.65 6.93-4.96Z" class="cls-3"/><path d="m358.99 7.87.18.3-1.96 2.04.5.6 1.94-1.08.24.17c-4.16 3.24-10.63 7.98-14.07 11.97l-.12-.93 1.61-2.09-.34-.83c-.54.44-1.39 1.07-1.89 1.52l-.05-.63c1.82-1.74 3.81-3.18 5.79-4.61 2.28-2.05 5.61-4.24 8.18-6.45Z" class="cls-4"/><path d="M345.02 18.92c1.82-1.74 3.81-3.18 5.79-4.61l.12.79c-.54.69-.51.69-1.19 1.12-1.07.59-1.83.93-2.78 1.79-.54.44-1.39 1.07-1.89 1.52l-.05-.63Z" class="cls-8"/><path d="M346.96 18.03c.95-.86 1.71-1.21 2.78-1.79l-2.45 2.62-.34-.83Z" class="cls-5"/><path d="m357.21 10.21.5.6c-.59.41-.93.54-1.56.82l-.15-.27 1.22-1.15Z" class="cls-10"/><path d="M141.21 204.05c-.32-1.14-1-2.46-1.19-3.67-.18-1.15-.18-5.76.67-6.32.5.93.38 2.48.42 3.78l.57.23c.09-1.6.15-1.86.51-3.42l.6-.93c.28.66-.07 2.85-.18 3.8l.13.35c.75 2.06 3.8 6.55 1.17 8.54-.79-.55-.92-1.76-1.15-2.89l-.59.05-.27 1.08-.67-.6Z" class="cls-3"/><path d="m142.19 194.66.6-.93c.28.66-.07 2.85-.18 3.8-.07-1.17-.04-1.78-.42-2.87" class="cls-4"/><path d="m141.11 197.85.57.23-.23 1.14-.24-.05z" class="cls-2"/><path d="m203.24 57.11.32.72c-6.36 8.37-6.31 4.89-12.58 9.03-.74-1.96.23-.78-1.25-2.59 2.13-1.54 4.22-2.24 6.54-3.17l.27 1.02.46.17c.13-.17.44-.56.52-.74.98-.47 1.53-.97 2.42-1.67 1.11-.81 2.24-1.85 3.3-2.78Zm-77.28 143.41c-.16.76-.22.86-.48 1.59-1.8-1.79-2.68-8.5-.8-11.12l.33 1.04.82.14.57-.54c.32.86.11 2.52 0 3.56 1.24 1.82 2.39 4.34 1.5 6.8l-.35.03c-.39-.9-.52-1.24-.81-2.19l-.78.7Z" class="cls-3"/><path d="m125.84 192.17.57-.54c.32.86.11 2.52 0 3.56-.18-1.07-.17-1.21-.58-2.21l.02-.81Z" class="cls-4"/><path d="m125.02 192.03.82.14-.02.81-.02.89-.81.13zm.94 8.49-.05-1.85.22-.25.62 1.39-.78.7Z" class="cls-5"/><path d="m125.8 193.87-.25 1.43-.26-.02-.3-1.28z" class="cls-7"/><path d="M157.66 49.33c3.17-1.91 4.76-3.09 6.77-6.79.63-1.16 2.1-3.65 3.35-3.38-.13 1.02-1.92 3-2.63 4.58l.83.31.45-.39.34.45c-2.27 4.51-5.3 6.02-9.08 7.85.32-1.19.7-1.09.87-2.27l-.89-.35Z" class="cls-3"/><path d="m165.15 43.73.83.31-1.68 1.92-.46-.38z" class="cls-5"/><path d="m163.84 45.58.46.38c-.76.79-.79.82-1.67 1.37.09-.67.71-1.15 1.22-1.75Z" class="cls-7"/><path d="M131.56 196.26c-.14-1.62-.11-1.87.15-3.48l.27-.14.29 1.19 1.23 2.58c0-.89-.04-2.82.56-3.35l.03.96c1.9 3.73 4.16 1.93 2.84 7.64l-.7-.78-.17 1.87-.31-2.21-.39-.3c-.63 2.3-.95 2.7-2.1 4.61.09-2.27.74-4.81-.43-6.64z" class="cls-3"/><path d="M133.49 196.41c0-.89-.04-2.82.56-3.35l.03.96c-.19.97-.21 1.52-.23 2.5l-.27.09zm-1.93-.15c-.14-1.62-.11-1.87.15-3.48l.27-.14.29 1.19c-.59 1.17-.55 1.14-.7 2.43Z" class="cls-4"/><path d="m135.36 200.25.28-1.33.29.08c.13.73.21 1.14.3 1.89l-.17 1.87-.31-2.21z" class="cls-7"/><path d="m188.03 199.86.19.15-.4 1.4c-1.46 4.95.91 6.56.28 10.05-.14.76-.41 1.32-.92 1.75-.58-1.51-.33-5.05-.43-6.86-.42 1.36-.91 2.7-1.37 4.04-.34.54-.39.78-.93 1.02-.24-.45-.25-.43-.43-1.02-.99-3.26.05-7.34 1.25-10.24l-.04 6.22c.69-2.51 1.34-4.51 2.8-6.51" class="cls-3"/><path d="M345.45 36.9c-4.03 5.41-5.71 7.33-11.07 10.94-.47.67-.89 1.22-1.57 1.18-.3-.69-.44-.83-.94-1.3 1.24-1.43 9.11-8.26 10.8-9.52l-.42 1.29c.75-.19 2.45-1.91 3.2-2.59" class="cls-4"/><path d="M337.8 43.86c-.8.88-2.87 3.03-3.41 3.98-.47.67-.89 1.22-1.57 1.18-.3-.69-.44-.83-.94-1.3 2.04-.75 4.12-2.43 5.93-3.86Z" class="cls-9"/><path d="m456.35 73.1.06.15c-1.64 1.08-3.42 1.57-5.14 2.41-4.64 2.27-8.97 4.68-13.78 6.45.86-.62 1.67-1.24 2.47-1.97h-.56l-4 1.54c6.47-4.04 13.79-7.15 20.94-8.58Z" class="cls-4"/><path d="m472.75 99.57-2.13 2.04c.83-.14 1.03-.26 1.81-.59v.25c-3.83 3.71-7.5 5.87-12.08 7.6 1.02-1.23 1.82-2.24 2.94-3.33l.16-.33-.35-.51c3.09-2.07 6.31-3.79 9.64-5.14ZM123.57 40.3c1.86 1.78.81.39 2.33 1.08-2.53 3.89-2.69 4.29-6.62 5.36-1.04 1.4-1.47 2.18-2.84 3.05l-.33-.17c.32-1.22 1.86-3.24 2.77-3.81l-.12-.6c-.73.21-1.45.4-2.19.57l-.23-.31c1.39-1.5 3.15-1.89 4.89-2.2l2.33-2.96Z" class="cls-3"/><path d="M118.77 45.19c.83-.27 1.45-.7 2.03-.35-.91.64-.91.64-1.92.96l-.12-.6Z" class="cls-1"/><path d="M212.48 68.23c2.11-1.4 3.42-2.63 5.36-4.4-3.12 5.49-4 6.2-9.56 7.37-.86.18-2.25.42-3.03.81l-.1-.62.52-.95-.37-.36.05.42c-.61-.81-.25-.6-1.09-.72 1.96-1.18 4.35-1.51 6.52-1.99l-.18 1.1.32.09zm-11.15 130.25.47-1.2.31.09c.17 1.49.18 1.72.14 3.22 1.52 2.91 2.11 3.68.63 6.92l-.43-.29c.02-1.25.1-1.63-.36-2.76-.34 1-.42 1.17-.9 2.09l-.44.02c-1.17-1.62-1.92-6.27-.97-7.97.72.61.64 1.2.98 2.53.18-1.17.27-1.52.57-2.66Z" class="cls-3"/><path d="m202.09 204.47.19-1.15.24.11c.16 1.27.23 3.14.37 4.08l-.43-.29c.02-1.25.1-1.63-.36-2.76Z" class="cls-10"/><path d="M200.76 201.14c.18-1.17.27-1.52.57-2.66 0 1.75.07 2.24-.37 3.86-.29-.73-.21-.33-.21-1.2Z" class="cls-8"/><path d="m201.33 198.48.47-1.2.31.09c.17 1.49.18 1.72.14 3.22-.34-1.6-.07-1.31-.92-2.11" class="cls-4"/><path d="M116.75 193.44c-.4-1.34-.18-2.79.1-4.12l.31-.05.34 1.45h.53l.21-1.14.46.09c-.03 1.52-.07 1.64.32 3.04 1.84 1.51 2.29 5 .77 6.81l-.28-.8-.9-.22c-.18.85-.15.81-.59 1.48l-.3-.32c-.11-2.55.16-4.01-.96-6.23Z" class="cls-3"/><path d="m118.25 189.59.46.09c-.03 1.52-.07 1.64.32 3.04-.59.31-.27.23-.98.04l-.7-1.38.17-.65h.53l.21-1.14Z" class="cls-4"/><path d="M118.04 190.74v2.02l-.69-1.38.17-.65h.53Z" class="cls-2"/><path d="M116.75 193.44c-.4-1.34-.18-2.79.1-4.12l.31-.05.34 1.45-.17.65c-.47.99-.52.94-.59 2.07Z" class="cls-4"/><path d="m118.61 198.52.45-1.5.3-.05c.08.71.14 1.05.16 1.76l-.9-.22Z" class="cls-5"/><path d="M461.4 145.43c-1.09.72-1.36.91-2.52 1.35.65-.91 5.57-4.55 6.75-5.48 1.09.95 1.13.33 2.05 1.77-3.74 3.47-4 4.02-8.37 6 .78-.86 1.6-1.78 2.41-2.59l-.31-1.05Z" class="cls-4"/><path d="m463.27 144.08.23.69-1.79 1.71-.31-1.05z" class="cls-5"/><path d="M463.27 144.08c.87-.64.85-.85 1.73-.88-.33.84-.83 1.08-1.5 1.57z" class="cls-7"/><path d="m479.81 127.71 1.02.42.39.25-1.03 1.41.27-.1-.44.57c-.78.48-1.66.8-1.91 1.92-.93.58-2.1 1.37-3.16 1.29l-.87.3-.25-.56-4.96 3.09-.12-.41c2.12-1.68 4.3-3.33 6.29-5.23l.3-.16c.47.25.45.18.99.25.64-.84.59-.94 1.47-1.16.74-.75 1.24-1.21 2.03-1.88Z" class="cls-4"/><path d="m479.81 127.71 1.02.42c-.95.5-2.07 1.19-3.04 1.46.74-.75 1.24-1.21 2.03-1.88Z" class="cls-5"/><path d="m473.82 133.21.98-.5.32.24-.17.52-.87.3-.25-.56Z" class="cls-10"/><path d="M243.92 110.35c-1.66 2.58-2.56 3.65-4.79 5.61l4.63-2.69c-2.47 3.66-2.89 4.19-6.61 4.92l-.66-.83c-1.14-.49-2.08.31-3.41.41 2.37-2.08 3.66-1.71 5.7-3.08 1.98-1.34 2.74-2.82 5.13-4.34Z" class="cls-4"/><path d="M149.85 203.83c-.31.77-.7 1.39-1.1 2.09l-.25-.09c-.47-2.64-1.27-6.66-1.09-9.31l.42-.11c.59 1.28.71 2.01 1.06 3.44.41-.7.48-1.3.66-2.14v1.81l.81-.09c1.04 1.48 1.05 1.78 1.01 3.85l-.58 1.62-.36.16-.09-1.87c-.08.1-.44.54-.49.64" class="cls-3"/><path d="m149.53 199.51.83-.09c1.04 1.48 1.05 1.78 1.01 3.85l-.58 1.62-.36.16-.09-1.87c-.08.1-.44.54-.49.64l-.44-1.15.24-2.41z" class="cls-3"/><path d="m149.65 200.26.23 1.48c.54.44 1.06.91 1.49 1.53l-.58 1.62-.36.16-.09-1.87c-.08.1-.44.54-.49.64l-.44-1.15z" class="cls-4"/><path d="M149.54 197.7v1.81l.11.75-.24 2.41-.52-2.83c.41-.7.48-1.3.66-2.14Z" class="cls-10"/><path d="m162.3 199.65.46-.09.21 2.18.99-1.47c.34.65.3.64.53 1.38 1.63 1.29 1.42.81 2.14 2.74.19 1.74-.06 2.31-.57 4l-.26.27c-.36-.65-.5-.75-1.05-1.15l-.18.11c-.71-.43-.32-2.46-.76-2.93-.54-.58-1.01-1-1.57-1.77l-.35-.49c.19-.94.29-1.83.41-2.79Z" class="cls-3"/><path d="M166.62 204.39c.19 1.74-.06 2.31-.57 4l-.26.27c-.36-.65-.5-.75-1.05-1.15l.93-2.81c.43-.18.51-.2.94-.31Z" class="cls-4"/><path d="m165.68 204.69.37 3.69-.26.27c-.36-.65-.5-.75-1.05-1.15l.93-2.81Z" class="cls-5"/><path d="m162.3 199.65.46-.09.21 2.18-1.08.7c.19-.94.29-1.83.41-2.79" class="cls-4"/><path d="m220.5 200.08.44-.92.28.18c.56 2.35 1.83 6.55 1.3 8.81l-.27.41c-.54-.72-.47-1.09-.57-2.09l-.75.34-.31.25c-.98-1.41-2.79-4.68-1.21-6.25l.47.8.6-1.52Z" class="cls-3"/><path d="m219.9 201.61.6-1.52c-.03 1.21.07 1.81-.31 2.84-.13-.52-.23-.78-.29-1.31Z" class="cls-2"/><path d="m220.94 206.81.49-1.63.29-.13c.02.64.07.8-.03 1.42z" class="cls-10"/><path d="m110.6 189.97.39-.75c1.08 2.1 2.72 5.74 1.72 8.14l-.33-.27-1.21.18-.22-.08c-.5-1.75-2.38-5.53-1.93-7.22.63.47.54.8.88 1.89l.71-1.9Z" class="cls-3"/><path d="m111.16 197.27.61-2.2.26.13.35 1.89-1.21.18Z" class="cls-5"/><path d="M110.6 189.97c-.03.64-.03 2.62-.3 2.92l-.4-1.02.71-1.9Z" class="cls-10"/><path d="m149.34 39.05-1.94 1.65.57.77c-1.06 1.12-1.31 1.58-2.17 2.98-2.08.93-3.48 1.39-5.18 3.18l-.38-.53c.68-.65.53-.26.75-1.09l-.81-.83c1.7-1.43 2.17-1.52 4.1-2.22l1.8-2.74c1.02-.49 2.19-.82 3.26-1.17" class="cls-3"/><path d="M412.15 56.3c1.94-.99 5.62-1.58 7.76-1.97-1.99 1.23-3.85 1.69-6.01 2.32.49.06 1.12 0 1.37.33-1.38.94-2.2 1.04-3.57 1.69-1.08.59-2.34 1.33-3.42 1.84-.14-1.05-.18-.56.1-1.55l-1.04-.75c1.86-.88 2.89-1.35 4.82-1.92Z" class="cls-4"/><path d="M407.34 58.22c1.86-.88 2.89-1.35 4.82-1.92l.07.46-.91.53-.1.5.5.89c-1.08.59-2.34 1.33-3.42 1.84-.14-1.05-.18-.56.1-1.55l-1.04-.75ZM178.24 202.2c1.9 2.19 3.36 4.06 2.57 7.72l-.62.1.51.27-.44.1-.03.23c-.21-1.03-.13-1.25-.03-2.3l-.98-.79c-.59 1.45-1.39 2.71-2.17 4.03.2-2.06.44-3.7.29-5.77.5-1.82.54-1.1.9-3.59" class="cls-3"/><path d="m179.22 207.53.24-1.44.25.04c.21.82.36 1.34.48 2.19l-.98-.79Z" class="cls-9"/><path d="m104.35 31.91.41-.46c1.26-1.43 1.58-3.07 3.54-3.56-.15.17-.57.5-.76.65l.36.45c-.81 1.3-1.47 2.13-2.37 3.31 3.13-2.86 4.46-4.44 8.43-4.99-2.14 1.34-3.38 1.97-5.64 2.98-1.32 3-1.71 3.1-4.17 4.52l-.27-1.08.78-1.38-.3-.45Z" class="cls-4"/><path d="m194.4 199.91.21-1.24.29-.09c.36 1.76.3 1.99.19 3.85l.16.76c-.19.42-.23.7-.49.89-.4.94-.95 2.34-1.4 3.22-.26.55-.38.67-.72 1.15-.42-.77-.24-1.39-.23-2.55-.31-2.25-.52-4.47.5-6.42.72.6.31 1.35.93 2.85l.55-2.41Z" class="cls-3"/><path d="m194.4 199.91.21-1.24.29-.09c.36 1.76.3 1.99.19 3.85-.23-1.12-.35-1.48-.69-2.52m-1.98 5.99c.26.39.67 1.06.95 1.4-.26.55-.38.67-.72 1.15-.42-.77-.24-1.39-.23-2.55" class="cls-4"/><path d="M214.53 74.19c.12.84.08.79-.19 1.59l.3.87c-2.25 1.2-4.71 2.39-7.09 3.13l-.11-.3c.26-.37.15-.33.21-1.02a8 8 0 0 1-1.56-.48c3.23-1.54 4.96-1.51 8.43-3.79Zm.26 122.1c.4 2.66-.36 4.53 1.42 6.1l-.94.7-.05.63c-.16 1.25-.13 1.25-.6 2.45l-.36-.13c-.97-2.76-1.87-2.34-2.39-4.23.02-1.26.26-1.57.77-2.65h.35c.28.82.5 1.43.83 2.21.3-1.7.62-3.4.96-5.08Zm-59.54 5.27c-.17-1.37-.29-2.7.25-3.92.57.74.59 1.87.79 3.03.22-1.05.19-1.78.73-2.25 1 1.02 1.86 5.62 1.52 7.13l-.38.2c-.23-.69-.34-1.04-.5-1.75l-.71.19-.1.24-.3.08c-.53-.95-.88-1.9-1.29-2.94Z" class="cls-3"/><path d="M155.25 201.56c-.17-1.37-.29-2.7.25-3.92.57.74.59 1.87.79 3.03-.61.33-.59.29-1.04.9Z" class="cls-4"/><path d="M157.23 202.76h.39l.03 1.23-.71.19z" class="cls-10"/><path d="M229.56 103.3c.81 1.18.57.71.58 2.68-1.98 1.98-3.32 2.56-5.63 3.64l-.13-.46-.17-.07-.39-.89-.19-.16v-.29l1.29-.65c1.75-.76 3.21-2.36 4.64-3.8" class="cls-4"/><path d="m227.02 106.84.17.52c-.88.57-1.93 1.3-2.82 1.79l-.17-.07-.39-.89-.19-.16v-.29l1.29-.65-.2.77 2.3-1.03Z" class="cls-5"/><path d="m223.82 108.2-.19-.16v-.29l1.29-.65-.2.77zm3.2-1.36c.61-.4 1.56-1.23 2.03-1.06-.84.95-.83.95-1.86 1.58z" class="cls-2"/><path d="M182.93 71.58c2.26-2.27 4.57-4.94 6.8-7.31 1.48 1.81.5.63 1.25 2.59-1.9 1.99-3.62 3.48-5.64 5.25.91-1.4 1.36-2.21 2.49-3.35l-.24-.62c-1.59 1.32-2.99 2.29-4.67 3.45Z" class="cls-4"/><path d="m187.59 68.13 1.09-.94.26.11c-.48.8-.48.85-1.11 1.46l-.24-.62Z" class="cls-1"/><path d="M387.83 0c-2.73 2.6-4.92 6.85-7.01 10.13.04.14.05.33.15.41 2.91-2.78 5.95-6.26 7.78-10.27v-.28h-.93Z" class="cls-3"/><path d="M218.16 94.15h.25c.98 0 1.09 0 2.02-.3.85.77.26.61.85 1.53-1.55.97-5.14 2.06-6.93 2.65l4.14-3.18c-3.05 1.47-5.46 2.64-8.63 3.63 2.49-1.5 5.64-3.42 8.31-4.33Zm120.61-18.92 2.37.42-.32 1.2 1.11.56.38.39-.1.81c-2.03-.09-7.79-.59-9.59-1.11.65-.56 1.42-.42 2.35-.5 1.21-.98 2.85.29 4.39-.78l-.85-.33.28-.67Z" class="cls-4"/><path d="m338.77 75.23 2.37.42-.32 1.2 1.11.56c-2.31-.26-4.64-.31-6.96-.41 1.21-.98 2.85.29 4.39-.78l-.85-.33.28-.67Z" class="cls-9"/><path d="m338.77 75.23 2.37.42-.32 1.2c-.52-.31-.92-.42-1.47-.62l-.85-.33.28-.67Z" class="cls-4"/><path d="m464.03 92.86.35.17-.07.28.75.27c-.02.97-.24 1.42-.75 2.17-.97 1.41-2.36 3.01-3.89 3.13l-.23-.5-3.5 1.66c1.49-1.27 3-2.54 4.39-3.98 1.04-1.08 1.8-2.25 2.95-3.19Z" class="cls-3"/><path d="M200.13 82.32c2.02-2.18 3.37-3.48 5.96-4.34.52.21 1.02.38 1.56.48-.06.69.05.65-.21 1.02l.11.3c-3.11 1.84-4.26 3.05-7.05 5.5.84-1.14 1.76-2.47 2.65-3.53l.42-.44c.49-.44.91-.86 1.38-1.32l-.27-.14c-1.52.8-3.04 1.63-4.55 2.48ZM123.57 40.3c1.9-1.43 3-2.41 5.22-1.54h-.37c2.5.49 2.33-.13 4.37-.14-2.38 1.21-5.31 1.82-6.89 2.77-1.53-.69-.47.7-2.33-1.08Zm77.49 34.32c-.17.11-.85.45-1.04.55.53-1.41 3.21-4.34 4.24-5.37.84.12.48-.09 1.09.72l-.05-.42.37.36-.52.95.1.62c-.57.74-2.8 3.4-3.51 3.59l-.68-.99Z" class="cls-4"/><path d="m201.06 74.62 3.7-3.56c-.75 1.05-2.58 3.43-3.03 4.55l-.68-.99Z" class="cls-5"/><path d="M449.49 83.65c1.55-.92 4.41-2.76 5.92-3.33l.27.23.05.52c.74-.38 1.36-.68 2.11-1.01l.13.15c-1.19 1.05-7.5 5.41-8.68 5.29l1.41-1.52c-.18.06-.49.14-.64.25l-.57-.57Z" class="cls-4"/><path d="m226.72 200.88.31-.1c.72 1.62.2 3.44-.19 5.14l-.5-.04.22.6.18-.18-.12.45-.17-.69-.26-.17-.78.95-.34-.05c-.66-1.84-.85-3.9.3-5.49l1.35-.41Z" class="cls-3"/><path d="m225.37 201.29 1.35-.41-.36 1.92-.56-.11-.43-1.39Z" class="cls-5"/><path d="m140.19 45.17.81.83c-.22.83-.08.44-.75 1.09l.38.53c-.56 1.36-2.91 3.34-3.95 4.26 1-1.6 2.17-3.27 3.21-4.85-3.38 3.43-4.47 3.86-8.6 5.41 4.07-3.61 4.23-1.35 8.9-7.27m56.08 15.94c3.5-3.22 4.98-6.58 8.91-9.02l-.28.29c-2.31 2.41-3.2 4.61-5.24 6.92l.29.6c-.89.7-1.44 1.19-2.42 1.67-.08.18-.39.56-.52.74l-.46-.17-.27-1.02Z" class="cls-4"/><path d="m199.65 59.29.29.6c-.89.7-1.44 1.19-2.42 1.67.49-.73 1.5-1.65 2.14-2.27Z" class="cls-1"/><path d="M207.79 203.03c0 1.47.34 2.72-.09 3.92-2.06-2.34-3.06-5.7-1.05-8.65.45.85.55 2.23.71 3.32l.49.76-.06.66Z" class="cls-3"/><path d="M452.51 7.62c4.44-2.13 9.35-4.62 13.63-7.21l-.37-.34c-5.12 2.18-8.74 3.67-13.26 7.55M217.72 70.31c.82.18.52-.08 1 .62l.24-.14.33.32c-1.44 1.96-2.88 4.1-4.65 5.55l-.3-.87c.27-.8.3-.75.19-1.59.89-1.26 2.2-2.7 3.2-3.88Z" class="cls-4"/><path d="M217.72 70.31c.82.18.52-.08 1 .62-1.15 1.48-2.92 3.26-4.22 4.63 1.16-1.69 2.36-3.3 3.21-5.25Z" class="cls-5"/><path d="M408.1 68.46c1.52-1.2 3.14-2.22 4.87-2.82 2.43 1.05 1.32 1.72 2.58 1.92-2.26.47-4.09 1.12-6.3 1.88l3.32-2.63c-1.48.63-2.97 1.13-4.47 1.65m-175.01 49.31c1.33-.09 2.26-.9 3.41-.41l.66.83c-2.06.89-4.19 2.39-6.14 3.66.8-1.15 1.98-2.31 2.93-3.32-1.65.94-3.35 1.79-5.03 2.65 1.38-1.15 2.78-2.29 4.17-3.41m170-57.47c1.46-.59 2.83-1.34 4.25-2.08l1.04.75c-.28.99-.24.49-.1 1.55-1.43.98-3.96 1.6-5.61 2.08 1.52-1.47 2.6-1.99 4.34-2.98-.98.27-2.5.61-3.37 1.13l-.55-.46Z" class="cls-4"/><path d="M105.71 189.72c-.34.92-.17.65-.72 1.37-.46-.49-.86-1.06-1.19-1.69-.51-.95-.87-1.97-.67-3.11.39.93.28 1.08.81 1.45.16-.91.08-1.29.52-1.79q.96 1.305 1.89 2.64c.21 1.28.29 1.47 0 2.77-.52-.39-.42-.68-.66-1.64Z" class="cls-3"/><path d="M106.36 188.59c.21 1.28.29 1.47 0 2.77-.52-.39-.42-.68-.66-1.64.1-.59.22-.54.65-1.13Z" class="cls-7"/><path d="M209.01 195.33c.15 3.53-.7 5.82.66 8.59.36.72.41 1.63.17 2.46-1.3-1.16-.99-2.91-2.06-3.35l.06-.66-.49-.76c.73-2.02.95-4.05 1.65-6.28ZM167.3 57.26c2.07-1.95 3.04-2.86 5.6-3.83.41.39 1.3 1.27 1.7 1.56-1.3.69-3.24 1.45-4.62 2.05.72-.8.6-.51 1.03-1.49-1.16.03-2.6 1.06-3.71 1.71m10.41 143.53c.33-.78.36-.82.81-1.49.04 1.35-.02 1.55-.28 2.9-.36 2.49-.41 1.77-.9 3.59-1.24-.58-2.12-3.47-1.44-4.9.79.58.74.96 1.24 2.16l.56-2.25Z" class="cls-4"/><path d="m177.15 203.05.56-2.25v2.84l-.18.22z" class="cls-5"/><path d="M210.78 67.8c2.4-1.63 4.95-7.47 6.63-7.64l-.06.5c-1.52 1.95-3.77 5.8-4.96 6.89l.08.67-1.56.75-.32-.09.18-1.1Z" class="cls-4"/><path d="m212.39 67.56.08.67-1.56.75c.61-.95.59-.87 1.48-1.43Z" class="cls-8"/><path d="M483.47 100.13c3.04-.15 3.75-4.41 5.57-5.57.1 1.75-.59 2.71-1.48 4.11l.22-.13c-1.1 1.76-1.43 2.06-3.13 2.75l-.61-.05z" class="cls-4"/><path d="m230.34 204.46-.23.75-.42-.03c-.65-1.5-.66-3.64.43-4.83v1.62l.5-.65.44-.78.27.26c.12 1.5.32 4.33-.36 5.61-.21-1.13-.08-1.36-.65-1.94Z" class="cls-3"/><path d="m230.63 201.31.44-.78.27.26c.12 1.5.32 4.33-.36 5.61-.21-1.13-.08-1.36-.65-1.94.27-1.87 1.31-1.62.29-3.14Z" class="cls-8"/><path d="m312.21 44.48.14.07v.34c-2.04 2.05-4.51 3.46-6.87 4.82l-.26-.05.12-.55c2-2.26 4.38-3.4 6.86-4.62Z" class="cls-3"/><path d="M337.3 12.61c.93-1 1.47-1.33 1.77-2.73l-.1.11c.37-1.67.75-1.73 1.82-3.06.36.52.8 1.24 1.23 1.62-1.37 1.47-2.78 3.02-4.19 4.42l-.52-.36ZM464.66 59.5c.73.11.48.06 1.27-.36l-.04.53-.52 1.69c-.73 2.81-.39 7.53-.97 8.57-.22-3.41-.63-7.21.25-10.44Zm10.4 102.89 1.1-.74.16.89-.85.7c-.34.61-.39.88-.84 1.26-1.5-.02-3.93 1.12-5.43 1.72 1.85-1.54 3.7-3.13 5.86-3.85ZM208.32 59.49c-1.07 1.67-2.18 3.31-3.31 4.93 1.44-1.14 2.89-2.28 4.34-3.4-1.42 1.55-2.98 3.35-4.47 4.76-.99-.81-.62-.29-1.12-1.66l1.7-1.66c1.02-1.25 1.73-1.9 2.85-2.98Z" class="cls-4"/><path d="M208.32 59.49c-1.07 1.67-2.18 3.31-3.31 4.93l-.29-.09c.52-.88.52-.82.75-1.86 1.02-1.25 1.73-1.9 2.85-2.98" class="cls-8"/><path d="M399.14 53.97c2.53-1.86 3.26-2.42 6.2-2.67l.31.18c-.52.68-5.36 2.63-6.3 2.91zm62.58 30.98.52.46c-.25.65-.15.54-.49.99-.82 1.07-2.3 2.69-3.52 2.73l.37-.85-.1-.04-2.29 1.55c1.77-1.91 3.41-3.55 5.52-4.83ZM203.24 57.11c3.17-2.98 4.74-3.42 8.5-4.67-3.88 3.56-5.57 2.26-8.18 5.39zm-51.07-3.5c2.08-2.03 3.16-2.8 5.48-4.29l.89.35c-.17 1.18-.55 1.08-.87 2.27-.66.46-.71.46-1.44.71.37-1.05 1.11-1.67 1.84-2.47-1.95 1.19-3.92 2.33-5.9 3.42Zm38.67-3.64c3.03-3.16 3.52-3.52 7.28-5.05-2.11 1.93-5.39 4.09-6.89 5.54l-.4-.49Zm300.12 3.26c1.03 1.77 1.66 3.52 2.45 5.47-.99-1.35-1.96-2.71-2.92-4.09l2.1 5.42c-.96-1.37-1.91-2.61-2.69-4.15.34-1.26.65-1.22 1.06-2.65m-63.32 17.88-2.6 1.11-.36-.19-.4.33c.16-.24.32-.49.49-.73-.56.08-1 .13-1.56.16.54-.72 3.35-1.87 4.27-2.3l.15 1.63ZM206.32 85.82c2.83-2.68 3.46-3.46 6.95-4.48-.74 1.43-1.37 1.74-2.71 2.26-.89.28-3.27 1.68-4.23 2.22Zm189.12-38.28c2.22-.54 3.87-.83 6.15-.95-2.25 1.55-3.22 1.47-5.67 2.28z" class="cls-4"/><path d="M368.89 15.77c1.85-2.35 3.79-4.54 5.73-6.78-1.15 2.07-2.62 3.78-3.61 5.7-.91 1.04-.83 1.2-2.12 1.07Z" class="cls-6"/><path d="M195.25 203.19c.99 2.03 1.01 3.62 0 5.64h-.26c-.24-1.9.03-3.13-.22-4.76.25-.19.3-.47.49-.89Zm37.9-117.29c1.8-2.35 3.47-2.65 5.93-3.67-1.87 1.54-3.81 2.7-5.44 4.03zM206.74 4.18c1.3 1.07 2.58 2.15 3.92 3.14-.28 1.17-.01.88-.61 1.42-.12-.2-.34-.5-.41-.7-.91-1.1-1.78-1.89-2.78-2.86l-.11-.99ZM177.91 60.6c-.94 1.04-2.2 2.68-3.41 2.79l.14-.53.53.21-.5-.3c.95-1.36 1.83-1.97 3.02-2.98l.21.81Zm-28.42-20.69 3.47-.88c-1.82 1.28-2.86 2.1-4.98 2.43l-.57-.77c1.03-.2 1.15-.3 2.09-.78Zm96.74 164.89-1.04-.43c.43-.37 2.74-.25 3.47-.26h.33l-.24 1.28c-.32.22-.54.41-.88.55l-.12-.77-1.51-.37Z" class="cls-4"/><path d="m246.23 204.8-1.04-.43c.43-.37 2.74-.25 3.47-.26l-2.42.69Zm1.51.37 1.01.22c-.32.22-.54.41-.88.55l-.12-.77Z" class="cls-7"/><path d="m179.24 65.72.78.21c-2.19 2.52-3 3.23-5.57 4.87 1.54-1.84 3.71-3.32 4.79-5.08" class="cls-4"/><path d="M366.5 10.82c-.58 1.54-2.27 2.89-3.39 3.83v-.27l-.13.24c.99-1.78 2.1-2.65 3.39-4.29z" class="cls-5"/><path d="M366.37 10.33c.74-1.79 1.23-2.37 2.27-3.87l.43 1.32c-.36.58-.16.42-.51.62-.76.84-1.37 1.48-2.05 2.43l-.13-.49Zm-151.14 193.4.05-.63.94-.7c.47 1.19 1.01 3.95-.16 4.62l-.03-.7c-.05-.93-.11-1.22-.28-2.11-.11-.11-.39-.43-.51-.47Z" class="cls-4"/><path d="M149.34 39.05c.62-.37 2.04-1.39 2.55-1.24-.77.76-1.72 1.4-2.39 2.1-.94.48-1.06.58-2.09.78l1.94-1.65Z" class="cls-8"/><path d="M458.21 108.56c1.51-1.94 2.99-2.75 4.9-3.85l.35.51-.16.33c-1.38.4-3.72 2.1-5.09 3.02Z" class="cls-2"/><path d="M395.92 48.87c-.9.23-2.14.8-2.75-.14.63-.88 1.32-.91 2.27-1.18l.48 1.33Z" class="cls-7"/><path d="m234.28 201.11.36.87c.54-.19.3-.23.74.05l.05 2.29-.34.27-.66-.29c-.4-1.12-.26-2-.15-3.18Z" class="cls-4"/><path d="M218.97 70.79c1.05-1.02 1.88-1.92 3.07-2.7l.42.26.36-.61c-.48 1.09-2.58 2.59-3.52 3.36l-.33-.32Z" class="cls-7"/><path d="M67.95 107.79c.27 2.02.06 4.78-.13 6.81l-.51-5.39c.48-.74.34-.51.64-1.42" class="cls-8"/><path d="M85.31 221.42c.52 1.85 1.25 4.03 1.38 5.94-.75-1.57-1.18-3.12-1.71-4.82z" class="cls-7"/><path d="M462.7 158.91c1.52-1.38 2.07-1.93 3.8-2.88l.87.51-.19.31c-1.27.31-3.21 1.41-4.47 2.05Z" class="cls-4"/><path d="M360.48 65.45c1.71 1.25 2.54 1.81 4.04 3.43l-.1.94c-1.23-1.17-2.77-3.03-3.95-4.37Z" class="cls-8"/><path d="m145.37 49.99.44.14c-.52 1.12-1.94 1.94-2.81 2.63h-.28l-.01-.44c.8-1.02 1.67-1.63 2.66-2.32Z" class="cls-4"/><path d="M81.14 4.23c1.59-.19 3.21-.14 4.81-.14l-.25.6.23.4c-.8-.02-3.84-.68-4.79-.86" class="cls-7"/><path d="M321.54 39.64c-.47.91-1.23 2.26-2.07 2.57.16-1.04 1.24-2.31 1.85-3.17l.23.6Zm161.34 193.33c-.87 1.09-1.49 2.06-2.61 2.67l-.08-.36c.84-1.23 1.17-1.5 2.22-2.5l.46.2Z" class="cls-10"/><path d="M467.39 152.58c1.32-.61 2.62-1.34 3.92-2.03l1.03.56c-1.58.61-3.32 1.35-4.95 1.47" class="cls-6"/><path d="M167.43 42.38c1.02-.9 1.97-1.94 3.22-2.06-.78 1.15-1.96 1.7-3.07 2.4z" class="cls-10"/><path d="M481.06 138.98c.84-.49 1.92-1.3 2.77-1.16-.5.91-1.64 1.45-2.48 1.9z" class="cls-4"/><path d="M204.17 1.97c1.25.88 1.52 1.05 2.57 2.22l.11.99c-1.25-1.15-1.8-1.56-2.69-3.21Z" class="cls-2"/><path d="m471.74 123.72.32.07.39.18c-1.04.8-1.74 1.47-2.93 1.81.44-.91 1.41-1.45 2.22-2.05Z" class="cls-1"/><path d="m352.79 20.6-.12 1.38-1.41 1.46-.49-.74z" class="cls-4"/><path d="M176.54 42.94c.78-.7 1.43-1.32 2.29-1.86l.3.22-.15-.31.28.15c-1.08 1.41-1.41 1.32-2.36 2.3z" class="cls-1"/><path d="M119.03 165.93c-.63.75-1.3 1.47-1.94 2.2h.05l-.56.11c.51-.98 1.21-1.81 1.87-2.67l.59.36Z" class="cls-4"/><path d="m294.73 120.55.75 4.97c-.44-.97-.79-1.69-1.11-2.74l.35-2.23Zm-43.18 71.72c1.07-1.32 1.65-1.88 2.87-3.01l.36.63c-.79.85-2.26 1.73-3.23 2.38" class="cls-6"/><path d="m490.64 230.99.34 1.16c-.16.28-1.79 1.88-2.09 2.19l1.76-3.35Z" class="cls-4"/><path d="m243.14 105.53.18.54c-.87.33-1.7.62-2.55 1.04l-.3-.62c.51-.29 2.05-.76 2.67-.97Z" class="cls-8"/><path d="M507.58 124.16c.42.89.79 1.43.74 2.44-.74-.55-.79-1.17-1.27-2.31l.53-.14Z" class="cls-1"/><path d="M207.57 86.95c.99-1.2 1.53-1.79 2.64-2.83l.41.66c-.3.33-2.56 1.83-3.05 2.17" class="cls-4"/><path d="M450.06 84.22c-1.24.56-1.49.7-2.78.87.39-.64 1.51-1.07 2.21-1.44z" class="cls-8"/><path d="m164.29 55.27.2.99c-.73.61-.8.61-1.63.99.13-.91.7-1.2 1.43-1.98m327.13 20.61c-.67-.8-.79-.84-1.19-1.91.64-.16.79.21 1.56.79l-.37 1.11Z" class="cls-4"/><path d="M90.94 227.11c.4 1.08.82 1.66.66 2.58-.73-.92-.76-1.18-1.14-2.36l.49-.22Z" class="cls-8"/><path d="M325.98 47.22c-.76.75-.78.84-1.71 1.28l-.06-.36 1.01-1.38z" class="cls-4"/><path d="M100.98 38.57c.68-.43 1.49-1.15 2.12-1.08-.81.88-.97 1.05-1.88 1.75l-.24-.66Z" class="cls-2"/><path d="m482.41 232.77 1.55-2.19.61.38-1.7 2.01z" class="cls-4"/><path d="M195.73 55.39c.8-.85.95-1.27 1.88-1.48-.38 1-.94 1.44-1.63 2.16z" class="cls-8"/><path d="m305.05 39 .43.07c-.33 1.01-.64 1.55-1.5 1.72.07-.95.33-.92 1.07-1.79" class="cls-5"/><path d="M468.85 136.3c-.54.57-1.56 1.37-2.26 1.24.64-.95 1.23-1.15 2.14-1.65z" class="cls-10"/><path d="M52.78 53.39c.26 1.17.57 1.68.31 2.59-.52-.99-.5-.95-.77-2.08l.46-.52Zm350.86 7.36c-.85.37-1.48.79-2.34.59.71-.78.84-.68 1.79-1.04l.55.46Z" class="cls-2"/><path d="m199.22 49.63.14.41c-.66.6-1.32 1.18-1.96 1.81l-.31-.61c.28-.29 1.74-1.31 2.14-1.6Z" class="cls-1"/><path d="m149.54 197.7.5-.73.05.47c.07.72.16 1.28.27 1.99l-.83.09v-1.81Z" class="cls-4"/><path d="m352.79 20.6.81-.98.2.19c-.4 1.21-.47 1.23-1.14 2.18l.12-1.38Z" class="cls-8"/><path d="m141.21 204.05.67.6c-.08 1.03 0 .66-.43 1.56-.48-.8-.29-.88-.25-2.16Z" class="cls-4"/><path d="M85.26 7.15c-.82-.16-1.49-.13-2.02-.87.79-.34.75-.15 1.7.11l.32.75Z" class="cls-2"/><path d="M358.82 71.62c-.58-.6-.93-1.04-1.46-1.69l.19-.13 1.58.69-.31 1.14Zm129.11 4.91c-.44-.51-.61-.85-.98-1.46.71-.04 1.04.44 1.78 1l-.79.46Z" class="cls-4"/><path d="M199.22 49.63c.7-.5 1.31-1.13 2.06-1.01-.57.82-1.11.99-1.92 1.42z" class="cls-5"/><path d="M473.6 174.99c-.75.53-1.08.87-1.94.88.43-.84.95-.85 1.86-1.32z" class="cls-2"/><path d="m64.08 118.64.59.32c-.25 1.01-.45 1.4-.85 2.31-.26-.62.1-1.73.26-2.63" class="cls-6"/><path d="m468.81 161.29.27 1.09c-.61.29-.81.32-1.44.51l-.04-.37z" class="cls-4"/><path d="m109.24 43.76.73.38c-.43.61-.87 1.12-1.33 1.69l-.17-.24z" class="cls-6"/><path d="M482.36 151.9c.93-.44 1.1-.69 2.03-.59-.84.78-.91.74-1.88 1.13l-.15-.53Z" class="cls-10"/><path d="m299.88 30.31.47.48-1.15 2.09-.4-.19c.29-.74.75-1.65 1.09-2.38Zm163.46 86.59.75.48c-.85.57-.87.66-1.85.78l.03-.39z" class="cls-4"/><path d="m190.8 41.94.35.08-.05.42-1.65 1.05-.43-.12.04-.4 1.74-1.02Z" class="cls-10"/><path d="m473.09 140.98.53.68-1.97.7-.27-.46zm-394.1 85.06c.36 1 .61 1.18.44 2-.58-.67-.57-.65-.97-1.5l.54-.5Z" class="cls-6"/><path d="m224.2 109.09.17.07.13.46c-.86.48-1.22.54-2.12.77l.09-.32z" class="cls-2"/><path d="M226.53 79.87c.83-.94.79-.68 2.07-1.03-1.16 1.11-.6.86-2.07 1.03m172.83-25.48c-.89.44-.83.48-1.78.44.39-.71.68-.57 1.56-.86l.21.42Z" class="cls-5"/><path d="M338.49 75.9c-.92-.16-.99-.12-1.87-.61.7-.41 1.24-.15 2.14-.07l-.28.67Z" class="cls-10"/><path d="M460.64 10.1c-.89.66-.91.68-1.9 1.05l.03-.37 1.25-1.08z" class="cls-8"/><path d="m58.19 120.74.65.08c-.36 1.2-.39 1.25-.92 2.26-.26-.61.08-1.44.27-2.34" class="cls-6"/><path d="M487.97 9.73c-.88.86-.88.86-1.91 1.4.18-.76.79-1.07 1.44-1.68z" class="cls-2"/><path d="m345.02 18.92.05.63c-.58.56-.46.45-1.12.86l-.19-.34c.6-1.05.21-.64 1.26-1.15" class="cls-5"/><path d="M481.08 144.94c.93-.2.94-.41 1.68-.03-.74.68-.77.59-1.69.79v-.76Z" class="cls-4"/><path d="M473.93 125.1c-.71.69-.68.8-1.54.88v-.44l1.07-.73.48.3Z" class="cls-10"/><path d="m475.01 7.62 1.37-1.14.6.49-1.48 1-.5-.35ZM61.16 117.83l.61.69-.38 1.66-.5-.3.27-2.04Zm434.41-64.72.79 1.63-.13.27c-.4-.43-.8-.83-1.18-1.29l.52-.6ZM188.06 93.42c-.55-.68-.54-.71-.92-1.56l.28-.12.99.86-.34.82Z" class="cls-4"/><path d="m298.79 32.69.4.19c-.46 1.04-.47 1.17-1.17 2-.01-.88.35-1.28.77-2.19m38.51-20.08.52.36c-.69.67-.67.66-1.48 1.08l-.05-.35 1-1.08ZM511.32 42.9l1.01 1.13-.15.28c-.47-.29-.88-.52-1.33-.85l.46-.56Z" class="cls-7"/><path d="m488.42 5.8.04.75c-.56.59-.53.62-1.21.91.14-.8.54-.98 1.17-1.66" class="cls-1"/><path d="m136.23 200.89.7.78-.64 1.56-.23-.47z" class="cls-4"/><path d="M366.53 14.37c-.53.64-.56.59-1.21 1.08l-.03-.36 1.01-1.28zm108.98-6.41c-.62.49-.82.53-1.52.84l-.12-.27 1.14-.92z" class="cls-7"/><path d="m489.33 4.96.48.53-1.35 1.07-.04-.75.91-.84Z" class="cls-6"/><path d="M250.6 202.77c-1.03-.21-.91.09-1.31-.58l.97-.39.5.72-.17.25Z" class="cls-4"/><path d="M361.19 26.74c-.25.28-.66.55-.96.78l-.1-.29.8-1.17.26.67Z" class="cls-8"/><path d="m139.13 40.42 1.06-.75.21.23c-.3.33-.62.72-.94 1.01l-.33-.48Z" class="cls-1"/><path d="M346.81 74.11c-.21-.22-.59-.76-.79-1.03l.2-.27 1.01.62-.42.67Z" class="cls-4"/><path d="m496.08 127.2.79-.16-.12 1.71h-.26l-.41-1.54Z" class="cls-6"/><path d="m383.45 149.58.76-1.1.29.13-.2 1.44-.84-.46Z" class="cls-4"/><path d="m118.25 189.59.21-1.18.35-.27c.16.81.14.75-.09 1.53l-.46-.09Z" class="cls-2"/><path d="M299.04 120.57c.12 1.32.31.95-.12 1.67l-.33-.94z" class="cls-10"/><path d="m301.69 112.84.76.71-.26 1.28-.23-.15z" class="cls-7"/><path d="m373.68 12.32.73-.82.2.15c-.34.6-.4.74-.81 1.26l-.12-.6Z" class="cls-8"/><path d="m353.88 21.57.92-.91.23.14c-.17.27-.49.83-.66 1.08z" class="cls-1"/><path d="M488.78 41.59c-.62.4-.39.33-1.05.37l.11-.4.85-.21z" class="cls-5"/><path d="m295.81 30.84.6.25-.81 1.47-.22-.09.43-1.62Z" class="cls-6"/><path d="m167.43 42.38.15.34-.82 1.38-.34-.45 1.01-1.26Z" class="cls-8"/><path d="m238.51 199.96.36.22-.31.91-.34.1-.11-.45z" class="cls-4"/><path d="m305.79 26.51.45.65-.59.62-.26-.15zM156.54 204.5l.3-.08c-.05.62.02.29-.26.97l-.04-.88Z" class="cls-8"/><path d="m169.28 199.47.21-.94.22-.11.09 1.33-.28.05z" class="cls-2"/><path d="m61.39 120.18-.51 1.04-.2-.22.21-1.12z" class="cls-1"/><path d="m243.14 105.53.84-.31.17.28-.83.57z" class="cls-2"/></g></svg>